<svg width="81" height="83" viewBox="0 0 81 83" fill="none" xmlns="http://www.w3.org/2000/svg">
<path fill-rule="evenodd" clip-rule="evenodd" d="M54.9667 1.27692V2.55385H52.0741C50.2529 2.55385 49.1815 2.6129 49.1815 2.71346C49.1815 2.80811 48.5922 2.87308 47.7352 2.87308H46.2889V4.16069V5.44831L45.2042 5.42549C43.1612 5.38255 43.3963 5.00873 43.3963 8.3V11.1731H41.95H40.5037V18.3558V25.5385H39.2181H37.9325V26.8259C37.9325 27.534 37.8509 28.2647 37.7512 28.4497C37.6514 28.6348 37.582 29.3483 37.5968 30.0355L37.6236 31.2846H36.1711H34.7185V32.7212V34.1577H31.8259H28.9333V35.5942V37.0308H27.487H26.0407V38.4673V39.9038H24.5944H23.1481V41.3404V42.7769H21.7018H20.2555V44.2135V45.65H18.8187C18.0284 45.65 17.3372 45.7218 17.2826 45.8096C17.228 45.8974 16.6453 45.9692 15.9875 45.9692H14.7918V47.2462V48.5231H16.0774H17.363V49.9596V51.3962H15.9167H14.4704V52.8265V54.2568L13.0642 54.3029L11.6581 54.349L11.6142 57.176L11.5704 60.0031L10.1679 60.0491L8.76552 60.0952L8.71924 61.4858L8.6728 62.8762L7.27294 62.9223L5.87293 62.9683L5.82649 64.3649L5.78004 65.7615H4.34001H2.89999V68.6346V71.5077H1.44999H0L0.0438702 74.3409L0.0877416 77.174L4.38276 77.2165L8.67778 77.2591L8.72165 80.0896L8.76552 82.9202L14.3799 82.9622C18.0139 82.9895 20.0516 82.9472 20.157 82.8425C20.2547 82.7454 21.4627 82.6808 23.1803 82.6808H26.0407V81.4038V80.1269H28.9333H31.8259V78.6904V77.2538H36.1648H40.5037V78.6904V80.1269H44.8426H49.1815V81.5635V83H56.413H63.6444V81.5635V80.1269H60.7518H57.8593V77.2431V74.3594L58.944 74.3822C60.9484 74.4243 60.7518 74.5806 60.7518 72.9442V71.5077H57.8593H54.9667V70.0737V68.6399L59.2654 68.5973L63.5641 68.5548L63.6105 67.1582L63.657 65.7615H65.097H66.537V64.325V62.8885H67.9833H69.4296V61.4519V60.0154H70.8759H72.3222V49.8892C72.3222 43.3107 72.266 39.7286 72.1615 39.6644C72.0595 39.6017 72.0008 37.5644 72.0008 34.0779C72.0008 30.5914 72.0595 28.5541 72.1615 28.4913C72.2499 28.4371 72.3222 27.7506 72.3222 26.9656V25.5385H76.6611H81V24.1019V22.6654H79.5537H78.1074V21.2288V19.7923H76.6611H75.2148V15.4827C75.2148 12.7161 75.1573 11.1731 75.0541 11.1731C74.9588 11.1731 74.8934 10.5878 74.8934 9.73654V8.3H73.6078H72.3222V6.86346C72.3222 5.23187 72.4918 5.37313 70.5947 5.42389L69.4296 5.45502V4.16405V2.87308H67.9833C67.1263 2.87308 66.537 2.80811 66.537 2.71346C66.537 2.61881 65.9477 2.55385 65.0907 2.55385H63.6444V1.27692V0H59.3055H54.9667V1.27692ZM54.9667 15.4827V19.7923H59.3055H63.6444V18.3558V16.9192H62.1981H60.7518V15.4827V14.0462H62.1981H63.6444V12.6096V11.1731H59.3055H54.9667V15.4827ZM17.363 64.325V65.7615H15.9167H14.4704V68.6346V71.5077H13.0241H11.5778V72.9442V74.3808H10.1315H8.68517V75.8173V77.2538H10.1315H11.5778V75.8173V74.3808H13.0241H14.4704V72.9442V71.5077H15.9167H17.363V70.0712V68.6346H18.8092H20.2555V65.7615V62.8885H18.8092H17.363V64.325ZM49.1815 75.8173V80.1269H50.6278H52.0741V77.2538V74.3808H53.5204H54.9667V72.9442V71.5077H52.0741H49.1815V75.8173ZM40.5037 75.8173V77.2538H41.95H43.3963V75.8173V74.3808H41.95H40.5037V75.8173ZM60.0885 74.9793C59.8887 75.2325 59.8944 75.2381 60.1492 75.0397C60.417 74.831 60.502 74.7 60.3697 74.7C60.3364 74.7 60.2098 74.8258 60.0885 74.9793Z" fill="#8F8D8D"/>
</svg>
