<svg width="105" height="89" viewBox="0 0 105 89" fill="none" xmlns="http://www.w3.org/2000/svg">
<path fill-rule="evenodd" clip-rule="evenodd" d="M103.833 28.1053L102.667 28.1053L102.667 25.7632L102.667 23.4211L101.5 23.4211L100.333 23.4211L100.333 22.25L100.333 21.0789L99.1667 21.0789L98 21.0789L98 19.9079L98 18.7368L96.8333 18.7368L95.6667 18.7368L95.6667 17.5658L95.6667 16.3947L94.5 16.3947L93.3333 16.3947L93.3333 15.2237L93.3333 14.0526L91 14.0526L88.6667 14.0526L88.6667 12.8816L88.6667 11.7105L85.1667 11.7105L81.6667 11.7105L81.6667 10.5395L81.6667 9.36842L77 9.36842L72.3333 9.36842L72.3333 10.4874C72.3333 11.1029 72.421 11.7178 72.5278 11.8537C72.6346 11.9898 72.6113 12.0129 72.4759 11.9057C72.3403 11.7985 71.728 11.7105 71.1148 11.7105L70 11.7105L70 15.2237L70 18.7368L72.3333 18.7368L74.6667 18.7368L74.6667 19.9079L74.6667 21.0789L71.1667 21.0789L67.6667 21.0789L67.6667 19.9079L67.6667 18.7368L66.5143 18.7368L65.3619 18.7368L65.2828 17.5007L65.2037 16.2646L64.1021 16.2646L63.0003 16.2646L63.0003 18.6718L63 21.0789L64.1667 21.0789L65.3333 21.0789L65.3333 22.25L65.3333 23.421L67.6667 23.421L70 23.421L70 24.5921L70 25.7632L68.8333 25.7632L67.6667 25.7632L67.6667 28.1053L67.6667 30.4474L68.8333 30.4474L70 30.4474L70 31.6184L70 32.7895L67.6667 32.7895L65.3333 32.7895L65.3333 31.6184L65.3333 30.4474L63 30.4474L60.6667 30.4474L60.6667 29.2763L60.6667 28.1053L58.3333 28.1053L56 28.1053L56 26.9342L56 25.7632L54.7037 25.7632L53.4074 25.7632L53.3893 24.6572C53.3755 23.8216 53.319 23.6784 53.1585 24.0716C52.9218 24.6522 53.0916 25.9875 53.4629 26.4632C53.5956 26.6336 53.6825 26.985 53.6558 27.2439C53.6288 27.5031 53.6205 28.3298 53.6369 29.0811L53.6667 30.4474L56 30.4474L58.3333 30.4474L58.3333 31.6184L58.3333 32.7895L60.6667 32.7895L63 32.7895L63 33.9605L63 35.1316L67.6667 35.1316L72.3333 35.1316L72.3333 36.3026L72.3333 37.4737L73.5 37.4737L74.6667 37.4737L74.6667 38.6447L74.6667 39.8158L68.8481 39.8158L63.0298 39.8158L62.95 38.7098L62.8704 37.6038L59.5726 37.5309C56.5369 37.4641 56.2323 37.5007 55.7415 37.9934C55.2264 38.5105 55.224 38.55 55.6689 39.1639C56.0959 39.7528 56.2961 39.7999 58.3981 39.8077L60.6667 39.8158L60.6667 40.9868L60.6667 42.1579L64.1667 42.1579L67.6667 42.1579L67.6667 43.3289L67.6667 44.5L68.8333 44.5L70 44.5L70 45.671L70 46.8421L68.8333 46.8421L67.6667 46.8421L67.6667 48.0132L67.6667 49.1842L65.3481 49.1842L63.0298 49.1842L62.95 48.0782L62.8704 46.9722L59.3333 46.8999C56.5927 46.8439 55.7991 46.9027 55.8092 47.1601C55.8494 48.1722 55.7 48.6637 55.3519 48.6637C55.138 48.6637 54.963 48.7881 54.963 48.9404C54.963 49.0923 55.167 49.1962 55.4167 49.1707C55.6663 49.1452 56.9494 49.1379 58.2685 49.1543L60.6667 49.1842L60.6667 50.3553L60.6667 51.5263L64.1667 51.5263L67.6667 51.5263L67.6667 52.6974L67.6667 53.8684L66.5 53.8684L65.3333 53.8684L65.3333 55.0395L65.3333 56.2105L64.1667 56.2105L63 56.2105L63 57.3816L63 58.5526L61.8333 58.5526L60.6667 58.5526L60.6667 60.8947L60.6667 63.2368L59.5 63.2368L58.3333 63.2368L58.3333 64.4079L58.3333 65.5789L57.1667 65.5789C56.4226 65.5789 55.9889 65.6968 55.9691 65.9042C55.9523 66.0833 55.923 66.5223 55.9043 66.8801C55.8857 67.2379 55.7537 67.6168 55.6111 67.722C55.4685 67.8271 56.5478 67.9148 58.0093 67.9171L60.6667 67.921L60.6667 66.75L60.6667 65.5789L61.8333 65.5789L63 65.5789L63 63.2368L63 60.8947L64.1667 60.8947L65.3333 60.8947L65.3333 59.7237L65.3333 58.5526L66.5 58.5526L67.6667 58.5526L67.6667 57.3816L67.6667 56.2105L68.8333 56.2105L70 56.2105L70 55.0395L70 53.8684L71.1667 53.8684L72.3333 53.8684L72.3333 56.2105L72.3333 58.5526L71.1667 58.5526L70 58.5526L70 59.7237L70 60.8947L68.8333 60.8947L67.6667 60.8947L67.6667 62.0658L67.6667 63.2368L66.5 63.2368L65.3333 63.2368L65.3333 65.5641L65.3333 67.8911L64.2315 67.9713L63.1296 68.0512L63.055 70.3077C62.9741 72.7596 63.063 72.9051 64.5556 72.7583C65.1321 72.7018 65.2125 72.5608 65.2828 71.479L65.3619 70.2632L66.5143 70.2632L67.6667 70.2632L67.6667 67.921L67.6667 65.5789L68.8333 65.5789L70 65.5789L70 64.4079L70 63.2368L71.1667 63.2368L72.3333 63.2368L72.3333 65.4275C72.3333 66.6324 72.3725 67.7743 72.4204 67.9648C72.4684 68.1555 72.4586 68.2237 72.3989 68.1162C72.339 68.0087 71.7749 67.921 71.1451 67.921L70 67.921L70 71.449L70 74.977L72.3336 74.8971L74.6672 74.8172L74.6669 76.0534L74.6667 77.2895L79.3333 77.2895L84 77.2895L84 76.1184L84 74.9474L86.3333 74.9474L88.6667 74.9474L88.6667 73.7763L88.6667 72.6053L89.8585 72.6053L91.05 72.6053L90.9603 71.3691L90.8704 70.133L92.1018 70.2233L93.3333 70.3134L93.3333 69.1173L93.3333 67.9211L94.5 67.9211L95.6667 67.9211L95.6667 66.75L95.6667 65.5789L96.8333 65.5789L98 65.5789L98 64.4079L98 63.2368L99.1667 63.2368L100.333 63.2368L100.333 60.8947L100.333 58.5526L101.5 58.5526L102.667 58.5526L102.667 56.2105L102.667 53.8684L103.833 53.8684L105 53.8684L105 40.9868L105 28.1053L103.833 28.1053ZM102.407 28.3655C102.265 28.3655 102.148 28.4826 102.148 28.6257C102.148 28.7689 102.265 28.886 102.407 28.886C102.55 28.886 102.667 28.7689 102.667 28.6257C102.667 28.4826 102.55 28.3655 102.407 28.3655ZM102.493 37.9291C102.4 37.5877 102.098 37.4739 101.287 37.4742L100.204 37.475L100.287 35.1321L100.37 32.7895L99.1851 32.7895L98 32.7895L98 30.4276L98 28.066L96.7779 28.1414L95.5554 28.2169L95.6306 26.9899L95.7058 25.7632L93.353 25.7632L91 25.7632L91 24.602L91 23.4406L88.6019 23.3659L86.2037 23.2909L86.2639 22.1849L86.324 21.0789L85.0749 21.0789L83.8258 21.0789L83.93 19.9079L84.0345 18.7368L81.6838 18.7368L79.3333 18.7368L79.3333 17.5921L79.3333 16.447L78.1584 16.3534L76.9834 16.2597L77.0249 18.7342C77.0474 20.0955 77.0513 21.736 77.0334 22.3801L77.0008 23.5512L75.8984 23.5512L74.7963 23.5512L74.8453 24.6572L74.8946 25.7632L73.6037 25.7632L72.3131 25.7632L72.388 28.0402L72.463 30.3172L73.4341 30.3378C73.9682 30.349 74.4808 30.4341 74.5731 30.527C74.6654 30.6196 74.7167 31.703 74.6871 32.9347L74.6335 35.1737L75.7519 35.0925L76.8704 35.0113L76.9259 36.1775C77.1213 40.2759 77.1037 42.1608 76.8704 42.1834C76.7278 42.1972 76.1683 42.1876 75.6272 42.1623L74.6431 42.1165L74.7198 47.9273L74.7963 53.7383L75.8981 53.7159L77 53.6933L77.0111 55.0171C77.0171 55.745 77.0464 58.917 77.076 62.0658L77.1296 67.7909L81.6667 67.7909L86.2037 67.7909L86.2361 67.0102C86.254 66.5808 86.283 66.0833 86.3009 65.9042C86.3219 65.6942 86.7702 65.5789 87.5666 65.5789L88.7999 65.5789L88.7074 64.4079L88.6146 63.2368L90.9738 63.2368L93.3333 63.2368L93.3333 62.0658L93.3333 60.8947L94.5 60.8947L95.6667 60.8947L95.6667 59.6568L95.6667 58.4189L96.8333 58.5118C97.8636 58.5943 98 58.5433 98 58.0764C98 57.7352 97.7934 57.508 97.4167 57.4352L96.8333 57.3222L97.4167 57.2868C97.8253 57.2621 98 57.0878 98 56.7047C98 56.216 98.1244 56.1681 99.1755 56.2519L100.351 56.3458L100.294 55.2422C100.225 53.9056 100.314 53.8013 101.559 53.7661L102.537 53.7383L102.576 46.0614C102.598 41.8391 102.56 38.1797 102.493 37.9291ZM102.218 32.9846C102.163 33.5931 102.163 34.5882 102.218 35.1966C102.272 35.8051 102.317 35.3072 102.317 34.0906C102.317 32.8741 102.272 32.3762 102.218 32.9846ZM98.0822 34.8227C98.0073 35.0103 98.0166 35.2349 98.1027 35.3213C98.1887 35.4077 98.2499 35.2542 98.2388 34.9799C98.2263 34.6767 98.1649 34.615 98.0822 34.8227ZM97.7407 41.3811C97.5269 41.3608 96.9726 41.3064 96.5093 41.2606C95.8396 41.1945 95.6667 41.2736 95.6667 41.6468C95.6667 42.0608 95.781 42.0861 96.6389 41.8612C97.9992 41.505 98.1861 41.4238 97.7407 41.3811ZM96.963 48.9948C96.3213 48.9948 96.0589 49.0455 96.3796 49.1077C96.7003 49.1696 97.2256 49.1696 97.5463 49.1077C97.867 49.0455 97.6046 48.9948 96.963 48.9948ZM96.963 53.9634C95.8585 53.9967 95.7937 54.0402 95.7499 54.7792C95.7242 55.2086 95.7605 55.3619 95.8308 55.1199C95.9062 54.8589 96.2943 54.6374 96.7846 54.576L97.6111 54.4722L96.7037 54.3915C95.8056 54.3116 95.8082 54.3087 96.963 54.1195L98.1296 53.9285L96.963 53.9634ZM95.7543 47.0373C95.6822 47.2163 95.6822 47.5091 95.7543 47.6879C95.8261 47.8669 95.885 47.7204 95.885 47.3626C95.885 47.0047 95.8261 46.8585 95.7543 47.0373ZM95.6882 56.4708C95.5575 56.4708 95.3913 56.6173 95.319 56.7961C95.2202 57.0409 95.1196 57.0248 94.9125 56.731C94.5801 56.2592 94.5412 56.7081 94.8694 57.2286C95.0662 57.5408 95.1632 57.5338 95.5134 57.1822C95.9786 56.7151 96.0387 56.4708 95.6882 56.4708ZM94.8889 29.1462C94.7463 29.1462 94.6296 29.2633 94.6296 29.4064C94.6296 29.5496 94.7463 29.6667 94.8889 29.6667C95.0315 29.6667 95.1481 29.5496 95.1481 29.4064C95.1481 29.2633 95.0315 29.1462 94.8889 29.1462ZM94.6944 36.9714C94.3737 36.9615 94.1248 36.8653 94.1417 36.758C94.2239 36.2365 94.0725 36.1741 93.6802 36.5678C93.316 36.9334 93.3058 37.0365 93.6154 37.233C94.0453 37.5062 94.0818 37.5057 94.7593 37.2134C95.2539 37.0001 95.2511 36.9889 94.6944 36.9714ZM93.6802 33.2449C93.6081 33.4239 93.6081 33.7167 93.6802 33.8955C93.752 34.0745 93.8109 33.928 93.8109 33.5702C93.8109 33.2124 93.752 33.0661 93.6802 33.2449ZM92.8148 42.1579C92.3627 42.1579 92.302 42.3161 92.3417 43.394L92.3868 44.6301L92.4861 43.5241C92.5874 42.3963 92.9408 42.0522 93.1547 42.8735C93.2439 43.2163 93.2807 43.184 93.3033 42.7434C93.325 42.3213 93.1887 42.1579 92.8148 42.1579ZM93.1563 43.9309C93.0813 44.1185 93.0907 44.3431 93.1767 44.4295C93.2628 44.5159 93.324 44.3623 93.3128 44.0881C93.3004 43.7849 93.239 43.7232 93.1563 43.9309ZM92.8148 48.1433C92.5296 48.1433 92.2963 48.1883 92.2963 48.2429C92.2963 48.2979 92.5296 48.404 92.8148 48.479C93.1 48.5537 93.3333 48.5089 93.3333 48.379C93.3333 48.2495 93.1 48.1433 92.8148 48.1433ZM93.1604 48.8373C93.0655 48.7418 92.6084 48.6637 92.1451 48.6637C91.6816 48.6637 91.2437 48.5175 91.1716 48.3384C91.0998 48.1597 91.0316 48.2765 91.0205 48.5987C91.0021 49.1223 91.1237 49.1842 92.1667 49.1842C93.3536 49.1842 93.4669 49.1446 93.1604 48.8373ZM92.5327 46.8421C92.4026 46.8421 92.2963 47.0958 92.2963 47.406C92.2963 47.716 92.3774 47.8882 92.4767 47.7888C92.7567 47.5075 92.7961 46.8421 92.5327 46.8421ZM92.2753 32.269C92.1044 32.269 91.8097 32.0642 91.6201 31.8136C91.3049 31.3967 91.2751 31.4139 91.2676 32.0184C91.2616 32.4931 91.4037 32.6895 91.7726 32.7176C92.0549 32.739 92.3536 32.6466 92.436 32.5126C92.5187 32.3786 92.4464 32.269 92.2753 32.269ZM92.3824 56.489C92.2157 56.4791 91.895 56.3997 91.6694 56.3128C91.4003 56.2092 91.2593 56.2985 91.2593 56.573C91.2593 57.0357 91.4021 57.0607 92.1667 56.731C92.4518 56.6079 92.5488 56.4991 92.3824 56.489ZM91.8537 40.483C91.4843 40.342 91.4545 40.3716 91.7086 40.6288C91.8846 40.8068 92.0938 40.8867 92.1734 40.8065C92.2533 40.7263 92.1094 40.5809 91.8537 40.483ZM91.8641 42.3315C91.587 42.053 90.9533 42.1319 91.1322 42.4223C91.2219 42.5678 91.3948 42.625 91.5167 42.5493C91.6388 42.4736 91.792 42.6182 91.8576 42.8704C91.9523 43.2342 91.9831 43.2439 92.007 42.917C92.0236 42.6903 91.9593 42.4267 91.8641 42.3315ZM91.3674 58.5732C91.0653 58.5857 91.0039 58.6474 91.2105 58.7304C91.3977 58.8056 91.6214 58.7962 91.7075 58.7098C91.7936 58.6234 91.6406 58.562 91.3674 58.5732ZM90.1359 35.2726C89.1009 35.3512 88.7221 35.5344 89.006 35.8194C89.0978 35.9112 89.3213 35.8631 89.503 35.7122C89.6848 35.5612 90.125 35.3837 90.4815 35.3176C90.838 35.2515 90.6824 35.2313 90.1359 35.2726ZM91.0822 47.0537C91.0073 47.2413 91.0166 47.4659 91.1027 47.5523C91.1887 47.6387 91.2499 47.4851 91.2388 47.2109C91.2263 46.9077 91.1649 46.846 91.0822 47.0537ZM90.7407 35.652C90.5981 35.652 90.4815 35.8347 90.4815 36.0578C90.4815 36.2808 90.5981 36.3911 90.7407 36.3026C90.8833 36.2141 91 36.0317 91 35.8969C91 35.7621 90.8833 35.652 90.7407 35.652ZM90.2222 29.968C89.8657 29.968 89.7198 30.0271 89.8981 30.0992C90.0763 30.1715 90.3679 30.1715 90.5463 30.0992C90.7244 30.0271 90.5787 29.968 90.2222 29.968ZM89.5266 36.3841C89.4517 36.5717 89.461 36.7963 89.5471 36.8827C89.6332 36.9691 89.6944 36.8156 89.6832 36.5413C89.6708 36.2381 89.6093 36.1764 89.5266 36.3841ZM89.1852 58.8129C88.6384 58.8129 88.4875 59.1915 88.9259 59.4634C89.0685 59.5519 89.1852 59.4934 89.1852 59.3333C89.1852 59.1733 89.3018 59.1147 89.4444 59.2032C89.587 59.2917 89.7037 59.2399 89.7037 59.0884C89.7037 58.937 89.4704 58.8129 89.1852 58.8129ZM86.2037 27.9343C85.063 27.9351 84.6284 27.9809 85.2382 28.0358C85.848 28.0909 86.7813 28.0902 87.3123 28.0342C87.8433 27.9783 87.3444 27.9332 86.2037 27.9343ZM87.1759 60.9249C86.6426 60.8973 86.5965 61.0009 86.638 62.1308L86.6831 63.367L86.7816 62.2774C86.8493 61.5279 87.0173 61.1513 87.3196 61.0714C87.6335 60.9884 87.5923 60.9465 87.1759 60.9249ZM87.3704 64.7982C87.2278 64.7982 87.1111 64.9154 87.1111 65.0585C87.1111 65.2016 87.2278 65.3187 87.3704 65.3187C87.513 65.3187 87.6296 65.2016 87.6296 65.0585C87.6296 64.9154 87.513 64.7982 87.3704 64.7982ZM85.8462 31.2281C85.7007 32.0335 85.5996 32.1303 84.9704 32.0639C84.204 31.9833 83.9974 32.3726 84.6694 32.6315C85.7329 33.0411 85.9896 32.8332 86.0002 31.5534C86.0093 30.4344 85.9947 30.4036 85.8462 31.2281ZM85.8941 40.5965C85.8177 40.8112 85.5908 41.1188 85.3901 41.2801C85.086 41.5245 85.1127 41.5966 85.5496 41.7113C85.9968 41.8287 86.071 41.7282 86.0536 41.0274C86.0424 40.5757 85.9706 40.3818 85.8941 40.5965ZM85.1171 39.8197C84.8047 39.8176 84.477 39.9329 84.3889 40.076C84.1849 40.4073 84.7856 40.4073 85.2963 40.076C85.6123 39.871 85.5789 39.8231 85.1171 39.8197ZM84.7778 40.6569C84.2787 40.6569 84.0744 40.7105 84.3241 40.7758C84.5737 40.8414 84.9818 40.8414 85.2315 40.7758C85.4811 40.7105 85.2768 40.6569 84.7778 40.6569ZM84.2593 30.1871C84.069 29.8918 84.007 30.0063 84.0039 30.6579C84.0016 31.1667 84.106 31.4532 84.2593 31.3582C84.5849 31.1562 84.5849 30.693 84.2593 30.1871ZM84.0822 66.0286C83.6132 65.7562 81.4074 65.5594 81.4074 65.79C81.4074 65.9238 82.02 66.0937 82.7685 66.1679C84.1224 66.3019 84.4861 66.2634 84.0822 66.0286ZM82.963 25.2427C82.8204 25.2427 82.7037 25.3598 82.7037 25.5029C82.7037 25.6461 82.8204 25.7632 82.963 25.7632C83.1056 25.7632 83.2222 25.6461 83.2222 25.5029C83.2222 25.3598 83.1056 25.2427 82.963 25.2427ZM81.2778 66.4403C80.4222 66.4416 80.1036 66.4903 80.5695 66.5483C81.0354 66.6061 81.7354 66.605 82.125 66.5457C82.5147 66.4861 82.1333 66.4388 81.2778 66.4403ZM82.202 24.462L82.0281 23.5512L81.9054 24.6572C81.8178 25.4451 81.8777 25.7632 82.1136 25.7632C82.2956 25.7632 82.4291 25.6752 82.4102 25.568C82.3916 25.4608 82.298 24.9629 82.202 24.462ZM81.4761 28.5414C81.3633 28.7095 80.8059 28.8948 80.2374 28.9528L79.2037 29.0588L80.3056 29.1025C81.2088 29.1384 81.4074 29.2373 81.4074 29.6518C81.4074 30.056 81.1865 30.1791 80.3056 30.2657L79.2037 30.3745L80.3704 30.3459L81.537 30.3173L81.6091 29.2763C81.6488 28.7038 81.5889 28.373 81.4761 28.5414ZM81.4896 34.5624C81.4147 34.7501 81.424 34.9747 81.5101 35.0611C81.5961 35.1475 81.6573 34.9939 81.6462 34.7196C81.6337 34.4165 81.5723 34.3548 81.4896 34.5624ZM80.1225 32.9896C79.4845 32.8098 79.115 32.9172 79.3974 33.2009C79.4803 33.2839 79.8205 33.311 80.1536 33.2605L80.7593 33.1692L80.1225 32.9896ZM79.8519 29.7078C79.4954 29.7078 79.3494 29.7669 79.5278 29.8389C79.7059 29.9113 79.9976 29.9113 80.1759 29.8389C80.354 29.7669 80.2083 29.7078 79.8519 29.7078ZM79.0741 25.7632C78.9315 25.7632 78.8148 25.8732 78.8148 26.008C78.8148 26.1428 78.9315 26.3253 79.0741 26.4137C79.2167 26.5022 79.3333 26.3919 79.3333 26.1689C79.3333 25.9458 79.2167 25.7632 79.0741 25.7632ZM78.3111 27.845C77.2945 27.845 77.2886 27.839 77.2056 26.739L77.1221 25.633L76.9943 26.8691L76.8667 28.1053L78.1 28.1053C78.7783 28.1053 79.3333 28.0467 79.3333 27.9751C79.3333 27.9036 78.8734 27.845 78.3111 27.845ZM78.2315 41.3486C77.2709 41.4488 77.2129 41.488 77.7778 41.6546C78.7998 41.956 79.3333 41.9255 79.3333 41.5656C79.3333 41.3301 79.0121 41.2669 78.2315 41.3486ZM78.4259 53.934C77.8556 53.9369 77.6528 53.9902 77.9753 54.0524C78.2978 54.1146 78.7645 54.1123 79.0124 54.0472C79.2602 53.9821 78.9963 53.9311 78.4259 53.934ZM78.8148 54.43C78.4583 54.43 78.3124 54.4891 78.4907 54.5612C78.6688 54.6335 78.9605 54.6335 79.1389 54.5612C79.317 54.4891 79.1713 54.43 78.8148 54.43ZM76.7407 30.7076C76.5981 30.7076 76.4815 30.8903 76.4815 31.1133C76.4815 31.3363 76.5981 31.4467 76.7407 31.3582C76.8833 31.2697 77 31.0873 77 30.9525C77 30.8177 76.8833 30.7076 76.7407 30.7076ZM76.7407 48.6637L76.5917 44.3699L76.5364 48.8743C76.5004 51.8245 76.5709 53.3232 76.7407 53.2178C76.8833 53.1294 76.9751 53.0346 76.945 53.0073C76.9147 52.98 76.8227 51.0254 76.7407 48.6637ZM75.963 30.4474C75.8204 30.4474 75.7037 30.5645 75.7037 30.7076C75.7037 30.8507 75.8204 30.9678 75.963 30.9678C76.1056 30.9678 76.2222 30.8507 76.2222 30.7076C76.2222 30.5645 76.1056 30.4474 75.963 30.4474ZM76.0293 45.853C75.9819 47.0982 75.9816 49.2061 76.0288 50.5372C76.076 51.8685 76.1149 50.8497 76.1151 48.2734C76.1154 45.6971 76.0768 44.608 76.0293 45.853ZM75.4691 58.6981C75.3428 58.6198 75.1663 58.7473 75.0766 58.9817C74.8621 59.5426 74.9793 59.6243 75.377 59.1907C75.5539 58.9981 75.5953 58.7764 75.4691 58.6981ZM74.4354 27.0643C74.3169 27.279 74.305 28.0402 74.4087 28.7558L74.5974 30.057L74.6241 28.3655C74.6402 27.3415 74.5658 26.828 74.4354 27.0643ZM73.7059 27.78C73.6441 28.1021 73.6441 28.6289 73.7059 28.951C73.7678 29.2732 73.8184 29.0096 73.8184 28.3655C73.8184 27.7214 73.7678 27.4578 73.7059 27.78ZM73.2192 34.8919C72.9172 34.9044 72.8557 34.9661 73.0624 35.0491C73.2496 35.1243 73.4733 35.1149 73.5594 35.0285C73.6454 34.9421 73.4925 34.8807 73.2192 34.8919ZM73.1933 28.5771C73.1184 28.7647 73.1277 28.9893 73.2138 29.0757C73.2999 29.1621 73.361 29.0085 73.3499 28.7342C73.3374 28.4311 73.276 28.3694 73.1933 28.5771ZM70.7931 29.9269C70.6588 29.9269 70.4778 30.0427 70.3907 30.1843C70.3 30.3316 70.4039 30.3753 70.6347 30.2865C71.0837 30.1135 71.1659 29.9269 70.7931 29.9269ZM64.9291 74.6871C64.6911 74.6871 64.5924 74.5534 64.6891 74.3618C64.7793 74.1831 64.686 74.2416 64.4814 74.492C64.2769 74.7423 63.86 74.9474 63.5548 74.9474C63.0153 74.9474 63 75.0444 63 78.4605L63 81.9737L61.8333 81.9737L60.6667 81.9737L60.6667 83.1447L60.6667 84.3158L58.3333 84.3158L56 84.3158L56 85.4868L56 86.6579L53.6667 86.6579L51.3333 86.6579L51.3333 84.3158L51.3333 81.9737L52.5 81.9737L53.6667 81.9737L53.6667 80.8026L53.6667 79.6316L52.5 79.6316L51.3333 79.6316L51.3333 80.8026L51.3333 81.9737L50.1667 81.9737L49 81.9737L49 84.3158L49 86.6579L50.1667 86.6579L51.3333 86.6579L51.3333 87.8289L51.3333 89L54.8333 89L58.3333 89L58.3333 87.8391L58.3333 86.6782L60.6018 86.603L62.8704 86.5278L62.9453 84.2507L63.0202 81.9737L64.1768 81.9737L65.3333 81.9737L65.3333 78.3304C65.3333 75.2042 65.276 74.6871 64.9291 74.6871ZM64.4259 15.2596C64.212 15.3421 64.037 15.4431 64.037 15.4839C64.037 15.5248 64.212 15.6257 64.4259 15.7082C64.6606 15.7985 64.8148 15.7095 64.8148 15.4839C64.8148 15.2583 64.6606 15.1693 64.4259 15.2596ZM62.8271 9.542C62.7322 9.44649 62.2072 9.36842 61.6604 9.36842L60.6667 9.36842L60.6667 5.85526L60.6667 2.3421L59.5 2.3421L58.3333 2.3421L58.3333 1.17105L58.3333 -2.03986e-06L54.8333 -2.19285e-06L51.3333 -2.34584e-06L51.3333 2.3421L51.3333 4.68421L52.5 4.68421L53.6667 4.68421L53.6667 3.51316L53.6667 2.3421L54.8333 2.3421L56 2.3421L56 3.51316L56 4.68421L57.1591 4.68421L58.3183 4.68421L58.3906 8.13231L58.463 11.5804L60.732 11.7105L63.001 11.8406L63.0005 10.7781C63.0003 10.1936 62.9222 9.63724 62.8271 9.542ZM62.5958 15.3538C62.3736 15.3538 62.2637 15.4709 62.3519 15.614C62.44 15.7572 62.6217 15.8743 62.756 15.8743C62.8903 15.8743 63 15.7572 63 15.614C63 15.4709 62.818 15.3538 62.5958 15.3538ZM54.963 66.9212C54.6065 66.9212 54.4605 66.9803 54.6389 67.0524C54.817 67.1247 55.1087 67.1247 55.287 67.0524C55.4651 66.9803 55.3194 66.9212 54.963 66.9212ZM54.7859 38.466C54.711 38.6536 54.7203 38.8782 54.8064 38.9646C54.8924 39.051 54.9536 38.8974 54.9425 38.6231C54.93 38.32 54.8686 38.2583 54.7859 38.466ZM53.7748 49.9855C53.4727 49.998 53.4113 50.0596 53.6179 50.1427C53.8051 50.2179 54.0289 50.2085 54.1149 50.1221C54.201 50.0357 54.048 49.9743 53.7748 49.9855ZM53.6514 50.4854C53.5005 50.4854 53.4489 50.6025 53.537 50.7456C53.6252 50.8887 53.7486 51.0058 53.8116 51.0058C53.8746 51.0058 53.9259 50.8887 53.9259 50.7456C53.9259 50.6025 53.8023 50.4854 53.6514 50.4854ZM53.4722 51.4443C53.3654 51.3824 52.9861 51.3657 52.6296 51.4074C52.2731 51.449 51.3108 51.4927 50.4907 51.5047L49 51.5263L49 52.6974L49 53.8684L47.8333 53.8684L46.6667 53.8684L46.6667 55.0395L46.6667 56.2105L43.1667 56.2105L39.6667 56.2105L39.6667 57.3816L39.6667 58.5526L37.3333 58.5526L35 58.5526L35 57.3816L35 56.2105L33.8333 56.2105L32.6667 56.2105L32.6667 53.8684L32.6667 51.5263L30.3333 51.5263L28 51.5263L28 52.6974L28 53.8684L29.1667 53.8684L30.3333 53.8684L30.3333 56.2105L30.3333 58.5526L31.5 58.5526L32.6667 58.5526L32.6667 59.7237L32.6667 60.8947L37.3333 60.8947L42 60.8947L42 59.7237L42 58.5526L45.5 58.5526L49 58.5526L49 57.3816L49 56.2105L50.1667 56.2105L51.3333 56.2105L51.3333 55.0395L51.3333 53.8684L52.5 53.8684L53.6667 53.8684L53.6667 52.7127C53.6667 52.077 53.579 51.5063 53.4722 51.4443ZM52.997 38.7954C52.695 38.8079 52.6335 38.8696 52.8401 38.9526C53.0273 39.0278 53.2511 39.0184 53.3371 38.932C53.4232 38.8456 53.2703 38.7842 52.997 38.7954ZM52.7261 39.5595C52.5653 39.5574 52.2998 39.7174 52.1363 39.9155C51.9063 40.1936 51.9314 40.3113 52.2475 40.4331C52.5062 40.5325 52.5918 40.4851 52.4803 40.3042C52.3833 40.1468 52.4647 39.9157 52.6613 39.7908C52.8679 39.6594 52.8951 39.5618 52.7261 39.5595ZM49.056 68.3765C48.972 67.97 48.5875 67.921 45.4811 67.921L42 67.921L42 66.75L42 65.5789L36.1667 65.5789L30.3333 65.5789L30.3333 69.0921L30.3333 72.6053L26.8333 72.6053L23.3333 72.6053L23.3333 71.4342L23.3333 70.2631L22.1667 70.2631L21 70.2631L21 67.921L21 65.5789L19.8333 65.5789L18.6667 65.5789L18.6667 64.4079L18.6667 63.2368L15.1667 63.2368L11.6667 63.2368L11.6667 64.4079L11.6667 65.5789L10.5 65.5789L9.33333 65.5789L9.33333 66.75L9.33333 67.921L11.6667 67.921L14 67.921L14 66.75L14 65.5789L15.1667 65.5789L16.3333 65.5789L16.3333 67.921L16.3333 70.2631L17.5 70.2631L18.6667 70.2631L18.6667 72.6053L18.6667 74.9474L19.8333 74.9474L21 74.9474L21 76.1184L21 77.2895L26.8333 77.2895L32.6667 77.2895L32.6667 74.9474L32.6667 72.6053L33.8333 72.6053L35 72.6053L35 70.2632L35 67.921L37.3186 67.921L39.6369 67.921L39.7167 69.027L39.7963 70.133L44.3981 70.2041C46.929 70.2431 49.0099 70.1846 49.0215 70.074C49.1325 69.0424 49.1379 68.7725 49.056 68.3765ZM47.4444 43.0687C47.3019 43.1572 47.1852 43.2811 47.1852 43.3443C47.1852 43.4075 47.3019 43.4591 47.4444 43.4591C47.587 43.4591 47.7037 43.3349 47.7037 43.1835C47.7037 43.032 47.587 42.9802 47.4444 43.0687ZM35.5032 25.7632C35.3523 25.7632 35.3007 25.8803 35.3889 26.0234C35.477 26.1665 35.6004 26.2836 35.6634 26.2836C35.7264 26.2836 35.7778 26.1665 35.7778 26.0234C35.7778 25.8803 35.6541 25.7632 35.5032 25.7632ZM32.7362 26.8691L32.6369 25.7632L30.3333 25.7632L28.0298 25.7632L27.95 24.6572C27.8709 23.559 27.8626 23.5506 26.7828 23.4718C25.7053 23.3932 25.6944 23.3823 25.6161 22.3007C25.5376 21.2169 25.5293 21.2085 24.4352 21.1292L23.3333 21.049L23.3333 16.3799L23.3333 11.7105L22.1814 11.7105L21.0298 11.7105L20.95 10.6045C20.8706 9.504 20.8649 9.49827 19.7685 9.41864L18.6667 9.33849L18.6667 8.18253L18.6667 7.02631L14 7.02631L9.33334 7.02631L9.33334 8.19736L9.33334 9.36842L8.16667 9.36842L7 9.36842L7 10.5395L7 11.7105L5.83334 11.7105L4.66667 11.7105L4.66667 14.0526L4.66667 16.3947L5.83334 16.3947L7 16.3947L7 15.2237L7 14.0526L8.16667 14.0526L9.33334 14.0526L9.33334 12.8816L9.33334 11.7105L10.5 11.7105L11.6667 11.7105L11.6667 10.5395L11.6667 9.36842L14 9.36842L16.3333 9.36842L16.3333 10.5395L16.3333 11.7105L17.4852 11.7105L18.6369 11.7105L18.7167 12.8165C18.796 13.917 18.8017 13.9228 19.8981 14.0024L21 14.0826L21 18.7517L21 23.421L22.1667 23.421L23.3333 23.421L23.3333 25.7632L23.3333 28.1053L28.1296 28.1053C30.7676 28.1053 32.9054 28.0759 32.8806 28.0402C32.8557 28.0045 32.7906 27.4776 32.7362 26.8691ZM32.0986 40.0799C31.8575 40.0778 31.5881 40.1931 31.5 40.3363C31.2973 40.6657 31.6405 40.6657 32.1481 40.3363C32.4834 40.119 32.4764 40.0836 32.0986 40.0799ZM31.7377 40.8773C31.4357 40.8898 31.3743 40.9514 31.5809 41.0345C31.7681 41.1097 31.9918 41.1003 32.0779 41.0139C32.164 40.9275 32.011 40.8661 31.7377 40.8773ZM28.0148 37.4737L25.6965 37.4737L25.6166 36.3677L25.537 35.2617L20.9352 35.1906L16.3333 35.1196L16.3333 36.2966L16.3333 37.4737L15.1667 37.4737L14 37.4737L14 38.6447L14 39.8158L12.8333 39.8158L11.6667 39.8158L11.6667 46.8421L11.6667 53.8684L10.5 53.8684L9.33333 53.8684L9.33333 56.2105L9.33333 58.5526L7 58.5526L4.66667 58.5526L4.66667 56.2105L4.66667 53.8684L3.5 53.8684L2.33333 53.8684L2.33333 51.5263L2.33333 49.1842L1.16667 49.1842L-2.14991e-06 49.1842L-2.30347e-06 52.6974L-2.45704e-06 56.2105L1.16667 56.2105L2.33333 56.2105L2.33333 58.5526L2.33333 60.8947L7 60.8947L11.6667 60.8947L11.6667 59.7237L11.6667 58.5526L12.8333 58.5526L14 58.5526L14 50.3553L14 42.1579L15.1667 42.1579L16.3333 42.1579L16.3333 40.9868L16.3333 39.8158L17.5 39.8158L18.6667 39.8158L18.6667 38.6447L18.6667 37.4737L21 37.4737L23.3333 37.4737L23.3333 38.6447L23.3333 39.8158L26.1204 39.8566C27.6534 39.879 29.2284 39.9201 29.6204 39.9477C30.3072 39.9966 30.3333 39.9519 30.3333 38.7361L30.3333 37.4737L28.0148 37.4737Z" fill="#8F8D8D"/>
</svg>
