<svg width="107" height="114" viewBox="0 0 107 114" fill="none" xmlns="http://www.w3.org/2000/svg">
<path fill-rule="evenodd" clip-rule="evenodd" d="M64.5397 1.70149C64.5397 3.11926 64.3983 3.40299 63.6905 3.40299C62.9827 3.40299 62.8413 3.68671 62.8413 5.10448C62.8413 6.52225 62.6999 6.80597 61.9921 6.80597C61.4261 6.80597 61.1429 7.08969 61.1429 7.65672C61.1429 8.22374 60.8596 8.50746 60.2936 8.50746C59.5858 8.50746 59.4444 8.79119 59.4444 10.209C59.4444 11.6267 59.5858 11.9104 60.2936 11.9104C60.8596 11.9104 61.1429 12.1942 61.1429 12.7612C61.1429 13.4703 60.8596 13.6119 59.4444 13.6119C58.0292 13.6119 57.746 13.4703 57.746 12.7612C57.746 12.1942 57.4628 11.9104 56.8968 11.9104C56.1041 11.9104 56.0476 11.6267 56.0476 7.65672V3.40299H54.3492H52.6508V5.10448C52.6508 6.52225 52.5094 6.80597 51.8016 6.80597C51.2356 6.80597 50.9524 7.08969 50.9524 7.65672C50.9524 8.22374 50.6692 8.50746 50.1032 8.50746C49.5372 8.50746 49.254 8.79119 49.254 9.35821C49.254 9.92523 49.5372 10.209 50.1032 10.209C50.6692 10.209 50.9524 10.4927 50.9524 11.0597C50.9524 11.6267 50.6692 11.9104 50.1032 11.9104C49.3954 11.9104 49.254 12.1942 49.254 13.6119C49.254 15.0297 49.3954 15.3134 50.1032 15.3134C50.6692 15.3134 50.9524 15.0297 50.9524 14.4627C50.9524 13.8957 51.2356 13.6119 51.8016 13.6119C52.3676 13.6119 52.6508 13.3282 52.6508 12.7612C52.6508 12.0521 52.934 11.9104 54.3492 11.9104C55.7644 11.9104 56.0476 12.0521 56.0476 12.7612C56.0476 13.3282 55.7644 13.6119 55.1984 13.6119C54.4906 13.6119 54.3492 13.8957 54.3492 15.3134V17.0149H52.6508C51.2356 17.0149 50.9524 17.1566 50.9524 17.8657C50.9524 18.4327 50.6692 18.7164 50.1032 18.7164C49.5372 18.7164 49.254 19.0001 49.254 19.5672C49.254 20.1342 49.5372 20.4179 50.1032 20.4179C50.6692 20.4179 50.9524 20.7016 50.9524 21.2687C50.9524 21.9778 51.2356 22.1194 52.6508 22.1194H54.3492V23.8209C54.3492 25.2387 54.4906 25.5224 55.1984 25.5224C55.7644 25.5224 56.0476 25.8061 56.0476 26.3731C56.0476 26.9402 56.3308 27.2239 56.8968 27.2239C57.4628 27.2239 57.746 26.9402 57.746 26.3731C57.746 25.8061 58.0292 25.5224 58.5952 25.5224C59.1612 25.5224 59.4444 25.2387 59.4444 24.6716C59.4444 24.1046 59.7277 23.8209 60.2936 23.8209C60.8596 23.8209 61.1429 24.1046 61.1429 24.6716C61.1429 25.3807 61.4261 25.5224 62.8413 25.5224H64.5397V28.9254C64.5397 32.0446 64.6106 32.3284 65.3889 32.3284C65.9549 32.3284 66.2381 32.6121 66.2381 33.1791C66.2381 33.7461 66.5213 34.0299 67.0873 34.0299C67.8656 34.0299 67.9365 34.3136 67.9365 37.4328C67.9365 40.5521 67.8656 40.8358 67.0873 40.8358C66.2852 40.8358 66.2381 41.1195 66.2381 45.9403C66.2381 50.7611 66.191 51.0448 65.3889 51.0448C64.8229 51.0448 64.5397 51.3285 64.5397 51.8955C64.5397 52.4625 64.2565 52.7463 63.6905 52.7463C63.1245 52.7463 62.8413 53.03 62.8413 53.597C62.8413 54.164 62.5581 54.4478 61.9921 54.4478C61.4261 54.4478 61.1429 54.7315 61.1429 55.2985C61.1429 56.0076 60.8596 56.1493 59.4444 56.1493C58.0292 56.1493 57.746 56.0076 57.746 55.2985C57.746 54.7315 57.4628 54.4478 56.8968 54.4478C56.3308 54.4478 56.0476 54.164 56.0476 53.597C56.0476 53.03 55.7644 52.7463 55.1984 52.7463C54.6324 52.7463 54.3492 52.4625 54.3492 51.8955C54.3492 51.1864 54.066 51.0448 52.6508 51.0448C51.2356 51.0448 50.9524 50.9031 50.9524 50.194C50.9524 49.627 50.6692 49.3433 50.1032 49.3433C49.5372 49.3433 49.254 49.0596 49.254 48.4925C49.254 47.9255 48.9708 47.6418 48.4048 47.6418C47.8388 47.6418 47.5556 47.3581 47.5556 46.791C47.5556 46.0113 47.2723 45.9403 44.1587 45.9403C41.0451 45.9403 40.7619 46.0113 40.7619 46.791C40.7619 47.5474 41.0451 47.6418 43.3095 47.6418C45.5739 47.6418 45.8571 47.7362 45.8571 48.4925C45.8571 49.2016 46.1404 49.3433 47.5556 49.3433C48.9708 49.3433 49.254 49.4849 49.254 50.194C49.254 50.7611 49.5372 51.0448 50.1032 51.0448C50.6692 51.0448 50.9524 51.3285 50.9524 51.8955C50.9524 52.6046 51.2356 52.7463 52.6508 52.7463C54.066 52.7463 54.3492 52.8879 54.3492 53.597C54.3492 54.164 54.6324 54.4478 55.1984 54.4478C55.7644 54.4478 56.0476 54.7315 56.0476 55.2985C56.0476 55.8655 56.3308 56.1493 56.8968 56.1493C57.6518 56.1493 57.746 56.433 57.746 58.7015V61.2537H56.0476C54.6324 61.2537 54.3492 61.1121 54.3492 60.403C54.3492 59.836 54.066 59.5522 53.5 59.5522C52.934 59.5522 52.6508 59.2685 52.6508 58.7015C52.6508 58.1345 52.3676 57.8507 51.8016 57.8507C51.2356 57.8507 50.9524 57.567 50.9524 57C50.9524 56.2437 50.6692 56.1493 48.4048 56.1493C46.1404 56.1493 45.8571 56.2437 45.8571 57C45.8571 57.567 45.5739 57.8507 45.0079 57.8507C44.4419 57.8507 44.1587 58.1345 44.1587 58.7015C44.1587 59.2685 44.4419 59.5522 45.0079 59.5522C45.5739 59.5522 45.8571 59.2685 45.8571 58.7015C45.8571 58.1345 46.1404 57.8507 46.7063 57.8507C47.2723 57.8507 47.5556 58.1345 47.5556 58.7015C47.5556 59.2685 47.8388 59.5522 48.4048 59.5522C48.9708 59.5522 49.254 59.836 49.254 60.403C49.254 60.97 49.5372 61.2537 50.1032 61.2537C50.6692 61.2537 50.9524 61.5375 50.9524 62.1045C50.9524 62.6715 51.2356 62.9552 51.8016 62.9552C52.3676 62.9552 52.6508 63.2389 52.6508 63.806C52.6508 64.5151 52.934 64.6567 54.3492 64.6567C55.7644 64.6567 56.0476 64.7984 56.0476 65.5075C56.0476 66.0745 56.3308 66.3582 56.8968 66.3582C57.4628 66.3582 57.746 66.6419 57.746 67.209C57.746 67.9887 57.4628 68.0597 54.3492 68.0597C51.2356 68.0597 50.9524 67.9887 50.9524 67.209C50.9524 66.4526 50.6692 66.3582 48.4048 66.3582C46.1404 66.3582 45.8571 66.4526 45.8571 67.209C45.8571 68.0125 45.5739 68.0597 40.7619 68.0597C35.9499 68.0597 35.6667 68.1069 35.6667 68.9104C35.6667 69.4775 35.3835 69.7612 34.8175 69.7612C34.2515 69.7612 33.9683 70.0449 33.9683 70.6119C33.9683 71.321 33.685 71.4627 32.2698 71.4627C30.8546 71.4627 30.5714 71.6043 30.5714 72.3134C30.5714 72.8805 30.2882 73.1642 29.7222 73.1642C29.0144 73.1642 28.873 73.4479 28.873 74.8657C28.873 76.2834 28.7316 76.5672 28.0238 76.5672C27.2689 76.5672 27.1746 76.8509 27.1746 79.1194C27.1746 81.3879 27.0803 81.6716 26.3254 81.6716C25.5471 81.6716 25.4762 81.9554 25.4762 85.0746C25.4762 88.1939 25.5471 88.4776 26.3254 88.4776C26.8914 88.4776 27.1746 88.7613 27.1746 89.3284C27.1746 89.8954 27.4578 90.1791 28.0238 90.1791C28.5898 90.1791 28.873 90.4628 28.873 91.0299C28.873 91.5969 29.1562 91.8806 29.7222 91.8806C30.2882 91.8806 30.5714 92.1643 30.5714 92.7313C30.5714 93.2984 30.8546 93.5821 31.4206 93.5821C31.9866 93.5821 32.2698 93.2984 32.2698 92.7313C32.2698 92.1643 31.9866 91.8806 31.4206 91.8806C30.7128 91.8806 30.5714 91.5969 30.5714 90.1791C30.5714 88.7613 30.7128 88.4776 31.4206 88.4776C32.1756 88.4776 32.2698 88.1939 32.2698 85.9254C32.2698 83.6569 32.3641 83.3731 33.119 83.3731C33.874 83.3731 33.9683 83.0894 33.9683 80.8209C33.9683 78.5524 34.0625 78.2687 34.8175 78.2687C35.3835 78.2687 35.6667 77.9849 35.6667 77.4179C35.6667 76.8509 35.9499 76.5672 36.5159 76.5672C37.2237 76.5672 37.3651 76.2834 37.3651 74.8657C37.3651 73.4479 37.5065 73.1642 38.2143 73.1642C38.7803 73.1642 39.0635 72.8805 39.0635 72.3134C39.0635 71.6043 39.3467 71.4627 40.7619 71.4627C42.1771 71.4627 42.4603 71.6043 42.4603 72.3134C42.4603 72.8805 42.7435 73.1642 43.3095 73.1642C43.8755 73.1642 44.1587 73.4479 44.1587 74.0149C44.1587 74.5819 44.4419 74.8657 45.0079 74.8657C45.5739 74.8657 45.8571 75.1494 45.8571 75.7164C45.8571 76.4255 46.1404 76.5672 47.5556 76.5672C48.9708 76.5672 49.254 76.7088 49.254 77.4179C49.254 77.9849 49.5372 78.2687 50.1032 78.2687C50.6692 78.2687 50.9524 78.5524 50.9524 79.1194C50.9524 79.8285 51.2356 79.9701 52.6508 79.9701C54.066 79.9701 54.3492 80.1118 54.3492 80.8209C54.3492 81.6151 54.6324 81.6716 58.5952 81.6716H62.8413V83.3731C62.8413 84.7909 62.9827 85.0746 63.6905 85.0746C64.2565 85.0746 64.5397 85.3584 64.5397 85.9254C64.5397 86.4924 64.8229 86.7761 65.3889 86.7761C65.9549 86.7761 66.2381 87.0598 66.2381 87.6269C66.2381 88.4202 65.9549 88.4776 62.0417 88.4776C58.2021 88.4776 57.8263 88.5499 57.6229 89.3284C57.453 89.98 57.0437 90.1791 55.8752 90.1791C54.6324 90.1791 54.3492 90.3369 54.3492 91.0299C54.3492 91.7389 54.066 91.8806 52.6508 91.8806C51.2356 91.8806 50.9524 92.0222 50.9524 92.7313C50.9524 93.2984 50.6692 93.5821 50.1032 93.5821C49.5372 93.5821 49.254 93.8658 49.254 94.4328C49.254 94.9999 48.9708 95.2836 48.4048 95.2836C47.6969 95.2836 47.5556 95.5673 47.5556 96.9851C47.5556 98.4028 47.4142 98.6866 46.7063 98.6866C46.1404 98.6866 45.8571 98.9703 45.8571 99.5373C45.8571 100.104 45.5739 100.388 45.0079 100.388C44.1991 100.388 44.1587 100.672 44.1587 106.343C44.1587 112.015 44.1991 112.299 45.0079 112.299C45.5739 112.299 45.8571 112.582 45.8571 113.149C45.8571 113.716 46.1404 114 46.7063 114C47.2723 114 47.5556 113.716 47.5556 113.149C47.5556 112.582 47.2723 112.299 46.7063 112.299C46.1404 112.299 45.8571 112.015 45.8571 111.448C45.8571 110.881 46.1404 110.597 46.7063 110.597C47.4613 110.597 47.5556 110.313 47.5556 108.045C47.5556 105.776 47.6498 105.493 48.4048 105.493C49.1597 105.493 49.254 105.209 49.254 102.94C49.254 100.672 49.3482 100.388 50.1032 100.388C50.811 100.388 50.9524 100.104 50.9524 98.6866V96.9851H52.6508C54.066 96.9851 54.3492 96.8434 54.3492 96.1343C54.3492 95.3151 54.6324 95.2836 61.9921 95.2836C69.3517 95.2836 69.6349 95.2521 69.6349 94.4328C69.6349 93.8658 69.9181 93.5821 70.4841 93.5821C71.0501 93.5821 71.3333 93.8658 71.3333 94.4328C71.3333 94.9999 71.6165 95.2836 72.1825 95.2836C72.7485 95.2836 73.0317 95.5673 73.0317 96.1343C73.0317 96.7014 73.315 96.9851 73.881 96.9851C74.4469 96.9851 74.7302 97.2688 74.7302 97.8358C74.7302 98.4028 75.0134 98.6866 75.5794 98.6866C76.1454 98.6866 76.4286 98.9703 76.4286 99.5373C76.4286 100.104 76.7118 100.388 77.2778 100.388C77.8438 100.388 78.127 100.672 78.127 101.239C78.127 101.806 78.4102 102.09 78.9762 102.09C79.684 102.09 79.8254 102.373 79.8254 103.791C79.8254 105.209 79.9668 105.493 80.6746 105.493C81.2406 105.493 81.5238 105.776 81.5238 106.343C81.5238 106.91 81.807 107.194 82.373 107.194C83.0808 107.194 83.2222 107.478 83.2222 108.896C83.2222 110.313 83.3636 110.597 84.0714 110.597C84.6374 110.597 84.9206 110.313 84.9206 109.746C84.9206 109.179 85.2038 108.896 85.7698 108.896C86.3184 108.896 86.619 108.612 86.619 108.095C86.619 107.651 86.2399 107.194 85.7698 107.071C85.3028 106.949 84.9206 106.543 84.9206 106.171C84.9206 105.776 84.5652 105.493 84.0714 105.493C83.5054 105.493 83.2222 105.209 83.2222 104.642C83.2222 104.075 82.939 103.791 82.373 103.791C81.6652 103.791 81.5238 103.507 81.5238 102.09C81.5238 100.672 81.3824 100.388 80.6746 100.388C80.1086 100.388 79.8254 100.104 79.8254 99.5373C79.8254 98.9703 79.5422 98.6866 78.9762 98.6866C78.4102 98.6866 78.127 98.4028 78.127 97.8358C78.127 97.2688 77.8438 96.9851 77.2778 96.9851C76.7118 96.9851 76.4286 96.7014 76.4286 96.1343C76.4286 95.3308 76.7118 95.2836 81.5238 95.2836C86.3358 95.2836 86.619 95.2364 86.619 94.4328C86.619 93.6765 86.9023 93.5821 89.1667 93.5821C91.4311 93.5821 91.7143 93.4877 91.7143 92.7313C91.7143 92.1643 91.4311 91.8806 90.8651 91.8806C90.2991 91.8806 90.0159 91.5969 90.0159 91.0299C90.0159 90.2501 89.7327 90.1791 86.619 90.1791C83.5054 90.1791 83.2222 90.2501 83.2222 91.0299C83.2222 91.7389 82.939 91.8806 81.5238 91.8806C80.1086 91.8806 79.8254 92.0222 79.8254 92.7313C79.8254 93.4404 79.5422 93.5821 78.127 93.5821H76.4286V91.8806V90.1791H78.9762C81.2406 90.1791 81.5238 90.0847 81.5238 89.3284C81.5238 88.6193 81.807 88.4776 83.2222 88.4776C84.6374 88.4776 84.9206 88.336 84.9206 87.6269C84.9206 87.0598 85.2038 86.7761 85.7698 86.7761C86.3358 86.7761 86.619 86.4924 86.619 85.9254C86.619 85.3584 86.9023 85.0746 87.4683 85.0746C88.0342 85.0746 88.3175 84.7909 88.3175 84.2239C88.3175 83.6569 88.6007 83.3731 89.1667 83.3731C89.8745 83.3731 90.0159 83.0894 90.0159 81.6716C90.0159 80.2539 90.1573 79.9701 90.8651 79.9701C91.4311 79.9701 91.7143 79.6864 91.7143 79.1194C91.7143 78.3159 91.9975 78.2687 96.8095 78.2687H101.905V76.5672C101.905 75.1494 101.763 74.8657 101.056 74.8657C100.49 74.8657 100.206 74.5819 100.206 74.0149C100.206 73.1995 99.9231 73.1642 93.4127 73.1642C86.9023 73.1642 86.619 73.1995 86.619 74.0149C86.619 74.724 86.3358 74.8657 84.9206 74.8657C83.5054 74.8657 83.2222 75.0073 83.2222 75.7164C83.2222 76.2834 82.939 76.5672 82.373 76.5672C81.807 76.5672 81.5238 76.8509 81.5238 77.4179C81.5238 77.9849 81.2406 78.2687 80.6746 78.2687C79.9668 78.2687 79.8254 78.5524 79.8254 79.9701V81.6716H78.127H76.4286V83.3731C76.4286 84.7909 76.2872 85.0746 75.5794 85.0746C74.7866 85.0746 74.7302 85.3584 74.7302 89.3284V93.5821H73.0317C71.6165 93.5821 71.3333 93.4404 71.3333 92.7313C71.3333 92.1643 71.0501 91.8806 70.4841 91.8806C69.9181 91.8806 69.6349 91.5969 69.6349 91.0299C69.6349 90.4628 69.9181 90.1791 70.4841 90.1791C71.1919 90.1791 71.3333 89.8954 71.3333 88.4776C71.3333 87.0598 71.4747 86.7761 72.1825 86.7761C72.8904 86.7761 73.0317 86.4924 73.0317 85.0746C73.0317 83.6569 73.1731 83.3731 73.881 83.3731C74.6737 83.3731 74.7302 83.0894 74.7302 79.1194C74.7302 75.1494 74.6737 74.8657 73.881 74.8657C73.315 74.8657 73.0317 75.1494 73.0317 75.7164C73.0317 76.2834 72.7485 76.5672 72.1825 76.5672C71.6165 76.5672 71.3333 76.8509 71.3333 77.4179C71.3333 77.9849 71.0501 78.2687 70.4841 78.2687C69.9181 78.2687 69.6349 78.5524 69.6349 79.1194C69.6349 79.6864 69.3517 79.9701 68.7857 79.9701C68.0308 79.9701 67.9365 80.2539 67.9365 82.5224C67.9365 84.7909 68.0308 85.0746 68.7857 85.0746C69.5407 85.0746 69.6349 85.3584 69.6349 87.6269C69.6349 89.8954 69.5407 90.1791 68.7857 90.1791C68.0779 90.1791 67.9365 89.8954 67.9365 88.4776C67.9365 87.0598 67.7951 86.7761 67.0873 86.7761C66.5213 86.7761 66.2381 86.4924 66.2381 85.9254C66.2381 85.3584 65.9549 85.0746 65.3889 85.0746C64.6811 85.0746 64.5397 84.7909 64.5397 83.3731C64.5397 81.9554 64.3983 81.6716 63.6905 81.6716C62.9827 81.6716 62.8413 81.3879 62.8413 79.9701V78.2687H64.5397C65.9549 78.2687 66.2381 78.127 66.2381 77.4179C66.2381 76.8509 66.5213 76.5672 67.0873 76.5672C67.6533 76.5672 67.9365 76.2834 67.9365 75.7164C67.9365 75.1494 68.2197 74.8657 68.7857 74.8657C69.564 74.8657 69.6349 74.5819 69.6349 71.4627C69.6349 68.3434 69.7058 68.0597 70.4841 68.0597C71.1919 68.0597 71.3333 67.776 71.3333 66.3582C71.3333 64.9404 71.1919 64.6567 70.4841 64.6567C69.9181 64.6567 69.6349 64.9404 69.6349 65.5075C69.6349 66.0745 69.3517 66.3582 68.7857 66.3582C68.2197 66.3582 67.9365 66.6419 67.9365 67.209C67.9365 67.776 67.6533 68.0597 67.0873 68.0597C66.5213 68.0597 66.2381 68.3434 66.2381 68.9104C66.2381 69.4775 65.9549 69.7612 65.3889 69.7612C64.8229 69.7612 64.5397 70.0449 64.5397 70.6119C64.5397 71.321 64.2565 71.4627 62.8413 71.4627C61.4261 71.4627 61.1429 71.321 61.1429 70.6119C61.1429 70.0449 60.8596 69.7612 60.2936 69.7612C59.4848 69.7612 59.4444 69.4775 59.4444 63.806V57.8507H61.1429H62.8413V56.1493C62.8413 54.7315 62.9827 54.4478 63.6905 54.4478C64.2565 54.4478 64.5397 54.164 64.5397 53.597C64.5397 53.03 64.8229 52.7463 65.3889 52.7463C65.9549 52.7463 66.2381 52.4625 66.2381 51.8955C66.2381 51.3285 66.5213 51.0448 67.0873 51.0448C67.6533 51.0448 67.9365 50.7611 67.9365 50.194C67.9365 49.627 68.2197 49.3433 68.7857 49.3433C69.3517 49.3433 69.6349 49.0596 69.6349 48.4925C69.6349 47.7834 69.9181 47.6418 71.3333 47.6418C72.7485 47.6418 73.0317 47.5001 73.0317 46.791C73.0317 46.0819 72.7485 45.9403 71.3333 45.9403C69.9181 45.9403 69.6349 46.0819 69.6349 46.791C69.6349 47.3581 69.3517 47.6418 68.7857 47.6418C68.0074 47.6418 67.9365 47.3581 67.9365 44.2388C67.9365 41.1195 68.0074 40.8358 68.7857 40.8358C69.564 40.8358 69.6349 40.5521 69.6349 37.4328C69.6349 34.3136 69.564 34.0299 68.7857 34.0299C68.2197 34.0299 67.9365 33.7461 67.9365 33.1791C67.9365 32.47 68.2197 32.3284 69.6349 32.3284C71.0501 32.3284 71.3333 32.47 71.3333 33.1791C71.3333 33.7461 71.6165 34.0299 72.1825 34.0299C72.7485 34.0299 73.0317 34.3136 73.0317 34.8806C73.0317 35.4476 72.7485 35.7313 72.1825 35.7313C71.6165 35.7313 71.3333 36.0151 71.3333 36.5821C71.3333 37.1491 71.6165 37.4328 72.1825 37.4328C72.7485 37.4328 73.0317 37.7166 73.0317 38.2836C73.0317 38.8506 73.315 39.1343 73.881 39.1343C74.4469 39.1343 74.7302 39.4181 74.7302 39.9851C74.7302 40.7414 75.0134 40.8358 77.2778 40.8358C79.5422 40.8358 79.8254 40.9303 79.8254 41.6866C79.8254 42.2536 79.5422 42.5373 78.9762 42.5373C78.4102 42.5373 78.127 42.821 78.127 43.3881C78.127 44.0972 77.8438 44.2388 76.4286 44.2388C75.0134 44.2388 74.7302 44.3805 74.7302 45.0896C74.7302 45.6566 75.0134 45.9403 75.5794 45.9403C76.1454 45.9403 76.4286 46.224 76.4286 46.791C76.4286 47.3581 76.7118 47.6418 77.2778 47.6418C77.8438 47.6418 78.127 47.9255 78.127 48.4925C78.127 49.0596 78.4102 49.3433 78.9762 49.3433C79.684 49.3433 79.8254 49.627 79.8254 51.0448C79.8254 52.4625 79.9668 52.7463 80.6746 52.7463C81.2406 52.7463 81.5238 53.03 81.5238 53.597C81.5238 54.164 81.807 54.4478 82.373 54.4478C83.0808 54.4478 83.2222 54.7315 83.2222 56.1493C83.2222 57.567 83.3636 57.8507 84.0714 57.8507C84.6374 57.8507 84.9206 58.1345 84.9206 58.7015C84.9206 59.2685 84.6374 59.5522 84.0714 59.5522C83.3636 59.5522 83.2222 59.836 83.2222 61.2537C83.2222 62.6715 83.3636 62.9552 84.0714 62.9552C84.6374 62.9552 84.9206 63.2389 84.9206 63.806C84.9206 64.5151 84.6374 64.6567 83.2222 64.6567H81.5238V66.3582V68.0597H83.2222H84.9206V66.3582V64.6567H87.4683H90.0159V62.1045C90.0159 59.836 89.9216 59.5522 89.1667 59.5522C88.6007 59.5522 88.3175 59.2685 88.3175 58.7015C88.3175 57.9924 88.6007 57.8507 90.0159 57.8507H91.7143V56.1493V54.4478H90.0159C88.6007 54.4478 88.3175 54.3061 88.3175 53.597C88.3175 53.03 88.0342 52.7463 87.4683 52.7463C86.7604 52.7463 86.619 52.4625 86.619 51.0448C86.619 49.627 86.4777 49.3433 85.7698 49.3433C85.2038 49.3433 84.9206 49.0596 84.9206 48.4925C84.9206 47.7834 84.6374 47.6418 83.2222 47.6418C81.807 47.6418 81.5238 47.7834 81.5238 48.4925C81.5238 49.0596 81.2406 49.3433 80.6746 49.3433C80.1086 49.3433 79.8254 49.0596 79.8254 48.4925C79.8254 47.9255 79.5422 47.6418 78.9762 47.6418C78.2684 47.6418 78.127 47.3581 78.127 45.9403C78.127 44.5225 78.2684 44.2388 78.9762 44.2388C79.5422 44.2388 79.8254 43.9551 79.8254 43.3881C79.8254 42.679 80.1086 42.5373 81.5238 42.5373C82.939 42.5373 83.2222 42.679 83.2222 43.3881C83.2222 44.0972 83.5054 44.2388 84.9206 44.2388C86.3358 44.2388 86.619 44.3805 86.619 45.0896C86.619 45.6566 86.9023 45.9403 87.4683 45.9403C88.1761 45.9403 88.3175 46.224 88.3175 47.6418C88.3175 49.0596 88.4589 49.3433 89.1667 49.3433C89.8745 49.3433 90.0159 49.627 90.0159 51.0448V52.7463H91.7143C93.1295 52.7463 93.4127 52.6046 93.4127 51.8955C93.4127 51.3285 93.6959 51.0448 94.2619 51.0448C94.8279 51.0448 95.1111 50.7611 95.1111 50.194C95.1111 49.627 95.3943 49.3433 95.9603 49.3433C96.5263 49.3433 96.8095 49.627 96.8095 50.194C96.8095 50.7611 97.0927 51.0448 97.6587 51.0448C98.2247 51.0448 98.5079 51.3285 98.5079 51.8955C98.5079 52.6518 98.7911 52.7463 101.056 52.7463C103.32 52.7463 103.603 52.6518 103.603 51.8955C103.603 51.3285 103.886 51.0448 104.452 51.0448C105.018 51.0448 105.302 50.7611 105.302 50.194C105.302 49.627 105.585 49.3433 106.151 49.3433C106.859 49.3433 107 49.0596 107 47.6418C107 46.224 106.859 45.9403 106.151 45.9403C105.443 45.9403 105.302 45.6566 105.302 44.2388C105.302 42.821 105.443 42.5373 106.151 42.5373C106.859 42.5373 107 42.2536 107 40.8358C107 39.4181 106.859 39.1343 106.151 39.1343C105.585 39.1343 105.302 38.8506 105.302 38.2836C105.302 37.7166 105.018 37.4328 104.452 37.4328C103.886 37.4328 103.603 37.1491 103.603 36.5821C103.603 35.873 103.32 35.7313 101.905 35.7313C100.49 35.7313 100.206 35.873 100.206 36.5821C100.206 37.2912 99.9231 37.4328 98.5079 37.4328H96.8095V35.7313V34.0299H98.5079H100.206V31.4776V28.9254H97.6587C95.3943 28.9254 95.1111 28.8309 95.1111 28.0746C95.1111 27.5076 95.3943 27.2239 95.9603 27.2239C96.5263 27.2239 96.8095 26.9402 96.8095 26.3731C96.8095 25.664 97.0927 25.5224 98.5079 25.5224H100.206V23.8209C100.206 22.4031 100.065 22.1194 99.3571 22.1194C98.7911 22.1194 98.5079 21.8357 98.5079 21.2687C98.5079 20.5596 98.2247 20.4179 96.8095 20.4179C95.3943 20.4179 95.1111 20.2763 95.1111 19.5672C95.1111 18.8581 95.3943 18.7164 96.8095 18.7164H98.5079V17.0149V15.3134H96.8095H95.1111V13.6119C95.1111 12.1942 94.9697 11.9104 94.2619 11.9104C93.6959 11.9104 93.4127 11.6267 93.4127 11.0597C93.4127 10.3506 93.1295 10.209 91.7143 10.209C90.2991 10.209 90.0159 10.3506 90.0159 11.0597C90.0159 11.6267 89.7327 11.9104 89.1667 11.9104C88.6007 11.9104 88.3175 12.1942 88.3175 12.7612C88.3175 13.3282 88.0342 13.6119 87.4683 13.6119C86.9023 13.6119 86.619 13.3282 86.619 12.7612C86.619 12.1942 86.3358 11.9104 85.7698 11.9104C85.2038 11.9104 84.9206 11.6267 84.9206 11.0597C84.9206 10.3506 84.6374 10.209 83.2222 10.209C81.807 10.209 81.5238 10.3506 81.5238 11.0597C81.5238 11.6267 81.2406 11.9104 80.6746 11.9104C79.9668 11.9104 79.8254 12.1942 79.8254 13.6119C79.8254 15.0297 79.9668 15.3134 80.6746 15.3134C81.2406 15.3134 81.5238 15.5972 81.5238 16.1642C81.5238 16.7312 81.807 17.0149 82.373 17.0149C82.939 17.0149 83.2222 17.2986 83.2222 17.8657C83.2222 18.6454 83.5054 18.7164 86.619 18.7164C89.7327 18.7164 90.0159 18.7875 90.0159 19.5672C90.0159 20.1342 89.7327 20.4179 89.1667 20.4179C88.6007 20.4179 88.3175 20.7016 88.3175 21.2687C88.3175 21.8357 88.0342 22.1194 87.4683 22.1194C86.9023 22.1194 86.619 21.8357 86.619 21.2687C86.619 20.5596 86.3358 20.4179 84.9206 20.4179C83.5054 20.4179 83.2222 20.5596 83.2222 21.2687C83.2222 21.8357 82.939 22.1194 82.373 22.1194C81.807 22.1194 81.5238 22.4031 81.5238 22.9701C81.5238 23.5372 81.2406 23.8209 80.6746 23.8209C80.1086 23.8209 79.8254 23.5372 79.8254 22.9701C79.8254 22.4031 79.5422 22.1194 78.9762 22.1194C78.4102 22.1194 78.127 21.8357 78.127 21.2687C78.127 20.5596 77.8438 20.4179 76.4286 20.4179C75.0134 20.4179 74.7302 20.5596 74.7302 21.2687C74.7302 21.8357 74.4469 22.1194 73.881 22.1194C73.315 22.1194 73.0317 22.4031 73.0317 22.9701C73.0317 23.5372 72.7485 23.8209 72.1825 23.8209C71.6165 23.8209 71.3333 24.1046 71.3333 24.6716C71.3333 25.2387 71.6165 25.5224 72.1825 25.5224C72.7485 25.5224 73.0317 25.8061 73.0317 26.3731C73.0317 26.9402 72.7485 27.2239 72.1825 27.2239C71.6165 27.2239 71.3333 27.5076 71.3333 28.0746C71.3333 28.6416 71.0501 28.9254 70.4841 28.9254C69.9181 28.9254 69.6349 29.2091 69.6349 29.7761C69.6349 30.3431 69.3517 30.6269 68.7857 30.6269C68.2197 30.6269 67.9365 30.9106 67.9365 31.4776C67.9365 32.0446 67.6533 32.3284 67.0873 32.3284C66.309 32.3284 66.2381 32.0446 66.2381 28.9254C66.2381 25.8061 66.1672 25.5224 65.3889 25.5224C64.8229 25.5224 64.5397 25.2387 64.5397 24.6716C64.5397 24.1046 64.8229 23.8209 65.3889 23.8209C66.0967 23.8209 66.2381 23.5372 66.2381 22.1194C66.2381 20.7016 66.0967 20.4179 65.3889 20.4179C64.8229 20.4179 64.5397 20.1342 64.5397 19.5672C64.5397 19.0001 64.2565 18.7164 63.6905 18.7164C63.1245 18.7164 62.8413 18.4327 62.8413 17.8657C62.8413 17.1094 63.1245 17.0149 65.3889 17.0149H67.9365V15.3134V13.6119H69.6349C71.0501 13.6119 71.3333 13.7536 71.3333 14.4627C71.3333 15.0297 71.6165 15.3134 72.1825 15.3134C72.7485 15.3134 73.0317 15.0297 73.0317 14.4627C73.0317 13.8957 73.315 13.6119 73.881 13.6119C74.5888 13.6119 74.7302 13.3282 74.7302 11.9104C74.7302 10.4927 74.5888 10.209 73.881 10.209C73.315 10.209 73.0317 9.92523 73.0317 9.35821C73.0317 8.79119 73.315 8.50746 73.881 8.50746C74.4469 8.50746 74.7302 8.22374 74.7302 7.65672C74.7302 7.08969 75.0134 6.80597 75.5794 6.80597C76.1454 6.80597 76.4286 6.52225 76.4286 5.95522C76.4286 5.3882 76.1454 5.10448 75.5794 5.10448C75.0134 5.10448 74.7302 4.82075 74.7302 4.25373C74.7302 3.68671 74.4469 3.40299 73.881 3.40299C73.315 3.40299 73.0317 3.11926 73.0317 2.55224C73.0317 1.98522 72.7485 1.70149 72.1825 1.70149C71.6165 1.70149 71.3333 1.98522 71.3333 2.55224C71.3333 3.26134 71.0501 3.40299 69.6349 3.40299C68.2197 3.40299 67.9365 3.26134 67.9365 2.55224C67.9365 1.98522 67.6533 1.70149 67.0873 1.70149C66.5213 1.70149 66.2381 1.41777 66.2381 0.850746C66.2381 0.283724 65.9549 0 65.3889 0C64.6811 0 64.5397 0.283724 64.5397 1.70149ZM23.7778 4.25373C23.7778 4.82075 23.4946 5.10448 22.9286 5.10448C22.1736 5.10448 22.0794 5.3882 22.0794 7.65672V10.209H18.6825H15.2857V12.7612C15.2857 15.0297 15.38 15.3134 16.1349 15.3134C16.7009 15.3134 16.9841 15.5972 16.9841 16.1642C16.9841 16.8733 17.2673 17.0149 18.6825 17.0149C20.0977 17.0149 20.381 17.1566 20.381 17.8657C20.381 18.4327 20.0977 18.7164 19.5317 18.7164C18.8239 18.7164 18.6825 19.0001 18.6825 20.4179V22.1194H16.9841C15.5689 22.1194 15.2857 22.2611 15.2857 22.9701C15.2857 23.5372 15.0025 23.8209 14.4365 23.8209C13.6816 23.8209 13.5873 24.1046 13.5873 26.3731V28.9254H11.8889C10.4737 28.9254 10.1905 29.067 10.1905 29.7761C10.1905 30.3431 9.90727 30.6269 9.34127 30.6269C8.77527 30.6269 8.49206 30.9106 8.49206 31.4776C8.49206 32.0446 8.77527 32.3284 9.34127 32.3284C10.0491 32.3284 10.1905 32.6121 10.1905 34.0299V35.7313H8.49206C7.07686 35.7313 6.79365 35.5897 6.79365 34.8806C6.79365 34.1715 6.51044 34.0299 5.09524 34.0299C3.68004 34.0299 3.39683 34.1715 3.39683 34.8806C3.39683 35.4476 3.11362 35.7313 2.54762 35.7313C1.98162 35.7313 1.69841 36.0151 1.69841 36.5821C1.69841 37.1491 1.4152 37.4328 0.849206 37.4328C0.28321 37.4328 0 37.7166 0 38.2836C0 38.8506 0.28321 39.1343 0.849206 39.1343C1.55702 39.1343 1.69841 39.4181 1.69841 40.8358C1.69841 42.2536 1.55702 42.5373 0.849206 42.5373C0.0942619 42.5373 0 42.821 0 45.0896V47.6418H2.54762H5.09524V50.194V52.7463H6.79365C8.20885 52.7463 8.49206 52.8879 8.49206 53.597C8.49206 54.164 8.77527 54.4478 9.34127 54.4478C10.0962 54.4478 10.1905 54.7315 10.1905 57C10.1905 59.2685 10.0962 59.5522 9.34127 59.5522C8.77527 59.5522 8.49206 59.836 8.49206 60.403C8.49206 61.1121 8.77527 61.2537 10.1905 61.2537H11.8889V62.9552V64.6567H14.4365H16.9841V62.9552C16.9841 61.5375 17.1255 61.2537 17.8333 61.2537C18.3993 61.2537 18.6825 61.5375 18.6825 62.1045C18.6825 62.6715 18.9657 62.9552 19.5317 62.9552C20.0977 62.9552 20.381 62.6715 20.381 62.1045C20.381 61.5375 20.6642 61.2537 21.2302 61.2537C21.938 61.2537 22.0794 60.97 22.0794 59.5522C22.0794 58.1345 21.938 57.8507 21.2302 57.8507C20.5223 57.8507 20.381 57.567 20.381 56.1493C20.381 54.7315 20.2396 54.4478 19.5317 54.4478C18.9657 54.4478 18.6825 54.164 18.6825 53.597C18.6825 53.03 18.9657 52.7463 19.5317 52.7463C20.2396 52.7463 20.381 52.4625 20.381 51.0448C20.381 49.627 20.5223 49.3433 21.2302 49.3433C21.7962 49.3433 22.0794 49.627 22.0794 50.194C22.0794 50.7611 22.3626 51.0448 22.9286 51.0448C23.4946 51.0448 23.7778 51.3285 23.7778 51.8955C23.7778 52.4625 24.061 52.7463 24.627 52.7463C25.193 52.7463 25.4762 52.4625 25.4762 51.8955C25.4762 51.1158 25.7594 51.0448 28.873 51.0448C31.9866 51.0448 32.2698 50.9737 32.2698 50.194C32.2698 49.627 31.9866 49.3433 31.4206 49.3433C30.8546 49.3433 30.5714 49.0596 30.5714 48.4925C30.5714 47.9255 30.8546 47.6418 31.4206 47.6418C32.1284 47.6418 32.2698 47.3581 32.2698 45.9403C32.2698 44.5225 32.1284 44.2388 31.4206 44.2388C30.8546 44.2388 30.5714 43.9551 30.5714 43.3881C30.5714 42.821 30.2882 42.5373 29.7222 42.5373C29.1562 42.5373 28.873 42.821 28.873 43.3881C28.873 43.9551 29.1562 44.2388 29.7222 44.2388C30.2882 44.2388 30.5714 44.5225 30.5714 45.0896C30.5714 45.7986 30.2882 45.9403 28.873 45.9403H27.1746V47.6418V49.3433H25.4762C24.061 49.3433 23.7778 49.2016 23.7778 48.4925C23.7778 47.9255 24.061 47.6418 24.627 47.6418C25.193 47.6418 25.4762 47.3581 25.4762 46.791C25.4762 46.224 25.193 45.9403 24.627 45.9403C24.061 45.9403 23.7778 45.6566 23.7778 45.0896C23.7778 44.5225 24.061 44.2388 24.627 44.2388C25.193 44.2388 25.4762 43.9551 25.4762 43.3881C25.4762 42.821 25.193 42.5373 24.627 42.5373C24.061 42.5373 23.7778 42.2536 23.7778 41.6866C23.7778 40.9775 23.4946 40.8358 22.0794 40.8358H20.381V39.1343V37.4328H22.9286C25.193 37.4328 25.4762 37.3384 25.4762 36.5821C25.4762 36.0151 25.7594 35.7313 26.3254 35.7313C27.0332 35.7313 27.1746 35.4476 27.1746 34.0299C27.1746 32.6121 27.316 32.3284 28.0238 32.3284C28.7788 32.3284 28.873 32.6121 28.873 34.8806C28.873 37.1491 28.9673 37.4328 29.7222 37.4328C30.2882 37.4328 30.5714 37.7166 30.5714 38.2836C30.5714 38.8506 30.8546 39.1343 31.4206 39.1343C32.1284 39.1343 32.2698 39.4181 32.2698 40.8358C32.2698 42.2536 32.4112 42.5373 33.119 42.5373C33.685 42.5373 33.9683 42.821 33.9683 43.3881C33.9683 43.9551 34.2515 44.2388 34.8175 44.2388C35.3835 44.2388 35.6667 43.9551 35.6667 43.3881C35.6667 42.821 35.3835 42.5373 34.8175 42.5373C34.1096 42.5373 33.9683 42.2536 33.9683 40.8358C33.9683 39.4181 33.8269 39.1343 33.119 39.1343C32.5531 39.1343 32.2698 38.8506 32.2698 38.2836C32.2698 37.7166 31.9866 37.4328 31.4206 37.4328C30.6657 37.4328 30.5714 37.1491 30.5714 34.8806C30.5714 32.6121 30.4772 32.3284 29.7222 32.3284C29.0144 32.3284 28.873 32.0446 28.873 30.6269C28.873 29.2091 29.0144 28.9254 29.7222 28.9254C30.2882 28.9254 30.5714 29.2091 30.5714 29.7761C30.5714 30.4852 30.8546 30.6269 32.2698 30.6269H33.9683V32.3284C33.9683 33.7461 33.8269 34.0299 33.119 34.0299C32.5531 34.0299 32.2698 34.3136 32.2698 34.8806C32.2698 35.4476 32.5531 35.7313 33.119 35.7313C33.685 35.7313 33.9683 36.0151 33.9683 36.5821C33.9683 37.1491 34.2515 37.4328 34.8175 37.4328C35.3835 37.4328 35.6667 37.7166 35.6667 38.2836C35.6667 38.9927 35.9499 39.1343 37.3651 39.1343H39.0635V41.6866C39.0635 43.9551 38.9692 44.2388 38.2143 44.2388C37.6483 44.2388 37.3651 44.5225 37.3651 45.0896C37.3651 45.6566 37.6483 45.9403 38.2143 45.9403C38.7803 45.9403 39.0635 45.6566 39.0635 45.0896C39.0635 44.5225 39.3467 44.2388 39.9127 44.2388C40.4787 44.2388 40.7619 43.9551 40.7619 43.3881C40.7619 42.821 41.0451 42.5373 41.6111 42.5373C42.1771 42.5373 42.4603 42.2536 42.4603 41.6866C42.4603 41.1195 42.1771 40.8358 41.6111 40.8358C41.0451 40.8358 40.7619 40.5521 40.7619 39.9851C40.7619 39.4181 40.4787 39.1343 39.9127 39.1343C39.3467 39.1343 39.0635 38.8506 39.0635 38.2836C39.0635 37.7166 39.3467 37.4328 39.9127 37.4328C40.4787 37.4328 40.7619 37.1491 40.7619 36.5821C40.7619 36.0151 41.0451 35.7313 41.6111 35.7313C42.1771 35.7313 42.4603 36.0151 42.4603 36.5821C42.4603 37.1491 42.7435 37.4328 43.3095 37.4328C43.8755 37.4328 44.1587 37.7166 44.1587 38.2836C44.1587 38.8506 44.4419 39.1343 45.0079 39.1343C45.5739 39.1343 45.8571 38.8506 45.8571 38.2836C45.8571 37.7166 46.1404 37.4328 46.7063 37.4328C47.2723 37.4328 47.5556 37.1491 47.5556 36.5821C47.5556 36.0151 47.8388 35.7313 48.4048 35.7313C48.9708 35.7313 49.254 35.4476 49.254 34.8806C49.254 34.3136 48.9708 34.0299 48.4048 34.0299C47.6498 34.0299 47.5556 33.7461 47.5556 31.4776C47.5556 29.2091 47.6498 28.9254 48.4048 28.9254C48.9708 28.9254 49.254 28.6416 49.254 28.0746C49.254 27.5076 49.5372 27.2239 50.1032 27.2239C50.6692 27.2239 50.9524 26.9402 50.9524 26.3731C50.9524 25.8061 50.6692 25.5224 50.1032 25.5224C49.5372 25.5224 49.254 25.2387 49.254 24.6716C49.254 23.9625 48.9708 23.8209 47.5556 23.8209H45.8571V22.1194C45.8571 20.7016 45.7157 20.4179 45.0079 20.4179C44.4419 20.4179 44.1587 20.1342 44.1587 19.5672C44.1587 18.8109 43.8755 18.7164 41.6111 18.7164C39.3467 18.7164 39.0635 18.622 39.0635 17.8657C39.0635 17.1566 39.3467 17.0149 40.7619 17.0149C42.1771 17.0149 42.4603 16.8733 42.4603 16.1642C42.4603 15.5972 42.7435 15.3134 43.3095 15.3134C43.8755 15.3134 44.1587 15.0297 44.1587 14.4627C44.1587 13.8957 44.4419 13.6119 45.0079 13.6119C45.5739 13.6119 45.8571 13.3282 45.8571 12.7612C45.8571 12.1942 45.5739 11.9104 45.0079 11.9104C44.4419 11.9104 44.1587 11.6267 44.1587 11.0597C44.1587 10.3506 43.8755 10.209 42.4603 10.209C41.0451 10.209 40.7619 10.3506 40.7619 11.0597C40.7619 11.6267 40.4787 11.9104 39.9127 11.9104C39.1578 11.9104 39.0635 12.1942 39.0635 14.4627C39.0635 16.7312 38.9692 17.0149 38.2143 17.0149C37.6483 17.0149 37.3651 17.2986 37.3651 17.8657C37.3651 18.4327 37.0819 18.7164 36.5159 18.7164C35.9499 18.7164 35.6667 19.0001 35.6667 19.5672C35.6667 20.1342 35.3835 20.4179 34.8175 20.4179C34.2515 20.4179 33.9683 20.7016 33.9683 21.2687C33.9683 21.8357 33.685 22.1194 33.119 22.1194C32.4112 22.1194 32.2698 21.8357 32.2698 20.4179C32.2698 19.0001 32.1284 18.7164 31.4206 18.7164C30.8546 18.7164 30.5714 18.4327 30.5714 17.8657C30.5714 17.1094 30.8546 17.0149 33.119 17.0149C35.3835 17.0149 35.6667 16.9205 35.6667 16.1642C35.6667 15.5972 35.9499 15.3134 36.5159 15.3134C37.2708 15.3134 37.3651 15.0297 37.3651 12.7612V10.209H33.9683C30.8546 10.209 30.5714 10.28 30.5714 11.0597C30.5714 11.6267 30.2882 11.9104 29.7222 11.9104C28.9439 11.9104 28.873 11.6267 28.873 8.50746C28.873 5.3882 28.8021 5.10448 28.0238 5.10448C27.4578 5.10448 27.1746 4.82075 27.1746 4.25373C27.1746 3.54463 26.8914 3.40299 25.4762 3.40299C24.061 3.40299 23.7778 3.54463 23.7778 4.25373ZM37.3651 19.5672C37.3651 20.1342 37.0819 20.4179 36.5159 20.4179C35.8081 20.4179 35.6667 20.7016 35.6667 22.1194C35.6667 23.5372 35.8081 23.8209 36.5159 23.8209C37.2237 23.8209 37.3651 23.5372 37.3651 22.1194C37.3651 20.7016 37.5065 20.4179 38.2143 20.4179C38.7803 20.4179 39.0635 20.1342 39.0635 19.5672C39.0635 19.0001 38.7803 18.7164 38.2143 18.7164C37.6483 18.7164 37.3651 19.0001 37.3651 19.5672ZM27.1746 24.6716C27.1746 25.3807 27.4578 25.5224 28.873 25.5224C30.2882 25.5224 30.5714 25.3807 30.5714 24.6716C30.5714 23.9625 30.2882 23.8209 28.873 23.8209C27.4578 23.8209 27.1746 23.9625 27.1746 24.6716ZM25.4762 31.4776C25.4762 32.0446 25.7594 32.3284 26.3254 32.3284C26.8914 32.3284 27.1746 32.0446 27.1746 31.4776C27.1746 30.9106 26.8914 30.6269 26.3254 30.6269C25.7594 30.6269 25.4762 30.9106 25.4762 31.4776ZM59.4444 33.1791C59.4444 33.7461 59.1612 34.0299 58.5952 34.0299C58.0292 34.0299 57.746 34.3136 57.746 34.8806C57.746 35.4476 58.0292 35.7313 58.5952 35.7313C59.1612 35.7313 59.4444 36.0151 59.4444 36.5821C59.4444 37.1491 59.7277 37.4328 60.2936 37.4328C60.8596 37.4328 61.1429 37.7166 61.1429 38.2836C61.1429 39.0399 61.4261 39.1343 63.6905 39.1343C65.9549 39.1343 66.2381 39.0399 66.2381 38.2836C66.2381 37.7166 65.9549 37.4328 65.3889 37.4328C64.6811 37.4328 64.5397 37.1491 64.5397 35.7313C64.5397 34.3136 64.3983 34.0299 63.6905 34.0299C63.1245 34.0299 62.8413 33.7461 62.8413 33.1791C62.8413 32.47 62.5581 32.3284 61.1429 32.3284C59.7277 32.3284 59.4444 32.47 59.4444 33.1791ZM86.619 36.5821C86.619 37.1491 86.3358 37.4328 85.7698 37.4328C85.2038 37.4328 84.9206 37.7166 84.9206 38.2836C84.9206 38.8506 84.6374 39.1343 84.0714 39.1343C83.5054 39.1343 83.2222 38.8506 83.2222 38.2836C83.2222 37.5745 82.939 37.4328 81.5238 37.4328H79.8254V39.1343V40.8358H81.5238C82.939 40.8358 83.2222 40.9775 83.2222 41.6866C83.2222 42.2536 83.5054 42.5373 84.0714 42.5373C84.6374 42.5373 84.9206 42.2536 84.9206 41.6866C84.9206 41.1195 85.2038 40.8358 85.7698 40.8358C86.3358 40.8358 86.619 40.5521 86.619 39.9851C86.619 39.276 86.9023 39.1343 88.3175 39.1343H90.0159V37.4328V35.7313H88.3175C86.9023 35.7313 86.619 35.873 86.619 36.5821ZM13.5873 39.9851C13.5873 42.2536 13.6816 42.5373 14.4365 42.5373C15.0025 42.5373 15.2857 42.821 15.2857 43.3881C15.2857 44.0972 15.5689 44.2388 16.9841 44.2388C18.3993 44.2388 18.6825 44.3805 18.6825 45.0896C18.6825 45.6566 18.9657 45.9403 19.5317 45.9403C20.0977 45.9403 20.381 45.6566 20.381 45.0896C20.381 44.5225 20.0977 44.2388 19.5317 44.2388C18.8239 44.2388 18.6825 43.9551 18.6825 42.5373V40.8358H16.9841H15.2857V39.1343C15.2857 37.7166 15.1443 37.4328 14.4365 37.4328C13.6816 37.4328 13.5873 37.7166 13.5873 39.9851ZM86.619 60.403C86.619 60.97 86.9023 61.2537 87.4683 61.2537C88.0342 61.2537 88.3175 60.97 88.3175 60.403C88.3175 59.836 88.0342 59.5522 87.4683 59.5522C86.9023 59.5522 86.619 59.836 86.619 60.403ZM74.7302 94.4328C74.7302 94.9999 75.0134 95.2836 75.5794 95.2836C76.1454 95.2836 76.4286 94.9999 76.4286 94.4328C76.4286 93.8658 76.1454 93.5821 75.5794 93.5821C75.0134 93.5821 74.7302 93.8658 74.7302 94.4328Z" fill="#8F8D8D"/>
</svg>
