<svg width="85" height="110" viewBox="0 0 85 110" fill="none" xmlns="http://www.w3.org/2000/svg">
<path fill-rule="evenodd" clip-rule="evenodd" d="M58.5787 0.34804C58.5048 0.53944 58.4444 0.93544 58.4444 1.22804C58.4444 1.70192 58.5409 1.76 59.3296 1.76H60.2148V0.88C60.2148 0.02618 60.1924 0 59.4639 0C58.9833 0 58.6646 0.12518 58.5787 0.34804ZM54.9037 1.32C54.9037 1.61326 54.7561 1.76 54.4611 1.76C54.1752 1.76 54.0185 1.90674 54.0185 2.17426C54.0185 2.40372 53.8209 2.64 53.5759 2.7038C52.9556 2.86506 52.9461 4.17252 53.5639 4.33312C53.8731 4.41342 54.0134 4.67126 54.0619 5.24744C54.1128 5.85442 54.2236 6.04252 54.5164 6.01942C54.8357 5.99434 54.9037 6.17408 54.9037 7.04374C54.9037 7.9904 54.8583 8.08698 54.4611 7.9838C54.1128 7.89316 54.0185 7.68372 54.0185 7.00062C54.0185 6.22644 53.9645 6.13976 53.5206 6.20114C53.1121 6.25768 53.0355 6.1787 53.0944 5.7607C53.1599 5.29518 53.0935 5.25734 52.3198 5.3207C51.5163 5.38648 51.47 5.43158 51.405 6.215C51.3459 6.9234 51.4005 7.04 51.7922 7.04C52.1766 7.04 52.2481 7.17816 52.2481 7.92C52.2481 8.7956 52.2439 8.8 51.3888 8.8C50.7154 8.8 50.5043 8.70474 50.4136 8.36C50.3465 8.10502 50.1117 7.92 49.8552 7.92C49.5217 7.92 49.4412 7.81176 49.5284 7.48C49.6306 7.09192 49.5352 7.04 48.7193 7.04C47.887 7.04 47.8014 7.08972 47.8636 7.535C47.92 7.93738 47.8397 8.01724 47.4349 7.96114C47.0572 7.909 46.937 8.00184 46.937 8.34614C46.937 8.65326 46.794 8.8 46.4944 8.8C46.0186 8.8 45.8659 9.43756 46.3284 9.49344C46.4807 9.51192 46.7046 9.54998 46.8264 9.57814C46.9481 9.6063 47.222 9.64062 47.4349 9.6547C47.6662 9.66988 47.8222 9.85732 47.8222 10.12C47.8222 10.4133 47.9698 10.56 48.2648 10.56C48.5598 10.56 48.7074 10.4133 48.7074 10.12C48.7074 9.80892 48.855 9.68 49.211 9.68C49.6685 9.68 49.7067 9.76426 49.6273 10.5926C49.5468 11.4319 49.5775 11.4952 50.0088 11.383C50.3906 11.2838 50.4777 11.3595 50.4777 11.7907C50.4777 12.3145 50.4547 12.32 48.2648 12.32H46.0518V11.44C46.0518 10.7067 45.9781 10.56 45.6092 10.56C45.3142 10.56 45.1666 10.7067 45.1666 11C45.1666 11.3667 45.019 11.44 44.2814 11.44C43.5439 11.44 43.3963 11.5133 43.3963 11.88C43.3963 12.2712 43.2486 12.32 42.0685 12.32H40.7407V13.2C40.7407 13.9333 40.8144 14.08 41.1833 14.08C41.4705 14.08 41.6259 13.9333 41.6259 13.6622C41.6259 13.3294 41.8173 13.2286 42.5664 13.1672C44.0566 13.0449 44.4722 13.1584 44.3423 13.6521C44.2586 13.9707 44.343 14.08 44.6725 14.08C44.929 14.08 45.1637 14.265 45.2308 14.52C45.2979 14.775 45.5326 14.96 45.7891 14.96C46.1226 14.96 46.2032 15.0682 46.116 15.4C46.027 15.7377 46.1091 15.84 46.4685 15.84C46.8675 15.84 46.937 15.9705 46.937 16.72V17.6H47.8222C48.5598 17.6 48.7074 17.5267 48.7074 17.16C48.7074 16.8667 48.855 16.72 49.15 16.72C49.445 16.72 49.5926 16.8667 49.5926 17.16C49.5926 17.4533 49.7402 17.6 50.0351 17.6C50.3551 17.6 50.4777 17.7467 50.4777 18.1293C50.4777 18.5504 50.3872 18.6353 50.0351 18.5438C49.6441 18.4422 49.5926 18.537 49.5926 19.36C49.5926 20.183 49.6441 20.2778 50.0351 20.1762C50.3872 20.0847 50.4777 20.1696 50.4777 20.5907C50.4777 21.0615 50.3801 21.12 49.5926 21.12C48.855 21.12 48.7074 21.1933 48.7074 21.56C48.7074 21.9267 48.5598 22 47.8222 22C47.0846 22 46.937 21.9267 46.937 21.56C46.937 21.1933 46.7894 21.12 46.0518 21.12H45.1666V19.36C45.1666 17.7144 45.1361 17.6 44.6981 17.6C44.3388 17.6 44.2567 17.7023 44.3456 18.04C44.4713 18.5181 44.3301 18.5533 42.5664 18.4837C41.75 18.4516 41.6259 18.5071 41.6259 18.9033C41.6259 19.2894 41.4891 19.36 40.7407 19.36H39.8555V18.04V16.72H38.9703H38.0851V17.6V18.48H37.1999C36.4624 18.48 36.3148 18.4067 36.3148 18.04C36.3148 17.7467 36.1672 17.6 35.8722 17.6C35.5772 17.6 35.4296 17.4533 35.4296 17.16C35.4296 16.8667 35.282 16.72 34.987 16.72C34.692 16.72 34.5444 16.5733 34.5444 16.28C34.5444 15.9133 34.3968 15.84 33.6592 15.84C32.9216 15.84 32.774 15.9133 32.774 16.28C32.774 16.6467 32.9216 16.72 33.6592 16.72C34.3968 16.72 34.5444 16.7933 34.5444 17.16C34.5444 17.5267 34.3968 17.6 33.6592 17.6C32.9216 17.6 32.774 17.6733 32.774 18.04C32.774 18.3333 32.6264 18.48 32.3314 18.48C32.0364 18.48 31.8888 18.3333 31.8888 18.04C31.8888 17.7467 31.7412 17.6 31.4462 17.6C31.1513 17.6 31.0036 17.7467 31.0036 18.04C31.0036 18.3333 31.1513 18.48 31.4462 18.48C31.7412 18.48 31.8888 18.6267 31.8888 18.92C31.8888 19.3112 32.0364 19.36 33.2166 19.36C34.3968 19.36 34.5444 19.4088 34.5444 19.8C34.5444 20.1912 34.3968 20.24 33.2166 20.24C32.0364 20.24 31.8888 20.2888 31.8888 20.68C31.8888 20.9733 31.7412 21.12 31.4462 21.12C31.0773 21.12 31.0036 20.9733 31.0036 20.24V19.36H29.6759H28.3481V18.48C28.3481 17.7467 28.4218 17.6 28.7907 17.6C29.1138 17.6 29.2333 17.4533 29.2333 17.0568C29.2333 16.6553 29.3231 16.5482 29.5785 16.6454C29.8089 16.7334 29.9644 16.6217 30.0468 16.3086C30.1459 15.932 30.3386 15.84 31.0295 15.84C31.8846 15.84 31.8888 15.8356 31.8888 14.96V14.08H31.0036C30.3829 14.08 30.1185 13.9858 30.1185 13.7647C30.1185 13.5914 29.9193 13.3868 29.6759 13.31C29.4324 13.2332 29.2333 12.9791 29.2333 12.7453C29.2333 12.3959 29.0755 12.32 28.3481 12.32H27.4629V13.2V14.08H28.7907H30.1185V14.96C30.1185 15.6933 30.0448 15.84 29.6759 15.84C29.3809 15.84 29.2333 15.6933 29.2333 15.4C29.2333 14.9987 29.0857 14.96 27.5527 14.96C26.0586 14.96 25.8596 15.0088 25.7567 15.4C25.6266 15.8948 24.8073 16.0101 24.8073 15.5335C24.8073 15.2018 24.2698 14.9076 24.0545 15.1219C23.9817 15.1941 23.9222 15.7813 23.9222 16.4267C23.9222 17.4533 23.9775 17.6 24.3647 17.6C24.6847 17.6 24.8073 17.4533 24.8073 17.0707C24.8073 16.6496 24.8979 16.5647 25.2499 16.6562C25.4949 16.72 25.6925 16.9563 25.6925 17.1857C25.6925 17.5223 25.8583 17.6 26.5777 17.6H27.4629V18.48C27.4629 19.2133 27.3892 19.36 27.0203 19.36C26.7769 19.36 26.5777 19.2221 26.5777 19.0535C26.5777 18.7218 26.0402 18.4276 25.8249 18.6419C25.7521 18.7141 25.6925 19.1033 25.6925 19.5067C25.6925 20.0933 25.604 20.24 25.2499 20.24C24.9549 20.24 24.8073 20.0933 24.8073 19.8C24.8073 19.5067 24.6597 19.36 24.3647 19.36C24.0698 19.36 23.9222 19.5067 23.9222 19.8C23.9222 20.0933 23.7746 20.24 23.4796 20.24C23.1846 20.24 23.037 20.0933 23.037 19.8C23.037 19.3967 22.8894 19.36 21.2666 19.36H19.4962V20.24C19.4962 20.9733 19.5699 21.12 19.9388 21.12C20.2338 21.12 20.3814 21.2667 20.3814 21.56C20.3814 21.8533 20.2338 22 19.9388 22C19.5633 22 19.4962 22.1467 19.4962 22.9693C19.4962 23.8304 19.4469 23.9259 19.0536 23.8238C18.7073 23.7338 18.611 23.5237 18.611 22.8584V22.0084L17.7261 22.0592C17.0502 22.0979 16.8409 22.2011 16.8409 22.495C16.8407 22.7975 16.651 22.88 15.9555 22.88H15.0703V23.76C15.0703 24.4752 15.1484 24.64 15.487 24.64C15.7178 24.64 15.9555 24.8365 16.0197 25.08C16.1179 25.4538 16.3215 25.52 17.3731 25.52C18.4634 25.52 18.611 25.5724 18.611 25.96C18.611 26.3267 18.7586 26.4 19.4962 26.4C20.2838 26.4 20.3814 26.4585 20.3814 26.9293C20.3814 27.3504 20.2909 27.4353 19.9388 27.3438C19.5991 27.2554 19.4962 27.337 19.4962 27.6943C19.4962 28.1169 19.6193 28.16 20.824 28.16C22.0042 28.16 22.1518 28.1112 22.1518 27.72C22.1518 27.3533 22.2994 27.28 23.037 27.28C23.7746 27.28 23.9222 27.2067 23.9222 26.84C23.9222 26.5467 24.0698 26.4 24.3647 26.4C24.6644 26.4 24.8073 26.5467 24.8073 26.8539C24.8073 27.1544 24.9381 27.2945 25.1946 27.2686C25.4077 27.247 26.005 27.2408 26.5224 27.2547C27.3069 27.2758 27.4629 27.353 27.4629 27.72C27.4629 28.0042 27.6105 28.16 27.8796 28.16C28.4986 28.16 28.6508 28.9973 28.0476 29.0829C27.6747 29.1357 27.5589 29.326 27.5049 29.975C27.4377 30.7815 27.4153 30.8007 26.5091 30.8253C25.999 30.8392 25.4077 30.833 25.1946 30.8114C24.864 30.778 24.8073 30.9676 24.8073 32.1061C24.8073 33.2933 24.856 33.44 25.2499 33.44C25.6188 33.44 25.6925 33.2933 25.6925 32.56V31.68H27.8796C29.86 31.68 30.0775 31.7205 30.1793 32.1079C30.2619 32.4214 30.1658 32.5536 29.8201 32.6029C29.1828 32.6935 29.0396 33.44 29.6597 33.44C29.9764 33.44 30.1185 33.5812 30.1185 33.8961C30.1185 34.2118 30.2377 34.3297 30.5057 34.2791C30.7746 34.2285 30.9269 33.9339 31.0036 33.3164C31.0984 32.5547 31.178 32.4441 31.5569 32.5483C31.8919 32.6403 31.9995 32.8572 31.9995 33.44V34.21L33.2719 34.276C34.3634 34.3325 34.5444 34.4029 34.5444 34.771C34.5444 35.1487 34.3855 35.2 33.2166 35.2C32.0364 35.2 31.8888 35.2488 31.8888 35.64C31.8888 36.0067 31.7412 36.08 31.0036 36.08C30.2661 36.08 30.1185 36.1533 30.1185 36.52C30.1185 36.9112 29.9709 36.96 28.7907 36.96C27.6218 36.96 27.4629 36.9087 27.4629 36.531C27.4629 36.1632 27.6439 36.0925 28.7331 36.036C29.7352 35.9839 30.0191 35.8886 30.0773 35.585C30.1408 35.2526 29.9675 35.2 28.8068 35.2C27.6105 35.2 27.4629 35.1516 27.4629 34.76C27.4629 34.3933 27.3153 34.32 26.5777 34.32C25.8401 34.32 25.6925 34.3933 25.6925 34.76C25.6925 35.1267 25.5449 35.2 24.8073 35.2C24.0698 35.2 23.9222 35.1267 23.9222 34.76C23.9222 34.3724 23.7746 34.32 22.6842 34.32C21.6326 34.32 21.429 34.3862 21.3308 34.76C21.1763 35.3474 20.3814 35.3474 20.3814 34.76C20.3814 34.3933 20.2338 34.32 19.4962 34.32H18.611V35.64V36.96H20.3814C21.9677 36.96 22.1518 36.9169 22.1518 36.5457C22.1518 36.3163 22.3494 36.08 22.5944 36.0162C22.8378 35.9531 23.037 35.7434 23.037 35.5507C23.037 35.3467 23.2222 35.2 23.4796 35.2C23.8735 35.2 23.9222 35.3467 23.9222 36.5339C23.9222 37.7907 23.9509 37.8638 24.4201 37.7989C24.8248 37.7428 24.9052 37.8226 24.8487 38.225C24.787 38.6672 24.8737 38.72 25.6638 38.72C26.3535 38.72 26.5788 38.8168 26.6884 39.16C26.7656 39.402 26.9714 39.6 27.1458 39.6C27.3202 39.6 27.4629 39.402 27.4629 39.16C27.4629 38.7567 27.6105 38.72 29.2333 38.72H31.0036V39.6C31.0036 40.3333 30.93 40.48 30.5611 40.48C30.3176 40.48 30.1185 40.3421 30.1185 40.1735C30.1185 40.005 29.9609 39.807 29.7684 39.7335C29.2607 39.5399 29.2333 39.5556 29.2333 40.04C29.2333 40.3333 29.3809 40.48 29.6759 40.48C30.0448 40.48 30.1185 40.6267 30.1185 41.36V42.24H28.7907C27.6105 42.24 27.4629 42.2888 27.4629 42.68C27.4629 43.0467 27.6105 43.12 28.3481 43.12C29.0857 43.12 29.2333 43.1933 29.2333 43.56C29.2333 43.9267 29.3809 44 30.1185 44C30.856 44 31.0036 43.9267 31.0036 43.56C31.0036 43.1933 31.1513 43.12 31.8888 43.12H32.774V44V44.88H33.6592C34.3968 44.88 34.5444 44.9533 34.5444 45.32C34.5444 45.6867 34.3968 45.76 33.6592 45.76C32.9207 45.76 32.774 45.8333 32.774 46.2011C32.774 46.5969 32.9106 46.6391 34.1018 46.6123C35.2404 46.5868 35.4296 46.5238 35.4296 46.1712C35.4296 45.6089 36.2298 45.6331 36.3789 46.2C36.4427 46.4422 36.6808 46.64 36.9085 46.64C37.2577 46.64 37.309 46.7771 37.2378 47.52C37.1718 48.2075 37.0619 48.4 36.7341 48.4C36.4624 48.4 36.3148 48.5549 36.3148 48.84C36.3148 49.2067 36.1672 49.28 35.4296 49.28C34.692 49.28 34.5444 49.3533 34.5444 49.72C34.5444 50.0133 34.3968 50.16 34.1018 50.16C33.8068 50.16 33.6592 50.0133 33.6592 49.72C33.6592 49.4305 33.5116 49.28 33.2277 49.28C32.8577 49.28 32.7866 49.1 32.7298 48.0172C32.6773 47.021 32.5815 46.7388 32.2761 46.6809C31.928 46.6151 31.8888 46.8321 31.8888 48.8239C31.8888 50.8933 31.8596 51.04 31.4462 51.04C31.1513 51.04 31.0036 50.8933 31.0036 50.6C31.0036 50.2333 30.856 50.16 30.1185 50.16C29.3809 50.16 29.2333 50.2333 29.2333 50.6C29.2333 50.9667 29.3809 51.04 30.1185 51.04C30.856 51.04 31.0036 51.1133 31.0036 51.48C31.0036 51.8956 30.856 51.92 28.3481 51.92H25.6925V50.9507C25.6925 50.0896 25.7419 49.9941 26.1351 50.0962C26.4748 50.1846 26.5777 50.103 26.5777 49.7457C26.5777 49.4267 26.4383 49.28 26.1351 49.28C25.7662 49.28 25.6925 49.1333 25.6925 48.4C25.6925 47.6667 25.6188 47.52 25.2499 47.52C24.9549 47.52 24.8073 47.3733 24.8073 47.08C24.8073 46.7133 24.6597 46.64 23.9222 46.64C23.1846 46.64 23.037 46.7133 23.037 47.08C23.037 47.3733 22.8894 47.52 22.5944 47.52C22.2947 47.52 22.1518 47.3733 22.1518 47.0661C22.1518 46.7218 22.0316 46.629 21.6539 46.6811C21.2491 46.7372 21.1688 46.6574 21.2252 46.255C21.2905 45.7886 21.217 45.76 19.9528 45.76C18.7586 45.76 18.611 45.7116 18.611 45.32C18.611 45.0267 18.7586 44.88 19.0536 44.88C19.3486 44.88 19.4962 44.7333 19.4962 44.44C19.4962 44.0733 19.3486 44 18.611 44H17.7259V44.88C17.7259 45.6133 17.7995 45.76 18.1684 45.76C18.4634 45.76 18.611 45.9067 18.611 46.2C18.611 46.6033 18.4634 46.64 16.8407 46.64C15.2179 46.64 15.0703 46.6033 15.0703 46.2C15.0703 45.9067 15.2179 45.76 15.5129 45.76C15.8079 45.76 15.9555 45.6133 15.9555 45.32C15.9555 45.0267 16.1031 44.88 16.3981 44.88C16.6931 44.88 16.8407 44.7333 16.8407 44.44C16.8407 44.0733 16.6931 44 15.9555 44H15.0703V44.88V45.76H13.7684C12.6524 45.76 12.4499 45.6971 12.3506 45.32C12.2585 44.97 12.3439 44.88 12.7675 44.88C13.243 44.88 13.2999 44.7841 13.2999 43.9804V43.0808L11.9717 43.1554C10.7196 43.2258 10.6435 43.2016 10.6439 42.735C10.6441 42.3865 10.5134 42.24 10.2018 42.24C9.87713 42.24 9.75918 42.0933 9.75918 41.69C9.75918 41.2867 9.87713 41.14 10.2018 41.14C10.4476 41.14 10.6444 40.9933 10.6444 40.81C10.6444 40.6267 10.8411 40.48 11.087 40.48C11.3751 40.48 11.5295 40.6267 11.5295 40.9006C11.5295 41.1759 11.6632 41.3017 11.9168 41.2647C12.2235 41.2203 12.3182 40.9499 12.3725 39.9643C12.4349 38.8326 12.3997 38.72 11.9852 38.72C11.6772 38.72 11.5295 38.8623 11.5295 39.16C11.5295 39.4159 11.3819 39.6 11.1768 39.6C10.9829 39.6 10.7721 39.798 10.7085 40.04C10.6444 40.2835 10.4067 40.48 10.1759 40.48C9.80255 40.48 9.75918 40.297 9.75918 38.72V36.96H8.87399C8.13641 36.96 7.9888 37.0333 7.9888 37.4C7.9888 37.6559 7.8412 37.84 7.63606 37.84C7.4422 37.84 7.23131 38.038 7.16779 38.28C7.01023 38.8786 6.21843 38.8652 6.21843 38.2639C6.21843 37.9491 6.09915 37.8305 5.8336 37.8814C5.26487 37.9903 5.19073 38.72 5.74862 38.72C6.13854 38.72 6.20493 38.8835 6.26269 39.985C6.32001 41.0766 6.38905 41.25 6.76725 41.2504C7.14589 41.2509 7.19634 41.378 7.1377 42.1854C7.07795 43.0065 7.12553 43.12 7.52939 43.12C7.94344 43.12 7.9888 43.2505 7.9888 44.44V45.76H8.87399C9.61157 45.76 9.75918 45.8333 9.75918 46.2C9.75918 46.5678 9.61157 46.64 8.86071 46.64H7.96203L8.03085 47.465C8.08352 48.0973 8.20391 48.305 8.54714 48.3538C8.9271 48.4079 8.98198 48.5487 8.91117 49.2888L8.82752 50.16H7.52297C6.36604 50.16 6.21843 50.2097 6.21843 50.6C6.21843 50.8933 6.07083 51.04 5.77584 51.04C5.40694 51.04 5.33325 51.1867 5.33325 51.92C5.33325 52.6533 5.40694 52.8 5.77584 52.8C6.14474 52.8 6.21843 52.9467 6.21843 53.68C6.21843 54.4295 6.28792 54.56 6.68692 54.56C7.03856 54.56 7.12774 54.4555 7.04497 54.1407C6.96332 53.8305 7.07175 53.6952 7.46168 53.6213C7.89652 53.5385 7.9888 53.6118 7.9888 54.0406C7.9888 54.4973 8.09259 54.56 8.8481 54.56C9.52151 54.56 9.73262 54.6553 9.82335 55C9.89041 55.255 10.1252 55.44 10.3817 55.44C10.7152 55.44 10.7957 55.5482 10.7085 55.88C10.6426 56.1308 10.4067 56.32 10.1597 56.32C9.56112 56.32 9.72797 57.0691 10.3461 57.1571C10.6917 57.2064 10.7878 57.3386 10.7052 57.6521C10.62 57.9764 10.7061 58.08 11.0611 58.08C11.3819 58.08 11.5295 57.9414 11.5295 57.64C11.5295 57.3219 11.6772 57.2 12.062 57.2C12.4855 57.2 12.571 57.29 12.4789 57.64C12.3769 58.0274 12.4721 58.08 13.274 58.08H14.1851V58.96C14.1851 59.6933 14.1114 59.84 13.7425 59.84C13.4422 59.84 13.2999 59.6933 13.2999 59.3839C13.2999 58.5836 12.536 58.9626 12.4548 59.8035C12.3981 60.3887 12.4749 60.5568 12.8421 60.6522C13.1005 60.7196 13.2999 60.9517 13.2999 61.1857C13.2999 61.5223 13.4657 61.6 14.1851 61.6C14.9227 61.6 15.0703 61.5267 15.0703 61.16C15.0703 60.9041 15.2179 60.72 15.423 60.72C15.6169 60.72 15.8278 60.522 15.8913 60.28C15.9555 60.0365 16.1932 59.84 16.424 59.84C16.7858 59.84 16.8407 60.014 16.8407 61.16C16.8407 62.3333 16.7915 62.48 16.3981 62.48C16.0046 62.48 15.9555 62.6267 15.9555 63.8V65.12H15.0962C14.431 65.12 14.2112 65.0232 14.1243 64.6921C14.0415 64.3782 14.1377 64.2466 14.4856 64.1971C14.8609 64.1441 14.9742 63.954 15.0296 63.2852L15.0995 62.4402L14.255 62.5618C13.7905 62.6287 13.3856 62.687 13.3552 62.6916C13.3249 62.6963 13.2999 63.2445 13.2999 63.91C13.2999 64.9733 13.2464 65.12 12.8573 65.12C12.5623 65.12 12.4147 64.9733 12.4147 64.68C12.4147 64.3867 12.2671 64.24 11.9721 64.24C11.6772 64.24 11.5295 64.3867 11.5295 64.68C11.5295 64.9682 11.6772 65.12 11.9573 65.12C12.1926 65.12 12.4482 65.318 12.5254 65.56C12.6026 65.802 12.8084 66 12.9828 66C13.2229 66 13.2999 66.321 13.2999 67.32C13.2999 68.4933 13.349 68.64 13.7425 68.64C14.0331 68.64 14.1851 68.7867 14.1851 69.067C14.1851 69.4562 14.3462 69.4927 16.0108 69.48C17.7498 69.4663 17.8332 69.4879 17.7672 69.9329C17.7006 70.3826 17.7807 70.4 19.9249 70.4C22.0042 70.4 22.1518 70.4293 22.1518 70.84C22.1518 71.2312 22.2994 71.28 23.4796 71.28C24.6597 71.28 24.8073 71.2312 24.8073 70.84C24.8073 70.5505 24.6597 70.4 24.3758 70.4C24.006 70.4 23.9348 70.22 23.8779 69.144C23.823 68.1054 23.7349 67.8674 23.3689 67.769C23.0334 67.6788 22.9263 67.4637 22.9263 66.88C22.9263 66.0504 23.3357 65.7776 24.3094 65.9586C24.9631 66.0803 24.9972 66.88 24.3486 66.88C24.0319 66.88 23.9126 66.9986 23.9638 67.2626C24.0749 67.8359 24.8073 67.8999 24.8073 67.3361C24.8073 67.0267 24.9496 66.88 25.2499 66.88C25.6434 66.88 25.6925 67.0267 25.6925 68.2V69.52H26.5777H27.4629V67.6707C27.4629 65.9296 27.4888 65.828 27.9055 65.9362C28.2452 66.0246 28.3481 65.943 28.3481 65.5857C28.3481 65.1642 28.4718 65.12 29.65 65.12C30.766 65.12 30.9685 65.1829 31.0678 65.56C31.1349 65.815 31.3697 66 31.6262 66C31.9596 66 32.0402 66.1082 31.953 66.44C31.864 66.7777 31.9461 66.88 32.3055 66.88C32.7045 66.88 32.774 66.7495 32.774 66C32.774 65.2667 32.8477 65.12 33.2166 65.12C33.5116 65.12 33.6592 64.9733 33.6592 64.68C33.6592 64.3867 33.5116 64.24 33.2166 64.24C32.9216 64.24 32.774 64.3867 32.774 64.68C32.774 65.0445 32.6264 65.12 31.9147 65.12C31.2413 65.12 31.0302 65.0247 30.9395 64.68C30.876 64.438 30.6651 64.24 30.4712 64.24C30.2661 64.24 30.1185 64.0559 30.1185 63.8C30.1185 63.4333 30.2661 63.36 31.0036 63.36C31.7412 63.36 31.8888 63.2867 31.8888 62.92C31.8888 62.6267 32.0364 62.48 32.3314 62.48C32.6264 62.48 32.774 62.3333 32.774 62.04C32.774 61.6733 32.9216 61.6 33.6592 61.6C34.3968 61.6 34.5444 61.5267 34.5444 61.16C34.5444 60.8667 34.692 60.72 34.987 60.72C35.3579 60.72 35.4296 60.8667 35.4296 61.6257C35.4296 62.423 35.4825 62.5176 35.8722 62.4162C36.2243 62.3247 36.3148 62.4096 36.3148 62.8307C36.3148 63.2133 36.1922 63.36 35.8722 63.36C35.5814 63.36 35.4296 63.5067 35.4296 63.7875C35.4296 64.1117 35.5491 64.1918 35.9264 64.1197C36.8684 63.9393 37.1999 64.2037 37.1999 65.1347C37.1999 65.8533 37.275 66 37.6425 66C38.0114 66 38.0851 66.1467 38.0851 66.88C38.0851 67.6133 38.1588 67.76 38.5277 67.76C38.8966 67.76 38.9703 67.9067 38.9703 68.64C38.9703 69.3733 39.044 69.52 39.4129 69.52C39.7079 69.52 39.8555 69.6667 39.8555 69.96C39.8555 70.2533 40.0031 70.4 40.2981 70.4C40.667 70.4 40.7407 70.5467 40.7407 71.28C40.7407 72.0133 40.8144 72.16 41.1833 72.16C41.4783 72.16 41.6259 72.3067 41.6259 72.6C41.6259 72.8933 41.7735 73.04 42.0685 73.04C42.4374 73.04 42.5111 73.1867 42.5111 73.92C42.5111 74.6533 42.5848 74.8 42.9537 74.8C43.3226 74.8 43.3963 74.9467 43.3963 75.68C43.3963 76.4133 43.4699 76.56 43.8388 76.56C44.2445 76.56 44.2814 76.7067 44.2814 78.32C44.2814 79.9333 44.3184 80.08 44.724 80.08C45.1421 80.08 45.1666 80.2267 45.1666 82.72C45.1666 85.2133 45.1421 85.36 44.724 85.36C44.3184 85.36 44.2814 85.5067 44.2814 87.12C44.2814 88.7333 44.3184 88.88 44.724 88.88C45.1372 88.88 45.1666 89.0267 45.1666 91.08C45.1666 93.1333 45.1961 93.28 45.6092 93.28C46.0308 93.28 46.0518 93.4267 46.0518 96.36C46.0518 99.2933 46.0308 99.44 45.6092 99.44C45.2036 99.44 45.1666 99.5867 45.1666 101.2C45.1666 102.813 45.2036 102.96 45.6092 102.96C45.9042 102.96 46.0518 103.107 46.0518 103.4C46.0518 103.693 46.1994 103.84 46.4944 103.84C46.8633 103.84 46.937 103.693 46.937 102.96C46.937 102.227 47.0107 102.08 47.3796 102.08C47.8012 102.08 47.8222 101.933 47.8222 99C47.8222 96.0667 47.8012 95.92 47.3796 95.92C46.9664 95.92 46.937 95.7733 46.937 93.72C46.937 91.6667 46.9076 91.52 46.4944 91.52C46.0728 91.52 46.0518 91.3733 46.0518 88.44C46.0518 85.5067 46.0728 85.36 46.4944 85.36C46.8633 85.36 46.937 85.2133 46.937 84.48C46.937 83.7467 47.0107 83.6 47.3796 83.6C47.6746 83.6 47.8222 83.4533 47.8222 83.16C47.8222 82.8667 47.9698 82.72 48.2648 82.72C48.6337 82.72 48.7074 82.5733 48.7074 81.84C48.7074 81.1067 48.7811 80.96 49.15 80.96C49.445 80.96 49.5926 80.8133 49.5926 80.52C49.5926 80.2267 49.7402 80.08 50.0351 80.08C50.4041 80.08 50.4777 79.9333 50.4777 79.2V78.32H49.15C47.9698 78.32 47.8222 78.3688 47.8222 78.76C47.8222 79.0533 47.6746 79.2 47.3796 79.2C47.0846 79.2 46.937 79.3467 46.937 79.64C46.937 79.9333 46.7894 80.08 46.4944 80.08C46.0888 80.08 46.0518 79.9333 46.0518 78.32C46.0518 76.7067 46.0149 76.56 45.6092 76.56C45.2158 76.56 45.1666 76.4133 45.1666 75.24V73.92H46.0259C46.6993 73.92 46.9104 74.0153 47.0012 74.36C47.153 74.9368 47.8222 74.9368 47.8222 74.36C47.8222 74.0667 47.9698 73.92 48.2648 73.92C48.5598 73.92 48.7074 73.7733 48.7074 73.48C48.7074 73.1133 48.5598 73.04 47.8222 73.04H46.937V72.0707C46.937 71.2096 46.9863 71.1141 47.3796 71.2162C47.7193 71.3046 47.8222 71.223 47.8222 70.8657C47.8222 70.5467 47.9616 70.4 48.2648 70.4C48.5598 70.4 48.7074 70.2533 48.7074 69.96C48.7074 69.5933 48.855 69.52 49.5926 69.52H50.4777V70.4V71.28H49.5926C48.855 71.28 48.7074 71.3533 48.7074 71.72C48.7074 72.0867 48.855 72.16 49.5926 72.16C50.3301 72.16 50.4777 72.2333 50.4777 72.6C50.4777 72.9667 50.6253 73.04 51.3629 73.04C52.1005 73.04 52.2481 72.9667 52.2481 72.6C52.2481 72.3158 52.3957 72.16 52.6648 72.16C52.8956 72.16 53.1333 72.3565 53.1975 72.6C53.2847 72.9318 53.2041 73.04 52.8706 73.04C52.6141 73.04 52.3793 73.225 52.3123 73.48C52.2481 73.7235 52.0104 73.92 51.7796 73.92C51.5105 73.92 51.3629 74.0758 51.3629 74.36C51.3629 74.6533 51.5105 74.8 51.8055 74.8C52.1005 74.8 52.2481 74.9467 52.2481 75.24C52.2481 75.5333 52.3957 75.68 52.6907 75.68C52.9939 75.68 53.1333 75.8267 53.1333 76.1457C53.1333 76.503 53.2362 76.5846 53.5759 76.4962C53.928 76.4047 54.0185 76.4896 54.0185 76.9107C54.0185 77.3815 54.1161 77.44 54.9037 77.44C55.6413 77.44 55.7889 77.5133 55.7889 77.88C55.7889 78.2467 55.9365 78.32 56.674 78.32H57.5592V76.4707C57.5592 74.6948 57.5778 74.626 58.0282 74.743C58.4595 74.8552 58.4902 74.7919 58.4097 73.9526C58.3302 73.1243 58.3685 73.04 58.8259 73.04C59.182 73.04 59.3296 72.9111 59.3296 72.6C59.3296 72.2355 59.4772 72.16 60.1889 72.16C60.8623 72.16 61.0734 72.2553 61.1642 72.6C61.316 73.1768 61.9852 73.1768 61.9852 72.6C61.9852 72.2333 62.1328 72.16 62.8703 72.16C63.6079 72.16 63.7555 72.0867 63.7555 71.72C63.7555 71.3533 63.9031 71.28 64.6407 71.28C65.3783 71.28 65.5259 71.3533 65.5259 71.72C65.5259 72.0133 65.3783 72.16 65.0833 72.16C64.6777 72.16 64.6407 72.3067 64.6407 73.92C64.6407 75.5333 64.6777 75.68 65.0833 75.68C65.3865 75.68 65.5259 75.8267 65.5259 76.1457C65.5259 76.503 65.6288 76.5846 65.9685 76.4962C66.3206 76.4047 66.4111 76.4896 66.4111 76.9107C66.4111 77.3815 66.5087 77.44 67.2963 77.44C68.0339 77.44 68.1815 77.3667 68.1815 77C68.1815 76.6902 68.0341 76.5602 67.6835 76.5604C67.2027 76.5611 67.1881 76.501 67.2578 74.8004L67.3299 73.04H68.1983C69.0638 73.04 69.0667 73.0429 69.0667 73.92C69.0667 74.6533 69.1403 74.8 69.5092 74.8C69.8042 74.8 69.9518 74.6533 69.9518 74.36C69.9518 74.0667 70.0994 73.92 70.3944 73.92C70.6894 73.92 70.837 74.0667 70.837 74.36C70.837 74.6533 70.9846 74.8 71.2796 74.8C71.5746 74.8 71.7222 74.9467 71.7222 75.24C71.7222 75.5333 71.8698 75.68 72.1648 75.68C72.4222 75.68 72.6074 75.5333 72.6074 75.3293C72.6074 75.1366 72.4082 74.9269 72.1648 74.8638C71.818 74.7736 71.7222 74.5637 71.7222 73.8943C71.7222 73.0442 71.7266 73.04 72.6074 73.04C73.345 73.04 73.4926 73.1133 73.4926 73.48C73.4926 73.8467 73.6402 73.92 74.3778 73.92H75.2629V72.6V71.28H77.0333C78.6561 71.28 78.8037 71.2433 78.8037 70.84C78.8037 70.4733 78.6561 70.4 77.9185 70.4C77.1659 70.4 77.0333 70.3305 77.0333 69.9365C77.0333 69.6043 76.9342 69.5108 76.6832 69.6065C76.4907 69.6799 76.2915 69.74 76.2406 69.74C76.1897 69.74 76.1481 69.8885 76.1481 70.07C76.1481 70.3083 75.9023 70.4 75.2629 70.4H74.3778V69.52C74.3778 68.7867 74.3041 68.64 73.9352 68.64C73.5663 68.64 73.4926 68.7867 73.4926 69.52C73.4926 70.2533 73.4189 70.4 73.05 70.4C72.7293 70.4 72.6074 70.2533 72.6074 69.868C72.6074 68.9126 72.381 68.64 71.5879 68.64C70.9742 68.64 70.837 68.5562 70.837 68.1811C70.837 67.7763 70.7262 67.731 69.8965 67.7961C69.0304 67.8641 68.9615 67.8308 69.0253 67.375C69.0777 66.9995 68.9843 66.88 68.638 66.88C68.2529 66.88 68.1815 66.7423 68.1815 66C68.1815 65.1244 68.1773 65.12 67.3222 65.12C66.6488 65.12 66.4376 65.0247 66.3469 64.68C66.1978 64.1124 65.7392 64.1124 65.5901 64.68C65.5259 64.9235 65.2882 65.12 65.0574 65.12C64.7883 65.12 64.6407 65.2758 64.6407 65.56C64.6407 65.8159 64.4931 66 64.288 66C64.0941 66 63.8832 66.198 63.8197 66.44C63.7555 66.6835 63.5179 66.88 63.287 66.88C62.9485 66.88 62.8703 66.7152 62.8703 66V65.12H61.9852C61.2476 65.12 61.1 65.0467 61.1 64.68C61.1 64.3867 60.9524 64.24 60.6574 64.24C60.3624 64.24 60.2148 64.0933 60.2148 63.8C60.2148 63.5067 60.0672 63.36 59.7722 63.36C59.2041 63.36 59.1506 62.4888 59.7169 62.4611C59.9298 62.4507 61.2896 62.4261 62.7387 62.4061C65.0621 62.3742 65.3796 62.3245 65.4299 61.985C65.4814 61.6367 65.2353 61.6 62.8509 61.6C60.3624 61.6 60.2148 61.5754 60.2148 61.16C60.2148 60.9041 60.0672 60.72 59.862 60.72C59.6682 60.72 59.4573 60.918 59.3938 61.16C59.3267 61.415 59.0919 61.6 58.8354 61.6C58.5017 61.6 58.4212 61.7082 58.5086 62.04C58.61 62.4259 58.5152 62.48 57.7391 62.48C57.0401 62.48 56.8296 62.5726 56.7382 62.92C56.6393 63.2958 56.4364 63.36 55.3463 63.36C54.2562 63.36 54.0532 63.2958 53.9543 62.92C53.8908 62.678 53.6799 62.48 53.486 62.48C53.2809 62.48 53.1333 62.6641 53.1333 62.92C53.1333 63.2867 52.9857 63.36 52.2481 63.36C51.5001 63.36 51.3629 63.2894 51.3629 62.9039C51.3629 62.5882 51.2436 62.4703 50.9757 62.5209C50.6703 62.5788 50.5745 62.861 50.522 63.8572C50.4651 64.94 50.3941 65.12 50.0241 65.12C49.7869 65.12 49.5926 64.9735 49.5926 64.7942C49.5926 64.4296 48.6667 64.1241 48.1546 64.3194C47.9142 64.4112 47.8222 64.2959 47.8222 63.9032C47.8222 63.5067 47.7027 63.36 47.3796 63.36C47.0846 63.36 46.937 63.2133 46.937 62.92C46.937 62.5533 47.0846 62.48 47.8222 62.48C48.5598 62.48 48.7074 62.4067 48.7074 62.04C48.7074 61.6733 48.5598 61.6 47.8222 61.6C47.0846 61.6 46.937 61.5267 46.937 61.16C46.937 60.7933 47.0846 60.72 47.8222 60.72H48.7074V59.829V58.938L47.4349 59.004L46.1625 59.07L46.0961 60.335C46.0392 61.42 45.9684 61.6 45.5982 61.6C45.3142 61.6 45.1666 61.4495 45.1666 61.16C45.1666 60.7933 45.019 60.72 44.2814 60.72C43.5439 60.72 43.3963 60.7933 43.3963 61.16C43.3963 61.4585 43.2486 61.6 42.9375 61.6C42.6193 61.6 42.5018 61.7181 42.5538 61.985C42.6171 62.3099 42.9021 62.3744 44.3799 62.3984L46.131 62.4268L46.0757 63.7734L46.0206 65.12H47.3639H48.7074V66.4143C48.7074 67.5237 48.6441 67.725 48.2648 67.8238C47.8888 67.9215 47.8222 68.1239 47.8222 69.1693C47.8222 70.228 47.764 70.4 47.4055 70.4C47.1747 70.4 46.937 70.2035 46.8728 69.96C46.8093 69.718 46.5984 69.52 46.4046 69.52C46.1994 69.52 46.0518 69.3359 46.0518 69.08C46.0518 68.7867 45.9042 68.64 45.6092 68.64C45.318 68.64 45.1666 68.7867 45.1666 69.069C45.1666 69.4371 44.9856 69.5075 43.8942 69.564L42.6217 69.63L42.6554 70.4C42.6739 70.8235 42.6416 70.9966 42.5839 70.785C42.5259 70.5731 42.2867 70.4 42.0523 70.4C41.7735 70.4 41.6259 70.2478 41.6259 69.96C41.6259 69.6667 41.4783 69.52 41.1833 69.52C40.8883 69.52 40.7407 69.3733 40.7407 69.08C40.7407 68.7867 40.5931 68.64 40.2981 68.64C40.0031 68.64 39.8555 68.4933 39.8555 68.2C39.8555 67.9067 39.7079 67.76 39.4129 67.76C39.0195 67.76 38.9703 67.6133 38.9703 66.44C38.9703 65.2667 38.9212 65.12 38.5277 65.12C38.2378 65.12 38.0851 64.9733 38.0851 64.6947C38.0851 64.4609 38.2843 64.2068 38.5277 64.13C38.7712 64.0532 38.9703 63.8486 38.9703 63.6753C38.9703 63.4542 39.2348 63.36 39.8555 63.36C40.5931 63.36 40.7407 63.4333 40.7407 63.8C40.7407 64.0933 40.8883 64.24 41.1833 64.24C41.4783 64.24 41.6259 64.0933 41.6259 63.8C41.6259 63.5067 41.7735 63.36 42.0685 63.36C42.4374 63.36 42.5111 63.5067 42.5111 64.24C42.5111 64.9733 42.5848 65.12 42.9537 65.12C43.2486 65.12 43.3963 65.2667 43.3963 65.56C43.3963 65.9267 43.5439 66 44.2814 66C45.1403 66 45.1666 66.0222 45.1666 66.7465C45.1666 67.5851 45.2886 67.6603 46.771 67.7382C47.6274 67.7831 47.8222 67.7252 47.8222 67.426C47.8222 67.2241 47.623 67.0069 47.3796 66.9438C47.1346 66.88 46.937 66.6437 46.937 66.4143C46.937 66.0777 46.7712 66 46.0518 66C45.3142 66 45.1666 65.9267 45.1666 65.56C45.1666 65.2758 45.019 65.12 44.7499 65.12C44.5191 65.12 44.2814 64.9235 44.2173 64.68C44.1538 64.438 43.9429 64.24 43.749 64.24C43.5439 64.24 43.3963 64.0559 43.3963 63.8C43.3963 63.5158 43.2486 63.36 42.9796 63.36C42.7487 63.36 42.5111 63.1635 42.4469 62.92C42.3834 62.678 42.1725 62.48 41.9786 62.48C41.7735 62.48 41.6259 62.2959 41.6259 62.04C41.6259 61.7467 41.4783 61.6 41.1833 61.6C40.7934 61.6 40.7102 61.4414 40.7506 60.775C40.7562 60.6841 40.9553 60.641 41.1932 60.6789C41.5051 60.7284 41.6259 60.621 41.6259 60.2939C41.6259 60.0294 41.7699 59.84 41.9709 59.84C42.1605 59.84 42.2544 59.741 42.1791 59.62C42.1039 59.499 42.1479 59.4 42.2767 59.4C42.4104 59.4 42.5111 58.9274 42.5111 58.3V57.2H43.8388C45.019 57.2 45.1666 57.1512 45.1666 56.76C45.1666 56.4667 45.3142 56.32 45.6092 56.32C45.9781 56.32 46.0518 56.4667 46.0518 57.2C46.0518 57.9333 46.1255 58.08 46.4944 58.08C46.8633 58.08 46.937 57.9333 46.937 57.2C46.937 56.4667 47.0107 56.32 47.3796 56.32C47.6717 56.32 47.8222 56.1733 47.8222 55.8886C47.8222 55.5291 47.6837 55.4642 46.9923 55.4996C46.536 55.5229 46.1375 55.4697 46.1071 55.381C45.9418 54.8999 46.1023 54.56 46.4944 54.56C46.8879 54.56 46.937 54.4133 46.937 53.24V51.92H47.8222C48.5598 51.92 48.7074 51.9933 48.7074 52.36C48.7074 52.6533 48.855 52.8 49.15 52.8C49.4359 52.8 49.5926 52.6533 49.5926 52.3857C49.5926 52.1563 49.7902 51.92 50.0351 51.8562C50.2786 51.7931 50.4777 51.5834 50.4777 51.3907C50.4777 51.1801 50.6652 51.04 50.9462 51.04C51.3056 51.04 51.3877 50.9377 51.2988 50.6C51.2067 50.25 51.2921 50.16 51.7157 50.16C52.1005 50.16 52.2481 50.0381 52.2481 49.72C52.2481 49.4267 52.3957 49.28 52.6907 49.28C53.0842 49.28 53.1333 49.1333 53.1333 47.96V46.64H54.0185C54.7561 46.64 54.9037 46.7133 54.9037 47.08C54.9037 47.3733 54.7561 47.52 54.4611 47.52C54.0672 47.52 54.0185 47.6667 54.0185 48.8539C54.0185 50.0542 54.0619 50.1807 54.4511 50.1189C54.689 50.081 54.8882 50.1244 54.8937 50.215C54.9342 50.8814 54.851 51.04 54.4611 51.04C54.1661 51.04 54.0185 51.1867 54.0185 51.48C54.0185 51.8467 53.8709 51.92 53.1333 51.92C52.3957 51.92 52.2481 51.9933 52.2481 52.36C52.2481 52.6533 52.3957 52.8 52.6907 52.8C52.9939 52.8 53.1333 52.9467 53.1333 53.2657C53.1333 53.6188 53.2373 53.7042 53.5644 53.6193C53.9333 53.5234 54.005 53.6382 54.0623 54.4168C54.1108 55.0755 54.236 55.3463 54.5164 55.3993C54.7844 55.4497 54.9037 55.3318 54.9037 55.0161C54.9037 54.6053 55.0356 54.56 56.2315 54.56H57.5592V55.44V56.32H56.2315H54.9037V57.6101V58.8999H55.7889C56.505 58.8999 56.674 58.8216 56.674 58.4901C56.674 58.2267 56.8323 58.08 57.1166 58.08C57.4366 58.08 57.5592 57.9333 57.5592 57.5507C57.5592 57.1296 57.6497 57.0447 58.0018 57.1362C58.4117 57.2429 58.4444 57.143 58.4444 55.7828C58.4444 54.7923 58.367 54.3616 58.2067 54.4601C58.0762 54.5404 58.1001 54.3976 58.2601 54.1431C58.6354 53.5456 59.3296 53.5306 59.3296 54.12C59.3296 54.4133 59.4772 54.56 59.7722 54.56C60.132 54.56 60.2192 54.7144 60.2382 55.385C60.2513 55.8389 60.2761 56.408 60.2936 56.65C60.313 56.9197 60.1546 57.1362 59.8839 57.2097C59.6412 57.2755 59.4099 57.4981 59.3699 57.7047C59.3077 58.0252 59.4934 58.08 60.6412 58.08H61.9852V57.2C61.9852 56.4848 62.0633 56.32 62.4019 56.32C62.6327 56.32 62.8703 56.5165 62.9345 56.76C62.9983 57.0022 63.2364 57.2 63.4641 57.2C63.8148 57.2 63.8646 57.3368 63.7918 58.098C63.7177 58.8691 63.7637 58.9899 64.1178 58.9527C64.3446 58.9288 64.7817 58.9208 65.0891 58.9347C65.6047 58.958 65.6416 59.0284 65.5637 59.84L65.4794 60.72H66.8304H68.1815V61.6V62.48H69.0667C69.8042 62.48 69.9518 62.5533 69.9518 62.92C69.9518 63.2179 70.0994 63.36 70.4084 63.36C70.7547 63.36 70.8481 63.2405 70.7956 62.865C70.7392 62.4626 70.8195 62.3828 71.2243 62.4389C71.602 62.491 71.7222 62.3982 71.7222 62.0539C71.7222 61.7467 71.8652 61.6 72.1648 61.6C72.5337 61.6 72.6074 61.4533 72.6074 60.72C72.6074 59.9867 72.6811 59.84 73.05 59.84C73.345 59.84 73.4926 59.6933 73.4926 59.4C73.4926 58.9844 73.345 58.96 70.837 58.96C68.3291 58.96 68.1815 58.9844 68.1815 59.4C68.1815 59.7667 68.0339 59.84 67.2963 59.84H66.4111V58.52V57.2H68.6241C70.6894 57.2 70.837 57.2293 70.837 57.64C70.837 58.0312 70.9846 58.08 72.1648 58.08C73.345 58.08 73.4926 58.0312 73.4926 57.64C73.4926 57.2733 73.345 57.2 72.6074 57.2C71.8698 57.2 71.7222 57.1267 71.7222 56.76C71.7222 56.4667 71.8698 56.32 72.1648 56.32C72.4598 56.32 72.6074 56.1733 72.6074 55.88C72.6074 55.5867 72.755 55.44 73.05 55.44C73.4189 55.44 73.4926 55.2933 73.4926 54.56C73.4926 53.9244 73.5849 53.68 73.8245 53.68C74.0071 53.68 74.224 53.6804 74.3067 53.6811C74.3893 53.6815 74.4641 54.0529 74.4727 54.5061L74.4884 55.33L75.7609 55.396L77.0333 55.462V54.4854C77.0333 53.6985 77.1068 53.5148 77.4122 53.5394C77.6204 53.5564 77.8269 53.3969 77.8709 53.185C77.9267 52.9166 77.8121 52.8 77.4921 52.8C77.1754 52.8 77.0333 52.6588 77.0333 52.3439C77.0333 52.0282 76.914 51.9103 76.6461 51.9607C76.3657 52.0137 76.2404 52.2845 76.192 52.9432C76.1346 53.7218 76.0629 53.8366 75.694 53.7407C75.0642 53.577 75.0737 52.0205 75.7055 51.8562C76.0277 51.7724 76.1481 51.5561 76.1481 51.0607C76.1481 50.6862 76.0736 50.3725 75.9822 50.3631C75.8908 50.3538 75.6312 50.3116 75.405 50.2691C74.835 50.1622 74.3778 50.3688 74.3778 50.7335C74.3778 50.9021 74.1786 51.04 73.9352 51.04C73.6402 51.04 73.4926 51.1867 73.4926 51.48C73.4926 51.7244 73.345 51.92 73.1606 51.92C72.6107 51.92 72.501 51.828 72.5696 51.425C72.6145 51.1617 72.491 51.04 72.1787 51.04C71.8698 51.04 71.7222 50.8979 71.7222 50.6C71.7222 50.2333 71.5746 50.16 70.837 50.16C70.0994 50.16 69.9518 50.2333 69.9518 50.6C69.9518 50.9667 69.8042 51.04 69.0667 51.04C68.3291 51.04 68.1815 50.9667 68.1815 50.6C68.1815 50.2333 68.0339 50.16 67.2963 50.16H66.4111V49.28V48.4H65.5259C64.8065 48.4 64.6407 48.4777 64.6407 48.8143C64.6407 49.0437 64.4431 49.28 64.1981 49.3438C63.8591 49.4318 63.7555 49.6439 63.7555 50.2493C63.7555 50.8933 63.6734 51.04 63.3129 51.04C63.018 51.04 62.8703 51.1867 62.8703 51.48C62.8703 51.7733 62.7227 51.92 62.4278 51.92C62.1328 51.92 61.9852 51.7733 61.9852 51.48C61.9852 51.1867 61.8376 51.04 61.5426 51.04C61.1737 51.04 61.1 50.8933 61.1 50.16C61.1 49.6632 60.9933 49.28 60.855 49.28C60.7202 49.28 60.6673 49.4285 60.7375 49.61C60.8074 49.7915 60.7756 49.94 60.6667 49.94C60.5578 49.94 60.423 49.7666 60.3673 49.555C60.3117 49.3431 60.2546 49.5906 60.2405 50.105L60.2148 51.04H59.3296H58.4444V50.16C58.4444 49.4267 58.5181 49.28 58.887 49.28C59.1866 49.28 59.3296 49.1333 59.3296 48.8261C59.3296 48.4818 59.2094 48.389 58.8317 48.4411C58.4269 48.4972 58.3466 48.4174 58.403 48.015C58.4555 47.6395 58.3621 47.52 58.0158 47.52C57.7068 47.52 57.5592 47.3779 57.5592 47.08C57.5592 46.7133 57.7068 46.64 58.4444 46.64H59.3296V45.76C59.3296 45.2177 59.4358 44.8692 59.6062 44.8516C61.1137 44.697 61.1 44.6893 61.1 45.7079V46.6662L62.3696 46.598C63.3696 46.5445 63.6551 46.4482 63.7137 46.145C63.765 45.8784 63.6469 45.76 63.3291 45.76C63.0133 45.76 62.8703 45.6188 62.8703 45.3061C62.8703 44.9618 62.7502 44.869 62.3724 44.9211C61.9677 44.9772 61.8873 44.8974 61.9438 44.495C61.9962 44.1195 61.9028 44 61.5565 44C61.2476 44 61.1 43.8579 61.1 43.56C61.1 43.1567 61.2476 43.12 62.8703 43.12C64.4931 43.12 64.6407 43.0833 64.6407 42.68C64.6407 42.3133 64.7883 42.24 65.5259 42.24C66.2726 42.24 66.4111 42.1689 66.4111 41.7861C66.4111 41.4418 66.2909 41.349 65.9132 41.4011C65.5084 41.4572 65.4281 41.3774 65.4845 40.975C65.5465 40.5317 65.46 40.48 64.6547 40.48C63.7852 40.48 63.719 40.4186 63.7655 39.655C63.771 39.5644 63.9702 39.521 64.2081 39.5589C64.5199 39.6084 64.6407 39.501 64.6407 39.1739C64.6407 38.7911 64.7793 38.72 65.5259 38.72H66.4111V37.84C66.4111 37.1067 66.3374 36.96 65.9685 36.96C65.7226 36.96 65.5259 36.8133 65.5259 36.63C65.5259 36.1079 65.6131 35.9788 65.9685 35.9742C66.1913 35.9713 66.323 35.699 66.369 35.145C66.4275 34.4454 66.5169 34.32 66.957 34.32C67.3671 34.32 67.4519 34.4124 67.3605 34.76C67.2715 35.0977 67.3536 35.2 67.713 35.2C68.112 35.2 68.1815 35.0695 68.1815 34.32C68.1815 33.5867 68.2552 33.44 68.6241 33.44C68.919 33.44 69.0667 33.2933 69.0667 33C69.0667 32.7067 69.2143 32.56 69.5092 32.56C69.8781 32.56 69.9518 32.7067 69.9518 33.44C69.9518 34.188 69.8819 34.32 69.486 34.32C69.0759 34.32 69.0304 34.4254 69.1045 35.2C69.1943 36.135 69.0779 36.2155 67.7942 36.106C67.3549 36.0683 67.2963 36.1654 67.2963 36.9296C67.2963 37.7786 67.3124 37.796 68.0974 37.796C68.6982 37.796 68.9259 37.6915 69.0082 37.378C69.0925 37.0579 69.3194 36.96 69.9777 36.96C70.6164 36.96 70.837 36.87 70.837 36.6093C70.837 36.4166 70.6379 36.2069 70.3944 36.1438C70.1495 36.08 69.9518 35.8437 69.9518 35.6143C69.9518 35.3467 70.1085 35.2 70.3944 35.2C70.6803 35.2 70.837 35.0533 70.837 34.7857C70.837 34.5563 71.0346 34.32 71.2796 34.2562C71.6729 34.1541 71.7222 34.2496 71.7222 35.1107V36.08H72.9601C74.0117 36.08 74.2153 36.0138 74.3136 35.64C74.3778 35.3965 74.6154 35.2 74.8463 35.2C75.1848 35.2 75.2629 35.0352 75.2629 34.32C75.2629 33.5867 75.3366 33.44 75.7055 33.44C76.1975 33.44 76.313 32.89 75.8576 32.7162C75.6976 32.6553 75.2992 32.6561 74.9724 32.7184C74.393 32.8284 74.3778 32.804 74.3778 31.7607V30.69H75.2629C76.0333 30.69 76.1481 30.7542 76.1481 31.185C76.1481 31.5333 76.2794 31.68 76.5907 31.68C76.8857 31.68 77.0333 31.8267 77.0333 32.12C77.0333 32.4133 77.1809 32.56 77.4759 32.56C77.7709 32.56 77.9185 32.4133 77.9185 32.12C77.9185 31.8267 78.0661 31.68 78.3611 31.68C78.73 31.68 78.8037 31.5333 78.8037 30.8C78.8037 30.0577 78.8752 29.92 79.2602 29.92C79.6066 29.92 79.6999 29.8005 79.6475 29.425C79.5911 29.0226 79.6714 28.9428 80.0761 28.9989C80.5221 29.0605 80.5741 28.9744 80.5741 28.1739V27.28H79.6889C78.9513 27.28 78.8037 27.2067 78.8037 26.84C78.8037 26.4733 78.6561 26.4 77.9185 26.4H77.0333V27.28C77.0333 28.0133 76.9596 28.16 76.5907 28.16C76.2957 28.16 76.1481 28.0133 76.1481 27.72C76.1481 27.4267 76.0005 27.28 75.7055 27.28C75.3366 27.28 75.2629 27.4267 75.2629 28.16C75.2629 28.943 75.2041 29.04 74.7305 29.04C74.307 29.04 74.2215 28.95 74.3136 28.6C74.4025 28.2623 74.3205 28.16 73.9611 28.16C73.5621 28.16 73.4926 28.0295 73.4926 27.28C73.4926 26.5467 73.5663 26.4 73.9352 26.4C74.2353 26.4 74.3778 26.2533 74.3778 25.9442C74.3778 25.6065 74.249 25.4989 73.8799 25.5286C72.8661 25.6102 72.6074 25.5191 72.6074 25.08C72.6074 24.7867 72.755 24.64 73.05 24.64C73.345 24.64 73.4926 24.4933 73.4926 24.2C73.4926 23.9067 73.345 23.76 73.05 23.76C72.755 23.76 72.6074 23.9067 72.6074 24.2C72.6074 24.5667 72.4598 24.64 71.7222 24.64C71.0599 24.64 70.837 24.7282 70.837 24.9907C70.837 25.1834 71.0362 25.3931 71.2796 25.4562C71.6589 25.555 71.7222 25.7563 71.7222 26.8657V28.16H70.837C70.0994 28.16 69.9518 28.0867 69.9518 27.72C69.9518 27.4267 70.0994 27.28 70.3944 27.28C70.6894 27.28 70.837 27.1333 70.837 26.84C70.837 26.4733 70.6894 26.4 69.9518 26.4C69.2143 26.4 69.0667 26.3267 69.0667 25.96C69.0667 25.6667 69.2143 25.52 69.5092 25.52C69.8781 25.52 69.9518 25.3733 69.9518 24.64C69.9518 23.9067 69.8781 23.76 69.5092 23.76C69.1403 23.76 69.0667 23.9067 69.0667 24.64C69.0667 25.3733 68.993 25.52 68.6241 25.52C68.3291 25.52 68.1815 25.6667 68.1815 25.96C68.1815 26.2533 68.3291 26.4 68.6241 26.4C68.919 26.4 69.0667 26.5467 69.0667 26.84C69.0667 27.1333 68.919 27.28 68.6241 27.28C68.3291 27.28 68.1815 27.4267 68.1815 27.72C68.1815 28.0133 68.0339 28.16 67.7389 28.16C67.4105 28.16 67.2963 28.3067 67.2963 28.728C67.2963 29.3218 67.3439 29.313 65.5812 29.0484C65.5509 29.0437 65.5259 28.842 65.5259 28.6C65.5259 28.3067 65.3783 28.16 65.0833 28.16C64.4413 28.16 64.4911 28.9883 65.1386 29.0796C65.4126 29.1183 65.6266 29.2739 65.6144 29.425C65.6022 29.5764 65.5775 30.1455 65.5591 30.69L65.5259 31.68H64.6666C63.9932 31.68 63.7821 31.5847 63.6914 31.24C63.5931 30.8662 63.3895 30.8 62.3379 30.8C61.2476 30.8 61.1 30.7476 61.1 30.36C61.1 30.0621 61.2476 29.92 61.5565 29.92C61.9028 29.92 61.9962 29.8005 61.9438 29.425C61.8873 29.0226 61.9677 28.9428 62.3724 28.9989C62.7502 29.051 62.8703 28.9582 62.8703 28.6139C62.8703 28.3067 62.7274 28.16 62.4278 28.16C62.1843 28.16 61.9852 28.0221 61.9852 27.8535C61.9852 27.3354 61.2949 27.2224 61.1644 27.7191C61.1 27.9633 60.8625 28.16 60.6315 28.16C60.3546 28.16 60.2148 28.3162 60.2148 28.6257C60.2148 28.983 60.3177 29.0646 60.6574 28.9762C61.0095 28.8847 61.1 28.9696 61.1 29.3907C61.1 29.7733 60.9774 29.92 60.6574 29.92C60.3624 29.92 60.2148 30.0667 60.2148 30.36C60.2148 30.7146 60.0672 30.8 59.4551 30.8C58.8899 30.8 58.6595 30.9126 58.5551 31.24C58.4778 31.482 58.2222 31.68 57.987 31.68C57.6095 31.68 57.5592 31.5172 57.5592 30.294C57.5592 29.5093 57.4439 28.7934 57.2937 28.644C56.9203 28.2729 56.7181 28.3158 56.7539 28.7588C56.7792 29.0682 56.6023 29.1339 55.7889 29.1179C54.9032 29.1005 54.8008 29.0464 54.8623 28.6293C54.9218 28.2251 54.822 28.16 54.1431 28.16C53.3708 28.16 53.3546 28.178 53.3546 29.04C53.3546 29.8932 53.3774 29.92 54.1032 29.92C54.666 29.92 54.8809 30.0293 54.9678 30.36C55.0314 30.602 55.2423 30.8 55.4361 30.8C55.6413 30.8 55.7889 30.9841 55.7889 31.24C55.7889 31.5333 55.9365 31.68 56.2315 31.68C56.5428 31.68 56.6743 31.8267 56.6745 32.175C56.6749 32.6416 56.5988 32.6658 55.3467 32.5954C54.2128 32.5318 54.0185 32.4595 54.0185 32.1004C54.0185 31.8267 53.864 31.68 53.5759 31.68C53.3325 31.68 53.1333 31.5381 53.1333 31.3647C53.1333 31.1914 52.9341 30.9868 52.6907 30.91C52.2873 30.7826 52.2481 30.5771 52.2481 28.5853C52.2481 26.5467 52.2185 26.4 51.8055 26.4C51.4156 26.4 51.3324 26.2414 51.3729 25.575C51.3784 25.4844 51.5776 25.441 51.8155 25.4789C52.1273 25.5284 52.2481 25.421 52.2481 25.0939C52.2481 24.6543 52.1366 24.64 48.7074 24.64C45.2782 24.64 45.1666 24.6543 45.1666 25.0939C45.1666 25.4344 45.2868 25.5306 45.6482 25.4789C46.0719 25.4184 46.1317 25.5158 46.1461 26.29L46.1625 27.17L47.4349 27.238L48.7074 27.3062V26.413C48.7074 25.766 48.7988 25.52 49.0393 25.52C49.6215 25.52 49.6797 25.6133 49.6191 26.4499C49.5434 27.4919 49.755 28.16 50.1606 28.16C50.6563 28.16 50.5357 28.9736 50.0201 29.1075C49.6014 29.2164 49.5669 29.372 49.6114 30.9483C49.6581 32.5976 49.6399 32.6671 49.1836 32.6011C48.7408 32.5371 48.7074 32.6262 48.7074 33.8661C48.7074 35.0533 48.6587 35.2 48.2648 35.2C47.9698 35.2 47.8222 35.0533 47.8222 34.76C47.8222 34.4667 47.6746 34.32 47.3796 34.32C47.0846 34.32 46.937 34.4667 46.937 34.76C46.937 35.0533 46.7894 35.2 46.4944 35.2C46.1753 35.2 46.0518 35.0533 46.0518 34.6744C46.0518 34.309 46.1698 34.1583 46.4391 34.1794C46.735 34.2027 46.8427 34.0116 46.8961 33.3687C46.9571 32.6302 46.9111 32.5362 46.5187 32.5987C46.2731 32.6379 46.0673 32.5956 46.0618 32.505C46.0155 31.7429 46.0821 31.68 46.937 31.68H47.8222V30.8C47.8222 30.0667 47.7485 29.92 47.3796 29.92C47.08 29.92 46.937 29.7733 46.937 29.4661C46.937 29.1218 46.8168 29.029 46.4391 29.0811C46.0343 29.1372 45.954 29.0574 46.0104 28.655C46.0629 28.2795 45.9695 28.16 45.6232 28.16C45.2381 28.16 45.1666 28.2977 45.1666 29.04V29.92H44.2814C43.5439 29.92 43.3963 29.8467 43.3963 29.48C43.3963 29.1133 43.2486 29.04 42.5111 29.04H41.6259V29.92V30.8H42.5111C43.2486 30.8 43.3963 30.8733 43.3963 31.24C43.3963 31.6312 43.2486 31.68 42.0685 31.68C40.8883 31.68 40.7407 31.7288 40.7407 32.12C40.7407 32.4867 40.8883 32.56 41.6259 32.56C42.3635 32.56 42.5111 32.6333 42.5111 33C42.5111 33.3667 42.3635 33.44 41.6259 33.44C40.8383 33.44 40.7407 33.4985 40.7407 33.9693C40.7407 34.3904 40.6502 34.4753 40.2981 34.3838C40.0416 34.3171 39.8555 34.0837 39.8555 33.8287C39.8555 33.491 39.7398 33.4107 39.3576 33.4836C38.8946 33.5716 38.8652 33.5117 38.9373 32.6291C39.0062 31.7869 38.9626 31.68 38.5501 31.68C37.9395 31.68 37.9214 30.8814 38.5277 30.69C38.857 30.5862 38.9703 30.3571 38.9703 29.7953C38.9703 29.0609 38.9947 29.04 39.8555 29.04C40.5931 29.04 40.7407 28.9667 40.7407 28.6C40.7407 28.2333 40.5931 28.16 39.8555 28.16C39.1179 28.16 38.9703 28.0867 38.9703 27.72C38.9703 27.4267 39.1179 27.28 39.4129 27.28C39.7079 27.28 39.8555 27.1333 39.8555 26.84C39.8555 26.4733 40.0031 26.4 40.7407 26.4C41.4783 26.4 41.6259 26.3267 41.6259 25.96C41.6259 25.5567 41.4783 25.52 39.8555 25.52C38.2327 25.52 38.0851 25.4833 38.0851 25.08C38.0851 24.7786 37.9375 24.64 37.6166 24.64C37.2573 24.64 37.1752 24.7423 37.2641 25.08C37.3562 25.43 37.2708 25.52 36.8472 25.52C36.344 25.52 36.3148 25.4476 36.3148 24.2V22.88H37.1999C37.9375 22.88 38.0851 22.9533 38.0851 23.32C38.0851 23.7233 38.2327 23.76 39.8555 23.76H41.6259V22.88V22H40.7407C40.0031 22 39.8555 21.9267 39.8555 21.56C39.8555 21.1688 40.0031 21.12 41.1833 21.12H42.5111V22C42.5111 22.7333 42.5848 22.88 42.9537 22.88C43.2486 22.88 43.3963 23.0267 43.3963 23.32C43.3963 23.6867 43.5439 23.76 44.2814 23.76C45.019 23.76 45.1666 23.6867 45.1666 23.32C45.1666 22.909 45.3142 22.88 47.4055 22.88C49.5352 22.88 49.6386 22.8587 49.5284 22.44C49.4412 22.1082 49.5217 22 49.8552 22C50.1117 22 50.3465 21.815 50.4136 21.56C50.4777 21.3165 50.7154 21.12 50.9462 21.12C51.2153 21.12 51.3629 20.9642 51.3629 20.68C51.3629 20.3867 51.5105 20.24 51.8055 20.24C52.1005 20.24 52.2481 20.0933 52.2481 19.8C52.2481 19.5067 52.3957 19.36 52.6907 19.36C52.9857 19.36 53.1333 19.5067 53.1333 19.8C53.1333 20.0933 53.2809 20.24 53.5759 20.24C53.8709 20.24 54.0185 20.3867 54.0185 20.68C54.0185 20.9733 53.8709 21.12 53.5759 21.12C53.2727 21.12 53.1333 21.2667 53.1333 21.5857C53.1333 21.943 53.2362 22.0246 53.5759 21.9362C53.928 21.8447 54.0185 21.9296 54.0185 22.3507C54.0185 22.8215 54.1161 22.88 54.9037 22.88H55.7889V21.56V20.24H57.1166H58.4444V21.0806V21.9212L59.7722 21.9575C60.9617 21.9901 61.1 21.9485 61.1 21.5569C61.1 21.2667 61.2485 21.12 61.5426 21.12C61.9115 21.12 61.9852 21.2667 61.9852 22C61.9852 22.7333 61.9115 22.88 61.5426 22.88C61.2476 22.88 61.1 23.0267 61.1 23.32C61.1 23.7142 61.2476 23.76 62.5203 23.76C64.1386 23.76 64.6407 23.6243 64.6407 23.1865C64.6407 22.9755 64.9169 22.88 65.5259 22.88C66.2635 22.88 66.4111 22.8067 66.4111 22.44C66.4111 22.0488 66.5587 22 67.7389 22C68.919 22 69.0667 22.0488 69.0667 22.44C69.0667 22.7333 69.2143 22.88 69.5092 22.88C69.8042 22.88 69.9518 22.7333 69.9518 22.44C69.9518 22.1467 69.8042 22 69.5092 22C69.2143 22 69.0667 21.8533 69.0667 21.56C69.0667 21.2667 68.919 21.12 68.6241 21.12C68.2552 21.12 68.1815 20.9733 68.1815 20.24C68.1815 19.4977 68.2529 19.36 68.638 19.36C68.9843 19.36 69.0777 19.2405 69.0253 18.865C68.9688 18.4626 69.0492 18.3828 69.4539 18.4389C69.8998 18.5005 69.9518 18.4144 69.9518 17.6139C69.9518 16.8164 70.0092 16.72 70.4843 16.72C70.9078 16.72 70.9933 16.81 70.9012 17.16C70.8122 17.4977 70.8943 17.6 71.2537 17.6C71.5746 17.6 71.7222 17.7386 71.7222 18.04C71.7222 18.4067 71.8698 18.48 72.6074 18.48C73.345 18.48 73.4926 18.4067 73.4926 18.04C73.4926 17.7467 73.345 17.6 73.05 17.6C72.3956 17.6 72.449 16.7281 73.1053 16.6947C74.1518 16.6412 74.262 16.5992 74.3351 16.225C74.3871 15.9581 74.2696 15.84 73.9513 15.84C73.5636 15.84 73.4926 15.7036 73.4926 14.96C73.4926 14.2267 73.4189 14.08 73.05 14.08C72.755 14.08 72.6074 13.9333 72.6074 13.64C72.6074 13.2733 72.755 13.2 73.4926 13.2C74.2302 13.2 74.3778 13.1267 74.3778 12.76C74.3778 12.3444 74.2302 12.32 71.7222 12.32H69.0667V11.44V10.56H68.1815H67.2963V9.68C67.2963 8.94674 67.2226 8.8 66.8537 8.8C66.5587 8.8 66.4111 8.65326 66.4111 8.36C66.4111 8.06674 66.2635 7.92 65.9685 7.92C65.5996 7.92 65.5259 8.06674 65.5259 8.8V9.68H64.1981H62.8703V8.8C62.8703 8.06674 62.944 7.92 63.3129 7.92C63.6079 7.92 63.7555 7.77326 63.7555 7.48C63.7555 7.18674 63.6079 7.04 63.3129 7.04C63.018 7.04 62.8703 7.18674 62.8703 7.48C62.8703 7.77326 62.7227 7.92 62.4278 7.92C62.1328 7.92 61.9852 8.06674 61.9852 8.36C61.9852 8.72674 61.8376 8.8 61.1 8.8C60.2978 8.8 60.2148 8.7472 60.2148 8.23702C60.2148 7.87996 60.3049 7.72926 60.4609 7.82518C60.7871 8.0256 61.0924 7.5163 61.0967 6.765C61.0991 6.30784 61.2082 6.16 61.5426 6.16C61.8376 6.16 61.9852 6.01326 61.9852 5.72C61.9852 5.42674 61.8376 5.28 61.5426 5.28C61.2476 5.28 61.1 5.42674 61.1 5.72C61.1 6.08674 60.9524 6.16 60.2148 6.16C59.4772 6.16 59.3296 6.08674 59.3296 5.72C59.3296 5.42674 59.182 5.28 58.887 5.28C58.4935 5.28 58.4444 5.42674 58.4444 6.6C58.4444 7.8221 58.4075 7.92 57.9465 7.92044C57.4771 7.92088 57.4528 7.8452 57.5236 6.60044C57.5926 5.38406 57.5621 5.28 57.1363 5.28C56.8216 5.28 56.674 5.42036 56.674 5.72C56.674 6.01326 56.5264 6.16 56.2315 6.16C55.8626 6.16 55.7889 6.01326 55.7889 5.28V4.4H58.0018C60.0672 4.4 60.2148 4.37074 60.2148 3.96C60.2148 3.66674 60.0672 3.52 59.7722 3.52C59.4772 3.52 59.3296 3.37326 59.3296 3.08C59.3296 2.68884 59.182 2.64 58.0018 2.64C56.8217 2.64 56.674 2.59116 56.674 2.2C56.674 1.90674 56.5264 1.76 56.2315 1.76C55.9365 1.76 55.7889 1.61326 55.7889 1.32C55.7889 1.02674 55.6413 0.88 55.3463 0.88C55.0513 0.88 54.9037 1.02674 54.9037 1.32ZM54.8397 3.95978C54.776 4.20156 54.8052 4.4495 54.9046 4.51044C55.2374 4.71504 55.7889 4.3571 55.7889 3.93646C55.7889 3.36974 54.9898 3.38932 54.8397 3.95978ZM62.8703 5.72C62.8703 6.01326 63.018 6.16 63.3129 6.16C63.6079 6.16 63.7555 6.01326 63.7555 5.72C63.7555 5.42674 63.6079 5.28 63.3129 5.28C63.018 5.28 62.8703 5.42674 62.8703 5.72ZM64.6407 6.6C64.6407 6.89326 64.7883 7.04 65.0833 7.04C65.3783 7.04 65.5259 6.89326 65.5259 6.6C65.5259 6.30674 65.3783 6.16 65.0833 6.16C64.7883 6.16 64.6407 6.30674 64.6407 6.6ZM30.1185 9.6932V10.5866L30.9483 10.5182C31.733 10.4537 31.7819 10.4051 31.8468 9.625L31.9156 8.8H31.0169H30.1185V9.6932ZM59.3296 9.24C59.3296 9.53326 59.182 9.68 58.887 9.68C58.592 9.68 58.4444 9.82674 58.4444 10.12C58.4444 10.4867 58.592 10.56 59.3296 10.56H60.2148V9.68C60.2148 8.94674 60.1411 8.8 59.7722 8.8C59.4772 8.8 59.3296 8.94674 59.3296 9.24ZM65.5259 10.12C65.5259 10.4133 65.6735 10.56 65.9685 10.56C66.2544 10.56 66.4111 10.7067 66.4111 10.9743C66.4111 11.2037 66.6087 11.44 66.8537 11.5038C67.2058 11.5953 67.2963 11.5104 67.2963 11.0893C67.2963 10.7067 67.1737 10.56 66.8537 10.56C66.5587 10.56 66.4111 10.4133 66.4111 10.12C66.4111 9.82674 66.2635 9.68 65.9685 9.68C65.6735 9.68 65.5259 9.82674 65.5259 10.12ZM70.837 10.56C70.837 11.2933 70.9107 11.44 71.2796 11.44C71.6485 11.44 71.7222 11.2933 71.7222 10.56C71.7222 9.82674 71.6485 9.68 71.2796 9.68C70.9107 9.68 70.837 9.82674 70.837 10.56ZM32.774 11C32.774 11.2933 32.9216 11.44 33.2166 11.44C33.5116 11.44 33.6592 11.2933 33.6592 11C33.6592 10.7067 33.5116 10.56 33.2166 10.56C32.9216 10.56 32.774 10.7067 32.774 11ZM52.2481 11C52.2481 11.3181 52.3957 11.44 52.7806 11.44C53.2041 11.44 53.2895 11.35 53.1975 11C53.1333 10.7565 52.8956 10.56 52.6648 10.56C52.3957 10.56 52.2481 10.7158 52.2481 11ZM30.1185 11.88C30.1185 12.1733 30.2661 12.32 30.5611 12.32C30.856 12.32 31.0036 12.1733 31.0036 11.88C31.0036 11.5867 30.856 11.44 30.5611 11.44C30.2661 11.44 30.1185 11.5867 30.1185 11.88ZM50.4335 13.585C50.377 14.6608 50.3 14.8595 49.9194 14.9138C49.5394 14.9679 49.4846 15.1087 49.5554 15.8488C49.6207 16.5279 49.7315 16.72 50.0584 16.72C50.4014 16.72 50.4777 16.5568 50.4777 15.8233V14.9268L51.4183 14.9637C53.2933 15.0377 53.2645 15.0522 53.1711 14.08C53.097 13.3054 53.1426 13.2 53.5527 13.2C53.8709 13.2 54.0185 13.3393 54.0185 13.64C54.0185 14.0312 54.1661 14.08 55.3463 14.08C56.5264 14.08 56.674 14.1288 56.674 14.52C56.674 14.8867 56.8217 14.96 57.5592 14.96H58.4444V13.64C58.4444 12.4667 58.3953 12.32 58.0018 12.32C57.7068 12.32 57.5592 12.4667 57.5592 12.76C57.5592 13.1633 57.4116 13.2 55.7889 13.2C54.1661 13.2 54.0185 13.1633 54.0185 12.76C54.0185 12.4667 53.8709 12.32 53.5759 12.32C53.2809 12.32 53.1333 12.4667 53.1333 12.76C53.1333 13.0533 52.9857 13.2 52.6907 13.2C52.3957 13.2 52.2481 13.3467 52.2481 13.64C52.2481 13.9333 52.1005 14.08 51.8055 14.08C51.4366 14.08 51.3629 13.9333 51.3629 13.2C51.3629 12.4742 51.2872 12.32 50.9314 12.32C50.5612 12.32 50.4904 12.5 50.4335 13.585ZM65.028 13.1316C64.4369 13.2851 64.4832 14.8678 65.0833 15.0238C65.4814 15.1272 65.5259 15.0304 65.5259 14.0593C65.5259 13.4658 65.5009 12.9914 65.4706 13.0055C65.4403 13.0196 65.2409 13.0764 65.028 13.1316ZM54.8658 15.84C54.94 16.6146 54.8944 16.72 54.4843 16.72C54.1661 16.72 54.0185 16.5807 54.0185 16.28C54.0185 15.9133 53.8709 15.84 53.1333 15.84C52.3957 15.84 52.2481 15.9133 52.2481 16.28C52.2481 16.6467 52.3957 16.72 53.1333 16.72C53.8709 16.72 54.0185 16.7933 54.0185 17.16C54.0185 17.4533 54.1661 17.6 54.4611 17.6C54.7561 17.6 54.9037 17.4533 54.9037 17.16C54.9037 16.8667 55.0513 16.72 55.3463 16.72C55.6924 16.72 55.7889 16.5733 55.7889 16.047C55.7889 15.5672 55.8683 15.4213 56.0655 15.5393C56.2534 15.6515 56.2447 15.5852 56.0385 15.3322C55.8714 15.1274 55.5202 14.96 55.258 14.96C54.8353 14.96 54.7908 15.0597 54.8658 15.84ZM39.8971 16.2226C40.0082 16.7959 40.7407 16.8599 40.7407 16.2961C40.7407 15.9812 40.5986 15.84 40.2819 15.84C39.9653 15.84 39.846 15.9586 39.8971 16.2226ZM57.5592 16.2543C57.5592 16.4837 57.7569 16.72 58.0018 16.7838C58.3539 16.8753 58.4444 16.7904 58.4444 16.3693C58.4444 15.9867 58.3218 15.84 58.0018 15.84C57.7159 15.84 57.5592 15.9867 57.5592 16.2543ZM59.3296 17.16C59.3296 17.4533 59.4772 17.6 59.7722 17.6C60.0672 17.6 60.2148 17.4533 60.2148 17.16C60.2148 16.8667 60.0672 16.72 59.7722 16.72C59.4772 16.72 59.3296 16.8667 59.3296 17.16ZM61.1 17.16C61.1 17.5267 61.2476 17.6 61.9852 17.6C62.7227 17.6 62.8703 17.5267 62.8703 17.16C62.8703 16.7933 62.7227 16.72 61.9852 16.72C61.2476 16.72 61.1 16.7933 61.1 17.16ZM64.6407 18.04C64.6407 18.4067 64.7883 18.48 65.5259 18.48C66.2635 18.48 66.4111 18.5533 66.4111 18.92C66.4111 19.2867 66.5587 19.36 67.2963 19.36C68.0339 19.36 68.1815 19.2867 68.1815 18.92C68.1815 18.5533 68.0339 18.48 67.2963 18.48C66.5587 18.48 66.4111 18.4067 66.4111 18.04C66.4111 17.6733 66.2635 17.6 65.5259 17.6C64.7883 17.6 64.6407 17.6733 64.6407 18.04ZM59.3296 19.9357C59.3296 20.403 59.4128 20.4897 59.7722 20.3962C60.1004 20.3108 60.2148 20.3896 60.2148 20.7007C60.2148 20.9733 60.3695 21.12 60.6574 21.12C61.0263 21.12 61.1 20.9733 61.1 20.24V19.36H60.2148C59.4075 19.36 59.3296 19.4108 59.3296 19.9357ZM63.6847 19.8257C63.5825 20.2143 63.4316 20.2763 62.7736 20.2C62.0717 20.1183 61.9852 20.1639 61.9852 20.6142C61.9852 21.0551 62.0954 21.12 62.8445 21.12C63.5179 21.12 63.729 21.0247 63.8197 20.68C63.8832 20.438 64.0941 20.24 64.288 20.24C64.4931 20.24 64.6407 20.0559 64.6407 19.8C64.6407 19.1952 63.8449 19.2166 63.6847 19.8257ZM14.2641 20.5726C14.2015 20.735 14.1829 21.098 14.223 21.3789C14.2834 21.8024 14.4283 21.89 15.0703 21.89C15.8079 21.89 15.8448 21.8533 15.8448 21.12C15.8448 20.4021 15.795 20.3476 15.1115 20.3135C14.6735 20.2919 14.3323 20.3962 14.2641 20.5726ZM34.5444 20.68C34.5444 20.9733 34.692 21.12 34.987 21.12C35.282 21.12 35.4296 20.9733 35.4296 20.68C35.4296 20.3867 35.282 20.24 34.987 20.24C34.692 20.24 34.5444 20.3867 34.5444 20.68ZM28.3481 21.56C28.3481 21.8533 28.4957 22 28.7907 22C29.0857 22 29.2333 21.8533 29.2333 21.56C29.2333 21.2667 29.0857 21.12 28.7907 21.12C28.4957 21.12 28.3481 21.2667 28.3481 21.56ZM30.1185 21.56C30.1185 21.8533 30.2661 22 30.5611 22C30.856 22 31.0036 21.8533 31.0036 21.56C31.0036 21.2667 30.856 21.12 30.5611 21.12C30.2661 21.12 30.1185 21.2667 30.1185 21.56ZM20.3814 22.44C20.3814 22.7333 20.529 22.88 20.824 22.88C21.119 22.88 21.2666 22.7333 21.2666 22.44C21.2666 22.1467 21.119 22 20.824 22C20.529 22 20.3814 22.1467 20.3814 22.44ZM73.4926 22.44C73.4926 22.7333 73.6402 22.88 73.9352 22.88C74.2302 22.88 74.3778 23.0267 74.3778 23.32C74.3778 23.6089 74.5254 23.76 74.8071 23.76C75.1432 23.76 75.251 23.9386 75.305 24.585L75.3736 25.41L77.0886 25.4742C78.6891 25.5343 78.8037 25.5086 78.8037 25.0892C78.8037 24.796 78.659 24.64 78.387 24.64C78.152 24.64 77.9181 24.442 77.8508 24.1864C77.7853 23.9369 77.5994 23.7508 77.4379 23.7725C77.2761 23.7943 76.7206 23.8005 76.2035 23.786C75.4192 23.7644 75.2629 23.687 75.2629 23.32C75.2629 23.0267 75.1153 22.88 74.8204 22.88C74.5254 22.88 74.3778 22.7333 74.3778 22.44C74.3778 22.1467 74.2302 22 73.9352 22C73.6402 22 73.4926 22.1467 73.4926 22.44ZM28.3481 23.4093C28.3481 23.8304 28.4386 23.9153 28.7907 23.8238C29.0357 23.76 29.2333 23.5237 29.2333 23.2943C29.2333 23.0267 29.0766 22.88 28.7907 22.88C28.4707 22.88 28.3481 23.0267 28.3481 23.4093ZM31.0036 23.32C31.0036 23.6133 31.1513 23.76 31.4462 23.76C31.7412 23.76 31.8888 23.6133 31.8888 23.32C31.8888 23.0267 31.7412 22.88 31.4462 22.88C31.1513 22.88 31.0036 23.0267 31.0036 23.32ZM58.486 23.2626C58.5971 23.8359 59.3296 23.8999 59.3296 23.3361C59.3296 23.0212 59.1875 22.88 58.8709 22.88C58.5542 22.88 58.4349 22.9986 58.486 23.2626ZM67.2963 23.76C67.2963 24.4933 67.2226 24.64 66.8537 24.64C66.5587 24.64 66.4111 24.7867 66.4111 25.08C66.4111 25.3733 66.5587 25.52 66.8537 25.52C67.1487 25.52 67.2963 25.3733 67.2963 25.08C67.2963 24.7867 67.4439 24.64 67.7389 24.64C68.1078 24.64 68.1815 24.4933 68.1815 23.76C68.1815 23.0267 68.1078 22.88 67.7389 22.88C67.37 22.88 67.2963 23.0267 67.2963 23.76ZM55.7889 24.2C55.7889 24.4985 55.6413 24.64 55.3301 24.64C55.0126 24.64 54.8939 24.7586 54.9448 25.025C55.003 25.3286 55.287 25.4239 56.289 25.476C57.4435 25.5361 57.5592 25.5009 57.5592 25.091C57.5592 24.7867 57.7031 24.64 58.0018 24.64C58.2968 24.64 58.4444 24.4933 58.4444 24.2C58.4444 23.8088 58.2968 23.76 57.1166 23.76C55.9365 23.76 55.7889 23.8088 55.7889 24.2ZM22.1518 25.08C22.1518 25.4742 22.2994 25.52 23.5694 25.52C24.8782 25.52 24.9784 25.4861 24.8715 25.08C24.7722 24.7029 24.5697 24.64 23.4537 24.64C22.2994 24.64 22.1518 24.6899 22.1518 25.08ZM29.2333 26.0632C29.2333 27.1971 29.2966 27.4619 29.5453 27.3671C29.7327 27.2956 29.9153 27.43 30.0027 27.7042C30.1176 28.0634 30.3325 28.16 31.0185 28.16H31.8888V26.84C31.8888 25.6667 31.8397 25.52 31.4462 25.52C31.1459 25.52 31.0036 25.6667 31.0036 25.9761C31.0036 26.2918 30.8844 26.4097 30.6164 26.3593C30.3457 26.3083 30.2085 26.0385 30.1605 25.4632C30.1067 24.8186 29.9985 24.64 29.6626 24.64C29.282 24.64 29.2333 24.8015 29.2333 26.0632ZM32.774 25.08C32.774 25.3733 32.9216 25.52 33.2166 25.52C33.5116 25.52 33.6592 25.3733 33.6592 25.08C33.6592 24.7867 33.5116 24.64 33.2166 24.64C32.9216 24.64 32.774 24.7867 32.774 25.08ZM60.2148 25.08C60.2148 25.3733 60.3624 25.52 60.6574 25.52C60.9524 25.52 61.1 25.3733 61.1 25.08C61.1 24.7867 60.9524 24.64 60.6574 24.64C60.3624 24.64 60.2148 24.7867 60.2148 25.08ZM61.9852 25.08C61.9852 25.3733 62.1328 25.52 62.4278 25.52C62.7227 25.52 62.8703 25.3733 62.8703 25.08C62.8703 24.7867 62.7227 24.64 62.4278 24.64C62.1328 24.64 61.9852 24.7867 61.9852 25.08ZM25.6925 25.96C25.6925 26.3267 25.8401 26.4 26.5777 26.4C27.3153 26.4 27.4629 26.3267 27.4629 25.96C27.4629 25.5933 27.3153 25.52 26.5777 25.52C25.8401 25.52 25.6925 25.5933 25.6925 25.96ZM36.3148 26.8143C36.3148 27.0437 36.5124 27.28 36.7574 27.3438C37.1068 27.4347 37.1999 27.6439 37.1999 28.3389C37.1999 29.1104 37.2544 29.2046 37.6425 29.1038C38.0218 29.005 38.0851 28.8037 38.0851 27.6943V26.4H37.1999C36.4805 26.4 36.3148 26.4777 36.3148 26.8143ZM55.7889 26.84C55.7889 27.2067 55.9365 27.28 56.674 27.28C57.4116 27.28 57.5592 27.2067 57.5592 26.84C57.5592 26.4733 57.4116 26.4 56.674 26.4C55.9365 26.4 55.7889 26.4733 55.7889 26.84ZM63.7555 26.84C63.7555 27.1333 63.9031 27.28 64.1981 27.28C64.4931 27.28 64.6407 27.1333 64.6407 26.84C64.6407 26.5467 64.4931 26.4 64.1981 26.4C63.9031 26.4 63.7555 26.5467 63.7555 26.84ZM42.5111 27.72C42.5111 28.0133 42.6587 28.16 42.9537 28.16C43.2486 28.16 43.3963 28.0133 43.3963 27.72C43.3963 27.4267 43.2486 27.28 42.9537 27.28C42.6587 27.28 42.5111 27.4267 42.5111 27.72ZM56.674 27.72C56.674 27.841 56.7736 27.94 56.8953 27.94C57.0171 27.94 57.1166 27.841 57.1166 27.72C57.1166 27.599 57.0171 27.5 56.8953 27.5C56.7736 27.5 56.674 27.599 56.674 27.72ZM57.3554 27.8483C57.366 28.1046 57.4185 28.1567 57.4891 27.9814C57.553 27.8225 57.5451 27.6327 57.4716 27.5596C57.3981 27.4866 57.3459 27.6164 57.3554 27.8483ZM15.0703 29.04V29.92H16.3981H17.7259V30.8C17.7259 31.5333 17.6522 31.68 17.2833 31.68C16.9883 31.68 16.8407 31.8267 16.8407 32.12C16.8407 32.3759 16.9883 32.56 17.1934 32.56C17.3873 32.56 17.5982 32.362 17.6617 32.12C17.7259 31.8765 17.9635 31.68 18.1943 31.68C18.5562 31.68 18.611 31.506 18.611 30.36V29.04H17.7259C16.9883 29.04 16.8407 28.9667 16.8407 28.6C16.8407 28.2333 16.6931 28.16 15.9555 28.16H15.0703V29.04ZM31.8247 29.48C31.8888 29.7235 32.1265 29.92 32.3573 29.92C32.6264 29.92 32.774 29.7642 32.774 29.48C32.774 29.1619 32.6264 29.04 32.2416 29.04C31.818 29.04 31.7326 29.13 31.8247 29.48ZM82.3444 29.48C82.3444 29.7733 82.492 29.92 82.787 29.92C83.082 29.92 83.2296 29.7733 83.2296 29.48C83.2296 29.1867 83.082 29.04 82.787 29.04C82.492 29.04 82.3444 29.1867 82.3444 29.48ZM72.5432 30.36C72.4512 30.71 72.5366 30.8 72.9601 30.8C73.345 30.8 73.4926 30.6781 73.4926 30.36C73.4926 30.0758 73.345 29.92 73.0759 29.92C72.8451 29.92 72.6074 30.1165 72.5432 30.36ZM80.5741 30.36C80.5741 30.6533 80.7217 30.8 81.0167 30.8C81.3116 30.8 81.4593 30.6533 81.4593 30.36C81.4593 30.0667 81.3116 29.92 81.0167 29.92C80.7217 29.92 80.5741 30.0667 80.5741 30.36ZM84.1148 30.36C84.1148 30.6533 84.2624 30.8 84.5574 30.8C84.8524 30.8 85 30.6533 85 30.36C85 30.0667 84.8524 29.92 84.5574 29.92C84.2624 29.92 84.1148 30.0667 84.1148 30.36ZM70.837 31.1507C70.837 31.5333 70.9596 31.68 71.2796 31.68C71.5655 31.68 71.7222 31.5333 71.7222 31.2657C71.7222 31.0363 71.5246 30.8 71.2796 30.7362C70.9275 30.6447 70.837 30.7296 70.837 31.1507ZM44.2814 32.56C44.2814 33.2933 44.2077 33.44 43.8388 33.44C43.5439 33.44 43.3963 33.5867 43.3963 33.88C43.3963 34.1733 43.5439 34.32 43.8388 34.32C44.1338 34.32 44.2814 34.4667 44.2814 34.76C44.2814 35.0533 44.429 35.2 44.724 35.2C45.1297 35.2 45.1666 35.0533 45.1666 33.44C45.1666 31.8267 45.1297 31.68 44.724 31.68C44.3551 31.68 44.2814 31.8267 44.2814 32.56ZM50.4777 32.0943C50.4777 32.3237 50.6754 32.56 50.9203 32.6238C51.2724 32.7153 51.3629 32.6304 51.3629 32.2093C51.3629 31.8267 51.2403 31.68 50.9203 31.68C50.6344 31.68 50.4777 31.8267 50.4777 32.0943ZM58.4444 33.44V35.2H57.5592C56.8398 35.2 56.674 35.1223 56.674 34.7857C56.674 34.5563 56.4764 34.32 56.2315 34.2562C55.8794 34.1647 55.7889 34.2496 55.7889 34.6707C55.7889 35.0533 55.6663 35.2 55.3463 35.2C55.0513 35.2 54.9037 35.0533 54.9037 34.76C54.9037 34.4667 54.7561 34.32 54.4611 34.32C54.1661 34.32 54.0185 34.4667 54.0185 34.76C54.0185 35.0533 54.1661 35.2 54.4611 35.2C54.83 35.2 54.9037 35.3467 54.9037 36.08V36.96H56.2315C57.4116 36.96 57.5592 36.9112 57.5592 36.52C57.5592 36.1533 57.7068 36.08 58.4444 36.08C59.182 36.08 59.3296 36.1533 59.3296 36.52C59.3296 36.8042 59.182 36.96 58.9129 36.96C58.2957 36.96 58.1412 37.7971 58.7427 37.8829C59.3801 37.9735 59.5232 38.72 58.9032 38.72C58.5836 38.72 58.4444 38.8612 58.4444 39.1857C58.4444 39.543 58.3415 39.6246 58.0018 39.5362C57.6497 39.4447 57.5592 39.5296 57.5592 39.9507C57.5592 40.3333 57.6818 40.48 58.0018 40.48C58.305 40.48 58.4444 40.6267 58.4444 40.9457C58.4444 41.303 58.3415 41.3846 58.0018 41.2962C57.6086 41.1941 57.5592 41.2896 57.5592 42.1507C57.5592 42.9733 57.4922 43.12 57.1166 43.12C56.8217 43.12 56.674 42.9733 56.674 42.68C56.674 42.3867 56.5264 42.24 56.2315 42.24C55.8626 42.24 55.7889 42.0933 55.7889 41.36C55.7889 40.6267 55.7152 40.48 55.3463 40.48C54.9774 40.48 54.9037 40.3333 54.9037 39.6V38.72H53.1592C51.6172 38.72 51.4014 38.7697 51.3021 39.1479C51.2195 39.4614 51.3156 39.5936 51.6612 39.6429C51.9206 39.6799 52.1662 39.8831 52.2067 40.095C52.2674 40.4107 52.1182 40.48 51.3791 40.48C50.6253 40.48 50.4777 40.4081 50.4777 40.04C50.4777 39.6733 50.3301 39.6 49.5926 39.6C48.855 39.6 48.7074 39.5267 48.7074 39.16C48.7074 38.7933 48.855 38.72 49.5926 38.72C50.3301 38.72 50.4777 38.6467 50.4777 38.28C50.4777 37.9133 50.3301 37.84 49.5926 37.84C48.855 37.84 48.7074 37.9133 48.7074 38.28C48.7074 38.5733 48.5598 38.72 48.2648 38.72C47.8713 38.72 47.8222 38.8667 47.8222 40.04C47.8222 41.4942 47.7447 41.4344 49.5372 41.3637C50.3536 41.3316 50.4777 41.3871 50.4777 41.7833C50.4777 42.0933 50.3357 42.24 50.0351 42.24C49.7056 42.24 49.5926 42.3867 49.5926 42.8135C49.5926 43.2461 49.6786 43.3543 49.9426 43.2535C50.1352 43.1801 50.3343 43.12 50.3852 43.12C50.4361 43.12 50.4777 42.9196 50.4777 42.6747C50.4777 42.262 50.6076 42.2316 52.2481 42.2613C53.9353 42.2917 54.0185 42.3168 54.0185 42.7959C54.0185 43.1904 54.1139 43.274 54.4611 43.1838C54.8008 43.0954 54.9037 43.177 54.9037 43.5343C54.9037 43.9322 55.0347 44 55.8028 44C56.6081 44 56.6946 44.0517 56.6327 44.495C56.5762 44.8974 56.6566 44.9772 57.0613 44.9211C57.4391 44.869 57.5592 44.9618 57.5592 45.3061C57.5592 45.6133 57.7022 45.76 58.0018 45.76C58.2968 45.76 58.4444 45.6133 58.4444 45.32C58.4444 45.0267 58.592 44.88 58.887 44.88C59.182 44.88 59.3296 44.7333 59.3296 44.44C59.3296 44.1467 59.182 44 58.887 44C58.5838 44 58.4444 43.8533 58.4444 43.5343C58.4444 43.177 58.5473 43.0954 58.887 43.1838C59.2391 43.2753 59.3296 43.1904 59.3296 42.7693C59.3296 42.3012 59.4287 42.24 60.1889 42.24C60.8623 42.24 61.0734 42.1447 61.1642 41.8C61.2312 41.545 61.466 41.36 61.7225 41.36C62.056 41.36 62.1365 41.2518 62.0493 40.92C61.9852 40.6765 61.7475 40.48 61.5167 40.48C61.2241 40.48 61.1 40.3225 61.1 39.9507C61.1 39.5228 61.0117 39.4442 60.6397 39.5408C60.1971 39.6559 60.182 39.5914 60.2524 37.8778C60.3197 36.2342 60.2909 36.0903 59.8828 36.0325C59.4903 35.977 59.4329 35.7771 59.3756 34.265L59.311 32.56H60.2055C60.9524 32.56 61.1 32.4874 61.1 32.12C61.1 31.7288 60.9524 31.68 59.7722 31.68H58.4444V33.44ZM56.674 33.88C56.674 34.1733 56.8217 34.32 57.1166 34.32C57.4116 34.32 57.5592 34.1733 57.5592 33.88C57.5592 33.5867 57.4116 33.44 57.1166 33.44C56.8217 33.44 56.674 33.5867 56.674 33.88ZM46.937 36.08C46.937 36.8133 47.0107 36.96 47.3796 36.96C47.7485 36.96 47.8222 36.8133 47.8222 36.08C47.8222 35.3467 47.7485 35.2 47.3796 35.2C47.0107 35.2 46.937 35.3467 46.937 36.08ZM61.9852 35.6657C61.9852 36.023 61.8823 36.1046 61.5426 36.0162C61.1341 35.9099 61.1 36.0096 61.1 37.3107C61.1 38.5733 61.146 38.72 61.5426 38.72C61.9115 38.72 61.9852 38.5733 61.9852 37.84C61.9852 37.1067 62.0589 36.96 62.4278 36.96C62.7967 36.96 62.8703 36.8133 62.8703 36.08C62.8703 35.3467 62.7967 35.2 62.4278 35.2C62.1246 35.2 61.9852 35.3467 61.9852 35.6657ZM38.9703 36.52C38.9703 36.8133 39.1179 36.96 39.4129 36.96C39.7079 36.96 39.8555 37.1067 39.8555 37.4C39.8555 37.6933 40.0031 37.84 40.2981 37.84C40.667 37.84 40.7407 37.6933 40.7407 36.96V36.08H39.8555C39.1179 36.08 38.9703 36.1533 38.9703 36.52ZM45.1666 36.52C45.1666 36.8042 45.3142 36.96 45.5833 36.96C45.8141 36.96 46.0518 36.7635 46.116 36.52C46.208 36.17 46.1226 36.08 45.6991 36.08C45.3142 36.08 45.1666 36.2019 45.1666 36.52ZM63.7555 38.28C63.7555 38.5733 63.9031 38.72 64.1981 38.72C64.4931 38.72 64.6407 38.5733 64.6407 38.28C64.6407 37.9867 64.4931 37.84 64.1981 37.84C63.9031 37.84 63.7555 37.9867 63.7555 38.28ZM13.3442 39.985C13.4019 41.0854 13.4723 41.2588 13.8846 41.3171C14.2325 41.3666 14.3287 41.4982 14.246 41.8121C14.1435 42.2015 14.2553 42.24 15.487 42.24H16.8407V41.36C16.8407 40.6448 16.7626 40.48 16.424 40.48C16.1932 40.48 15.9555 40.2835 15.8913 40.04C15.8028 39.703 15.5895 39.6 14.9804 39.6C14.3327 39.6 14.1851 39.5184 14.1851 39.16C14.1851 38.863 14.0375 38.72 13.7314 38.72C13.319 38.72 13.2838 38.8348 13.3442 39.985ZM43.3963 39.16C43.3963 39.4533 43.5439 39.6 43.8388 39.6C44.1338 39.6 44.2814 39.4533 44.2814 39.16C44.2814 38.8667 44.1338 38.72 43.8388 38.72C43.5439 38.72 43.3963 38.8667 43.3963 39.16ZM41.6259 39.9771C41.6259 40.3333 41.7549 40.48 42.0685 40.48C42.382 40.48 42.5111 40.3333 42.5111 39.9771C42.5111 39.6209 42.382 39.4744 42.0685 39.4744C41.7549 39.4744 41.6259 39.6209 41.6259 39.9771ZM4.44806 40.04C4.44806 40.2844 4.59566 40.48 4.78 40.48C4.96434 40.48 5.11195 40.2844 5.11195 40.04C5.11195 39.7956 4.96434 39.6 4.78 39.6C4.59566 39.6 4.44806 39.7956 4.44806 40.04ZM23.9222 41.36V42.24H24.8073H25.6925V41.36V40.48H24.8073H23.9222V41.36ZM34.5444 40.92C34.5444 41.2381 34.692 41.36 35.0768 41.36C35.5004 41.36 35.5858 41.27 35.4937 40.92C35.4296 40.6765 35.1919 40.48 34.9611 40.48C34.692 40.48 34.5444 40.6358 34.5444 40.92ZM3.56287 41.8C3.56287 42.2035 3.41527 42.24 1.78144 42.24H0L0.066388 43.505L0.132778 44.77L1.40523 44.836C2.56217 44.8961 2.67769 44.8611 2.67769 44.451C2.67769 43.8541 3.47037 43.8449 3.62705 44.44C3.71557 44.777 3.9289 44.88 4.53791 44.88H5.33325V46.2C5.33325 47.3733 5.38237 47.52 5.77584 47.52C6.14474 47.52 6.21843 47.3733 6.21843 46.64C6.21843 45.9067 6.29212 45.76 6.66103 45.76C6.95601 45.76 7.10362 45.6133 7.10362 45.32C7.10362 45.0267 6.95601 44.88 6.66103 44.88C6.36604 44.88 6.21843 44.7333 6.21843 44.44C6.21843 44.1467 6.07083 44 5.77584 44C5.48085 44 5.33325 43.8533 5.33325 43.56C5.33325 43.2667 5.48085 43.12 5.77584 43.12C6.07083 43.12 6.21843 42.9733 6.21843 42.68C6.21843 42.3867 6.07083 42.24 5.77584 42.24C5.48085 42.24 5.33325 42.3867 5.33325 42.68C5.33325 42.9733 5.18564 43.12 4.89065 43.12C4.59566 43.12 4.44806 43.2667 4.44806 43.56C4.44806 43.8533 4.30046 44 4.00547 44C3.63657 44 3.56287 43.8533 3.56287 43.12C3.56287 42.3867 3.63657 42.24 4.00547 42.24C4.30046 42.24 4.44806 42.0933 4.44806 41.8C4.44806 41.5067 4.30046 41.36 4.00547 41.36C3.71048 41.36 3.56287 41.5067 3.56287 41.8ZM8.37607 42.1716C7.7695 42.3291 7.88236 43.12 8.51129 43.12C8.94945 43.12 9.01673 43.0311 8.92821 42.57C8.87001 42.2675 8.80915 42.0314 8.79278 42.0455C8.77662 42.0596 8.58918 42.1164 8.37607 42.1716ZM35.4296 42.7057C35.4296 43.063 35.3267 43.1446 34.987 43.0562C34.5937 42.9541 34.5444 43.0496 34.5444 43.9107V44.88H35.4296C36.2982 44.88 36.3148 44.865 36.3148 44.0893C36.3148 43.4839 36.4183 43.2718 36.7574 43.1838C37.0023 43.12 37.1999 42.8837 37.1999 42.6543C37.1999 42.3177 37.0342 42.24 36.3148 42.24C35.5608 42.24 35.4296 42.3091 35.4296 42.7057ZM43.3963 42.68C43.3963 42.9733 43.5439 43.12 43.8388 43.12C44.1338 43.12 44.2814 42.9733 44.2814 42.68C44.2814 42.3867 44.1338 42.24 43.8388 42.24C43.5439 42.24 43.3963 42.3867 43.3963 42.68ZM51.3629 43.4707C51.3629 43.8533 51.4855 44 51.8055 44C52.0914 44 52.2481 43.8533 52.2481 43.5857C52.2481 43.3563 52.0505 43.12 51.8055 43.0562C51.4534 42.9647 51.3629 43.0496 51.3629 43.4707ZM0.907315 43.56C0.907315 43.9267 1.05492 44 1.7925 44C2.53008 44 2.67769 43.9267 2.67769 43.56C2.67769 43.1933 2.53008 43.12 1.7925 43.12C1.05492 43.12 0.907315 43.1933 0.907315 43.56ZM26.5777 43.5439C26.5777 43.8588 26.7198 44 27.0365 44C27.3531 44 27.4724 43.8814 27.4213 43.6174C27.3102 43.0441 26.5777 42.9801 26.5777 43.5439ZM38.0851 44.44C38.0851 44.7581 38.2327 44.88 38.6176 44.88C39.0411 44.88 39.1266 44.79 39.0345 44.44C38.9703 44.1965 38.7327 44 38.5018 44C38.2327 44 38.0851 44.1558 38.0851 44.44ZM23.037 45.32C23.037 45.6133 23.1846 45.76 23.4796 45.76C23.7746 45.76 23.9222 45.6133 23.9222 45.32C23.9222 45.0267 23.7746 44.88 23.4796 44.88C23.1846 44.88 23.037 45.0267 23.037 45.32ZM28.3481 45.3499C28.3481 45.6133 28.1899 45.76 27.9055 45.76C27.6101 45.76 27.4629 45.9067 27.4629 46.2011C27.4629 46.5969 27.5994 46.6391 28.7907 46.6123L30.1185 46.5826V45.7613C30.1185 44.9497 30.1078 44.9401 29.2333 44.9401C28.5172 44.9401 28.3481 45.0184 28.3481 45.3499ZM31.1512 45.0267C30.8465 45.3295 31.0198 45.76 31.4462 45.76C31.7412 45.76 31.8888 45.6133 31.8888 45.32C31.8888 44.8961 31.4558 44.7238 31.1512 45.0267ZM67.354 45.3444C67.2938 45.573 67.0571 45.76 66.8278 45.76C66.5587 45.76 66.4111 45.9158 66.4111 46.2C66.4111 46.4933 66.2635 46.64 65.9685 46.64C65.6735 46.64 65.5259 46.7867 65.5259 47.08C65.5259 47.3733 65.6735 47.52 65.9685 47.52C66.2635 47.52 66.4111 47.3733 66.4111 47.08C66.4111 46.7133 66.5587 46.64 67.2963 46.64C68.0339 46.64 68.1815 46.5667 68.1815 46.2C68.1815 45.9015 68.3291 45.76 68.6402 45.76C68.9551 45.76 69.0762 45.6412 69.0257 45.3816C68.9164 44.8169 67.501 44.7854 67.354 45.3444ZM76.2557 45.1051C76.1787 45.2287 76.1479 45.6496 76.1873 46.0401C76.2504 46.6666 76.2004 46.7419 75.7609 46.6811C75.3831 46.629 75.2629 46.7218 75.2629 47.0661C75.2629 47.3733 75.12 47.52 74.8204 47.52C74.4515 47.52 74.3778 47.6667 74.3778 48.4V49.28H75.2629C76.0505 49.28 76.1481 49.2215 76.1481 48.7507C76.1481 48.3296 76.2386 48.2447 76.5907 48.3362C76.9304 48.4246 77.0333 48.343 77.0333 47.9857C77.0333 47.6619 77.1725 47.52 77.4899 47.52C77.8362 47.52 77.9296 47.4005 77.8771 47.025C77.8318 46.7012 77.9225 46.53 78.1398 46.53C78.472 46.53 78.794 46.2352 78.8004 45.925C78.8021 45.8344 78.4054 45.76 77.9185 45.76C77.1809 45.76 77.0333 45.6867 77.0333 45.32C77.0333 44.8615 76.4989 44.7139 76.2557 45.1051ZM11.5295 47.52C11.5295 49.1333 11.5665 49.28 11.9721 49.28C12.3778 49.28 12.4147 49.1333 12.4147 47.52C12.4147 45.9067 12.3778 45.76 11.9721 45.76C11.5665 45.76 11.5295 45.9067 11.5295 47.52ZM38.9703 46.2C38.9703 46.4933 38.8227 46.64 38.5277 46.64C38.2327 46.64 38.0851 46.7867 38.0851 47.08C38.0851 47.3796 38.2327 47.52 38.5474 47.52C38.9728 47.52 39.0037 47.6243 38.9347 48.8253C38.8654 50.0324 38.8973 50.1378 39.3576 50.2249C39.6316 50.2766 40.0795 50.2766 40.3534 50.2249C40.8274 50.1354 40.8478 50.0474 40.7792 48.3855C40.715 46.8345 40.6595 46.64 40.2813 46.64C40.0031 46.64 39.8555 46.4875 39.8555 46.2C39.8555 45.9067 39.7079 45.76 39.4129 45.76C39.1179 45.76 38.9703 45.9067 38.9703 46.2ZM48.7074 46.2893C48.7074 46.7104 48.7979 46.7953 49.15 46.7038C49.3949 46.64 49.5926 46.4037 49.5926 46.1743C49.5926 45.9067 49.4359 45.76 49.15 45.76C48.83 45.76 48.7074 45.9067 48.7074 46.2893ZM56.674 46.2893C56.674 46.7104 56.7646 46.7953 57.1166 46.7038C57.3616 46.64 57.5592 46.4037 57.5592 46.1743C57.5592 45.9067 57.4026 45.76 57.1166 45.76C56.7966 45.76 56.674 45.9067 56.674 46.2893ZM38.9703 47.08C38.9703 47.3733 39.1179 47.52 39.4129 47.52C39.7079 47.52 39.8555 47.3733 39.8555 47.08C39.8555 46.7867 39.7079 46.64 39.4129 46.64C39.1179 46.64 38.9703 46.7867 38.9703 47.08ZM33.6592 47.9761C33.6592 48.2909 33.7785 48.4095 34.044 48.3586C34.6207 48.2482 34.6851 47.52 34.118 47.52C33.8013 47.52 33.6592 47.6612 33.6592 47.9761ZM56.674 48.4C56.674 49.1333 56.7477 49.28 57.1166 49.28C57.4855 49.28 57.5592 49.1333 57.5592 48.4C57.5592 47.6667 57.4855 47.52 57.1166 47.52C56.7477 47.52 56.674 47.6667 56.674 48.4ZM3.56287 48.8239C3.56287 49.1333 3.42058 49.28 3.12028 49.28C2.82529 49.28 2.67769 49.4267 2.67769 49.72C2.67769 50.0878 2.82529 50.16 3.57615 50.16H4.47484L4.40601 49.3368C4.35799 48.7615 4.22079 48.4917 3.95014 48.4407C3.68215 48.3903 3.56287 48.5082 3.56287 48.8239ZM6.36604 48.5467C6.06131 48.8495 6.23459 49.28 6.66103 49.28C6.95601 49.28 7.10362 49.1333 7.10362 48.84C7.10362 48.4161 6.67054 48.2438 6.36604 48.5467ZM28.3481 49.2939C28.3481 49.9398 28.4377 50.16 28.7008 50.16C28.8947 50.16 29.1056 49.962 29.1691 49.72C29.2333 49.4765 29.4709 49.28 29.7018 49.28C29.9622 49.28 30.1185 49.1247 30.1185 48.866C30.1185 48.5316 29.9481 48.4495 29.2333 48.4398C28.3483 48.4275 28.3481 48.4279 28.3481 49.2939ZM37.1999 48.84C37.1999 49.1242 37.0523 49.28 36.7832 49.28C36.5524 49.28 36.3148 49.4765 36.2506 49.72C36.1835 49.975 35.9487 50.16 35.6923 50.16C35.3588 50.16 35.2782 50.2682 35.3654 50.6C35.4561 50.9447 35.6673 51.04 36.3407 51.04C36.9793 51.04 37.1999 50.95 37.1999 50.6893C37.1999 50.4966 37.3991 50.2869 37.6425 50.2238C37.9893 50.1336 38.0851 49.9237 38.0851 49.2543C38.0851 48.5467 38.0092 48.4 37.6425 48.4C37.3476 48.4 37.1999 48.5467 37.1999 48.84ZM42.4524 49.6993C42.3708 50.0095 42.4792 50.1448 42.8691 50.2187C43.304 50.3015 43.3963 50.2282 43.3963 49.7994C43.3963 49.1555 42.6173 49.0728 42.4524 49.6993ZM32.774 50.6C32.774 50.8933 32.6264 51.04 32.3314 51.04C32.0364 51.04 31.8888 51.1867 31.8888 51.48C31.8888 51.8514 32.0364 51.92 32.8351 51.92H33.7816L33.697 51.04C33.6311 50.3525 33.5211 50.16 33.1934 50.16C32.9216 50.16 32.774 50.3149 32.774 50.6ZM78.8037 50.5839C78.8037 50.8988 78.6616 51.04 78.345 51.04C78.0269 51.04 77.909 51.1581 77.961 51.425C78.0152 51.7037 78.2487 51.81 78.807 51.81C79.5404 51.81 79.5782 51.7724 79.5782 51.0431C79.5782 50.4874 79.4716 50.2555 79.191 50.2018C78.9228 50.1505 78.8037 50.2678 78.8037 50.5839ZM82.3444 51.04V51.92H83.2296H84.1148V51.04V50.16H83.2296H82.3444V51.04ZM6.21843 51.48C6.21843 51.8467 6.36604 51.92 7.10362 51.92C7.8412 51.92 7.9888 51.8467 7.9888 51.48C7.9888 51.1133 7.8412 51.04 7.10362 51.04C6.36604 51.04 6.21843 51.1133 6.21843 51.48ZM10.5857 51.4593C10.5041 51.7695 10.6125 51.9048 11.0024 51.9787C11.4373 52.0615 11.5295 51.9882 11.5295 51.5594C11.5295 50.9155 10.7506 50.8328 10.5857 51.4593ZM20.3814 51.48C20.3814 51.7733 20.529 51.92 20.824 51.92C21.119 51.92 21.2666 51.7733 21.2666 51.48C21.2666 51.1867 21.119 51.04 20.824 51.04C20.529 51.04 20.3814 51.1867 20.3814 51.48ZM38.9703 52.36C38.9703 53.5333 38.9212 53.68 38.5277 53.68C38.2327 53.68 38.0851 53.8267 38.0851 54.12C38.0851 54.4133 38.2327 54.56 38.5277 54.56C38.8227 54.56 38.9703 54.4133 38.9703 54.12C38.9703 53.8267 39.1179 53.68 39.4129 53.68C39.7818 53.68 39.8555 53.5333 39.8555 52.8C39.8555 52.017 39.9144 51.92 40.388 51.92C40.8115 51.92 40.8969 51.83 40.8049 51.48C40.7141 51.1353 40.503 51.04 39.8296 51.04H38.9703V52.36ZM64.6407 51.4604C64.6407 51.8195 64.835 51.8918 65.9689 51.9554C67.221 52.0258 67.2972 52.0016 67.2967 51.535C67.2963 51.0767 67.1978 51.04 65.9685 51.04C64.8089 51.04 64.6407 51.0932 64.6407 51.4604ZM69.5646 51.8791C69.245 51.9251 69.0667 52.1028 69.0667 52.3754C69.0667 52.7241 69.2249 52.8 69.9518 52.8C70.7264 52.8 70.837 52.7371 70.837 52.2971C70.837 51.7876 70.6434 51.724 69.5646 51.8791ZM1.94011 52.0667C1.63538 52.3695 1.80866 52.8 2.23509 52.8C2.53008 52.8 2.67769 52.6533 2.67769 52.36C2.67769 51.9361 2.24461 51.7638 1.94011 52.0667ZM43.3963 52.36C43.3963 52.7267 43.2486 52.8 42.5111 52.8C41.7735 52.8 41.6259 52.8733 41.6259 53.24C41.6259 53.5333 41.7735 53.68 42.0685 53.68C42.3635 53.68 42.5111 53.8267 42.5111 54.12C42.5111 54.4845 42.3635 54.56 41.6518 54.56C40.9784 54.56 40.7673 54.6553 40.6765 55C40.5962 55.3056 40.6728 55.4455 40.9275 55.4578C41.1291 55.4677 41.5679 55.4957 41.9025 55.5201C42.4017 55.5566 42.5111 55.4743 42.5111 55.0623C42.5111 54.7171 42.6414 54.56 42.9278 54.56C43.1586 54.56 43.3963 54.3635 43.4604 54.12C43.5242 53.8778 43.7623 53.68 43.99 53.68C44.3392 53.68 44.3905 53.5429 44.3193 52.8C44.2533 52.1125 44.1433 51.92 43.8156 51.92C43.5439 51.92 43.3963 52.0749 43.3963 52.36ZM3.56287 54.146C3.56287 54.4133 3.4062 54.56 3.12028 54.56C2.82529 54.56 2.67769 54.7067 2.67769 55C2.67769 55.3667 2.82529 55.44 3.56287 55.44C4.30046 55.44 4.44806 55.5133 4.44806 55.88C4.44806 56.1733 4.59566 56.32 4.89065 56.32C5.28345 56.32 5.33325 56.1733 5.33325 55.0139V53.7075L4.44806 53.7198C3.73327 53.7295 3.56287 53.8116 3.56287 54.146ZM17.5995 54.065C17.6303 54.2769 17.8704 54.4817 18.1333 54.5204C18.4915 54.573 18.611 54.4768 18.611 54.1354C18.611 53.8008 18.4694 53.68 18.0773 53.68C17.6953 53.68 17.5597 53.7893 17.5995 54.065ZM31.0036 54.56C31.0036 55.2933 31.0773 55.44 31.4462 55.44C31.8151 55.44 31.8888 55.2933 31.8888 54.56C31.8888 53.8267 31.8151 53.68 31.4462 53.68C31.0773 53.68 31.0036 53.8267 31.0036 54.56ZM36.3148 54.12C36.3148 54.4133 36.1672 54.56 35.8722 54.56C35.5033 54.56 35.4296 54.7067 35.4296 55.44C35.4296 56.1733 35.5033 56.32 35.8722 56.32C36.1295 56.32 36.3148 56.1733 36.3148 55.9693C36.3148 55.7766 36.5044 55.5696 36.7361 55.5093C37.0391 55.4305 37.1805 55.1584 37.2398 54.54C37.3139 53.7678 37.2708 53.68 36.8184 53.68C36.4624 53.68 36.3148 53.8089 36.3148 54.12ZM48.7074 54.12C48.7074 54.4133 48.855 54.56 49.15 54.56C49.445 54.56 49.5926 54.7067 49.5926 55C49.5926 55.2933 49.7402 55.44 50.0351 55.44C50.4041 55.44 50.4777 55.2933 50.4777 54.56V53.68H49.5926C48.855 53.68 48.7074 53.7533 48.7074 54.12ZM24.8073 55C24.8073 55.2933 24.9549 55.44 25.2499 55.44C25.5449 55.44 25.6925 55.2933 25.6925 55C25.6925 54.7067 25.5449 54.56 25.2499 54.56C24.9549 54.56 24.8073 54.7067 24.8073 55ZM33.6592 55.44C33.6592 56.1733 33.7329 56.32 34.1018 56.32C34.4707 56.32 34.5444 56.1733 34.5444 55.44C34.5444 54.7067 34.4707 54.56 34.1018 54.56C33.7329 54.56 33.6592 54.7067 33.6592 55.44ZM70.837 55.44C70.837 56.1733 70.9107 56.32 71.2796 56.32C71.6485 56.32 71.7222 56.1733 71.7222 55.44C71.7222 54.7067 71.6485 54.56 71.2796 54.56C70.9107 54.56 70.837 54.7067 70.837 55.44ZM0.907315 57.6389C0.907315 58.0314 1.05381 58.08 2.23509 58.08C3.38429 58.08 3.56287 58.0248 3.56287 57.6688C3.56287 57.3162 3.37367 57.2532 2.23509 57.2277C1.04386 57.2009 0.907315 57.2431 0.907315 57.6389ZM14.1851 57.64C14.1851 57.9333 14.3327 58.08 14.6277 58.08C14.9227 58.08 15.0703 57.9333 15.0703 57.64C15.0703 57.3467 14.9227 57.2 14.6277 57.2C14.3327 57.2 14.1851 57.3467 14.1851 57.64ZM26.5777 58.52C26.5777 58.8133 26.7253 58.96 27.0203 58.96C27.3153 58.96 27.4629 58.8133 27.4629 58.52C27.4629 58.2267 27.3153 58.08 27.0203 58.08C26.7253 58.08 26.5777 58.2267 26.5777 58.52ZM37.1738 58.795C37.1592 59.1884 37.1592 59.5841 37.1738 59.675C37.1882 59.7659 37.0008 59.84 36.7574 59.84C36.3885 59.84 36.3148 59.9867 36.3148 60.72C36.3148 61.4623 36.3862 61.6 36.7713 61.6C37.1121 61.6 37.2101 61.7197 37.1586 62.0721C37.0968 62.493 37.194 62.5442 38.0566 62.5458L39.0237 62.5478L39.0524 60.8278C39.0723 59.6222 39.1679 59.0788 39.3722 59.0108C39.5331 58.9571 39.7181 59.121 39.7854 59.3769C39.8548 59.6409 40.0863 59.84 40.324 59.84C40.6626 59.84 40.7407 59.6752 40.7407 58.96V58.08H38.9703H37.1999L37.1738 58.795ZM25.1946 58.8916C24.6434 59.0348 24.6903 59.84 25.2499 59.84C25.5746 59.84 25.6925 59.6933 25.6925 59.29C25.6925 58.9875 25.6675 58.7514 25.6372 58.7655C25.6069 58.7796 25.4077 58.8364 25.1946 58.8916ZM61.2476 59.1067C60.9429 59.4095 61.1161 59.84 61.5426 59.84C61.8376 59.84 61.9852 59.6933 61.9852 59.4C61.9852 58.9761 61.5521 58.8038 61.2476 59.1067ZM17.7259 62.8571C17.7259 63.2133 17.5968 63.36 17.2833 63.36C16.9883 63.36 16.8407 63.5067 16.8407 63.8C16.8407 64.1667 16.9883 64.24 17.7259 64.24H18.611V63.2971C18.611 62.5009 18.5422 62.3544 18.1684 62.3544C17.8549 62.3544 17.7259 62.5009 17.7259 62.8571ZM25.7479 62.4338C24.1041 62.4914 23.9222 62.5407 23.9222 62.9288C23.9222 63.2852 23.7686 63.36 23.037 63.36C22.2994 63.36 22.1518 63.4333 22.1518 63.8C22.1518 64.1667 22.2994 64.24 23.037 64.24C23.7746 64.24 23.9222 64.1667 23.9222 63.8C23.9222 63.5067 24.0698 63.36 24.3647 63.36C24.7582 63.36 24.8073 63.5067 24.8073 64.68C24.8073 65.8533 24.8565 66 25.2499 66C25.5449 66 25.6925 66.1467 25.6925 66.44C25.6925 66.7242 25.8401 66.88 26.1092 66.88C26.34 66.88 26.5777 66.6835 26.6419 66.44C26.7339 66.09 26.6485 66 26.225 66C25.7498 66 25.6925 65.9036 25.6925 65.1044V64.209L26.965 64.2605C27.6647 64.2888 28.2624 64.2464 28.2928 64.1661C28.3231 64.0858 28.3481 63.6849 28.3481 63.2757C28.3481 62.3823 28.2381 62.3467 25.7479 62.4338ZM33.7008 63.7426C33.8119 64.3159 34.5444 64.3799 34.5444 63.8161C34.5444 63.5012 34.4023 63.36 34.0856 63.36C33.769 63.36 33.6497 63.4786 33.7008 63.7426ZM53.0724 63.7872C53.0107 64.0222 53.0049 64.2589 53.0596 64.3133C53.3006 64.5531 54.0185 64.1496 54.0185 63.7743C54.0185 63.217 53.2196 63.228 53.0724 63.7872ZM58.4444 64.6006C58.4444 65.2445 59.2234 65.3272 59.3882 64.7007C59.4699 64.3905 59.3615 64.2552 58.9715 64.1813C58.5367 64.0985 58.4444 64.1718 58.4444 64.6006ZM15.8913 65.56C15.7992 65.91 15.8847 66 16.3082 66C16.6931 66 16.8407 65.8781 16.8407 65.56C16.8407 65.2758 16.6931 65.12 16.424 65.12C16.1932 65.12 15.9555 65.3165 15.8913 65.56ZM17.7259 66.88C17.7259 68.4933 17.7628 68.64 18.1684 68.64C18.4634 68.64 18.611 68.7867 18.611 69.08C18.611 69.4467 18.7586 69.52 19.4962 69.52C20.2338 69.52 20.3814 69.4467 20.3814 69.08C20.3814 68.7867 20.2338 68.64 19.9388 68.64C19.5454 68.64 19.4962 68.4933 19.4962 67.32C19.4962 66.1467 19.5454 66 19.9388 66C20.2338 66 20.3814 66.1467 20.3814 66.44C20.3814 66.7333 20.529 66.88 20.824 66.88C21.119 66.88 21.2666 66.7333 21.2666 66.44C21.2666 66.1467 21.119 66 20.824 66C20.529 66 20.3814 65.8533 20.3814 65.56C20.3814 65.1688 20.2338 65.12 19.0536 65.12H17.7259V66.88ZM75.2629 66V66.88H76.1481H77.0333V67.76V68.64H77.9185H78.8037V67.76V66.88H77.9185H77.0333V66V65.12H76.1481H75.2629V66ZM30.1594 66.8061C30.2526 67.9347 30.893 68.0018 30.893 66.8831C30.893 66.317 30.7877 66.0959 30.4913 66.0392C30.1503 65.9738 30.1001 66.0902 30.1594 66.8061ZM71.7222 66.88V67.782L72.9947 67.716L74.2671 67.65V66.88V66.11L72.9947 66.044L71.7222 65.978V66.88ZM33.6984 67.2443C33.8024 67.7745 34.5444 67.8238 34.5444 67.3006C34.5444 67.0217 34.3897 66.88 34.0856 66.88C33.7774 66.88 33.6501 66.9995 33.6984 67.2443ZM64.6407 67.32C64.6407 67.6867 64.7883 67.76 65.5259 67.76C66.2635 67.76 66.4111 67.6867 66.4111 67.32C66.4111 66.9533 66.2635 66.88 65.5259 66.88C64.7883 66.88 64.6407 66.9533 64.6407 67.32ZM56.674 68.2C56.674 68.4933 56.8217 68.64 57.1166 68.64C57.4116 68.64 57.5592 68.7867 57.5592 69.08C57.5592 69.3733 57.7068 69.52 58.0018 69.52C58.2968 69.52 58.4444 69.3733 58.4444 69.08C58.4444 68.7867 58.2968 68.64 58.0018 68.64C57.7068 68.64 57.5592 68.4933 57.5592 68.2C57.5592 67.9067 57.4116 67.76 57.1166 67.76C56.8217 67.76 56.674 67.9067 56.674 68.2ZM51.3629 69.08C51.3629 69.3733 51.5105 69.52 51.8055 69.52C52.1005 69.52 52.2481 69.3733 52.2481 69.08C52.2481 68.7867 52.1005 68.64 51.8055 68.64C51.5105 68.64 51.3629 68.7867 51.3629 69.08ZM53.1333 69.52V70.4H54.0185C54.7561 70.4 54.9037 70.3267 54.9037 69.96C54.9037 69.6667 54.7561 69.52 54.4611 69.52C54.1661 69.52 54.0185 69.3733 54.0185 69.08C54.0185 68.7867 53.8709 68.64 53.5759 68.64C53.207 68.64 53.1333 68.7867 53.1333 69.52ZM29.2333 69.96C29.2333 70.2533 29.3809 70.4 29.6759 70.4C29.9709 70.4 30.1185 70.2533 30.1185 69.96C30.1185 69.6667 29.9709 69.52 29.6759 69.52C29.3809 69.52 29.2333 69.6667 29.2333 69.96ZM69.0667 70.9293C69.0667 71.3504 69.1572 71.4353 69.5092 71.3438C69.7542 71.28 69.9518 71.0437 69.9518 70.8143C69.9518 70.5467 69.7952 70.4 69.5092 70.4C69.1892 70.4 69.0667 70.5467 69.0667 70.9293ZM71.7222 70.84C71.7222 71.1333 71.8698 71.28 72.1648 71.28C72.4598 71.28 72.6074 71.1333 72.6074 70.84C72.6074 70.5467 72.4598 70.4 72.1648 70.4C71.8698 70.4 71.7222 70.5467 71.7222 70.84ZM43.3963 71.6113C43.3963 72.0133 43.5146 72.16 43.8388 72.16C44.2077 72.16 44.2814 72.3067 44.2814 73.04C44.2814 73.7733 44.3551 73.92 44.724 73.92C45.1175 73.92 45.1666 73.7733 45.1666 72.6C45.1666 71.4958 45.1033 71.2774 44.7794 71.2637C44.5665 71.2547 44.1681 71.2059 43.8942 71.155C43.4861 71.0794 43.3963 71.1619 43.3963 71.6113ZM51.6634 71.2122C51.32 71.2789 51.2204 71.4221 51.3021 71.7321C51.4738 72.3855 52.2481 72.2854 52.2481 71.61C52.2481 71.3075 52.2231 71.0734 52.1928 71.0899C52.1625 71.1064 51.9241 71.1614 51.6634 71.2122ZM56.6362 72.16L56.7205 73.04H55.3695C54.1661 73.04 54.0185 73.088 54.0185 73.48C54.0185 73.8481 54.1661 73.92 54.9198 73.92C55.659 73.92 55.8081 73.9893 55.7475 74.305C55.707 74.5166 55.4613 74.7201 55.202 74.7571C54.8563 74.8064 54.7603 74.9386 54.8428 75.2521C54.9298 75.5832 55.1495 75.68 55.8148 75.68H56.674V74.36C56.674 73.1867 56.7232 73.04 57.1166 73.04C57.4116 73.04 57.5592 72.8933 57.5592 72.6C57.5592 72.3067 57.7068 72.16 58.0018 72.16C58.2968 72.16 58.4444 72.0133 58.4444 71.72C58.4444 71.3486 58.2968 71.28 57.4981 71.28H56.5517L56.6362 72.16ZM73.4926 72.16C73.4926 72.8933 73.5663 73.04 73.9352 73.04C74.3041 73.04 74.3778 72.8933 74.3778 72.16C74.3778 71.4267 74.3041 71.28 73.9352 71.28C73.5663 71.28 73.4926 71.4267 73.4926 72.16ZM65.5259 72.5839C65.5259 73.0387 65.9966 73.2213 66.7984 73.0778C67.1066 73.0226 67.2963 72.831 67.2963 72.5743C67.2963 72.2377 67.1305 72.16 66.4111 72.16C65.6846 72.16 65.5259 72.2361 65.5259 72.5839ZM61.1 74.8C61.1 75.5152 61.1781 75.68 61.5167 75.68C62.1356 75.68 62.2879 76.5173 61.6846 76.6029C61.3135 76.6555 61.1958 76.846 61.1429 77.4798L61.075 78.2896L63.3005 78.2848C65.3413 78.2804 65.5259 78.2452 65.5259 77.86C65.5259 77.5166 65.3644 77.44 64.6407 77.44H63.7555V75.68V73.92H62.4278H61.1V74.8ZM58.4444 76.1361C58.4444 76.4509 58.5637 76.5695 58.8293 76.5186C59.406 76.4082 59.4703 75.68 58.9032 75.68C58.5865 75.68 58.4444 75.8212 58.4444 76.1361ZM76.1895 76.175C76.246 76.5774 76.1656 76.6572 75.7609 76.6011C75.315 76.5395 75.2629 76.6256 75.2629 77.4261V78.32H76.1481C76.8857 78.32 77.0333 78.2467 77.0333 77.88C77.0333 77.5867 77.1809 77.44 77.4759 77.44C77.7218 77.44 77.9185 77.2933 77.9185 77.11C77.9185 76.8123 77.6558 76.6823 77.1993 76.754C77.1079 76.7683 77.0333 76.5325 77.0333 76.23C77.0333 75.821 76.9163 75.68 76.5768 75.68C76.2305 75.68 76.1371 75.7995 76.1895 76.175ZM50.4777 77C50.4777 77.3667 50.6253 77.44 51.3629 77.44C52.1005 77.44 52.2481 77.3667 52.2481 77C52.2481 76.6333 52.1005 76.56 51.3629 76.56C50.6253 76.56 50.4777 76.6333 50.4777 77ZM54.1661 78.4667C53.8614 78.7695 54.0346 79.2 54.4611 79.2C54.7561 79.2 54.9037 79.0533 54.9037 78.76C54.9037 78.3361 54.4706 78.1638 54.1661 78.4667ZM31.8888 103.4C31.8888 103.803 31.7412 103.84 30.1185 103.84C28.4957 103.84 28.3481 103.877 28.3481 104.28C28.3481 104.647 28.2005 104.72 27.4629 104.72C26.7253 104.72 26.5777 104.793 26.5777 105.16C26.5777 105.453 26.7253 105.6 27.0203 105.6C27.3153 105.6 27.4629 105.747 27.4629 106.04C27.4629 106.431 27.6105 106.48 28.7907 106.48C29.9709 106.48 30.1185 106.529 30.1185 106.92C30.1185 107.331 30.2661 107.36 32.3314 107.36C34.3968 107.36 34.5444 107.389 34.5444 107.8C34.5444 108.211 34.692 108.24 36.7574 108.24C38.8227 108.24 38.9703 108.269 38.9703 108.68C38.9703 109.071 39.1179 109.12 40.2981 109.12C41.4783 109.12 41.6259 109.169 41.6259 109.56C41.6259 109.982 41.7735 110 45.1666 110C48.5598 110 48.7074 109.982 48.7074 109.56C48.7074 109.169 48.855 109.12 50.0351 109.12C51.2153 109.12 51.3629 109.071 51.3629 108.68C51.3629 108.269 51.5105 108.24 53.5759 108.24C55.6413 108.24 55.7889 108.211 55.7889 107.8C55.7889 107.397 55.9365 107.36 57.5592 107.36C59.182 107.36 59.3296 107.323 59.3296 106.92C59.3296 106.529 59.4772 106.48 60.6574 106.48C61.8376 106.48 61.9852 106.431 61.9852 106.04C61.9852 105.649 62.1328 105.6 63.3129 105.6C64.4931 105.6 64.6407 105.551 64.6407 105.16C64.6407 104.793 64.4931 104.72 63.7555 104.72C63.018 104.72 62.8703 104.647 62.8703 104.28C62.8703 103.869 62.7227 103.84 60.6574 103.84C58.5854 103.84 58.4444 103.812 58.4444 103.396C58.4444 102.962 58.3322 102.953 53.1915 103.011C48.392 103.065 47.9322 103.103 47.8642 103.455C47.8032 103.771 47.9519 103.84 48.6912 103.84C49.445 103.84 49.5926 103.912 49.5926 104.28C49.5926 104.647 49.7402 104.72 50.4777 104.72C51.2153 104.72 51.3629 104.793 51.3629 105.16C51.3629 105.551 51.2153 105.6 50.0351 105.6C48.855 105.6 48.7074 105.649 48.7074 106.04C48.7074 106.456 48.5598 106.48 46.0518 106.48C43.5439 106.48 43.3963 106.456 43.3963 106.04C43.3963 105.624 43.2486 105.6 40.7407 105.6C38.2327 105.6 38.0851 105.576 38.0851 105.16C38.0851 104.769 38.2327 104.72 39.4129 104.72C40.5931 104.72 40.7407 104.671 40.7407 104.28C40.7407 103.913 40.8883 103.84 41.6259 103.84C42.3635 103.84 42.5111 103.767 42.5111 103.4C42.5111 102.972 42.3635 102.96 37.1999 102.96C32.0364 102.96 31.8888 102.972 31.8888 103.4Z" fill="#8F8D8D"/>
</svg>
