<svg width="38" height="38" viewBox="0 0 38 38" fill="none" xmlns="http://www.w3.org/2000/svg">
<path fill-rule="evenodd" clip-rule="evenodd" d="M2.58188 0.525781V1.05156H2.84457H3.10733L3.12593 1.87528L3.1446 2.69901L3.39286 2.72074C3.63423 2.74191 3.64111 2.75018 3.64111 3.01868C3.64111 3.29174 3.64396 3.29489 3.89262 3.29489C4.14107 3.29489 4.14379 3.29784 4.11711 3.54026L4.09003 3.78562H4.39522H4.70035V4.06604C4.70035 4.33979 4.70584 4.34645 4.93206 4.34645C5.15827 4.34645 5.16376 4.35311 5.16376 4.62687C5.16376 4.90659 5.16443 4.90729 5.4246 4.90729C5.67815 4.90729 5.68597 4.91458 5.70596 5.17018C5.72463 5.40909 5.74575 5.43503 5.93773 5.45473C6.12164 5.47359 6.15163 5.50535 6.16944 5.70009C6.18804 5.9034 6.21254 5.92576 6.43815 5.94553C6.68237 5.96698 6.68641 5.96326 6.68641 5.71769C6.68641 5.47324 6.68098 5.46812 6.4216 5.46812H6.15679V5.1877C6.15679 4.91493 6.15064 4.90729 5.92906 4.90729C5.71377 4.90729 5.70026 4.89299 5.6808 4.6444C5.66147 4.39658 5.64624 4.38024 5.41579 4.35998C5.18607 4.33979 5.17005 4.32283 5.15099 4.07957C5.13252 3.84402 5.11126 3.81871 4.91551 3.79873C4.71928 3.77868 4.70035 3.7559 4.70035 3.53984C4.70035 3.3113 4.69048 3.30218 4.41899 3.28136C4.14677 3.26054 4.13697 3.25143 4.11731 3.00109C4.0989 2.76673 4.07706 2.7403 3.8856 2.72067C3.676 2.69922 3.67389 2.69522 3.638 2.24333C3.61808 1.99271 3.61437 1.63784 3.62986 1.45466L3.65793 1.12167H4.14604H4.63415V0.876301V0.630937H4.09625H3.55836L3.59669 0.833748C3.63079 1.01455 3.61483 1.03971 3.45006 1.06537C3.17763 1.10772 3.1115 1.06278 3.1115 0.835431C3.1115 0.648463 3.13136 0.630937 3.34321 0.630937C3.57716 0.630937 3.58961 0.613271 3.58961 0.280416C3.58961 0.203302 3.5863 0.108661 3.58226 0.0701041C3.57809 0.030285 3.36035 0 3.0784 0L2.58188 0V0.525781ZM4.65997 1.2217C4.63997 1.27674 4.63348 1.39507 4.64547 1.48459C4.66321 1.61709 4.71352 1.65151 4.91551 1.66918L5.16376 1.69098V2.21249V2.73406H5.39547H5.62718V2.20828V1.6825H5.39547C5.16926 1.6825 5.16376 1.67584 5.16376 1.40208C5.16376 1.12783 5.1586 1.12167 4.93 1.12167C4.78853 1.12167 4.68188 1.1612 4.65997 1.2217ZM25.144 2.44025L25.1237 2.69901L24.3624 2.73406L23.601 2.76911L23.5805 3.032C23.5611 3.28059 23.5476 3.29489 23.3323 3.29489C23.1107 3.29489 23.1045 3.30253 23.1045 3.57531C23.1045 3.84907 23.099 3.85573 22.8728 3.85573C22.6522 3.85573 22.6411 3.86743 22.6411 4.10109C22.6411 4.34512 22.6395 4.34645 22.3432 4.34645H22.0453V4.62687C22.0453 4.90063 22.0398 4.90729 21.8136 4.90729C21.5874 4.90729 21.5819 4.91395 21.5819 5.1877V5.46812H21.3171H21.0523V5.98969V6.5112L20.804 6.533L20.5557 6.55473L20.5364 7.09804L20.5171 7.64135H20.2882C20.0588 7.64135 20.0443 7.66098 20.0422 7.97434C20.0416 8.06113 20.0079 8.13516 19.9674 8.13902C19.9269 8.1428 19.8193 8.15065 19.7282 8.15654L19.5627 8.16713L19.5448 9.55168C19.5285 10.8064 19.5161 10.9369 19.4124 10.9437C18.9927 10.971 19.035 10.6318 19.0159 14.1214C18.9973 17.514 18.9839 17.3826 19.3476 17.3848C19.5156 17.3857 19.5296 17.4073 19.5296 17.6662V17.9466H19.2648H19V17.6662V17.3858H18.7352H18.4704V16.825V16.2642H18.2428C18.0346 16.2642 18.0136 16.2449 17.9946 16.0363C17.9757 15.8283 17.9523 15.8066 17.7256 15.7867L17.4774 15.7649V16.2907V16.8165L17.7256 16.8383C17.9613 16.8589 17.9739 16.8724 17.9739 17.1054C17.9739 17.3414 17.9638 17.3515 17.7091 17.3715L17.4443 17.3923V17.1262C17.4443 16.8692 17.4356 16.8593 17.196 16.8383L16.9477 16.8165V17.0969C16.9477 17.3704 16.9539 17.3779 17.196 17.3991C17.431 17.4197 17.4444 17.434 17.4473 17.6662C17.4501 17.8972 17.4646 17.9129 17.6918 17.9331C17.918 17.9533 17.9345 17.971 17.9535 18.2135C17.9727 18.4576 17.9881 18.4737 18.2221 18.4942C18.4569 18.5148 18.4704 18.5291 18.4704 18.7571V18.9982H17.9739H17.4774V19.2786V19.559H17.2125H16.9477V19.2786V18.9982H16.6829C16.4244 18.9982 16.4181 18.9924 16.4181 18.7528V18.5075H15.6568H14.8955V18.7528V18.9982H15.4251H15.9547V19.2786C15.9547 19.5524 15.9602 19.559 16.1864 19.559H16.4181V20.0848V20.6106H16.9146C17.4529 20.6106 17.4108 20.5755 17.436 21.0452C17.4428 21.1721 17.485 21.1999 17.676 21.2029C17.8895 21.2062 17.9102 21.2258 17.9408 21.4519L17.9739 21.6972L18.4869 21.7177L19 21.7382V22.0156C19 22.2926 19.0005 22.2931 19.2648 22.2931C19.5233 22.2931 19.5296 22.2989 19.5296 22.5385V22.7838H19H18.4704V22.5817C18.4704 22.3195 18.4189 22.3101 16.9551 22.3042C15.4612 22.2982 15.4251 22.3055 15.4251 22.6141V22.8539H14.6307H13.8362V22.5408V22.2276L14.5778 22.2078L15.3194 22.1879L15.3195 21.9776L15.3196 21.7673L14.8427 21.7467L14.3659 21.7261V21.4838V21.2415H13.6045H12.8432V20.9651C12.8432 20.6901 12.8418 20.6887 12.5618 20.6672C12.2888 20.6463 12.2799 20.6379 12.26 20.3828C12.2404 20.1333 12.2276 20.1199 12.0079 20.1199C11.7765 20.1199 11.7764 20.1197 11.7967 19.8226C11.812 19.599 11.8475 19.5191 11.9395 19.5006C12.0978 19.4687 12.5715 19.5669 12.4625 19.6089C12.4171 19.6265 12.3798 19.7315 12.3798 19.8423V20.0439L12.8929 20.0644L13.4059 20.0848L13.4264 20.3477C13.447 20.6109 13.5115 20.6574 13.7315 20.5681C13.7986 20.5409 13.8362 20.4399 13.8362 20.2876C13.8362 20.0524 13.8396 20.0498 14.1341 20.0498H14.4321V20.3302C14.4321 20.6039 14.4376 20.6106 14.6638 20.6106C14.8219 20.6106 14.8981 20.644 14.9037 20.7158C14.9083 20.7736 14.9157 20.8919 14.9203 20.9787C14.9265 21.0959 14.9753 21.1421 15.1106 21.1585C15.266 21.1775 15.2927 21.1552 15.2927 21.0066C15.2927 20.6865 15.3573 20.6106 15.6295 20.6106C15.8463 20.6106 15.8923 20.5841 15.9266 20.4393C15.9863 20.1874 15.9145 20.1199 15.5867 20.1199C15.2955 20.1199 15.2927 20.1175 15.2927 19.8777V19.6355L14.8458 19.6148L14.399 19.5941L14.377 19.3494C14.3649 19.2148 14.3272 19.0863 14.2932 19.064C14.2591 19.0417 12.5336 19.0157 10.4588 19.0062L6.68641 18.9889V19.274V19.559H6.19387H5.70139L5.6808 19.8219L5.66028 20.0848L5.16376 20.1199L4.66725 20.1549L4.68876 20.3828L4.71034 20.6106H4.1757H3.64111V20.891V21.1714H3.11547H2.58989L2.5693 21.4343C2.54997 21.6822 2.53647 21.6967 2.33362 21.687C2.12204 21.6769 2.11847 21.6819 2.11847 21.9849V22.2931H1.82056C1.52424 22.2931 1.52265 22.2944 1.52265 22.5385C1.52265 22.7714 1.51106 22.7838 1.29491 22.7838C1.07962 22.7838 1.06612 22.7981 1.04665 23.0467C1.02739 23.2935 1.01144 23.3109 0.786414 23.3309L0.546697 23.352L0.579401 23.6594C0.597408 23.8285 0.592178 24.0792 0.567882 24.2166C0.525976 24.4529 0.509491 24.4663 0.261829 24.4663H0L0 25.5179L0 26.5695H0.263551C0.540077 26.5695 0.617003 26.6807 0.578408 27.0251C0.563049 27.1627 0.606676 27.1657 2.86324 27.1838L5.16376 27.2022V26.8858V26.5695H6.1899H7.21603V26.3241V26.0787H7.7048C8.11565 26.0787 8.198 26.0983 8.22131 26.2014C8.27983 26.4605 8.20727 26.5695 7.97629 26.5695C7.7612 26.5695 7.75253 26.5801 7.73287 26.8674C7.71314 27.1566 7.70526 27.166 7.46429 27.1871C7.22953 27.2077 7.21603 27.222 7.21603 27.45C7.21603 27.6846 7.20881 27.6911 6.95122 27.6911H6.68641V27.9715V28.252H6.4216H6.15679V28.7777V29.3035H5.92509C5.69887 29.3035 5.69338 29.3102 5.69338 29.5839V29.8643H5.42857H5.16376V30.6705V31.4767H4.93484H4.70591L4.68658 32.02L4.66725 32.5634L4.40244 32.5984L4.13763 32.6335L4.1189 33.4221L4.10016 34.2108H3.87064H3.64111V35.2974L3.64111 36.384H3.87282C4.09275 36.384 4.10453 36.3963 4.10453 36.6254C4.10453 36.8592 4.11333 36.8674 4.38589 36.8883C4.66016 36.9092 4.66811 36.9168 4.70035 37.1902C4.73067 37.4473 4.75 37.4706 4.93206 37.4706C5.11405 37.4706 5.13238 37.4928 5.15132 37.7354L5.17197 38L6.17745 37.9807L7.18293 37.9614L7.21603 37.716L7.24913 37.4706H7.71254H8.17596L8.20906 37.1902C8.24044 36.9241 8.25487 36.9087 8.49042 36.8881C8.72424 36.8675 8.73868 36.8525 8.73868 36.6294C8.73868 36.4063 8.75311 36.3912 8.98693 36.3707C9.22169 36.3502 9.23632 36.3347 9.25571 36.0861L9.2763 35.8232H9.76481H10.2533L10.2739 35.5603C10.2933 35.3117 10.3079 35.2962 10.5427 35.2757C10.7841 35.2545 10.7909 35.2462 10.7909 34.9777C10.7909 34.7098 10.7978 34.7015 11.0185 34.7015C11.2267 34.7015 11.2477 34.6823 11.2667 34.4737C11.2862 34.2598 11.3047 34.2445 11.5688 34.2243C11.8488 34.2028 11.8502 34.2014 11.8502 33.9264C11.8502 33.6572 11.8563 33.65 12.0819 33.65C12.3025 33.65 12.3136 33.6383 12.3136 33.4046C12.3136 33.1651 12.3199 33.1592 12.5784 33.1592C12.8425 33.1592 12.8432 33.1585 12.8432 32.883C12.8432 32.6145 12.8501 32.6063 13.0915 32.5851C13.3262 32.5645 13.3408 32.5491 13.3602 32.3005C13.3796 32.0529 13.3938 32.0376 13.6045 32.0376C13.8153 32.0376 13.8294 32.0223 13.8488 31.7747C13.8687 31.5201 13.8781 31.5111 14.1469 31.4904C14.4149 31.4698 14.4252 31.4601 14.4448 31.21C14.4584 31.0367 14.4948 30.9575 14.5548 30.9709C14.7711 31.019 14.8955 30.9076 14.8955 30.6658C14.8955 30.4375 14.9074 30.4252 15.1272 30.4252C15.3534 30.4252 15.3589 30.4185 15.3589 30.1448V29.8643H15.6568H15.9547V29.5839C15.9547 29.3102 15.9602 29.3035 16.1864 29.3035C16.4071 29.3035 16.4181 29.2918 16.4181 29.0581C16.4181 28.8186 16.4244 28.8128 16.6829 28.8128H16.9477V28.5324V28.252H17.2125C17.4767 28.252 17.4774 28.2513 17.4774 27.9757C17.4774 27.7072 17.4842 27.699 17.7256 27.6778C17.9523 27.658 17.9757 27.6362 17.9946 27.4282C18.0136 27.2197 18.0346 27.2004 18.2428 27.2004C18.4684 27.2004 18.4704 27.1976 18.4704 26.8849V26.5695H18.7352H19V27.1303V27.6911H18.7352H18.4704V27.9715C18.4704 28.2443 18.4642 28.252 18.2426 28.252C18.0274 28.252 18.0139 28.2663 17.9944 28.5148C17.975 28.7634 17.9604 28.7789 17.7256 28.7995L17.4774 28.8213V29.347V29.8728L17.7256 29.851C17.9604 29.8305 17.975 29.815 17.9944 29.5664C18.0139 29.3178 18.0274 29.3035 18.2426 29.3035C18.4588 29.3035 18.4704 29.291 18.4704 29.0581C18.4704 28.8186 18.4767 28.8128 18.7352 28.8128H19V28.5324V28.252H19.2648H19.5296V27.1653V26.0787H19.7779L20.0261 26.0787L20.0117 27.954L19.9973 29.8293L19.7634 29.851C19.5389 29.8719 19.5296 29.8837 19.5296 30.149C19.5296 30.4252 19.5296 30.4252 19.2608 30.4252H18.992L19.0126 30.6881L19.0331 30.951L19.5131 30.9606L19.993 30.9702V30.4173V29.8643H20.2578H20.5226V29.3428V28.8213L20.7709 28.7995L21.0192 28.7777L21.0372 27.4282L21.0551 26.0787H21.3185C21.5754 26.0787 21.5819 26.0848 21.5819 26.3241C21.5819 26.5577 21.5929 26.5695 21.8136 26.5695C22.044 26.5695 22.0453 26.5711 22.0453 26.8849V27.2004H22.8066H23.5679V26.8893C23.5679 26.5897 23.5601 26.5775 23.3528 26.5563L23.1376 26.5344L23.118 26.0612L23.0985 25.588L23.3497 25.5787C24.203 25.5473 24.1303 25.527 24.1341 25.7971C24.1373 26.0278 24.1501 26.0414 24.3658 26.0425C24.5814 26.0436 24.5952 26.0293 24.6144 25.7848C24.6335 25.5415 24.6495 25.5246 24.8792 25.5044L25.1237 25.4828V24.9921V24.5014L24.8792 24.4799C24.6495 24.4597 24.6335 24.4427 24.6144 24.1994L24.5941 23.9406L24.081 23.9201L23.5679 23.8996V23.6221V23.3447H23.8659H24.1638V23.0612V22.7777L24.6437 22.7983L25.1237 22.8189L25.1442 23.0818L25.1648 23.3447H26.7165H28.2683V23.0642V22.7838H28.7648H29.2613V22.5385V22.2931H28.5H27.7387V22.5385V22.7838H26.7153H25.692L25.6726 22.2438L25.6533 21.7037L25.1568 21.7005L24.6603 21.6972L24.6398 21.4343L24.6192 21.1714H24.888H25.1568V20.891V20.6106H25.6533H26.1498V20.3692C26.1498 20.1354 26.1586 20.1272 26.4312 20.1063C26.7043 20.0855 26.7131 20.0771 26.7331 19.8219C26.7525 19.5733 26.766 19.559 26.9813 19.559C27.2029 19.559 27.2091 19.5514 27.2091 19.2786V18.9982H27.7387H28.2683V18.7231C28.2683 18.451 28.2709 18.4482 28.5 18.4707C28.7283 18.4932 28.7317 18.4896 28.7317 18.2243C28.7317 17.9638 28.7398 17.9544 28.98 17.9333C29.2147 17.9128 29.2293 17.8973 29.2487 17.6487C29.2681 17.4019 29.2828 17.3858 29.4899 17.3858C29.723 17.3858 29.7909 17.2974 29.7909 16.9945C29.7909 16.8448 29.8205 16.825 30.0436 16.825C30.2924 16.825 30.2963 16.8208 30.2919 16.5621L30.2875 16.2992L30.8005 16.2787L31.3136 16.2583V16.0188V15.7793L31.8267 15.7588L32.3397 15.7384L32.3301 15.5105C32.3202 15.2784 32.3327 15.269 32.6542 15.2657C32.8245 15.2639 32.8362 15.2441 32.8362 14.9607V14.6576L33.3493 14.6372L33.8624 14.6167L33.8955 14.3713C33.9248 14.1539 33.9547 14.122 34.1581 14.0909C34.3609 14.0599 34.3879 14.0315 34.3898 13.8456L34.392 13.6352L34.9051 13.6148L35.4181 13.5943V13.3168C35.4181 13.0464 35.4241 13.0394 35.6498 13.0394C35.8697 13.0394 35.8815 13.0271 35.8815 12.798C35.8815 12.5642 35.8903 12.556 36.1629 12.5351C36.436 12.5142 36.4448 12.5059 36.4648 12.2507C36.4842 12.0031 36.4983 11.9878 36.7091 11.9878C36.9198 11.9878 36.9339 11.9725 36.9533 11.7249C36.9722 11.4833 36.9926 11.4592 37.2056 11.427C37.4185 11.3947 37.4389 11.3706 37.4578 11.129C37.4778 10.8734 37.4856 10.8661 37.7392 10.8661H38V9.77952V8.69291H37.7392C37.4856 8.69291 37.4778 8.68562 37.4578 8.43002C37.4403 8.20561 37.4131 8.16559 37.2718 8.15654C37.1807 8.15065 37.0691 8.1428 37.0235 8.13902C36.9743 8.13488 36.9408 8.0326 36.9408 7.88671V7.64135H36.1794H35.4181V7.36093V7.08051H33.6307H31.8432V7.35799V7.63546L31.3301 7.65593L30.8171 7.6764L30.784 7.92176L30.7509 8.16713L30.0226 8.1726L29.2944 8.17799L29.2613 8.41796L29.2282 8.65786L28.7483 8.67847L28.2683 8.69908V8.97641V9.25374H27.7762C27.3431 9.25374 27.2792 9.27043 27.2424 9.39332C27.2193 9.47008 27.2192 9.56493 27.2421 9.60412C27.285 9.67766 27.2387 9.70283 26.9277 9.77504C26.7716 9.81121 26.7456 9.85201 26.7456 10.0613C26.7456 10.3043 26.7443 10.3053 26.4438 10.3053H26.1418L26.1624 10.0424C26.1824 9.78653 26.1905 9.77896 26.4688 9.75772L26.7547 9.73592L26.7447 9.33709C26.7282 8.67426 26.7215 8.69291 26.9752 8.69291H27.2049L27.2235 7.87269L27.2422 7.05247L27.4739 7.04897L27.7056 7.04546L27.7243 6.25679L27.743 5.46812H28.0057H28.2683V4.10109V2.73406H28.0075C27.7539 2.73406 27.7461 2.72677 27.7261 2.47117L27.7056 2.20828L26.435 2.19489L25.1643 2.1815L25.144 2.44025ZM5.69338 3.01448C5.69338 3.28823 5.69887 3.29489 5.92509 3.29489C6.1513 3.29489 6.15679 3.30155 6.15679 3.57531V3.85573H6.4216H6.68641V4.38571V4.91577L6.93467 4.89397L7.18293 4.87223V4.38151V3.89078L6.93467 3.86905C6.6933 3.84787 6.68641 3.8396 6.68641 3.5711C6.68641 3.29559 6.68575 3.29489 6.4216 3.29489H6.15679V3.01448C6.15679 2.74072 6.1513 2.73406 5.92509 2.73406C5.69887 2.73406 5.69338 2.74072 5.69338 3.01448ZM7.21603 5.1877C7.21603 5.46146 7.22152 5.46812 7.44774 5.46812C7.67395 5.46812 7.67944 5.46146 7.67944 5.1877C7.67944 4.91395 7.67395 4.90729 7.44774 4.90729C7.22152 4.90729 7.21603 4.91395 7.21603 5.1877ZM7.74564 5.71348C7.74564 5.94714 7.7567 5.95885 7.97735 5.95885C8.198 5.95885 8.20906 5.94714 8.20906 5.71348C8.20906 5.47983 8.198 5.46812 7.97735 5.46812C7.7567 5.46812 7.74564 5.47983 7.74564 5.71348ZM6.73057 6.00561C6.70627 6.03127 6.68641 6.15745 6.68641 6.28602C6.68641 6.51127 6.69575 6.51968 6.94725 6.51968C7.2008 6.51968 7.20861 6.52697 7.22861 6.78257C7.248 7.03116 7.26263 7.04665 7.49739 7.06719C7.73876 7.08837 7.74564 7.09664 7.74564 7.36514C7.74564 7.63406 7.75174 7.64135 7.97735 7.64135C8.19728 7.64135 8.20906 7.65361 8.20906 7.88271C8.20906 8.11651 8.21786 8.12471 8.49042 8.14561C8.7635 8.1665 8.77237 8.17484 8.7923 8.43002C8.81176 8.67861 8.82527 8.69291 9.04056 8.69291C9.26214 8.69291 9.26829 8.70055 9.26829 8.97332C9.26829 9.24519 9.27511 9.25374 9.49225 9.25374C9.73217 9.25374 9.81962 9.11143 9.75091 8.83312C9.72489 8.72775 9.66061 8.69291 9.49225 8.69291C9.28041 8.69291 9.26829 8.67959 9.26829 8.44754C9.26829 8.21389 9.27935 8.20218 9.5 8.20218C9.72065 8.20218 9.73171 8.21389 9.73171 8.44754C9.73171 8.68709 9.738 8.69291 9.99652 8.69291C10.2607 8.69291 10.2613 8.69361 10.2613 8.96912C10.2613 9.23762 10.2544 9.24589 10.0131 9.26706L9.76481 9.28879L9.74534 9.79705L9.72588 10.3053H10.0267H10.3275V10.5857C10.3275 10.8585 10.3337 10.8661 10.5553 10.8661C10.77 10.8661 10.7841 10.8809 10.8035 11.1258C10.8229 11.371 10.837 11.3856 11.0557 11.3887C11.2804 11.3918 11.2881 11.4009 11.3078 11.6899C11.3281 11.9863 11.3294 11.9878 11.5891 11.9878C11.8434 11.9878 11.8502 11.9943 11.8502 12.2332C11.8502 12.4668 11.8612 12.4785 12.0819 12.4785H12.3136V13.0394V13.6002H12.5784C12.8498 13.6002 12.8783 13.6393 12.8466 13.9682C12.8372 14.0667 12.8872 14.0909 13.0999 14.0909C13.3581 14.0909 13.3653 14.0976 13.3854 14.3528C13.4047 14.5988 13.419 14.6143 13.6211 14.6077C13.847 14.6002 13.8625 14.6298 13.8383 15.0198C13.8268 15.2039 13.8399 15.2126 14.1292 15.2126H14.4321V15.493C14.4321 15.7668 14.4376 15.7734 14.6638 15.7734C14.8844 15.7734 14.8955 15.7851 14.8955 16.0188C14.8955 16.2524 14.9065 16.2642 15.1272 16.2642H15.3589V16.7141C15.3589 17.328 15.388 17.3858 15.697 17.3858C15.9474 17.3858 15.9547 17.3928 15.9547 17.6312C15.9547 17.8648 15.9658 17.8765 16.1864 17.8765C16.4126 17.8765 16.4181 17.8832 16.4181 18.157V18.4374H16.6829C16.8705 18.4374 16.9501 18.4681 16.956 18.5425C16.9606 18.6004 16.968 18.7186 16.9726 18.8054C16.9794 18.9373 17.0188 18.9632 17.2125 18.9632C17.4332 18.9632 17.4443 18.9515 17.4443 18.7178C17.4443 18.4844 17.432 18.4714 17.1937 18.4506C16.9487 18.4291 16.9434 18.4228 16.962 18.1701C16.9808 17.9124 16.9799 17.9115 16.6995 17.8901C16.4269 17.8692 16.4181 17.861 16.4181 17.6272C16.4181 17.3981 16.4063 17.3858 16.1864 17.3858H15.9547V16.825V16.2642H15.6526C15.3517 16.2642 15.3505 16.2633 15.3713 16.0363C15.3907 15.8224 15.4093 15.8071 15.6733 15.787L15.9547 15.7654L15.9547 16.0148C15.9547 16.1519 15.9845 16.2681 16.0209 16.2729C16.0573 16.2778 16.1169 16.2896 16.1533 16.2992C16.1897 16.3088 16.2624 16.3207 16.3148 16.3255C16.3751 16.331 16.4177 16.4304 16.4307 16.5955C16.4519 16.8666 16.4478 16.8642 16.8484 16.8328C16.9177 16.8274 16.9477 16.7456 16.9478 16.5621C16.9478 16.305 16.9423 16.2992 16.6995 16.2992C16.4604 16.2992 16.4505 16.2895 16.4307 16.0363C16.4112 15.7877 16.3977 15.7734 16.1824 15.7734C15.9663 15.7734 15.9547 15.7609 15.9547 15.5281C15.9547 15.2844 15.9526 15.2827 15.6606 15.2827H15.3665L15.3461 14.9848C15.3271 14.706 15.3121 14.6854 15.1135 14.6651L14.9011 14.6433L14.8818 14.1393L14.8624 13.6352L14.6472 13.6133C14.4444 13.5926 14.4321 13.5754 14.4321 13.3154V13.0394H14.1341C13.8378 13.0394 13.8362 13.038 13.8362 12.794C13.8362 12.5611 13.8247 12.5486 13.6085 12.5486C13.3932 12.5486 13.3797 12.5343 13.3602 12.2857C13.3408 12.0372 13.3262 12.0217 13.0915 12.0011C12.8501 11.9799 12.8432 11.9717 12.8432 11.7032C12.8432 11.4277 12.8425 11.427 12.5784 11.427H12.3136V11.7074C12.3136 11.9811 12.3081 11.9878 12.0819 11.9878C11.8563 11.9878 11.8502 11.9805 11.8502 11.7118C11.8502 11.4517 11.8626 11.4346 12.0653 11.4139C12.2545 11.3946 12.283 11.3644 12.3012 11.1641C12.3211 10.9456 12.3123 10.9362 12.0861 10.9362H11.8502V10.3754V9.81457H11.5523H11.2544V9.53416V9.25374H10.9895H10.7247V8.97332C10.7247 8.69957 10.7192 8.69291 10.493 8.69291C10.2724 8.69291 10.2613 8.6812 10.2613 8.44754C10.2613 8.208 10.255 8.20218 9.99652 8.20218C9.738 8.20218 9.73171 8.19636 9.73171 7.95682C9.73171 7.81121 9.69808 7.70844 9.64895 7.70402C9.60347 7.69988 9.50662 7.69203 9.4338 7.68649C9.31622 7.67752 9.29769 7.61352 9.26829 7.11557L9.23519 6.55473L8.99071 6.53321C8.76099 6.51302 8.74497 6.49606 8.7259 6.25279C8.70743 6.01724 8.68618 5.99194 8.49042 5.97196C8.27956 5.95044 8.27526 5.95569 8.27526 6.23485C8.27526 6.51365 8.28016 6.51968 8.50697 6.51968H8.73868V7.04133C8.73868 7.59522 8.69452 7.67997 8.44097 7.6126C8.31531 7.57923 8.27903 7.51726 8.26268 7.30807C8.24329 7.05976 8.22865 7.04427 7.9939 7.02373C7.75915 7.00312 7.74564 6.98882 7.74564 6.76084C7.74564 6.5262 7.73843 6.51968 7.48084 6.51968H7.21603V6.23926C7.21603 5.96817 7.20868 5.95885 6.99538 5.95885C6.87396 5.95885 6.7548 5.97988 6.73057 6.00561ZM8.83281 7.70563C8.81746 7.72169 8.80488 7.82418 8.80488 7.93347C8.80488 8.11371 8.82633 8.13208 9.03659 8.13208C9.25677 8.13208 9.26829 8.12002 9.26829 7.88951C9.26829 7.66224 9.25552 7.64794 9.06452 7.66168C8.95244 7.66981 8.84817 7.68958 8.83281 7.70563ZM24.679 8.50012L24.6603 9.28879L24.412 9.31053L24.1638 9.33233V10.1342V10.9362H23.899H23.6341V12.7589V14.5817H23.8659H24.0976V13.818C24.0976 13.0141 24.115 12.9693 24.4266 12.9693C24.5681 12.9693 24.6508 12.6211 24.5882 12.2895C24.5428 12.0492 24.6249 11.9589 24.892 11.9551C25.0529 11.9528 25.0587 11.9352 25.1001 11.3218C25.1236 10.9748 25.1459 10.0205 25.1498 9.20116L25.1568 7.71145H24.9273H24.6977L24.679 8.50012ZM30.8492 8.39497C30.8477 8.66858 30.7793 8.74633 30.5523 8.73252L30.3537 8.72039L30.3206 9.52743L30.2875 10.3345L30.0392 10.329L29.7909 10.3235V11.4361V12.5486H29.5261C29.2685 12.5486 29.2613 12.5552 29.2613 12.7898C29.2613 13.0178 29.2478 13.0321 29.0131 13.0527L28.7648 13.0744L28.7455 13.6177L28.7261 14.161H28.4972H28.2683V14.7219V15.2827H28.0035C27.741 15.2827 27.7387 15.285 27.7387 15.549C27.7387 15.8111 27.7351 15.8149 27.5113 15.7873C27.29 15.7599 27.2835 15.7663 27.2631 16.0292C27.2432 16.286 27.23 16.3003 26.9939 16.3209L26.7456 16.3427V16.023C26.7456 15.7044 26.7464 15.7033 26.9774 15.7033H27.2091V14.9364V14.1695L26.9615 14.1477L26.714 14.126L26.7357 13.2704C26.7477 12.7997 26.7372 12.3169 26.7124 12.1974C26.6708 11.9972 26.6483 11.9818 26.4251 12.0015L26.1829 12.0229L26.1649 13.3373L26.1469 14.6518L25.9001 14.6517L25.6533 14.6516L25.6896 16.562C25.7095 17.6127 25.7319 18.4823 25.7392 18.4944C25.7466 18.5065 25.8494 18.5065 25.9678 18.4944C26.158 18.475 26.1868 18.444 26.216 18.2271C26.2452 18.0108 26.2758 17.9776 26.4744 17.9466C26.7243 17.9078 26.8365 17.7152 26.7325 17.5036C26.6855 17.4079 26.6089 17.3815 26.4264 17.3984C26.1835 17.4208 26.1829 17.4202 26.1626 17.1229L26.1422 16.825H26.444H26.7456V17.1054V17.3858H27.0105C27.268 17.3858 27.2753 17.3792 27.2753 17.1449C27.2753 16.9243 27.2935 16.9021 27.4904 16.882L27.7056 16.86L27.7387 16.3343L27.7718 15.8085L28.02 15.7867C28.2548 15.7661 28.2683 15.7518 28.2683 15.5239C28.2683 15.295 28.2801 15.2827 28.5 15.2827H28.7317V15.8085V16.3343L28.4834 16.3341L28.2352 16.3339L28.257 16.8599L28.2788 17.3858H28.5013C28.7105 17.3858 28.725 17.3703 28.7443 17.1229C28.7636 16.8751 28.7788 16.8588 29.0093 16.8385C29.239 16.8183 29.255 16.8014 29.2741 16.5581C29.2905 16.349 29.322 16.2977 29.4376 16.2916C29.7065 16.2771 29.7909 16.2041 29.7909 15.9859C29.7909 15.7846 29.8056 15.7728 30.0723 15.7614C30.227 15.7548 30.3983 15.7424 30.453 15.7338C30.5076 15.7253 30.6044 15.7149 30.6681 15.7107C30.7506 15.7055 30.784 15.6439 30.784 15.4972C30.784 15.3097 30.8063 15.2892 31.0322 15.2694L31.2805 15.2476L31.2998 14.7043C31.3183 14.1855 31.3467 14.1193 31.5356 14.1551C31.7235 14.1908 31.8432 14.0685 31.8432 13.8409C31.8432 13.6069 31.8505 13.6002 32.108 13.6002H32.3728V13.3198C32.3728 13.046 32.3783 13.0394 32.6045 13.0394H32.8362V12.5178V11.9963L33.0845 11.9745C33.3202 11.9539 33.3328 11.9403 33.3328 11.7074C33.3328 11.4744 33.3202 11.4609 33.0845 11.4403L32.8362 11.4185V11.7032C32.8362 11.9808 32.8306 11.9878 32.6085 11.9878C32.3932 11.9878 32.3797 12.0021 32.3602 12.2507C32.3408 12.4993 32.3262 12.5148 32.0915 12.5353C31.8567 12.5559 31.8432 12.5702 31.8432 12.7982V13.0394H31.3467H30.8502V13.3198C30.8502 13.6102 30.8034 13.6427 30.4406 13.6046C30.3566 13.5958 30.3238 13.6589 30.3082 13.8594C30.2886 14.1114 30.2741 14.1272 30.043 14.1475C29.8133 14.1677 29.7972 14.1847 29.7782 14.4279C29.7574 14.6918 29.7502 14.697 29.3813 14.7138C29.231 14.7206 29.2003 14.7571 29.1827 14.9497C29.1655 15.1395 29.1316 15.1813 28.98 15.1997C28.8125 15.2201 28.7979 15.2025 28.7979 14.9806C28.7979 14.7698 28.8224 14.7342 28.9923 14.6982C29.1613 14.6624 29.1896 14.6222 29.2075 14.3915C29.2271 14.1407 29.2418 14.1248 29.4726 14.1045C29.6939 14.085 29.7188 14.0618 29.7374 13.8591C29.756 13.6556 29.7805 13.6333 30.0061 13.6135C30.2475 13.5923 30.2544 13.5841 30.2544 13.3156C30.2544 13.0702 30.2722 13.0394 30.4144 13.0394C30.7019 13.0394 30.784 12.9676 30.784 12.7164C30.784 12.4856 30.7918 12.4785 31.0488 12.4785C31.2979 12.4785 31.3136 12.4663 31.3136 12.2717C31.3136 12.0355 31.1766 11.9247 30.9432 11.9719C30.83 11.9948 30.784 12.0508 30.784 12.1655C30.784 12.4512 30.7249 12.5254 30.5227 12.494C30.3402 12.4656 30.3309 12.4456 30.2872 11.9849C30.2622 11.7212 30.2612 11.472 30.285 11.4311C30.3088 11.3903 30.4306 11.3569 30.5554 11.3569H30.7826L30.7768 10.9538C30.7672 10.2963 30.7597 10.3159 31.0322 10.292L31.2805 10.2703L31.2901 9.84963C31.3056 9.16604 31.2994 9.18882 31.4622 9.22198C31.7586 9.28241 31.8433 9.19871 31.8423 8.84595C31.8406 8.22398 31.8224 8.20218 31.3058 8.20218C30.8532 8.20218 30.8502 8.20344 30.8492 8.39497ZM10.3275 9.77952V10.3053H10.5592C10.7854 10.3053 10.7909 10.312 10.7909 10.5857C10.7909 10.8595 10.7964 10.8661 11.0226 10.8661H11.2544V10.3404V9.81457H11.0226C10.8952 9.81457 10.7872 9.78303 10.7827 9.74447C10.7781 9.70591 10.7669 9.64282 10.7578 9.60426C10.7488 9.5657 10.7376 9.47106 10.733 9.39395C10.7267 9.28683 10.6779 9.25374 10.5261 9.25374H10.3275V9.77952ZM11.4364 10.919C11.3603 10.9371 11.3206 11.0129 11.3206 11.14C11.3206 11.3908 11.3385 11.4048 11.6164 11.3704C11.8238 11.3448 11.8502 11.3186 11.8502 11.1389C11.8502 11.0274 11.8279 10.9339 11.8005 10.9308C11.7732 10.9279 11.7062 10.9179 11.6516 10.9085C11.597 10.8991 11.5002 10.9038 11.4364 10.919ZM21.5721 11.4445C21.5667 11.4927 21.5562 11.5794 21.5488 11.6373C21.5414 11.6951 21.5308 12.0185 21.5255 12.3558L21.5157 12.9693H21.284H21.0523V12.4785V11.9878H20.7875H20.5226V12.4743V12.9608L20.2744 12.9826L20.0261 13.0043L20.0085 14.9454L19.991 16.8865L20.2402 16.9083L20.4895 16.9301L20.5079 17.9642L20.5262 18.9982H21.0541H21.5819V18.4724V17.9466H21.8136H22.0453V14.6518V11.3569H21.8136C21.6776 11.3569 21.5778 11.393 21.5721 11.4445ZM22.6395 13.3373C22.6385 14.388 22.6274 15.4587 22.6147 15.7167C22.5903 16.2128 22.613 16.2535 22.9063 16.2379L23.0714 16.2291L23.0888 13.828L23.1063 11.427H22.8737H22.6411L22.6395 13.3373ZM12.3136 12.2332C12.3136 12.4289 12.3404 12.4803 12.446 12.4873C12.5188 12.4921 12.6306 12.5 12.6943 12.5048C12.7822 12.5115 12.8151 12.4503 12.8306 12.2507L12.8512 11.9878H12.5824C12.3193 11.9878 12.3136 11.9931 12.3136 12.2332ZM12.892 12.6012C12.8782 12.6302 12.8596 12.8668 12.8507 13.127L12.8346 13.6002H13.1037C13.3671 13.6002 13.3728 13.6054 13.3728 13.8456C13.3728 14.0792 13.3839 14.0909 13.6045 14.0909C13.8156 14.0909 13.8362 14.1089 13.8362 14.2927C13.8362 14.5444 13.9712 14.6687 14.2129 14.6393C14.3956 14.6171 14.3993 14.6077 14.4184 14.1085L14.4379 13.6002H14.1371H13.8362V13.3198C13.8362 13.046 13.8307 13.0394 13.6045 13.0394C13.3839 13.0394 13.3728 13.0277 13.3728 12.794C13.3728 12.5611 13.3612 12.5486 13.145 12.5486C13.0197 12.5486 12.9059 12.5723 12.892 12.6012ZM20.5888 13.8254V14.5817H20.7875H20.9861V13.8094V13.0371L20.7875 13.0532L20.5888 13.0692V13.8254ZM27.2753 13.5651V14.0909H27.4739H27.6725V13.5651V13.0394H27.4739H27.2753V13.5651ZM14.4321 14.9278C14.4321 15.1878 14.4444 15.2049 14.6472 15.2257C14.8443 15.2458 14.8641 15.2701 14.8832 15.5147C14.903 15.7688 14.9141 15.7806 15.1149 15.76C15.2994 15.7411 15.3284 15.7098 15.3465 15.5105C15.3664 15.292 15.3576 15.2827 15.1313 15.2827C14.8959 15.2827 14.8955 15.2821 14.8955 14.9672C14.8955 14.6534 14.8942 14.6518 14.6638 14.6518C14.4382 14.6518 14.4321 14.659 14.4321 14.9278ZM21.0523 16.0106C21.0523 17.2602 21.0565 17.3005 21.191 17.3378C21.5058 17.4249 21.5157 17.3847 21.5157 16.0113V14.7219H21.284H21.0523V16.0106ZM24.1407 15.6858C24.1175 15.946 24.0983 16.3069 24.098 16.4878L24.0976 16.8165L23.8493 16.8383L23.601 16.86L23.5824 17.6444L23.5637 18.4288L23.3507 18.4506L23.1376 18.4724L23.1045 18.996L23.0714 19.5195L22.8728 19.5217C22.6846 19.5239 22.6732 19.5406 22.6546 19.8416L22.635 20.1593L22.9029 20.1322C23.1572 20.1065 23.1707 20.0933 23.1707 19.8716C23.1707 19.6594 23.1903 19.636 23.3859 19.616C23.5823 19.596 23.6028 19.5712 23.6216 19.3312C23.6346 19.1646 23.677 19.0651 23.7374 19.0596C23.7899 19.0547 23.8997 19.0469 23.9817 19.042C24.1198 19.0339 24.1321 18.9962 24.1501 18.525C24.1694 18.022 24.1714 18.0168 24.352 18.0168C24.6549 18.0168 24.6934 17.9129 24.6934 17.0958V16.3432L24.9085 16.3211L25.1237 16.2992L25.143 15.7559L25.1624 15.2126H24.6727H24.1829L24.1407 15.6858ZM25.1568 18.7446C25.1568 18.9269 25.1891 18.9908 25.2963 19.0205C25.4803 19.0715 25.7526 18.958 25.7526 18.8305C25.7526 18.5865 25.6699 18.5075 25.4145 18.5075C25.1658 18.5075 25.1568 18.5158 25.1568 18.7446ZM24.6799 19.1209C24.6672 19.1883 24.6686 19.332 24.6831 19.4401C24.7064 19.6135 24.734 19.6343 24.9165 19.6154C25.1092 19.5956 25.1251 19.5732 25.144 19.2962C25.1644 18.9985 25.1641 18.9982 24.9338 18.9982C24.7671 18.9982 24.6967 19.0322 24.6799 19.1209ZM18.4704 19.8395V20.1199H18.7352H19V19.8395V19.559H18.7352H18.4704V19.8395ZM19 20.891V21.1714H19.2648H19.5296V20.891V20.6106H19.2648H19V20.891ZM26.7456 20.8879V21.1714H27.2461H27.7467L27.7261 20.9085L27.7056 20.6457L27.2256 20.625L26.7456 20.6044V20.8879ZM25.6864 21.4139V21.6622H26.2197H26.753L26.7286 21.4343L26.7042 21.2065L26.1953 21.186L25.6864 21.1655V21.4139ZM11.267 21.9584L11.2875 22.2581L12.2805 22.2931C12.8267 22.3124 13.3123 22.3162 13.3596 22.3017C13.4169 22.2842 13.4391 22.1783 13.4258 21.9863L13.4059 21.6972L12.3262 21.6779L11.2466 21.6587L11.267 21.9584ZM20.5888 22.5385C20.5888 22.7643 20.6046 22.7838 20.7875 22.7838C20.9703 22.7838 20.9861 22.7643 20.9861 22.5385C20.9861 22.3126 20.9703 22.2931 20.7875 22.2931C20.6046 22.2931 20.5888 22.3126 20.5888 22.5385ZM21.5819 23.0993C21.5819 23.3388 21.5756 23.3447 21.3171 23.3447H21.0523V23.89V24.4353L21.3005 24.429C21.5296 24.4231 21.5504 24.4055 21.5695 24.1992C21.5835 24.0491 21.627 23.9729 21.7019 23.9675C21.7633 23.9631 21.8583 23.9552 21.9129 23.95C21.99 23.9427 22.0165 23.8191 22.0315 23.3972L22.0509 22.8539H21.8164C21.5925 22.8539 21.5819 22.8651 21.5819 23.0993ZM7.75511 23.9694C7.69944 24.0058 7.67911 24.1697 7.69255 24.4727L7.71254 24.922L8.49042 24.9418L9.26829 24.9615V24.7503C9.26829 24.5878 9.30259 24.5316 9.41725 24.5064C9.49921 24.4883 10.311 24.4483 11.2213 24.4174L12.8763 24.3612L12.8986 24.1938C12.9109 24.1018 12.8811 23.9996 12.8324 23.9667C12.7225 23.8924 7.86878 23.8951 7.75511 23.9694ZM17.9849 23.9523C17.9606 23.9779 17.9408 24.0883 17.9408 24.1976V24.3962H17.1834H16.4261L16.4055 24.6591L16.385 24.922L15.392 24.9571L14.399 24.9921L14.3659 25.2525L14.3328 25.5128L13.3728 25.5145C12.8449 25.5154 12.2698 25.5366 12.095 25.5616C11.781 25.6065 11.7773 25.61 11.7971 25.8444C11.8081 25.9749 11.8394 26.081 11.8667 26.0802C11.8941 26.0794 12.7058 26.0787 13.6707 26.0787H15.4251V25.8334V25.588H16.4512H17.4774V25.3076C17.4774 25.0326 17.4821 25.0269 17.7256 25.0142C17.8622 25.0071 18.0334 24.9944 18.1063 24.9861C18.1791 24.9777 18.3057 24.9678 18.3876 24.964C18.507 24.9585 18.5366 24.916 18.5366 24.7499C18.5366 24.5687 18.5656 24.537 18.7683 24.4968C18.9859 24.4535 19 24.4342 19 24.1781V23.9055H18.5145C18.2475 23.9055 18.0092 23.9265 17.9849 23.9523ZM20.5226 25.2737V25.5904L20.7709 25.5705C21.0121 25.5513 21.0198 25.5422 21.0395 25.2539L21.0599 24.9571H20.7912H20.5226V25.2737ZM22.6411 25.2375C22.6411 25.5112 22.6466 25.5179 22.8728 25.5179C23.099 25.5179 23.1045 25.5112 23.1045 25.2375C23.1045 24.9637 23.099 24.9571 22.8728 24.9571C22.6466 24.9571 22.6411 24.9637 22.6411 25.2375ZM20.0151 25.6283C19.9972 25.6777 19.9924 25.7913 20.0044 25.8808C20.0221 26.0133 20.0724 26.0477 20.2744 26.0654C20.5186 26.0869 20.5226 26.0831 20.5226 25.8376C20.5226 25.7003 20.5003 25.5831 20.473 25.577C20.2582 25.5295 20.0421 25.5538 20.0151 25.6283ZM12.8432 26.8057C12.8432 27.0819 12.8244 27.1201 12.6677 27.1617C12.5712 27.1874 12.2361 27.2045 11.9229 27.1998C10.7258 27.1816 10.7909 27.1674 10.7909 27.4458V27.6911H10.2613H9.73171V27.9715V28.252H11.5523H13.3728V27.9745V27.697L13.8859 27.6765L14.399 27.6561L14.4195 27.4312L14.44 27.2064L14.916 27.1859L15.392 27.1653V26.8499V26.5344L14.1176 26.5153L12.8432 26.4963V26.8057ZM14.4321 27.9683V28.252H14.8994H15.3669L15.3463 27.9891L15.3258 27.7262L14.8789 27.7054L14.4321 27.6847V27.9683ZM13.4887 28.3003C13.4116 28.3216 13.3728 28.4011 13.3728 28.5375V28.7427H13.8885H14.4042L14.4015 28.5499C14.4001 28.4438 14.3692 28.3339 14.3328 28.3056C14.262 28.2506 13.6814 28.2469 13.4887 28.3003ZM11.8502 29.0494C11.8502 29.332 11.7851 29.3523 10.9068 29.3436L10.3275 29.3379V29.6011V29.8643H9.5662H8.80488V30.1403V30.4161L9.48345 30.4382C9.85663 30.4503 10.3018 30.4507 10.4727 30.4391C10.7789 30.4181 10.7837 30.4141 10.8037 30.1586C10.8149 30.0158 10.8612 29.8955 10.9068 29.8906C10.9523 29.8858 11.2875 29.8779 11.6516 29.8731L12.3136 29.8643V29.5869V29.3094L12.8267 29.2889L13.3397 29.2685L13.3463 29.0406L13.353 28.8128H12.6016H11.8502V29.0494ZM12.8432 30.1448V30.4252H12.3209C11.9456 30.4252 11.7995 30.4499 11.8018 30.5128C11.814 30.8612 11.7844 30.9074 11.5357 30.9292C11.3017 30.9497 11.2863 30.9658 11.2671 31.2099C11.2481 31.4531 11.232 31.4701 11.0023 31.4903C10.7772 31.5101 10.7552 31.5316 10.7247 31.7623L10.6916 32.013L10.2613 32.0302C10.0247 32.0397 9.81095 32.0689 9.78646 32.0951C9.76196 32.1213 9.73217 32.2359 9.72025 32.3498C9.70225 32.5223 9.66716 32.5586 9.51 32.5672C9.30219 32.5786 9.20467 32.693 9.20308 32.9271C9.20222 33.0656 9.15701 33.0853 8.74225 33.1286C8.28685 33.1761 8.28221 33.1787 8.26229 33.3958L8.24216 33.6149L7.74564 33.65L7.24913 33.685V33.9304V34.1757L7.9939 34.1956L8.73868 34.2154V33.9327V33.65H9.23122H9.7237L9.74429 33.3871L9.76481 33.1242L10.2613 33.0891C10.6397 33.0624 10.7594 33.0291 10.7643 32.9489C10.7847 32.6178 10.7931 32.6067 11.0392 32.5851C11.2644 32.5654 11.2894 32.5427 11.3078 32.341C11.326 32.1425 11.3558 32.1137 11.5862 32.0725C11.728 32.0471 11.9274 32.0356 12.0292 32.0469C12.2819 32.0749 12.3798 31.9954 12.3798 31.762C12.3798 31.5861 12.4085 31.5599 12.6446 31.5199C12.8948 31.4776 12.9094 31.4616 12.9094 31.2305C12.9094 31.0094 12.9271 30.986 13.0948 30.986C13.3292 30.986 13.439 30.8707 13.439 30.6246C13.439 30.4333 13.444 30.4311 13.919 30.4107L14.399 30.3901L14.4195 30.1272L14.4401 29.8643H13.6416H12.8432V30.1448Z" fill="#8F8D8D"/>
</svg>
