<svg width="49" height="49" viewBox="0 0 49 49" fill="none" xmlns="http://www.w3.org/2000/svg">
<path fill-rule="evenodd" clip-rule="evenodd" d="M40.0909 1.11364V2.22727H37.8636H35.6364V3.34091V4.45455H33.4091H31.1818V5.56818V6.68182H30.0682H28.9545V7.79545V8.90909H27.8409H26.7273V10.0227V11.1364H25.6136H24.5V12.25V13.3636H23.3864H22.2727V14.4773V15.5909H21.1591H20.0455V17.8182V20.0455H18.9318H17.8182V21.1591V22.2727H16.7045H15.5909V24.5V26.7273H14.4773H13.3636V27.8409V28.9545H12.25H11.1364V31.1818V33.4091H10.0227H8.90909V34.5227V35.6364H5.56818H2.22727V36.75V37.8636H1.11364H0V38.9773V40.0909H3.34091H6.68182V41.2045V42.3182H7.79545H8.90909V45.6591V49H10.0227H11.1364V47.8864V46.7727H12.25H13.3636V43.4318V40.0909H14.4773H15.5909V38.9773V37.8636H16.7045H17.8182V36.75V35.6364H20.0455H22.2727V34.5227V33.4091H23.3864H24.5V32.2955V31.1818H26.7273H28.9545V30.0682V28.9545H30.0682H31.1818V27.8409V26.7273H33.4091H35.6364V25.6136V24.5H36.75H37.8636V23.3864V22.2727H38.9773H40.0909V21.1591V20.0455H41.2045H42.3182V18.9318V17.8182H43.4318H44.5455V15.5909V13.3636H45.6591H46.7727V11.1364V8.90909H47.8864H49V5.56818V2.22727H47.8864H46.7727V1.11364V0H43.4318H40.0909V1.11364ZM44.2187 2.46203C44.274 2.55112 44.359 3.036 44.408 3.53936L44.4971 4.45455H43.4078H42.3182V5.56818V6.68182H38.9895H35.6609L35.5929 7.73977L35.525 8.79773L34.467 8.86566L33.4091 8.93359V10.035V11.1364H32.2391H31.0693L31.1188 12.25L31.1685 13.3636L30.0058 13.3634H28.8432L28.9205 14.477L28.9975 15.5909H27.8625H26.7273V16.7045C26.7273 17.317 26.6522 17.8064 26.5602 17.7919C26.4685 17.7772 25.9673 17.7772 25.4466 17.7919L24.5 17.8182V18.9487V20.0791L23.5443 20.0203C22.2389 19.9401 22.068 20.0969 22.1649 21.2869L22.2476 22.2992L21.2021 22.2304L20.1568 22.1614L20.0936 24.4296C20.0325 26.6128 20.0118 26.6968 19.5367 26.6716C18.136 26.5979 17.8182 26.7137 17.8182 27.2972C17.8182 27.6886 17.7309 27.818 17.5398 27.7099C17.317 27.5843 17.317 27.6128 17.5398 27.8527C17.693 28.0178 17.8182 28.3331 17.8182 28.5536C17.8182 28.8862 17.6284 28.9545 16.7045 28.9545H15.5909V31.1818V33.4091H14.492H13.3933L13.3227 35.6368L13.2523 37.8645L14.4216 37.8641L15.5909 37.8636V36.75V35.6364H16.7045H17.8182V34.5227V33.4091H20.0455H22.2727V32.2955V31.1818H23.3864H24.5V30.0682V28.9545H26.7273H28.9545V27.8409V26.7273H30.0682H31.1818V25.6136V24.5H33.4091H35.6364V23.3864V22.2727H36.75H37.8636V21.1591V20.0455H38.9773H40.0909V18.9318V17.8182H41.2045H42.3182V15.5909V13.3636H43.4318H44.5455V11.1364V8.90909H45.6591H46.7727V5.5566V2.20389L45.4455 2.25177C44.7156 2.27805 44.1637 2.37271 44.2187 2.46203ZM35.7508 9.17458C35.6936 9.33472 35.6695 9.84566 35.6972 10.31L35.7477 11.1542L36.75 11.0896L37.7523 11.025V10.0227V9.02045L36.8037 8.95185C36.1725 8.9062 35.8201 8.98081 35.7508 9.17458ZM37.8636 12.25V13.3636H38.9419H40.0203L40.0023 12.25L39.9842 11.1364H38.924H37.8636V12.25Z" fill="#8F8D8D"/>
</svg>
