<svg width="75" height="24" viewBox="0 0 75 24" fill="none" xmlns="http://www.w3.org/2000/svg">
<path fill-rule="evenodd" clip-rule="evenodd" d="M37.3955 0.792453C37.5012 1.42687 37.147 1.61253 35.6176 1.72392C33.9295 1.84709 33.7075 1.992 33.7075 2.96921C33.7075 3.85585 33.4778 4.07547 32.5511 4.07547C31.0756 4.07547 31.2068 5.59019 32.7008 5.80528C33.4652 5.91487 33.7075 5.72423 33.7075 5.01283C33.7075 4.21766 33.9866 4.07547 35.5475 4.07547C37.009 4.07547 37.4355 3.88936 37.6221 3.16981C37.8378 2.33842 38.2351 2.26415 42.4714 2.26415C46.7078 2.26415 47.1051 2.33842 47.3208 3.16981C47.5253 3.95774 47.9339 4.07547 50.4579 4.07547C53.1828 4.07547 53.3567 4.01343 53.3086 3.0566C53.2619 2.1197 53.0133 2.02687 50.2242 1.9037C47.559 1.78642 47.1905 1.66234 47.1905 0.884831C47.1905 0.0602275 46.8521 0 42.2269 0C37.7492 0 37.2764 0.077434 37.3955 0.792453ZM59.1967 2.09208C59.02 2.26959 58.8758 2.77902 58.8758 3.2237C58.8758 3.89932 58.4137 4.05464 56.0713 4.16695C53.8529 4.27381 53.2363 4.4631 53.1212 5.07306C52.9972 5.7283 53.4363 5.86415 56.038 5.97872L59.1005 6.11321L59.2384 8.03774C59.3504 9.59366 59.5441 9.96226 60.2497 9.96226C60.8816 9.96226 61.1229 9.64936 61.1229 8.83019C61.1229 8.00015 61.3625 7.69811 62.0218 7.69811C62.5162 7.69811 62.9207 7.40468 62.9207 7.04558C62.9207 6.68649 63.1045 6.27849 63.3296 6.13857C64.0397 5.69615 65.1678 6.40211 65.1678 7.28876C65.1678 8.00604 65.4694 8.12377 67.0779 8.03275C68.6527 7.94355 68.988 7.76559 68.988 7.01887C68.988 6.27713 68.6424 6.08785 67.0779 5.97419C65.5597 5.86325 65.1678 5.66083 65.1678 4.98657C65.1678 4.45177 64.7943 4.08498 64.1566 3.99396C63.4928 3.89887 63.1454 3.53796 63.1454 2.9434C63.1454 2.20936 62.8011 2.01238 61.3315 1.90325C60.3337 1.82944 59.3728 1.91411 59.1967 2.09208ZM27.8649 7.01887C27.8649 7.9834 28.0716 8.15094 29.2612 8.15094C30.3179 8.15094 30.5947 8.31623 30.3988 8.83019C30.2567 9.20377 30.3147 9.50943 30.5273 9.50943C30.9552 9.50943 31.437 8.46928 31.734 6.90566C31.9116 5.97057 31.7601 5.88679 29.8963 5.88679C28.0289 5.88679 27.8649 5.97826 27.8649 7.01887ZM20.0748 8.00015C19.9099 8.16589 19.7751 8.67532 19.7751 9.13223C19.7751 9.81419 19.4142 9.96226 17.7526 9.96226C16.0299 9.96226 15.7302 10.0963 15.7302 10.8679C15.7302 11.4607 15.4304 11.7736 14.8628 11.7736C14.305 11.7736 13.9437 12.1377 13.8515 12.7925C13.7581 13.4527 13.4425 13.7669 12.954 13.6859C12.4637 13.6044 12.1495 13.9205 12.0551 14.5916C11.9338 15.4528 11.5949 15.6457 9.99989 15.7617C8.47721 15.8731 8.0898 16.0741 8.0898 16.7547C8.0898 17.4353 7.70239 17.6364 6.17971 17.7478C4.59186 17.8632 4.24535 18.0589 4.1258 18.9057C4.00175 19.7873 3.71412 19.9245 1.99099 19.9245C0.299772 19.9245 0 20.0608 0 20.8302C0 21.6498 0.299772 21.7358 3.14603 21.7358C5.99229 21.7358 6.29207 21.6498 6.29207 20.8302C6.29207 20.0174 6.59184 19.9245 9.21338 19.9245C12.0556 19.9245 12.1347 19.8928 12.1347 18.7535C12.1347 17.654 12.2511 17.592 14.0448 17.7346C15.7378 17.8696 15.9711 17.7709 16.0987 16.8679C16.2232 15.9849 16.5099 15.8491 18.2528 15.8491C19.9189 15.8491 20.2411 15.7132 20.1319 15.0566C20.016 14.3602 20.4757 14.2483 23.9323 14.1333C27.6325 14.0101 27.8649 14.0568 27.8649 14.9257C27.8649 15.547 28.1588 15.8491 28.7637 15.8491C29.5961 15.8491 29.6626 16.1511 29.6626 19.9245V24H32.5839C35.4005 24 35.5052 23.9592 35.5052 22.8679C35.5052 22.0379 35.2657 21.7358 34.6064 21.7358C34.0073 21.7358 33.7075 21.4338 33.7075 20.8302C33.7075 20.0174 34.0073 19.9245 36.6288 19.9245C39.2504 19.9245 39.5501 20.0174 39.5501 20.8302C39.5501 21.643 39.8499 21.7358 42.4714 21.7358C45.093 21.7358 45.3928 21.643 45.3928 20.8302C45.3928 20.2266 45.093 19.9245 44.4939 19.9245C43.8813 19.9245 43.595 19.6225 43.595 18.9763C43.595 18.4094 43.9559 17.9334 44.4939 17.7917C45.0031 17.6572 45.3928 17.174 45.3928 16.6759C45.3928 15.9229 45.6642 15.8169 47.2849 15.9364C48.7294 16.0424 49.2345 16.2897 49.4197 16.9811C49.5532 17.4792 49.9657 17.8868 50.3365 17.8868C50.7073 17.8868 51.0754 18.3451 51.1545 18.9057C51.2601 19.656 51.0727 19.9245 50.4426 19.9245C49.3523 19.9245 48.9864 20.2986 49.292 21.101C49.4727 21.576 50.4844 21.7358 53.3059 21.7358C57.0299 21.7358 57.078 21.7503 57.078 22.8679C57.078 23.9076 57.243 24 59.1005 24C60.958 24 61.1229 23.9076 61.1229 22.8679C61.1229 22.0379 60.8834 21.7358 60.2241 21.7358C59.4551 21.7358 59.3252 21.4338 59.3252 19.6451C59.3252 17.7777 59.4209 17.5802 60.2241 17.7917C60.9391 17.9801 61.1229 17.8053 61.1229 16.9386V15.8491H66.9656C72.4383 15.8491 72.8082 15.7938 72.8082 14.9751C72.8082 14.4145 73.1695 14.0486 73.8154 13.9562C74.6527 13.8358 74.845 13.4862 74.9551 11.8868C75.0783 10.0936 75.0095 9.96226 73.9475 9.96226C73.108 9.96226 72.8082 9.72408 72.8082 9.0566C72.8082 8.28498 72.5084 8.15094 70.7857 8.15094C69.0631 8.15094 68.7633 8.28498 68.7633 9.0566C68.7633 9.82823 69.0631 9.96226 70.7857 9.96226H72.8082V12.0249V14.0875L70.6734 13.9494C68.93 13.8367 68.5628 13.666 68.6707 13.0189C68.7471 12.5602 68.5215 12.2264 68.1354 12.2264C67.2509 12.2264 66.8083 12.9931 67.5246 13.2842C67.9588 13.4604 67.9521 13.5215 67.4954 13.5491C67.1687 13.5686 66.5979 13.2792 66.2271 12.9057C65.628 12.302 65.6316 12.2264 66.2595 12.2264C67.3611 12.2264 67.1682 10.1212 66.0393 9.8237C64.8465 9.50943 64.4847 10.4468 65.1058 12.2414C65.4865 13.3417 65.455 13.6759 64.953 13.8702C63.8793 14.2854 62.6928 13.8154 62.7584 13.0017C62.8061 12.4103 62.46 12.2264 61.2978 12.2264C60.2178 12.2264 59.7746 12.432 59.7746 12.9324C59.7746 13.3205 59.571 13.5115 59.322 13.3567C59.0731 13.2014 58.74 13.4137 58.5823 13.8285C58.4196 14.2551 58.5616 14.7478 58.9095 14.9647C59.2474 15.1748 59.376 15.4958 59.1953 15.6783C59.0142 15.8604 58.5715 15.6168 58.211 15.1368C57.5877 14.3063 57.5553 14.3045 57.5418 15.0992C57.5337 15.5583 57.1418 16.0356 56.6699 16.1597C56.1985 16.2838 55.7158 16.7588 55.5976 17.2152C55.4344 17.8433 55.07 17.995 54.0951 17.8392C53.3877 17.7265 52.5558 17.606 52.2466 17.5716C51.9379 17.5377 51.6848 17.318 51.6848 17.0835C51.6848 16.8494 51.9882 16.7751 52.359 16.9186C52.7698 17.0771 53.0331 16.9191 53.0331 16.5143C53.0331 16.1484 53.3244 15.8491 53.6808 15.8491C54.8169 15.8491 54.9261 14.9525 53.8484 14.4738C52.8111 14.0133 52.8111 14.0128 53.8196 14.2089C54.6421 14.3692 54.8309 14.2026 54.8309 13.3159C54.8309 12.6598 54.5684 12.2264 54.1706 12.2264C53.7405 12.2264 53.6035 12.5022 53.7765 13.0189C53.963 13.5736 53.8214 13.5134 53.305 12.8174C52.8992 12.2708 52.5949 11.6595 52.6286 11.4589C52.6623 11.2583 52.6664 10.8276 52.6367 10.5016C52.5545 9.5837 51.6848 10.3562 51.6848 11.3475C51.6848 11.8311 51.3815 12.2264 51.0107 12.2264C50.6399 12.2264 50.3869 12.4555 50.4489 12.7358C50.6291 13.5537 49.7006 13.6542 48.7455 12.9202C48.021 12.3636 47.9761 12.1698 48.492 11.8279C48.8368 11.5992 48.995 11.0857 48.8431 10.6872C48.5181 9.83411 47.5676 9.70506 47.6736 10.5283C47.8359 11.7899 47.5963 12.2264 46.7411 12.2264C46.2467 12.2264 45.8422 12.4519 45.8422 12.7277C45.8422 13.0035 46.1393 13.114 46.502 12.974C46.8647 12.8337 47.2813 12.9138 47.4273 13.152C47.5734 13.3902 47.1752 13.5849 46.5429 13.5849C45.8202 13.5849 45.3928 13.3327 45.3928 12.9057C45.3928 12.5321 45.1833 12.2264 44.9276 12.2264C44.6071 12.2264 44.6076 11.9529 44.9289 11.3484C45.3802 10.498 44.7892 9.51351 44.1896 10.1176C43.7357 10.5749 43.6179 14.4906 44.0584 14.4906C44.2979 14.4906 44.497 14.2361 44.5006 13.9245C44.5056 13.536 44.6373 13.565 44.9204 14.016C45.444 14.8497 45.0467 15.533 44.2238 15.2151C43.7739 15.0408 43.595 15.3464 43.595 16.2892V17.6065L37.64 17.5639L31.685 17.5214L35.5052 17.0708C37.6063 16.8231 39.4742 16.3961 39.6557 16.1217C39.8593 15.8133 39.9883 15.9256 39.9928 16.4151C39.9964 16.8512 40.3029 17.2075 40.6737 17.2075C41.4899 17.2075 41.5685 16.4672 40.7861 16.1488C40.3366 15.9663 40.3366 15.9134 40.7861 15.8848C41.0953 15.8654 41.3479 15.4248 41.3479 14.9058C41.3479 14.3448 41.12 14.0445 40.7861 14.1654C39.8917 14.4883 38.658 13.6415 38.9407 12.8989C39.1043 12.4691 38.925 12.2264 38.4445 12.2264C37.9151 12.2264 37.7704 12.4764 37.9573 13.0691C38.1829 13.7851 37.9065 13.9553 36.1165 14.2026C34.9578 14.3624 33.9084 14.3909 33.7839 14.2655C33.6594 14.1401 33.996 14.0377 34.5313 14.0377C35.2055 14.0377 35.5052 13.7592 35.5052 13.1321C35.5052 12.4678 35.2055 12.2264 34.3816 12.2264C33.5578 12.2264 33.2581 11.9851 33.2581 11.3208C33.2581 10.7905 32.9583 10.4151 32.5354 10.4151C31.9821 10.4151 31.881 10.6904 32.1039 11.5852C32.2927 12.3437 32.2311 12.653 31.9277 12.4641C31.6707 12.3038 31.4459 12.5416 31.4289 12.9921C31.4005 13.7235 31.3556 13.714 31.0109 12.9057C30.6967 12.1694 30.6185 12.1431 30.5929 12.7644C30.5606 13.55 28.7637 13.7688 28.7637 12.9872C28.7637 12.7644 29.0671 12.6996 29.4379 12.8432C29.8087 12.9863 30.112 12.9319 30.112 12.7218C30.112 12.3582 27.7377 11.5992 26.704 11.6323C26.4361 11.6409 26.2168 11.3692 26.2168 11.0291C26.2168 10.6886 26.5372 10.4622 26.9287 10.5256C27.4001 10.6026 27.6864 10.2412 27.7768 9.45555C27.8819 8.53947 27.6774 8.20573 26.8779 7.98973C25.486 7.61434 20.4501 7.62158 20.0748 8.00015ZM34.0194 8.4403C33.6001 8.86325 34.1066 9.50943 34.8576 9.50943C35.214 9.50943 35.5052 9.20377 35.5052 8.83019C35.5052 8.14823 34.5565 7.89917 34.0194 8.4403ZM45.8777 8.92936C45.8525 9.64347 46.0368 9.85857 46.5163 9.67336C46.8871 9.52981 47.1873 9.07789 47.1837 8.66853C47.1779 8.07577 47.0979 8.04996 46.7887 8.54174C46.4611 9.06294 46.3626 9.06294 46.1568 8.54174C46.0148 8.18264 45.8984 8.3443 45.8777 8.92936ZM49.4732 8.9434C49.4979 9.49585 49.5824 9.54883 49.7523 9.11864C49.9581 8.59743 50.0565 8.59743 50.3842 9.11864C50.688 9.60181 50.7738 9.56377 50.7792 8.9434C50.7828 8.50732 50.4826 8.15094 50.1118 8.15094C49.741 8.15094 49.4538 8.50732 49.4732 8.9434ZM41.7973 9.0566C41.7973 9.30566 42.1128 9.50943 42.498 9.50943C42.8831 9.50943 43.0737 9.30566 42.9209 9.0566C42.7681 8.80755 42.453 8.60377 42.2202 8.60377C41.9874 8.60377 41.7973 8.80755 41.7973 9.0566ZM28.4267 10.2874C27.5399 10.608 27.7723 11.3208 28.7637 11.3208C29.2581 11.3208 29.6626 11.1292 29.6626 10.8946C29.6626 10.315 29.1066 10.042 28.4267 10.2874ZM57.4353 11.6065C57.3346 12.4759 57.4151 13.2888 57.6146 13.4128C57.8137 13.5369 57.9769 13.3272 57.9769 12.9464C57.9769 12.4836 58.2367 12.3469 58.7634 12.5339C59.3814 12.7526 59.4371 12.6892 59.0232 12.2377C58.7337 11.9217 58.5935 11.4086 58.7122 11.0975C58.8304 10.7864 58.6331 10.4183 58.2731 10.2788C57.7944 10.094 57.5693 10.4504 57.4353 11.6065ZM35.5052 10.5931C35.5052 11.0228 36.8504 11.2392 37.0904 10.848C37.2364 10.6098 36.9394 10.4151 36.4306 10.4151C35.9218 10.4151 35.5052 10.4952 35.5052 10.5931ZM32.5839 13.1321C32.4311 13.3811 32.6333 13.5849 33.0333 13.5849C33.4333 13.5849 33.6356 13.3811 33.4828 13.1321C33.33 12.883 33.1277 12.6792 33.0333 12.6792C32.939 12.6792 32.7367 12.883 32.5839 13.1321ZM51.6848 13.1321C51.6848 13.3811 51.8749 13.5849 52.1077 13.5849C52.3405 13.5849 52.6556 13.3811 52.8084 13.1321C52.9612 12.883 52.7707 12.6792 52.3855 12.6792C52.0003 12.6792 51.6848 12.883 51.6848 13.1321ZM60.3409 14.3606C60.3117 16.0537 60.3162 16.0583 60.7054 14.7279C60.922 13.9866 60.9355 13.2149 60.7351 13.013C60.5351 12.8115 60.3575 13.4178 60.3409 14.3606ZM30.6563 14.7342C30.1794 15.2785 30.1911 15.3962 30.7206 15.3962C31.0743 15.3962 31.4806 15.0906 31.623 14.717C31.9502 13.858 31.4149 13.8675 30.6563 14.7342ZM50.6233 14.717C50.4812 15.0906 50.5608 15.3962 50.7999 15.3962C51.0394 15.3962 51.2354 15.0906 51.2354 14.717C51.2354 14.3434 51.1558 14.0377 51.0588 14.0377C50.9617 14.0377 50.7657 14.3434 50.6233 14.717ZM37.303 14.9434L35.2805 15.2604L37.64 15.3283C38.9582 15.3663 39.9996 15.1965 39.9996 14.9434C39.9996 14.6943 39.8476 14.5214 39.6625 14.5585C39.4773 14.5961 38.4153 14.7691 37.303 14.9434ZM32.7017 15.2635C33.2608 15.3718 34.0697 15.3677 34.4994 15.2545C34.929 15.1413 34.4715 15.0525 33.4828 15.0575C32.494 15.0625 32.1426 15.1553 32.7017 15.2635ZM52.3405 15.4266C51.8794 16.1783 52.2934 16.2824 52.9383 15.5769C53.2574 15.2287 53.3199 14.9434 53.0772 14.9434C52.8349 14.9434 52.5032 15.1608 52.3405 15.4266ZM32.7017 16.1692C33.2608 16.2774 34.0697 16.2734 34.4994 16.1601C34.929 16.0469 34.4715 15.9582 33.4828 15.9632C32.494 15.9682 32.1426 16.061 32.7017 16.1692ZM36.2917 16.1688C36.8477 16.2765 37.7582 16.2765 38.3142 16.1688C38.8701 16.0605 38.4153 15.9722 37.303 15.9722C36.1906 15.9722 35.7358 16.0605 36.2917 16.1688Z" fill="#8F8D8D"/>
</svg>
