<svg width="113" height="113" viewBox="0 0 113 113" fill="none" xmlns="http://www.w3.org/2000/svg">
<g clip-path="url(#clip0_922_6896)">
<path fill-rule="evenodd" clip-rule="evenodd" d="M0.0429818 12.4141C0.0908161 26.348 -0.0270365 26.3858 3.87944 11.1902C4.91793 7.15123 6.21361 3.21718 6.7592 2.44785C7.87187 0.878429 7.88366 0.679803 6.26907 10.9972C5.8344 13.7758 5.57166 18.0246 5.68605 20.4389C5.86421 24.2211 6.07566 24.8282 7.21744 24.8282C8.09856 24.8282 8.80014 24.054 9.31453 22.514C10.0979 20.1668 11.092 20.157 11.092 22.4972C11.092 23.2021 11.3541 23.7791 11.6737 23.7791C12.7336 23.7791 13.9205 20.1444 14.62 14.7571C14.9999 11.8336 15.7652 7.71074 16.3205 5.59509L17.3306 1.74847L16.959 8.04294C16.7545 11.5049 16.2568 18.4288 15.8526 23.4294C15.4477 28.4301 14.9132 35.0393 14.6643 38.1166C14.4155 41.1939 13.8997 43.7228 13.5184 43.7361C13.1371 43.7501 12.2012 44.0984 11.4387 44.5103C10.6761 44.9223 7.79076 46.1189 5.02607 47.1694L0 49.0794L0.0485274 62.1314C0.0755642 69.3106 0.30919 74.712 0.568466 74.135C0.899147 73.3985 2.26416 73.046 5.14878 72.953C8.07222 72.8586 9.43377 72.5012 9.87051 71.7144C11.4546 68.8588 12.3163 73.2502 11.3402 79.2055L10.9104 81.8282H5.4552H0L0.0103983 96.6902C0.0166376 105.571 0.304337 111.975 0.725141 112.601C1.25548 113.392 1.32688 113.205 1.01492 111.844C0.705037 110.492 0.874884 110.037 1.68668 110.037C2.28426 110.037 2.77301 110.278 2.77301 110.572C2.77301 110.867 4.02086 110.983 5.54601 110.83C7.07117 110.676 8.31902 110.855 8.31902 111.226C8.31902 111.598 7.98834 111.902 7.58487 111.902C7.18139 111.902 7.02888 112.193 7.24656 112.548C7.46424 112.904 7.09266 113.339 6.4209 113.516C5.74913 113.693 20.0766 113.874 38.2599 113.919L71.321 114L71.8008 109.089C72.0642 106.388 72.5515 104.009 72.8822 103.802C73.2136 103.596 73.4847 103.864 73.4847 104.398C73.4847 105.122 74.4109 105.332 77.1242 105.222C79.1256 105.142 81.2318 104.959 81.8037 104.817C82.6363 104.61 82.8845 105.499 83.0488 109.279L83.2533 114H98.127H113V103.558V93.1163L111.094 93.6031C110.045 93.871 107.783 94.0402 106.067 93.9787C104.352 93.9178 100.686 93.8339 97.9218 93.7926C94.0423 93.7346 92.8957 93.4877 92.8957 92.7099C92.8957 91.2098 93.5841 90.9951 99.0927 90.7734C103.039 90.6139 104.264 90.3069 104.773 89.3466C105.377 88.2094 105.545 88.2031 107.133 89.2529C108.074 89.8746 109.611 90.2355 110.551 90.0544C111.49 89.8732 112.4 90.0726 112.574 90.4971C112.748 90.9223 112.915 88.6549 112.945 85.4587C112.983 81.475 112.765 79.7937 112.254 80.1126C111.512 80.5749 111.537 79.6272 112.7 63.0679C113.241 55.362 113.073 54.9746 109.728 56.2293C102.691 58.8688 100.438 59.3422 100.029 58.268C99.7762 57.6029 99.0913 57.3847 98.0694 57.6434L96.4978 58.0414L97.8518 54.4465C99.4525 50.1964 99.1939 49.1487 96.2926 48.1283C94.2524 47.4107 94.147 47.203 94.4957 44.5789C94.9505 41.1561 94.5124 39.865 92.8957 39.865C91.4225 39.865 90.766 41.2687 91.2908 43.2948C91.5092 44.1369 91.3414 44.7607 90.8971 44.7607C90.4707 44.7607 90.1227 45.3538 90.1227 46.0777C90.1227 46.8225 89.4974 47.5597 88.6842 47.7744C87.532 48.0786 87.3816 48.4101 87.9279 49.4396C88.3029 50.1467 88.5601 51.5826 88.4998 52.6295C88.4166 54.0675 88.1053 54.4437 87.2311 54.164C85.8453 53.7206 83.1902 56.3608 83.1902 58.1813C83.1902 59.11 82.6585 59.4478 81.195 59.4478C80.0983 59.4478 78.8012 59.9332 78.3125 60.527C77.8244 61.1201 76.9287 61.5062 76.3214 61.3838C75.7142 61.2614 74.7159 61.7782 74.103 62.5314C73.0001 63.8862 72.9654 63.8841 70.9834 62.3041L68.9785 60.7061L71.7515 60.9508C74.0497 61.1544 74.5079 60.9865 74.4282 59.9724C74.3755 59.2996 74.6202 58.7485 74.9724 58.7485C75.3294 58.7485 75.283 58.126 74.8677 57.3427C74.2507 56.1803 74.4351 55.6432 75.9346 54.2416C76.9315 53.31 77.6879 51.9756 77.6158 51.2769C77.319 48.4045 77.6927 46.8589 78.6841 46.8589C80.194 46.8589 79.9589 45.7986 78.1641 44.5152C76.6306 43.4186 76.6272 43.3815 77.9499 42.3318C79.127 41.3981 79.1485 41.2638 78.1232 41.2638C76.6494 41.2638 76.5398 38.5816 77.9908 38.02C79.4244 37.4647 79.2934 36.5464 77.7079 36.0387C76.98 35.8058 75.3426 34.6784 74.0684 33.5328C72.7637 32.3606 71.2212 31.5801 70.5383 31.7458C69.8707 31.9081 69.3252 31.8109 69.3252 31.5304C69.3252 31.2493 70.4711 30.7282 71.8722 30.3716C74.7221 29.647 75.6483 28.2139 73.7155 27.5202C70.4309 26.3403 68.7338 23.0798 71.4049 23.0798C73.2649 23.0798 73.136 21.6838 71.095 19.7318C69.5713 18.2743 69.3647 18.2372 68.7664 19.315C68.3213 20.1186 67.6932 20.3354 66.8114 19.9906C65.6405 19.5332 65.6211 19.4017 66.6194 18.6589C67.4437 18.0449 67.7439 16.5391 67.7938 12.7638C67.8326 9.87394 67.5698 7.69325 67.1823 7.69325C66.7525 7.69325 66.7664 7.19669 67.2211 6.34064C67.6156 5.5965 67.9387 3.86552 67.9387 2.49402V0L60.8328 0.0223894C54.7981 0.0412728 53.9086 0.183936 54.9319 0.967248C55.7437 1.589 56.3094 3.41649 56.665 6.56164C57.2307 11.5629 58.2865 12.8596 59.011 9.44172C59.2973 8.0912 59.4851 9.27456 59.5378 12.7638C59.5864 15.9663 59.3361 18.184 58.9264 18.184C58.5451 18.184 58.2331 17.8309 58.2331 17.3993C58.2331 16.8762 57.8643 16.9224 57.1309 17.5371C56.1284 18.3764 56.1409 18.5435 57.2688 19.3751C58.3475 20.171 58.4009 20.592 57.6778 22.6091C56.5894 25.6451 56.6283 26.4564 57.9267 27.7656C58.5617 28.407 58.8064 29.3218 58.5215 29.989C58.2553 30.6128 57.89 31.9885 57.7097 33.046C57.5115 34.2126 56.9361 34.9784 56.2484 34.9917C55.2258 35.0113 55.2203 35.098 56.1964 35.8659C57.8428 37.1612 58.2699 38.9635 57.1524 39.8993C56.6026 40.3595 56.1534 41.1694 56.1534 41.6988C56.1534 42.229 55.7638 42.6731 55.2868 42.6856C54.8105 42.6989 55.1156 43.2941 55.9648 44.0096L57.5094 45.3098L55.9925 46.326C55.0989 46.9246 54.441 48.1304 54.3925 49.2592C54.2712 52.0455 52.9277 52.5127 49.8295 50.8447C47.8461 49.7767 47.1411 48.9543 47.1411 47.7093C47.1411 46.7323 46.2572 45.1888 45.0433 44.0446C43.8898 42.9577 43.2332 41.889 43.5847 41.6701C43.9355 41.4512 44.4014 41.7422 44.6204 42.3171C44.8388 42.892 45.4953 43.362 46.0797 43.362C46.6635 43.362 47.1411 43.6956 47.1411 44.1026C47.1411 44.5096 47.4531 44.6488 47.8344 44.411C48.2156 44.1732 48.5276 43.5067 48.5276 42.9297C48.5276 42.3527 48.1948 42.0884 47.7879 42.3422C47.3796 42.5968 46.8749 42.1366 46.6621 41.3149C46.3834 40.2399 45.9147 39.9413 44.9754 40.242C43.34 40.7658 43.2936 39.9643 44.888 38.7313C45.9529 37.9081 45.9737 37.6997 45.0614 37.0276C44.2662 36.4415 44.2281 36.1772 44.9005 35.903C45.3837 35.7051 46.2045 35.1148 46.7245 34.5903C47.2444 34.0664 47.8621 33.8321 48.0985 34.0699C48.3342 34.3084 48.5276 33.9972 48.5276 33.3789C48.5276 32.76 48.2156 32.0599 47.8344 31.8221C47.4531 31.5843 47.1411 31.713 47.1411 32.1088C47.1411 32.504 46.669 32.6446 46.0922 32.4215C45.5154 32.1976 44.6211 32.369 44.1047 32.8012C43.3982 33.3929 42.9663 33.3453 42.3625 32.6117C41.74 31.855 41.7968 31.5437 42.6169 31.2262C44.0062 30.6884 44.027 27.2761 42.6412 27.2761C40.7313 27.2761 42.0076 21.5978 44.3307 19.7584C45.9071 18.5107 46.4097 17.4266 46.7654 14.513C47.2458 10.5698 48.3474 5.03698 49.2715 1.92331L49.842 0H43.9445C40.2592 0 38.2051 0.258075 38.4678 0.687498C38.6994 1.06517 39.0072 3.1899 39.1514 5.40836C39.2956 7.62681 39.4363 9.67741 39.464 9.96626C39.4925 10.2551 39.9937 10.4908 40.5774 10.4908C42.7043 10.4908 42.8859 13.9038 41.3206 24.4806C41.1778 25.4437 40.7264 27.4558 40.3167 28.9518C39.8328 30.7191 39.8051 32.1109 40.237 32.925C41.1784 34.6987 41.0828 34.9693 39.5153 34.9693C38.0768 34.9693 37.6436 35.9834 38.7798 36.6912C39.1375 36.9143 39.3032 37.762 39.1479 38.5754C38.8186 40.3021 38.1288 41.2029 38.1288 39.907C38.1288 39.416 37.6775 39.1908 37.1243 39.4048C36.4262 39.6748 36.2474 39.458 36.5378 38.6936C36.7853 38.0445 36.474 37.3214 35.7794 36.929C35.0979 36.5443 34.7569 35.7701 34.9697 35.0924C35.3323 33.9391 35.8092 25.2905 36.3451 10.1411C36.4955 5.90982 36.8352 1.89674 37.1007 1.22393C37.5534 0.0762331 36.411 0 18.792 0H0L0.0429818 12.4141ZM69.6337 0.637149C70.5716 2.1688 72.1814 13.1736 71.8105 15.5194C71.5789 16.9811 71.7079 18.2904 72.1079 18.54C72.4961 18.782 72.6347 19.273 72.415 19.6311C71.504 21.1187 73.6795 20.1346 75.2289 18.3589C76.6438 16.7377 76.9107 15.6942 76.9287 11.7147C76.9461 8.04504 77.1769 6.99386 77.9665 6.99386C79.3101 6.99386 80.4172 4.80269 80.4172 2.14433V0H74.8303C71.6455 0 69.4111 0.274167 69.6337 0.637149ZM82.9469 5.76994C83.4203 8.94375 83.8252 11.6084 83.8453 11.693C83.8661 11.777 84.3514 11.6644 84.9233 11.4434C85.5244 11.2105 85.984 11.4413 86.0117 11.9896C86.131 14.3004 87.8675 7.67158 87.9272 4.6796C87.9632 2.84581 88.1788 1.04349 88.4055 0.672814C88.6482 0.276961 87.4315 0 85.4516 0H82.0858L82.9469 5.76994ZM91.5092 1.31344C91.5092 2.03521 92.0007 3.03813 92.6018 3.54099C93.5079 4.29912 93.8025 4.28444 94.3245 3.45217C95.5425 1.50928 95.0697 0 93.2423 0C92.009 0 91.5092 0.378362 91.5092 1.31344ZM97.1835 4.37117C97.1453 9.10671 97.5197 11.1902 98.4078 11.1902C99.2459 11.1902 100.002 8.5521 100.46 4.02147C100.864 0.0398651 100.85 0 99.0435 0C97.2708 0 97.2174 0.12519 97.1835 4.37117ZM102.623 2.27301C102.644 4.36137 104.281 7.6415 104.955 6.94281C105.373 6.50849 105.55 4.86283 105.456 2.27301C105.392 0.493767 105.073 0 103.988 0C102.881 0 102.605 0.458797 102.623 2.27301ZM65.6301 25.2856C65.0984 27.3355 65.2537 27.4299 67.4631 26.3948C69.5616 25.4115 69.5574 24.2316 67.4548 23.9176C66.4717 23.77 65.9144 24.1883 65.6301 25.2856ZM49.9141 30.773C49.9141 31.1577 50.3821 31.4724 50.954 31.4724C51.5259 31.4724 51.9939 31.1577 51.9939 30.773C51.9939 30.3883 51.5259 30.0736 50.954 30.0736C50.3821 30.0736 49.9141 30.3883 49.9141 30.773ZM53.8227 31.1227C54.0424 31.6997 54.6566 32.1718 55.1877 32.1718C55.7187 32.1718 56.1534 31.6997 56.1534 31.1227C56.1534 30.5457 55.5398 30.0736 54.7884 30.0736C53.8601 30.0736 53.5516 30.4093 53.8227 31.1227ZM65.1656 36.3681C65.1656 36.7528 65.4776 37.0675 65.8589 37.0675C66.2402 37.0675 66.5521 36.7528 66.5521 36.3681C66.5521 35.9834 66.2402 35.6687 65.8589 35.6687C65.4776 35.6687 65.1656 35.9834 65.1656 36.3681ZM73.6434 36.4996C74.0718 37.7962 75.5644 38.011 75.5644 36.7758C75.5644 36.1667 75.0701 35.6687 74.467 35.6687C73.8632 35.6687 73.4923 36.0422 73.6434 36.4996ZM50.6074 39.7112C50.6074 40.3154 50.1942 40.5539 49.5675 40.3112C48.147 39.7615 48.2628 40.2972 49.9266 41.9758L51.3256 43.3871L51.9668 41.6848C52.3197 40.749 53.1717 39.8594 53.8608 39.7091C54.6421 39.5384 54.265 39.2985 52.8604 39.0719C51.1987 38.8041 50.6074 38.9719 50.6074 39.7112ZM69.4922 40.5546C68.3615 42.3814 68.3927 44.7607 69.547 44.7607C70.937 44.7607 73.5062 41.4344 73.0472 40.2287C72.4767 38.7285 70.5113 38.909 69.4922 40.5546ZM36.7423 41.9058C36.7423 43.1165 37.5839 44.7607 38.203 44.7607C38.5434 44.7607 38.8221 44.2886 38.8221 43.7117C38.8221 43.1347 39.134 42.6626 39.5153 42.6626C39.8966 42.6626 40.2086 42.3478 40.2086 41.9632C40.2086 41.5785 39.4287 41.2638 38.4755 41.2638C37.5222 41.2638 36.7423 41.5526 36.7423 41.9058ZM41.0114 45.4601C41.0114 46.4218 41.1687 46.8155 41.3608 46.3344C41.5535 45.8539 41.5535 45.0671 41.3608 44.5859C41.1687 44.1054 41.0114 44.4985 41.0114 45.4601ZM42.9754 45.8175C42.262 46.684 42.3653 46.8589 43.5903 46.8589C44.3993 46.8589 45.0614 46.563 45.0614 46.2008C45.0614 44.9894 43.8412 44.7649 42.9754 45.8175ZM49.9141 49.6564C49.9141 50.0411 50.2261 50.3558 50.6074 50.3558C50.9887 50.3558 51.3006 50.0411 51.3006 49.6564C51.3006 49.2718 50.9887 48.9571 50.6074 48.9571C50.2261 48.9571 49.9141 49.2718 49.9141 49.6564ZM65.1712 49.6383C64.3476 50.1635 64.313 50.4747 64.9979 51.1657C65.4714 51.6434 65.8589 52.668 65.8589 53.4429C65.8589 54.7452 65.9442 54.7655 66.9889 53.7122C67.7522 52.9415 67.9726 51.9868 67.669 50.765C67.1823 48.8095 66.765 48.6213 65.1712 49.6383ZM70.6555 54.834C71.2753 55.5872 71.2552 55.8992 70.5675 56.1775C69.9976 56.4076 70.1134 56.5601 70.885 56.595C71.6545 56.63 72.0982 56.1383 72.0982 55.2515C72.0982 54.4277 71.6358 53.8528 70.9737 53.8528C70.087 53.8528 70.0198 54.0605 70.6555 54.834ZM44.9158 67.5209C44.3508 68.0909 45.1016 70.638 45.8357 70.638C46.1719 70.638 46.443 70.245 46.4375 69.7638C46.4222 68.5483 45.3969 67.0355 44.9158 67.5209ZM56.8889 68.1377C56.2809 68.8777 55.266 69.2309 54.2899 69.0427C53.4095 68.8728 52.1422 69.1427 51.4746 69.6421C50.4285 70.4247 50.764 70.5401 53.8975 70.4751C57.5288 70.3995 58.9222 70.8751 57.9489 71.8571C57.1974 72.6152 44.1969 72.1438 43.3892 71.329C42.9726 70.9087 42.9622 70.6191 43.3629 70.5891C43.7255 70.5618 42.3057 69.9491 40.2086 69.2274C38.0727 68.4923 36.2938 68.2063 36.1649 68.5769C36.0373 68.9413 35.3357 69.2393 34.605 69.2393C33.8737 69.2393 33.2761 69.5106 33.2761 69.8421C33.2761 70.1743 34.092 70.3555 35.0889 70.245C36.0858 70.1345 37.36 70.2219 37.9202 70.4387C39.4578 71.0339 37.6054 72.013 34.917 72.0263C32.3818 72.0389 32.0206 72.8984 32.4463 77.9005L32.7374 81.3163L37.3392 80.8777C39.871 80.6365 46.2316 80.4371 51.4739 80.4343L61.0061 80.4295L60.9957 74.6595C60.9895 71.4857 60.6824 68.4175 60.3129 67.8405C59.7389 66.9439 59.639 66.9691 59.63 68.0153C59.6169 69.5694 58.4092 69.6218 58.1104 68.0811C57.9052 67.0208 57.8026 67.025 56.8889 68.1377ZM42.2883 68.5399C42.2883 68.9245 42.6003 69.2393 42.9816 69.2393C43.3629 69.2393 43.6748 68.9245 43.6748 68.5399C43.6748 68.1552 43.3629 67.8405 42.9816 67.8405C42.6003 67.8405 42.2883 68.1552 42.2883 68.5399ZM6.89647 69.633C6.07288 70.6338 6.14775 70.743 7.51277 70.5303C8.36755 70.3975 9.07813 69.9813 9.092 69.6064C9.13428 68.4294 7.87395 68.4448 6.89647 69.633ZM3.33662 70.4163C3.83645 70.6184 4.43473 70.5933 4.66489 70.3611C4.89505 70.1289 4.48603 69.9638 3.75534 69.9939C2.94771 70.0275 2.7834 70.1932 3.33662 70.4163ZM77.2975 73.4356C77.0618 73.8202 77.1811 74.135 77.5624 74.135C77.9437 74.135 78.4483 73.8202 78.6841 73.4356C78.9198 73.0509 78.8005 72.7362 78.4192 72.7362C78.0379 72.7362 77.5333 73.0509 77.2975 73.4356ZM95.0302 78.739C95.0635 79.5538 95.2278 79.7196 95.449 79.1622C95.6493 78.6572 95.6244 78.0536 95.3942 77.8214C95.164 77.5892 95.0004 78.0019 95.0302 78.739ZM94.9755 81.1155C94.9755 81.5072 95.9633 81.8282 97.171 81.8282C99.6951 81.8282 99.6036 81.5226 96.8819 80.8645C95.7498 80.5903 94.9755 80.6924 94.9755 81.1155ZM88.2315 85.3252C88.2315 87.0561 88.3667 87.7646 88.5324 86.8988C88.6974 86.0329 88.6974 84.6174 88.5324 83.7515C88.3667 82.8857 88.2315 83.5942 88.2315 85.3252ZM91.5196 88.6256C91.5141 89.0941 91.1106 89.3228 90.6225 89.1347C90.1352 88.9458 89.1216 89.2599 88.3695 89.8334C87.0606 90.8321 87.0904 90.8762 89.0828 90.8874C91.8482 90.9028 93.0045 90.1243 92.1768 88.8039C91.7622 88.143 91.5265 88.0786 91.5196 88.6256Z" fill="#8F8D8D"/>
</g>
<defs>
<clipPath id="clip0_922_6896">
<rect width="113" height="113" fill="white"/>
</clipPath>
</defs>
</svg>
