<svg width="113" height="113" viewBox="0 0 113 113" fill="none" xmlns="http://www.w3.org/2000/svg">
<g clip-path="url(#clip0_922_6903)">
<path fill-rule="evenodd" clip-rule="evenodd" d="M10.6972 7.19325C10.7056 11.4245 10.8769 14.8977 11.0795 14.9117C16.7746 15.304 26.1447 15.0851 25.6348 14.5718C25.2726 14.2067 24.9757 13.2066 24.9757 12.3498C24.9757 11.4301 24.479 10.6888 23.7616 10.5384C21.7802 10.1244 18.7318 11.5805 18.7318 12.9415C18.7318 13.9325 18.1532 14.1871 15.8991 14.1871C13.9371 14.1871 13.1566 13.9186 13.362 13.3129C13.5243 12.8324 14.3312 12.5373 15.154 12.6575C15.9768 12.7778 16.6505 12.5415 16.6505 12.133C16.6505 11.7239 15.87 11.3896 14.916 11.3896C13.3967 11.3896 13.1816 11.0867 13.1816 8.94172C13.1816 6.57779 14.0238 5.73782 14.923 7.20444C15.5599 8.24372 16.6505 7.32752 16.6505 5.7532C16.6505 5.00626 16.9627 4.39571 17.3442 4.39571C17.7258 4.39571 18.038 5.00207 18.038 5.74342C18.038 7.48979 21.8017 9.4187 24.0835 8.8417C25.5966 8.45914 25.7402 8.14301 25.3517 6.05325C24.8356 3.28088 26.1058 2.76754 26.7795 5.47556C27.2665 7.43175 28.6541 7.44155 29.0294 5.49166C29.3735 3.70053 28.4882 -0.5 27.766 -0.5C27.4275 -0.5 26.9765 0.0511165 26.7635 0.723926C26.4631 1.67579 25.503 1.97861 22.4441 2.08701C20.1131 2.16954 18.2725 2.59687 17.927 3.13609C17.116 4.40128 16.0004 2.62974 16.4694 0.821125C16.7677 -0.327268 16.4111 -0.5 13.7477 -0.5H10.6834L10.6972 7.19325ZM18.0928 0.607134C18.1261 1.42192 18.2905 1.58766 18.5118 1.03025C18.7123 0.525292 18.6874 -0.0782727 18.457 -0.310469C18.2267 -0.542665 18.063 -0.130019 18.0928 0.607134ZM19.9896 -0.0223306C20.4898 0.179792 21.0885 0.154628 21.3188 -0.0775678C21.5492 -0.309764 21.1398 -0.474836 20.4086 -0.444763C19.6004 -0.411192 19.4359 -0.245435 19.9896 -0.0223306ZM51.7163 7.19325L52.211 14.8865H49.0869C47.3685 14.8865 44.9084 15.1222 43.6207 15.411C41.6941 15.8426 42.3248 16.0132 47.1763 16.3734C50.4197 16.614 53.6887 16.9287 54.4408 17.0728C55.7215 17.3176 55.7915 17 55.548 12.089C55.4044 9.20399 55.2199 6.05675 55.1373 5.09509C55.0541 4.13344 54.9465 2.48148 54.8973 1.42331C54.8237 -0.155202 54.4866 -0.5 53.0151 -0.5H51.2217L51.7163 7.19325ZM26.5776 11.8344C26.1017 13.0849 27.0272 14.9928 28.3204 15.4278C28.8469 15.6048 29.1383 14.8096 29.1383 13.1961C29.1383 10.5244 27.424 9.61242 26.5776 11.8344ZM19.4255 13.4877C19.4255 13.8724 20.2837 14.1822 21.3334 14.1766C22.8202 14.1682 23.0116 14.0158 22.2006 13.4877C20.8429 12.6037 19.4255 12.6037 19.4255 13.4877ZM53.7463 19.2353C53.516 19.8403 53.6936 21.7055 54.1411 23.3806C54.5892 25.0556 54.9472 29.1015 54.9382 32.3712C54.9174 39.8392 55.1463 40.7267 56.9716 40.2455C57.9485 39.9882 58.1302 39.7056 57.5523 39.3462C56.9786 38.9888 56.6449 35.8674 56.5047 29.554C56.3452 22.3517 56.0614 20.0473 55.2324 19.2108C54.2715 18.2428 54.123 18.245 53.7463 19.2353ZM57.4469 22.2503C57.1971 22.5021 57.6106 24.1611 58.3654 25.9368C59.1209 27.7118 59.644 30.0961 59.5282 31.234C59.2805 33.6622 60.693 34.5281 61.2709 32.3019C61.6199 30.9542 61.9744 30.8325 64.3075 31.2578C69.0987 32.1306 70.7645 32.1292 70.7645 31.2528C70.7645 30.7654 70.2074 30.5507 69.4553 30.7493C68.7352 30.9388 67.936 30.7521 67.68 30.3338C67.4233 29.9156 65.8491 29.5736 64.1813 29.5736C61.2945 29.5736 61.0822 29.4309 59.7571 26.6012C58.9912 24.9668 58.2607 23.2155 58.133 22.7112C58.0053 22.2063 57.6966 21.9986 57.4469 22.2503ZM52.1347 31.0074C52.0785 33.1419 51.7004 35.224 51.2945 35.6331C50.7721 36.1597 50.8887 36.713 51.6907 37.5215C53.432 39.2776 54.345 38.9384 53.7879 36.7423C53.5201 35.6842 53.0609 33.088 52.7688 30.9724L52.2367 27.1258L52.1347 31.0074ZM70.2316 35.1687C70.2316 36.515 70.3746 37.0654 70.5487 36.3926C70.7235 35.7198 70.7235 34.6176 70.5487 33.9448C70.3746 33.272 70.2316 33.8224 70.2316 35.1687ZM60.1269 37.034C59.4005 37.7662 59.5864 40.7638 60.3579 40.7638C60.7395 40.7638 61.0517 39.8196 61.0517 38.6656C61.0517 36.4926 60.9102 36.2437 60.1269 37.034ZM38.686 37.7613C39.549 37.9285 40.7978 37.9222 41.461 37.7474C42.1243 37.5725 41.418 37.4354 39.8917 37.4431C38.3654 37.4508 37.8229 37.5942 38.686 37.7613ZM29.8321 42.862C29.8321 43.2466 30.3191 43.5613 30.9137 43.5613C31.5082 43.5613 31.8024 43.2466 31.5665 42.862C31.3306 42.4773 30.8443 42.1626 30.4849 42.1626C30.1255 42.1626 29.8321 42.4773 29.8321 42.862ZM45.7888 42.862C45.7888 43.2466 46.101 43.5613 46.4825 43.5613C46.8641 43.5613 47.1763 43.2466 47.1763 42.862C47.1763 42.4773 46.8641 42.1626 46.4825 42.1626C46.101 42.1626 45.7888 42.4773 45.7888 42.862ZM73.1309 42.8074C72.9103 43.0298 72.3782 43.2117 71.9487 43.2117C71.4097 43.2117 71.2314 45.2566 71.3743 49.7964L71.581 56.3804L69.2444 54.1592C59.3069 44.7098 57.6203 43.56 55.1179 44.5279C54.3041 44.8426 54.0897 45.7672 54.2493 48.2752L54.4609 51.6043L57.9297 52.019C59.8376 52.247 61.0087 52.4827 60.5314 52.5436C59.0571 52.7303 59.4602 57.3896 61.0232 58.2331C61.7711 58.6366 62.63 58.9255 62.9311 58.8744C64.2645 58.6499 66.8634 59.0926 66.0815 59.4108C65.5952 59.6088 65.2143 60.9663 65.2143 62.5028C65.2143 65.1584 65.2872 65.2423 67.6016 65.2423C70.446 65.2423 71.0808 66.0676 71.0982 69.7883L71.1113 72.5859L74.2333 72.5383C80.6611 72.4397 87.2574 71.3697 92.4857 69.5771C95.2802 68.619 95.761 68.2021 95.4439 67.0125C95.2358 66.2313 95.061 64.2541 95.0561 62.6196C95.0506 60.9852 94.7633 59.6472 94.4178 59.6472C94.0716 59.6472 93.9523 60.2767 94.1514 61.046C94.4324 62.1294 94.1729 62.4448 93.0005 62.4448C92.1679 62.4448 90.856 62.7847 90.0859 63.2001C88.8156 63.8855 88.706 63.7666 88.8982 61.9161C89.1376 59.6172 87.2075 56.1503 85.6888 56.1503C84.3623 56.1503 83.0365 53.5598 83.4826 51.84C83.7067 50.9755 83.4209 50.3083 82.7091 50.0328C80.6978 49.255 79.0897 47.4814 79.0793 46.0288C79.073 45.2483 78.8392 44.2607 78.559 43.8327C77.9935 42.9704 73.7622 42.1717 73.1309 42.8074ZM63.6533 43.4285C62.2228 43.5481 61.0517 43.8859 61.0517 44.1789C61.0517 44.9314 67.5197 50.9231 68.9142 51.463C69.9125 51.8491 70.0707 51.3497 70.0707 47.815C70.0707 43.8761 69.9978 43.7103 68.1628 43.4655C67.1132 43.3263 65.0846 43.3096 63.6533 43.4285ZM96.4887 50.963C96.522 51.7777 96.6865 51.9435 96.9078 51.3861C97.1083 50.8811 97.0833 50.2776 96.853 50.0454C96.6226 49.8132 96.4589 50.2258 96.4887 50.963ZM42.7896 53.8773C42.621 54.1661 42.2651 55.4271 41.998 56.6811C41.7316 57.9344 41.2529 58.7982 40.9352 58.5996C40.6174 58.4016 40.1991 58.6352 40.0055 59.1185C39.8126 59.6018 39.6295 59.15 39.5997 58.1149C39.5025 54.7788 38.1573 55.153 38.1573 58.5156C38.1573 60.2466 38.4126 61.8216 38.7248 62.0168C39.037 62.2112 39.2243 63.7247 39.1411 65.3801C39.0585 67.0349 39.3097 68.7833 39.6996 69.2638C40.6244 70.4045 44.0245 70.3891 44.9701 69.2407C46.536 67.3384 45.6792 53.3528 43.9968 53.3528C43.5007 53.3528 42.9575 53.5885 42.7896 53.8773ZM0 57.8183C0 59.143 0.277508 59.4962 1.07465 59.1878C2.3047 58.7115 2.16317 56.7602 0.867212 56.3251C0.324684 56.1426 0 56.7014 0 57.8183ZM70.4779 60.1718C71.1294 63.8009 71.4582 63.8988 71.4582 60.4634C71.4582 58.8604 71.1322 57.5491 70.7332 57.5491C70.274 57.5491 70.1803 58.5114 70.4779 60.1718ZM23.5882 71.462C23.5882 71.8054 24.0564 72.2677 24.6288 72.4894C25.2629 72.7342 25.6695 72.4901 25.6695 71.8648C25.6695 71.2997 25.2012 70.8374 24.6288 70.8374C24.0564 70.8374 23.5882 71.1186 23.5882 71.462ZM42.1902 71.3151C42.6904 71.5172 43.2891 71.4921 43.5194 71.2598C43.7498 71.0277 43.3405 70.8626 42.6092 70.8927C41.801 70.9262 41.6366 71.092 42.1902 71.3151ZM112.445 75.4415C112.479 76.2563 112.643 76.422 112.864 75.8646C113.065 75.3596 113.04 74.7561 112.81 74.5239C112.579 74.2917 112.416 74.7043 112.445 75.4415ZM104.065 76.4325C104.065 76.8172 104.865 77.1319 105.841 77.1319C106.847 77.1319 107.431 76.8291 107.187 76.4325C106.951 76.0479 106.153 75.7331 105.412 75.7331C104.671 75.7331 104.065 76.0479 104.065 76.4325ZM91.9244 77.2074C90.7797 77.5669 88.5437 77.7928 86.9556 77.7096C85.3676 77.6257 83.6505 77.8914 83.1399 78.2999C82.6293 78.7083 81.7434 79.2119 81.171 79.4182C80.5986 79.6252 84.5011 79.628 89.8431 79.4238C95.1851 79.2196 99.8681 78.7552 100.25 78.3922C100.689 77.974 100.289 77.8949 99.1577 78.1768C97.9547 78.4754 97.0777 78.2635 96.4707 77.5264C95.4647 76.3038 94.9187 76.266 91.9244 77.2074ZM73.0192 81.1107C73.6873 81.287 74.7793 81.287 75.4474 81.1107C76.1155 80.9352 75.5688 80.7911 74.2333 80.7911C72.8978 80.7911 72.3511 80.9352 73.0192 81.1107ZM64.5205 81.9549C63.9482 82.2759 60.514 82.9046 56.8891 83.3522C53.2641 83.7991 48.5812 84.4699 46.4825 84.8427C44.3839 85.2147 40.1692 85.8392 37.1167 86.2302C34.0641 86.6212 31.0982 87.1163 30.5258 87.3311C29.9535 87.5451 24.9583 88.4983 19.4255 89.4495C13.8927 90.4007 7.72928 91.4637 5.72845 91.8113C-0.878312 92.9597 -0.987927 93.9955 5.55015 93.4933C8.79352 93.245 11.7594 92.8023 12.141 92.51C12.5225 92.2177 16.7372 91.2742 21.5068 90.4132C26.2765 89.5523 31.5838 88.5585 33.3009 88.2039C35.018 87.85 38.2961 87.28 40.5855 86.9373C42.8749 86.5953 46.153 85.9875 47.8701 85.5875C49.5872 85.1868 52.304 84.8517 53.9066 84.8419C55.5099 84.8328 58.6318 84.3013 60.8442 83.6607C63.0574 83.0201 65.8824 82.4927 67.1222 82.4892C68.3619 82.485 69.3769 82.2227 69.3769 81.9052C69.3769 81.1597 65.8734 81.1953 64.5205 81.9549ZM0 105.885V113.5H17.9887C33.0532 113.5 36.1461 113.329 37.0174 112.451C37.5898 111.874 38.4709 111.392 38.9753 111.379C40.3919 111.345 42.3199 109.623 42.3199 108.392C42.3199 107.073 39.7384 105.107 38.0054 105.107C37.3289 105.107 34.9791 104.492 32.7834 103.74C27.5655 101.953 11.4201 98.9437 5.02983 98.5667L0 98.2695V105.885ZM65.0409 113.294C65.8991 113.461 67.3046 113.461 68.1628 113.294C69.021 113.127 68.3189 112.991 66.6018 112.991C64.8848 112.991 64.1827 113.127 65.0409 113.294Z" fill="#8F8D8D"/>
</g>
<defs>
<clipPath id="clip0_922_6903">
<rect width="113" height="113" fill="white"/>
</clipPath>
</defs>
</svg>
