<svg width="113" height="113" viewBox="0 0 113 113" fill="none" xmlns="http://www.w3.org/2000/svg">
<g clip-path="url(#clip0_922_6906)">
<path fill-rule="evenodd" clip-rule="evenodd" d="M2.98472 1.41832L-1 1.67531V4.98569C-1 7.43252 -0.796957 8.08749 -0.222464 7.49731C0.205114 7.05807 0.984734 6.86797 1.51002 7.07514C2.17391 7.33712 2.46498 6.87367 2.46498 5.55379C2.46498 4.46955 2.76227 3.84449 3.15797 4.0958C3.53912 4.33785 3.85097 5.15725 3.85097 5.91757C3.85097 6.67789 4.31181 7.29939 4.87591 7.29939C5.70958 7.29939 5.75739 7.62189 5.13093 9.03361C4.24528 11.0305 4.84125 13.3136 6.10874 12.7811C9.70261 11.2711 9.59173 11.2662 8.60283 12.8936C7.75737 14.2832 7.27782 14.3815 3.33676 13.9664C-0.769929 13.5343 -1 13.5905 -1 15.0322C-1 16.1976 -0.553711 16.5742 0.905736 16.6382C1.95354 16.6852 3.12332 16.6304 3.50447 16.5165C3.88561 16.4033 5.05539 16.2453 6.1032 16.1655C7.15101 16.0858 8.43929 15.9804 8.96527 15.9313C9.7047 15.8622 9.94863 14.143 10.0387 8.36726C10.1538 0.973364 10.1371 0.893626 8.56195 1.02675C7.686 1.10079 5.17597 1.27736 2.98472 1.41832ZM0.38599 20.1138C0.38599 20.5053 0.697838 20.8257 1.07899 20.8257C1.46013 20.8257 1.77198 20.5053 1.77198 20.1138C1.77198 19.7222 1.46013 19.4019 1.07899 19.4019C0.697838 19.4019 0.38599 19.7222 0.38599 20.1138ZM0.859305 22.7122C0.599432 22.9799 0.38599 31.814 0.38599 42.3439C0.38599 54.9254 0.148293 61.3376 -0.307005 61.0486C-0.724881 60.783 -1 61.7391 -1 63.4562C-1 65.0224 -0.688152 66.5018 -0.307005 66.7439C0.0741423 66.9859 0.38599 68.1072 0.38599 69.2355C0.38599 70.3639 0.0741423 71.4852 -0.307005 71.7272C-0.721416 71.9906 -0.982673 76.371 -0.956339 82.6258C-0.923075 90.4383 -0.733886 92.6346 -0.207903 91.3047C0.179481 90.3259 0.549538 88.5639 0.61468 87.3892C0.721401 85.4543 0.980582 85.2321 3.37488 85.03C6.90153 84.7317 8.87657 83.0302 7.78371 81.2312C7.34297 80.5072 6.43376 79.9142 5.76294 79.9142C5.09281 79.9142 4.54396 79.3995 4.54396 78.7702C4.54396 77.96 4.89739 77.7756 5.7567 78.1387C8.62986 79.3539 9.59173 79.376 10.2099 78.2412C10.5619 77.5948 11.4795 77.0666 12.2494 77.0666C14.1579 77.0666 13.7435 74.3905 11.6104 72.9432C10.1226 71.933 9.98882 71.9636 9.6243 73.3952C9.33948 74.5129 8.69846 74.9308 7.26743 74.9308C5.60216 74.9308 5.08934 74.4382 3.91333 71.7059C3.14965 69.9318 2.67288 68.0901 2.85375 67.6124C3.27509 66.5004 6.46702 64.9641 8.35543 64.9641C10.7504 64.9641 13.5418 63.2868 13.5474 61.8445C13.5522 60.6948 13.1648 60.5588 10.8135 60.8827C9.30761 61.0899 6.89044 60.8421 5.44277 60.331L2.81147 59.4019L2.62575 41.3828C2.45527 24.764 2.13649 21.4002 0.859305 22.7122ZM75.4879 52.6836C73.1609 54.8849 73.1456 56.9672 75.4533 57.4435C77.614 57.8884 79.3874 57.7019 79.3874 57.0277C79.3874 56.7095 80.7443 56.6397 82.402 56.8732C84.0735 57.1082 86.0326 56.9586 86.7997 56.5372C88.352 55.6836 91.1683 57.1772 91.1683 58.8545C91.1683 59.4788 91.7934 59.6675 93.0741 59.4304C95.7671 58.9321 96.7248 57.9553 96.6319 55.8004C96.5799 54.5958 96.4386 54.373 96.2348 55.1739C95.9452 56.3122 95.8239 56.3215 94.8156 55.2864C94.0921 54.5424 93.0477 54.2911 91.7747 54.5524C90.5925 54.7952 89.4677 54.5723 88.8918 53.9807C88.3596 53.434 87.1739 53.1628 86.1746 53.3592C85.1989 53.5507 84.1899 53.3571 83.9321 52.9285C83.6743 52.5 82.8586 52.1497 82.1185 52.1497C81.3784 52.1497 80.7734 51.8293 80.7734 51.4378C80.7734 50.0069 77.5032 50.7779 75.4879 52.6836ZM98.5584 54.4129C98.0948 56.2332 99.1295 57.8279 100.07 56.7415C100.394 56.3664 100.281 55.3341 99.8142 54.425L98.9728 52.7847L98.5584 54.4129ZM70.3785 54.2854C70.3785 54.677 70.865 54.9973 71.4589 54.9973C72.0528 54.9973 72.3466 54.677 72.111 54.2854C71.8754 53.8939 71.3896 53.5735 71.0306 53.5735C70.6716 53.5735 70.3785 53.8939 70.3785 54.2854ZM55.082 57.0056C55.6468 59.1734 57.5581 59.6098 57.5581 57.5709C57.5581 56.8326 56.8893 55.9741 56.0723 55.6637C54.7244 55.1518 54.6323 55.2771 55.082 57.0056ZM104.778 55.4914C103.95 56.3421 104.331 57.845 105.375 57.845C105.946 57.845 106.414 57.3837 106.414 56.8191C106.414 55.6295 105.425 54.8272 104.778 55.4914ZM110.572 56.0232C110.572 56.5878 110.884 57.247 111.265 57.489C111.646 57.7311 111.958 57.269 111.958 56.4632C111.958 55.6573 111.646 54.9973 111.265 54.9973C110.884 54.9973 110.572 55.4587 110.572 56.0232ZM14.5924 56.4212C14.3568 56.8127 14.6686 57.1331 15.2854 57.1331C15.9021 57.1331 16.214 56.8127 15.9784 56.4212C15.7428 56.0296 15.4309 55.7093 15.2854 55.7093C15.1399 55.7093 14.828 56.0296 14.5924 56.4212ZM25.7302 59.2119C24.1606 60.9945 19.4683 61.2365 17.2632 59.6497C15.4531 58.3476 14.9389 58.8509 14.9389 61.9271C14.9389 63.8898 15.1683 64.2828 16.1516 64.0023C17.9014 63.504 25.5667 62.5528 26.3082 62.7422C26.654 62.8305 28.5251 63.0775 30.4661 63.2918C32.4079 63.5061 34.2159 63.8193 34.4841 63.9888C34.7523 64.1575 35.7093 64.1055 36.6102 63.8734C37.9463 63.5288 38.1951 63.0818 37.9609 61.443C37.6774 59.4589 34.3427 56.8839 34.3427 58.6494C34.3427 59.1286 33.6518 59.2453 32.5292 58.9556C27.681 57.7054 27.0358 57.7297 25.7302 59.2119ZM39.8728 60.0077C39.457 60.8058 39.3157 62.1022 39.5589 62.8896C39.8022 63.6762 39.6255 64.7854 39.166 65.3542C38.5769 66.0839 38.5603 66.3879 39.1092 66.3879C40.4432 66.3879 39.9595 67.6921 38.4411 68.1869L36.9962 68.6582L38.4411 70.2386C39.2367 71.1079 39.8867 72.3195 39.8867 72.9317C39.8867 75.2405 41.2526 75.6228 52.9192 76.5739C55.7445 76.8046 56.9489 76.5768 58.1166 75.5929C59.5303 74.4012 59.5539 74.2453 58.4555 73.3753C57.8062 72.8606 57.1561 71.4781 57.0113 70.3034C56.8672 69.1288 56.4008 68.1677 55.9753 68.1677C54.5221 68.1677 53.8221 66.7446 53.6115 63.363C53.4244 60.3687 53.2172 59.9821 51.8 59.9814C50.9199 59.9807 50.3904 60.2975 50.6233 60.6848C50.8596 61.0778 50.6025 61.213 50.0412 60.9916C48.5388 60.3993 47.9199 62.0232 48.9185 63.9396C49.6288 65.3044 49.6288 65.8369 48.9151 66.7197C47.852 68.0353 46.1278 68.1598 46.1133 66.9218C46.1056 66.3267 45.8763 66.3858 45.4203 67.0998C44.8132 68.0488 44.6621 68.0488 44.0551 67.0998C43.5014 66.2327 43.3711 66.3331 43.3621 67.6337C43.3565 68.5151 43.0114 69.2355 42.5949 69.2355C42.1327 69.2355 41.8978 67.9192 41.9913 65.854C42.3184 58.6359 41.6081 56.6767 39.8728 60.0077ZM43.7938 61.7605C44.0135 62.3478 44.6656 62.8284 45.2429 62.8284C46.098 62.8284 46.1327 62.6297 45.4307 61.7605C44.956 61.1732 44.3039 60.6926 43.9816 60.6926C43.6594 60.6926 43.5748 61.1732 43.7938 61.7605ZM69.1152 63.217C67.2122 64.0521 66.8955 64.4949 67.2891 65.7714C67.6571 66.961 67.5289 67.2216 66.7313 66.9069C64.9835 66.2185 64.4783 67.5462 64.7112 72.2227L64.9343 76.7106L69.2808 76.4771C72.1047 76.3247 74.5261 76.6287 76.1913 77.3435C79.3902 78.7167 79.6639 78.2149 79.262 71.7215C79.016 67.7576 78.6923 66.8364 76.9294 65.0837C74.3237 62.4937 72.0195 61.9427 69.1152 63.217ZM26.3733 69.2163C24.2507 69.4462 23.2437 69.8143 23.7746 70.1674C24.2514 70.4842 24.6408 71.1684 24.6408 71.6888C24.6408 72.8456 20.7829 73.5305 19.8224 72.5438C19.3609 72.0696 18.7199 72.2135 17.9007 72.9745C17.2244 73.6031 16.4371 74.1406 16.1516 74.1683C15.8661 74.1961 15.6319 74.3791 15.6319 74.5749C15.6319 74.7706 15.6319 75.4484 15.6319 76.082C15.6319 76.9526 16.0109 77.1078 17.1911 76.7199C18.9832 76.1297 21.3616 75.7837 24.1862 75.7004C25.5452 75.6605 26.2687 75.2013 26.5188 74.2189C26.7184 73.4358 27.3463 72.7951 27.9145 72.7951C28.5479 72.7951 28.7925 73.208 28.5479 73.863C28.3075 74.5072 28.5445 74.9308 29.1453 74.9308C29.7142 74.9308 29.9817 74.5037 29.769 73.9349C29.5645 73.3874 29.7302 72.7275 30.1377 72.469C30.981 71.9337 31.1432 69.442 30.358 69.0803C30.0725 68.9486 28.279 69.0098 26.3733 69.2163ZM41.9879 71.9814C41.9712 73.7953 42.211 74.2744 42.983 73.9705C43.5423 73.7498 44.1847 73.8758 44.4099 74.2502C45.2283 75.61 45.9137 74.8796 45.9414 72.6171C45.9573 71.3442 45.8229 70.7042 45.6427 71.1933C45.1798 72.4505 44.0093 72.2975 42.9303 70.8373C42.1064 69.7218 42.0073 69.8421 41.9879 71.9814ZM100.87 72.7203C100.87 73.7825 101.496 74.137 103.815 74.3883C105.435 74.5642 107.073 74.4816 107.454 74.2054C107.835 73.9291 109.005 73.4927 110.052 73.2357C113.782 72.3202 111.93 71.3713 106.414 71.3713C101.434 71.3713 100.87 71.5086 100.87 72.7203ZM33.6498 74.5328C33.6498 75.143 33.9616 75.6427 34.3427 75.6427C34.7239 75.6427 35.0357 75.3416 35.0357 74.9728C35.0357 74.604 34.7239 74.105 34.3427 73.863C33.9616 73.6209 33.6498 73.9227 33.6498 74.5328ZM19.9215 80.6261C18.9333 81.4704 17.0179 84.9211 17.0179 85.8594C17.0179 85.9597 19.6554 86.0993 22.8792 86.169C27.3511 86.2666 29.4849 85.969 31.8819 84.9132C36.2097 83.0074 38.8444 82.781 38.8562 84.313C38.8611 84.9709 39.0946 85.7454 39.376 86.0338C39.6566 86.3228 39.8867 85.8195 39.8867 84.9168C39.8867 84.0133 40.3711 82.9106 40.9636 82.4657C43.0301 80.9137 41.4771 79.4728 37.7869 79.5169C35.8944 79.5397 34.3448 79.7184 34.3434 79.9142C34.3414 80.11 33.2298 80.3513 31.8729 80.4509C30.5167 80.5506 29.5722 80.3563 29.7752 80.0188C30.4405 78.9125 21.2666 79.4785 19.9215 80.6261ZM43.3517 80.9821C43.3517 81.6349 43.6871 82.0535 44.0966 81.9132C44.5062 81.773 44.8416 81.3537 44.8416 80.9821C44.8416 80.6104 44.5062 80.1911 44.0966 80.0508C43.6871 79.9106 43.3517 80.3292 43.3517 80.9821ZM2.46498 88.1012C1.73456 89.0053 1.88841 89.169 3.46913 89.169C4.49615 89.169 5.80383 88.6885 6.37555 88.1012C7.29931 87.1522 7.18774 87.0333 5.3714 87.0333C4.24736 87.0333 2.93968 87.5138 2.46498 88.1012ZM83.5454 90.622C83.5454 92.3014 84.3174 92.8353 85.4061 91.9077C86.2709 91.1702 87.4643 90.9915 93.5363 90.6925C97.4649 90.4989 94.7726 89.861 89.1961 89.6638C84.361 89.4929 83.5454 89.631 83.5454 90.622ZM71.418 90.9886C69.5829 91.9098 69.542 91.9903 71.0715 91.6785C72.0243 91.4834 73.1941 91.3197 73.6702 91.3147C74.147 91.309 74.5365 90.9844 74.5365 90.5928C74.5365 89.6545 73.9204 89.7328 71.418 90.9886ZM47.9913 91.8109C46.3905 92.2274 46.8471 93.743 48.6018 93.837C51.7723 94.0079 52.3509 94.2022 52.1874 95.0423C52.0924 95.5321 51.7432 96.135 51.4112 96.3828C51.08 96.6305 51.9379 97.2157 53.317 97.6842C55.2262 98.3313 56.4029 98.3384 58.2414 97.7155C62.1291 96.397 62.0958 95.31 58.1818 95.7428C55.4971 96.0397 55.1125 95.9642 56.3453 95.3825C58.0487 94.5788 58.5394 93.0375 56.8838 93.6904C56.3225 93.9118 55.4652 93.5458 54.9781 92.8766C54.1104 91.6849 50.5581 91.1424 47.9913 91.8109ZM107.8 93.4718C107.8 93.8804 107.298 94.1204 106.684 94.0057C105.879 93.8548 105.516 94.4208 105.384 96.034C105.13 99.1365 105.89 100.137 108.073 99.5743C109.259 99.2689 109.879 98.6246 109.879 97.6984C109.879 96.1279 110.931 95.7997 111.547 97.178C111.766 97.6678 111.754 97.267 111.52 96.2881C111.287 95.3092 110.784 94.1082 110.402 93.6185C109.563 92.5392 107.8 92.4402 107.8 93.4718ZM38.6393 94.2948C38.2609 94.6835 36.3822 94.9896 34.4661 94.9746C32.2215 94.9568 30.681 95.3185 30.1377 95.9905C29.0275 97.3645 29.2132 97.4699 33.4425 97.8685C36.3109 98.1391 37.1348 97.976 37.4772 97.0705C37.8569 96.0646 38.017 96.0866 38.8583 97.2599C40.6192 99.7174 46.1237 101.715 46.1237 99.8975C46.1237 99.533 46.8007 99.1322 47.6288 99.0076C48.4563 98.8823 49.2726 98.3455 49.4431 97.8151C49.6683 97.1139 49.344 96.9837 48.2553 97.3389C47.432 97.6073 45.579 97.6222 44.1382 97.3724C42.0634 97.0121 41.5284 96.6092 41.5686 95.4366C41.6234 93.8348 39.7848 93.118 38.6393 94.2948ZM61.7646 94.0719C61.2427 94.939 63.2164 96.5195 64.111 95.9514C65.3383 95.1718 64.9101 93.4405 63.4894 93.4405C62.7493 93.4405 61.9732 93.7245 61.7646 94.0719ZM66.3757 94.8287C66.5185 95.6018 67.5628 95.9969 69.865 96.1493C71.6723 96.2682 73.1505 96.1656 73.1505 95.92C73.1505 94.7247 71.1526 93.7153 68.795 93.7203C66.8019 93.7238 66.2212 93.9901 66.3757 94.8287ZM43.6982 94.8643C43.9338 95.2558 44.4196 95.5762 44.7786 95.5762C45.1375 95.5762 45.4307 95.2558 45.4307 94.8643C45.4307 94.4727 44.9442 94.1524 44.3503 94.1524C43.7564 94.1524 43.4626 94.4727 43.6982 94.8643ZM74.1352 94.9554C73.6078 95.8318 75.19 97.1089 76.0929 96.5358C76.4138 96.3322 77.1165 96.5408 77.6549 97C78.1934 97.4592 78.9591 97.6279 79.3569 97.3752C80.1864 96.8484 80.3396 94.9042 79.5607 94.7846C76.1082 94.2563 74.5261 94.3061 74.1352 94.9554ZM86.8787 94.5254C86.6791 94.7297 86.6597 95.673 86.8364 96.6199C87.1074 98.075 87.3492 98.2188 88.3991 97.5453C89.3991 96.9032 89.4878 96.496 88.8517 95.4502C88.0422 94.1182 87.5149 93.8712 86.8787 94.5254ZM92.8073 96.3778C91.8294 96.7729 92.0575 96.9125 93.7435 96.9502C96.8038 97.0185 100.87 99.118 100.87 100.63C100.87 101.625 101.235 101.76 102.776 101.337C104.823 100.774 104.901 100.538 104.042 97.5083C103.491 95.5669 103.379 95.5285 98.7899 95.6901C96.2106 95.7812 93.5183 96.0909 92.8073 96.3778ZM18.8065 97.6186C18.4309 98.2423 22.3775 99.1671 24.9873 99.0667C26.1107 99.0233 26.0448 98.9115 24.6408 98.4779C20.6686 97.2513 19.1613 97.0292 18.8065 97.6186ZM101.563 99.8477C101.563 100.239 101.875 100.56 102.256 100.56C102.637 100.56 102.949 100.239 102.949 99.8477C102.949 99.4561 102.637 99.1358 102.256 99.1358C101.875 99.1358 101.563 99.4561 101.563 99.8477ZM-0.930696 106.67C-0.890503 110.816 -0.656967 112.995 -0.365216 111.95C0.128196 110.183 1.98888 109.833 3.41299 111.24C3.74355 111.566 5.14686 111.694 6.53147 111.523C8.48779 111.282 8.74004 111.362 7.66244 111.887C6.47049 112.468 6.59731 112.569 8.56957 112.612C9.9119 112.641 10.6853 112.957 10.4344 113.374C10.1538 113.84 14.6194 114.052 23.3872 113.989C30.7468 113.936 35.9886 113.748 35.0357 113.573C34.0829 113.397 33.0073 112.96 32.6449 112.602C32.2832 112.243 30.8799 111.944 29.5264 111.935C28.1737 111.927 23.3241 111.266 18.7504 110.466C10.187 108.968 2.10947 107.743 0.525285 107.702C-0.112271 107.686 -0.329182 106.639 -0.21761 104.128C-0.130986 102.174 -0.271667 100.359 -0.530154 100.093C-0.788641 99.8277 -0.968811 102.787 -0.930696 106.67ZM2.99303 101.063C3.85512 101.233 5.10251 101.227 5.76501 101.049C6.42752 100.871 5.72205 100.731 4.19746 100.739C2.67287 100.747 2.13095 100.893 2.99303 101.063ZM42.3801 101.871C41.8957 102.676 43.8194 103.106 50.4452 103.673C52.7085 103.868 54.6038 103.71 54.8464 103.308C55.4902 102.236 55.2393 102.166 48.8097 101.623C44.843 101.288 42.6802 101.371 42.3801 101.871ZM77.0361 106.379C77.4865 107.127 86.1012 107.017 88.3964 106.233C89.5322 105.846 87.8129 105.668 83.4054 105.716C79.7076 105.756 76.8414 106.055 77.0361 106.379Z" fill="#8F8D8D"/>
</g>
<defs>
<clipPath id="clip0_922_6906">
<rect width="113" height="113" fill="white"/>
</clipPath>
</defs>
</svg>
