<svg width="113" height="113" viewBox="0 0 113 113" fill="none" xmlns="http://www.w3.org/2000/svg">
<g clip-path="url(#clip0_922_6892)">
<path fill-rule="evenodd" clip-rule="evenodd" d="M60.2664 0.991715C60.0259 1.61577 60.1841 2.48 60.6185 2.91246C61.0528 3.34493 61.4084 3.94885 61.4084 4.25428C61.4084 5.22541 59.2597 4.85195 58.0779 3.67535C57.3452 2.94578 56.846 2.81806 56.6787 3.31785C56.5358 3.74476 57.4547 5.0366 58.7207 6.18753C59.9861 7.33845 60.622 8.28043 60.1332 8.28043C59.6445 8.28043 58.9215 9.20228 58.5269 10.3289C57.9218 12.0588 57.3313 12.4489 54.7287 12.8369C52.3589 13.1909 51.6478 13.5942 51.6478 14.5848C51.6478 15.4935 51.3111 15.7441 50.503 15.4352C49.5158 15.0582 49.4266 15.3706 49.8498 17.7134C50.2995 20.1985 51.7684 22.1637 53.1754 22.1637C53.4856 22.1637 53.7394 22.7697 53.7394 23.5111C53.7394 24.2524 54.0531 25.0514 54.4366 25.2874C54.82 25.5234 55.1344 25.4637 55.1351 25.1548C55.1365 24.8459 56.0624 23.5152 57.1932 22.1977C58.4461 20.7379 59.3308 18.84 59.4577 17.3386C59.8202 13.0403 61.0521 14.682 61.2543 19.7341C61.5081 26.0739 61.9801 27.1811 62.0505 21.6021C62.0819 19.1288 62.3845 17.3941 62.7463 17.6169C63.0991 17.8342 63.8611 17.5399 64.4404 16.963C65.2506 16.1564 65.344 15.3949 64.8455 13.6637C64.4885 12.426 64.1971 10.9946 64.1971 10.483C64.1971 8.94821 65.8697 9.99015 66.3159 11.8026C66.6073 12.9869 67.1302 13.4179 68.0777 13.2548C69.9454 12.9341 70.7318 12.0379 70.0751 10.9793C69.2224 9.60558 69.4183 6.42077 70.4307 5.20668C71.0044 4.51737 71.0616 4.11545 70.584 4.11545C70.1685 4.11545 69.1499 3.41296 68.3196 2.55358C67.2829 1.4811 66.7105 1.26313 66.4915 1.85942C66.0063 3.17833 64.3386 2.89511 64.4488 1.51234C64.5813 -0.150877 60.8841 -0.611107 60.2664 0.991715ZM63.4999 4.7277C63.4999 5.10949 63.8137 5.61484 64.1971 5.85086C64.5806 6.08687 64.8943 5.96747 64.8943 5.58568C64.8943 5.20389 64.5806 4.69855 64.1971 4.46253C63.8137 4.22651 63.4999 4.34591 63.4999 4.7277ZM55.1337 8.28043C55.1337 9.96863 57.569 10.1998 58.1965 8.57059C58.8204 6.9511 58.7744 6.8921 56.8767 6.8921C55.5988 6.8921 55.1337 7.26209 55.1337 8.28043ZM59.3168 12.7925C59.3168 13.3652 59.6306 13.8337 60.014 13.8337C60.3975 13.8337 60.7112 13.3652 60.7112 12.7925C60.7112 12.2198 60.3975 11.7512 60.014 11.7512C59.6306 11.7512 59.3168 12.2198 59.3168 12.7925ZM18.5142 14.8625C17.3659 18.5131 17.4384 18.4451 16.5139 16.7367C15.7909 15.4012 15.5065 15.2922 14.8379 16.0939C14.2718 16.7735 14.2516 17.2775 14.771 17.7946C15.2897 18.3111 15.2457 18.9483 14.6218 19.9431C13.9016 21.0919 13.9065 21.5625 14.6504 22.4545C15.153 23.0578 15.9973 23.552 16.5251 23.552C17.0849 23.552 17.4858 24.276 17.4858 25.2874C17.4858 26.5688 17.856 27.0228 18.9018 27.0228C19.6812 27.0228 20.499 26.5543 20.7193 25.9816C20.9403 25.4089 21.5434 24.9403 22.0593 24.9403C23.248 24.9403 25.4393 20.4317 24.9136 19.0677C24.6961 18.5041 24.8188 17.8585 25.1855 17.6329C26.2222 16.995 25.9698 15.9162 24.7846 15.9162C24.1969 15.9162 23.5618 15.5136 23.3714 15.0214C22.8632 13.7011 18.9206 13.572 18.5142 14.8625ZM41.3643 18.4582C40.1317 18.9539 40.2774 21.4695 41.5386 21.4695C42.7887 21.4695 42.9191 22.5698 41.7541 23.2868C41.2974 23.568 40.8003 23.4298 40.6504 22.9807C40.3262 22.0138 37.7041 21.868 37.7041 22.8169C37.7041 23.1765 38.0179 23.6631 38.4013 23.8991C38.7848 24.1351 39.0985 24.932 39.0985 25.6699C39.0985 26.4071 39.726 27.4011 40.4929 27.878C41.2598 28.3549 41.8872 29.2761 41.8872 29.9258C41.8872 31.4919 43.1206 32.1853 44.2479 31.2538C44.7457 30.8421 45.3543 30.7061 45.6004 30.9518C45.8472 31.1968 45.5321 31.7737 44.9005 32.2339C43.6741 33.1266 44.121 35.7762 45.3683 35.0085C45.7545 34.7711 46.0703 34.9078 46.0703 35.3118C46.0703 35.7158 46.5228 36.0469 47.0764 36.0469C47.6299 36.0469 48.5272 36.6786 49.0703 37.4506C49.9355 38.6806 50.1642 38.7257 50.9262 37.8115C51.6862 36.8994 51.9581 36.9632 53.0931 38.3169C54.2058 39.6455 54.3933 39.6927 54.4136 38.6501C54.4407 37.234 56.694 37.0028 57.7796 38.3051C58.2913 38.9187 58.2139 39.5705 57.516 40.5201C56.9729 41.2601 56.5281 42.4194 56.5281 43.0969C56.5281 43.7737 55.9006 44.6622 55.1337 45.0711C54.0747 45.6354 53.7422 46.5177 53.7498 48.7397C53.7624 52.1522 54.2636 53.1372 56.1795 53.5162C57.371 53.7516 57.539 54.2437 57.3334 56.8934C56.9806 61.4297 54.477 62.128 54.447 57.6986C54.4324 55.4974 53.3183 56.3637 52.7919 58.9856C52.2125 61.8705 51.2162 61.0569 50.6397 57.2272C50.3803 55.505 49.9432 54.0952 49.6685 54.0952C49.2084 54.0952 49.1986 56.2922 49.6197 65.5489C49.8756 71.1806 49.6044 74.2259 48.8458 74.2259C48.4435 74.2259 48.3181 73.5012 48.5565 72.555C48.788 71.636 48.6367 70.2497 48.2191 69.4737C47.8021 68.6976 47.7171 67.9049 48.0308 67.7119C48.3439 67.5196 48.309 65.2185 47.9527 62.5994L47.3051 57.8367L44.8531 57.7673C43.504 57.7291 42.1326 57.2779 41.8057 56.7642C40.7801 55.1531 41.1357 53.2851 42.5363 52.9207C43.8728 52.5729 44.9409 50.9187 44.3964 50.0413C43.8163 49.1062 35.9179 49.7206 33.6953 50.8729C31.4197 52.053 30.535 54.8511 32.1267 55.8306C32.5101 56.0666 32.8238 57.0113 32.8238 57.9297C32.8238 58.8717 33.413 59.9136 34.1757 60.3204C35.775 61.1722 36.6061 60.2829 35.9967 58.3712C35.568 57.0266 38.1176 52.6735 39.6214 52.1821C40.2224 51.9856 40.4929 52.7714 40.4929 54.7158C40.4929 56.9558 40.1352 57.7673 38.7499 58.6711C37.7913 59.2965 37.007 60.2482 37.007 60.7869C37.007 61.3249 36.2024 62.0697 35.2187 62.4425C32.6286 63.4226 29.3379 63.2921 29.3379 62.2085C29.3379 61.7074 28.3967 60.605 27.2464 59.7582C25.4163 58.4108 25.1548 57.7923 25.1548 54.8095C25.1548 50.9659 26.0382 49.9482 27.9101 51.6358C29.1023 52.7096 29.301 52.6742 31.0293 51.0797L32.8747 49.377L30.6458 49.4797C29.4028 49.5373 28.2866 49.1992 28.122 48.7154C27.9443 48.1913 28.472 47.8317 29.4544 47.8074C30.4123 47.7832 28.937 46.9272 25.8632 45.725C22.9936 44.6018 20.5841 43.6827 20.5088 43.6827C20.4335 43.6827 20.2711 44.3609 20.149 45.1905C20.0263 46.0193 19.5746 46.8127 19.1451 46.9536C18.6062 47.13 18.4263 45.6965 18.5637 42.327C18.6731 39.642 18.4681 37.2638 18.1077 37.0417C17.7465 36.8196 16.5181 36.8425 15.3775 37.0917C13.6813 37.463 13.3027 37.899 13.3027 39.4796C13.3027 40.543 13.9106 42.1827 14.6538 43.1232C16.4812 45.4362 17.2474 48.5405 15.9924 48.5467C15.3573 48.5502 14.9989 49.5776 14.9041 51.6705C14.7968 54.023 15.015 54.7893 15.7923 54.7893C17.0542 54.7893 18.183 57.5563 18.183 60.6481C18.183 61.9121 18.3789 63.9217 18.6187 65.115C18.9903 66.9643 19.3619 67.2843 21.1404 67.2843C23.064 67.2843 23.1895 67.4321 22.7586 69.1932C22.2748 71.1709 22.2315 72.2107 22.5355 74.573C22.7691 76.3848 25.7091 78.1167 26.7653 77.065C27.2248 76.6076 30.6668 76.3084 35.469 76.3084C42.8535 76.3084 43.4378 76.407 43.7808 77.7113C44.0694 78.8109 44.356 78.9434 45.1061 78.3236C45.6325 77.889 46.6922 77.6967 47.4612 77.8966C48.4415 78.1521 48.8647 77.9175 48.8772 77.1108C48.8967 75.8419 53.3071 73.5317 55.711 73.5317C56.5922 73.5317 57.2253 73.967 57.2253 74.573C57.2253 75.1457 56.8133 75.6142 56.3099 75.6142C54.8054 75.6142 51.6492 79.3808 51.6248 81.2057L51.6011 82.9029L50.2925 81.3411C48.5809 79.2982 48.3829 79.3578 47.9848 82.0352C47.7296 83.7526 48.0204 84.6349 49.2035 85.731C50.6278 87.0506 51.2197 87.1235 56.2576 86.6056C63.4546 85.8656 65.1495 85.1201 64.72 82.8828C64.5367 81.9297 64.7193 81.1675 65.1306 81.1675C65.6166 81.1675 65.5964 80.8947 65.0693 80.3699C64.4662 79.7695 63.8353 79.8556 62.5148 80.717C60.3703 82.1158 59.3168 82.1748 59.3168 80.8947C59.3168 79.8299 61.2208 78.7768 62.7024 79.0226C63.2245 79.1093 63.4978 78.7699 63.3124 78.2645C63.1276 77.7613 62.6243 77.4274 62.1927 77.5232C61.7612 77.6183 61.4084 77.1657 61.4084 76.5166C61.4084 75.6253 61.605 75.5323 62.2122 76.1369C63.4567 77.376 65.77 75.8787 65.2296 74.1836C64.8776 73.0805 65.1551 72.8209 66.7649 72.7466C78.8261 72.1858 79.9758 71.9602 80.5907 70.0304C80.9135 69.0183 81.4231 68.7351 82.3804 69.0377C83.3111 69.3314 83.7183 69.1293 83.7183 68.372C83.7183 67.7737 84.032 67.2843 84.4155 67.2843C84.7989 67.2843 85.1126 67.5966 85.1126 67.9784C85.1126 68.4067 88.6536 68.6705 94.3503 68.6677C104.781 68.6622 113 68.0368 113 67.2489C113 66.958 112.403 66.8754 111.673 67.0656C110.757 67.3044 110.202 66.9608 109.883 65.9591C109.628 65.1608 109.046 64.5076 108.589 64.5076C107.531 64.5076 105.854 61.8795 106.375 61.0389C107.001 60.031 108.817 61.059 108.817 62.4203C108.817 63.2623 109.483 63.7531 110.908 63.9613L113 64.2674V60.6502C113 57.8291 112.732 56.9412 111.78 56.6136C111.109 56.3831 109.619 55.5883 108.468 54.8483C107.318 54.1084 105.705 53.4795 104.883 53.4517C104.061 53.4239 103.208 52.9325 102.987 52.3598C102.767 51.7871 102.303 51.3185 101.958 51.3185C101.357 51.3185 96.932 54.9073 93.7473 57.9776C92.6652 59.021 91.6299 59.3417 90.078 59.1147C88.8886 58.9411 88.0875 58.5212 88.2981 58.1824C88.8997 57.2134 87.4608 57.4626 86.6186 58.4733C86.0692 59.1327 84.7599 59.2563 81.8275 58.9272C79.6084 58.678 77.6835 58.7516 77.5503 59.0904C77.4171 59.4291 76.9298 59.3937 76.4676 59.0119C75.8959 58.5392 75.0014 58.6405 73.667 59.3298C72.5891 59.8873 70.0172 60.3426 67.9521 60.3426C64.6224 60.3426 64.1971 60.1802 64.1971 58.9085C64.1971 58.1199 63.8736 56.8732 63.479 56.1381C62.9513 55.1572 63.0426 54.259 63.82 52.7624C64.9396 50.6063 64.7563 47.9782 63.1862 43.6827C62.6975 42.3465 62.4409 40.8526 62.6159 40.3639C62.7902 39.8746 62.6689 39.5622 62.3454 39.6698C62.0219 39.7767 61.6782 39.6309 61.5827 39.3442C61.4872 39.0575 61.6433 38.8049 61.9313 38.782C62.2192 38.7597 62.7219 38.0566 63.0489 37.2201L63.6443 35.6999L64.3275 37.1541C64.8232 38.2093 65.4737 38.5209 66.6958 38.2884C68.1523 38.0107 69.2698 36.6009 67.8573 36.823C65.4123 37.2076 64.8448 35.7658 66.8116 34.1672C67.9215 33.2654 67.8573 33.2127 66.1004 33.5868C64.3923 33.9506 64.1218 33.7632 63.7614 31.9694C63.4037 30.1875 63.067 29.9494 60.9866 30.0077C58.6657 30.0737 58.6197 30.1334 58.6197 33.119C58.6197 36.6238 57.408 36.8334 56.2276 33.5327C55.2348 30.7581 52.6685 28.139 51.4122 28.6187C50.8565 28.8311 49.741 28.305 48.933 27.4484C47.2346 25.6484 47.0833 24.9403 48.3982 24.9403C49.0215 24.9403 49.3025 24.1094 49.2446 22.4413C49.17 20.3012 48.8235 19.8021 46.8365 18.9705C44.4696 17.9793 42.9184 17.8342 41.3643 18.4582ZM20.8413 19.8611C21.344 20.0618 21.9457 20.0368 22.1772 19.8063C22.4086 19.5758 21.9973 19.412 21.2625 19.4419C20.4502 19.4752 20.285 19.6397 20.8413 19.8611ZM-0.186425 26.8021C-0.436714 27.0506 -0.640984 27.9829 -0.640984 28.8742C-0.640984 30.0306 -0.242891 30.4936 0.753385 30.4936C2.4078 30.4936 2.41268 30.4666 1.20794 28.1536C0.690633 27.1617 0.0631671 26.5529 -0.186425 26.8021ZM47.1628 31.1121C46.9439 31.4655 47.0304 32.4692 47.3559 33.3439C47.9409 34.9189 47.9499 34.9162 48.309 33.0447C48.6708 31.1607 47.9193 29.8939 47.1628 31.1121ZM50.7087 31.142C49.6364 31.5238 49.5821 31.7334 50.3838 32.3957C51.5049 33.3224 53.1983 32.5491 52.4823 31.4377C52.2153 31.0226 51.4171 30.8893 50.7087 31.142ZM53.3908 36.0469C53.6278 36.4287 53.9597 36.7411 54.1291 36.7411C54.2985 36.7411 54.4366 36.4287 54.4366 36.0469C54.4366 35.6652 54.104 35.3528 53.6982 35.3528C53.2925 35.3528 53.1537 35.6652 53.3908 36.0469ZM2.44057 40.534C2.20283 41.4746 1.41292 42.4333 0.684364 42.6637C-1.5034 43.3544 -0.827834 44.7039 2.51516 46.3213C6.51073 48.2538 7.99504 48.2462 8.99689 46.2859C9.43612 45.4265 10.3313 43.9882 10.986 43.0885L12.1767 41.4524L8.73126 41.7002C5.59951 41.9244 5.26486 41.805 5.06198 40.3855C4.76358 38.2926 2.98019 38.3939 2.44057 40.534ZM65.9401 42.2944C66.1771 42.6762 66.509 42.9886 66.6784 42.9886C66.8478 42.9886 66.9859 42.6762 66.9859 42.2944C66.9859 41.9126 66.6533 41.6003 66.2476 41.6003C65.8418 41.6003 65.703 41.9126 65.9401 42.2944ZM9.81678 48.2524C9.81678 49.4783 11.3178 49.2652 11.7487 47.9782C11.9007 47.5242 11.5277 47.1536 10.9204 47.1536C10.3139 47.1536 9.81678 47.6478 9.81678 48.2524ZM0.111274 48.9466C0.144739 49.7553 0.309975 49.9198 0.532376 49.3665C0.733862 48.8653 0.708767 48.2663 0.477302 48.0358C0.245837 47.8054 0.0812955 48.2149 0.111274 48.9466ZM60.477 53.9112C60.0217 54.6442 60.8025 61.177 61.2878 60.6946C61.9564 60.0282 62.0707 54.1556 61.4223 53.7571C61.0842 53.5489 60.6589 53.6183 60.477 53.9112ZM9.11959 61.731C9.11959 62.1128 9.43332 62.4251 9.81678 62.4251C10.2002 62.4251 10.514 62.1128 10.514 61.731C10.514 61.3492 10.2002 61.0368 9.81678 61.0368C9.43332 61.0368 9.11959 61.3492 9.11959 61.731ZM73.2821 63.7857C72.578 64.2293 73.3944 64.4215 75.8966 64.4021C77.8975 64.3868 79.3595 64.0918 79.1455 63.7468C78.6379 62.9291 74.5991 62.9562 73.2821 63.7857ZM85.5344 64.2216C84.9384 65.7682 84.9858 65.896 86.1584 65.896C86.7336 65.896 87.2042 65.4461 87.2042 64.8957C87.2042 63.4268 86.0239 62.9506 85.5344 64.2216ZM3.08895 67.9784C3.44103 69.7298 3.28835 70.0609 2.13033 70.0609C1.37319 70.0609 0.790332 69.827 0.835649 69.5403C1.05526 68.1568 0.682969 67.2454 0.0562005 67.6314C-0.379539 67.8993 -0.610309 73.9704 -0.560112 83.8116C-0.515492 92.4747 -0.33562 99.0159 -0.160627 98.3481C0.0150633 97.6803 0.606277 97.1333 1.15287 97.1333C2.46846 97.1333 2.43151 95.8095 1.10198 95.3021C-0.636103 94.6378 -0.0720816 93.6333 1.97346 93.7492C3.0276 93.8096 4.20444 93.7645 4.5879 93.65C4.97135 93.5354 5.83376 93.6812 6.50515 93.9734C7.17654 94.2657 8.27391 94.2949 8.9453 94.0373C10.1075 93.5917 10.1075 93.5368 8.9453 92.8871C8.27391 92.5122 7.72522 91.9083 7.72522 91.5453C7.72522 90.4978 10.2553 90.7803 11.2181 91.9354C11.8686 92.7156 12.3301 92.7899 13.0162 92.2228C13.5237 91.8035 14.2599 91.6577 14.6524 91.8993C15.0443 92.1409 16.6269 91.9625 18.1683 91.5022C20.8135 90.7137 20.9717 90.5144 20.9717 87.9821C20.9717 85.7671 20.6712 85.1847 19.2504 84.6467C18.3043 84.2885 17.1302 83.359 16.6429 82.5815C16.1549 81.8041 15.0854 81.1675 14.2662 81.1675C12.1454 81.1675 11.2237 79.7417 10.7454 75.7246C10.3724 72.5856 10.1375 72.1955 8.50398 72.0073C7.14796 71.8505 6.71989 71.4402 6.83771 70.408C7.07615 68.3158 5.57301 65.896 4.03433 65.896C2.89095 65.896 2.73827 66.2326 3.08895 67.9784ZM36.8605 69.3834C37.0279 70.5198 37.4434 71.4492 37.7829 71.4492C38.7402 71.4492 38.5129 68.9343 37.4789 68.0805C36.7406 67.4703 36.6172 67.7299 36.8605 69.3834ZM55.1337 69.3668C55.1337 69.7486 55.4286 70.0609 55.7898 70.0609C56.1509 70.0609 56.6397 69.7486 56.8767 69.3668C57.1137 68.985 56.8181 68.6726 56.2206 68.6726C55.6231 68.6726 55.1337 68.985 55.1337 69.3668ZM60.7112 69.3258C60.7112 69.6854 61.0249 70.172 61.4084 70.408C61.7918 70.644 62.1056 70.3497 62.1056 69.7548C62.1056 69.1599 61.7918 68.6726 61.4084 68.6726C61.0249 68.6726 60.7112 68.9662 60.7112 69.3258ZM64.5527 69.3779C64.7939 69.7659 65.2826 69.904 65.6396 69.684C66.6066 69.0891 66.4267 68.6726 65.2018 68.6726C64.6043 68.6726 64.3122 68.9898 64.5527 69.3779ZM68.8229 70.5628C70.4258 71.7297 71.169 71.6832 71.169 70.4156C71.169 69.7319 70.5666 69.432 69.387 69.5292C67.7625 69.6632 67.713 69.7541 68.8229 70.5628ZM30.9847 71.7963C30.4855 73.0903 31.1422 74.9201 32.105 74.9201C32.5004 74.9201 32.8238 73.9829 32.8238 72.8376C32.8238 70.6579 31.6742 70.0068 30.9847 71.7963ZM90.6901 72.1844C90.6901 72.5884 91.0038 72.7265 91.3873 72.4905C91.7708 72.2545 92.0845 71.9241 92.0845 71.7554C92.0845 71.5867 91.7708 71.4492 91.3873 71.4492C91.0038 71.4492 90.6901 71.7804 90.6901 72.1844ZM94.0017 71.9088C94.4814 72.1018 95.2657 72.1018 95.7447 71.9088C96.2244 71.7165 95.8318 71.5589 94.8732 71.5589C93.9146 71.5589 93.5228 71.7165 94.0017 71.9088ZM60.7217 73.7053C60.7307 74.968 60.8618 75.0679 61.4084 74.2259C62.282 72.8799 62.282 72.1434 61.4084 72.1434C61.0249 72.1434 60.7161 72.8459 60.7217 73.7053ZM111.475 72.6175C111.978 72.8182 112.58 72.7932 112.811 72.5627C113.043 72.3322 112.631 72.1684 111.896 72.1983C111.084 72.2316 110.919 72.3961 111.475 72.6175ZM24.9115 73.8566C24.36 75.2859 25.2894 75.658 26.7514 74.5938C27.8606 73.7865 27.8711 73.6525 26.8615 73.2666C25.357 72.6918 25.3605 72.6911 24.9115 73.8566ZM101.322 74.01C101.993 74.1849 103.092 74.1849 103.762 74.01C104.433 73.8358 103.884 73.6928 102.542 73.6928C101.2 73.6928 100.651 73.8358 101.322 74.01ZM6.33086 75.912C6.33086 77.0359 6.71849 77.6967 7.37663 77.6967C7.95181 77.6967 8.42241 77.3621 8.42241 76.9533C8.42241 76.5437 7.95181 75.7406 7.37663 75.1679C6.44729 74.2426 6.33086 74.3252 6.33086 75.912ZM13.012 75.5212C12.7115 76.005 12.6543 76.5881 12.8844 76.8172C13.5084 77.4385 14.1888 76.525 13.8514 75.5184C13.6157 74.8132 13.4512 74.8132 13.012 75.5212ZM107.423 75.1929C107.423 75.8516 109.509 76.1834 109.882 75.5837C110.108 75.2186 109.647 74.9201 108.858 74.9201C108.069 74.9201 107.423 75.0429 107.423 75.1929ZM111.746 76.9567C111.661 78.0771 111.908 79.1892 112.295 79.4273C112.72 79.689 113 78.8789 113 77.3906C113 74.423 111.967 74.0655 111.746 76.9567ZM91.9102 76.7887C91.2395 76.9623 90.6901 77.4378 90.6901 77.8446C90.6901 78.2521 90.1407 78.9997 89.47 79.5071C88.4096 80.3082 88.7757 80.4324 92.2588 80.4511L96.2676 80.4734V83.2104C96.2676 85.8573 96.3533 85.9566 98.882 86.2433C100.32 86.4071 99.7228 86.4328 97.5553 86.3009C94.5644 86.1197 93.5193 86.3085 93.2202 87.0853C92.675 88.4986 90.8616 88.3723 90.4733 86.8944C90.2983 86.2266 90.1184 88.2563 90.0738 91.4064C90.0118 95.8005 89.767 97.1333 89.0218 97.1333C88.4877 97.1333 87.87 97.6018 87.649 98.1745C87.4287 98.7472 86.6416 99.2158 85.8998 99.2158C84.3018 99.2158 83.0211 102.317 83.0211 106.187V108.786L98.0106 108.893L113 109V97.2312V85.4623L111.431 85.8045C110.293 86.053 110.122 85.9642 110.809 85.4797C112.007 84.6342 110.777 83.772 109.221 84.3662C108.401 84.6793 108.219 84.4947 108.535 83.6741C108.852 82.8509 108.554 82.5559 107.405 82.5559C106.547 82.5559 104.866 81.9693 103.67 81.2522C102.475 80.5352 100.32 79.7396 98.882 79.4849C97.2722 79.2003 96.2676 78.6338 96.2676 78.0126C96.2676 77.4572 95.9797 77.0026 95.6276 77.0026C95.2755 77.0026 94.5693 76.8832 94.0589 76.7381C93.5479 76.5923 92.5809 76.6152 91.9102 76.7887ZM42.5844 80.4734C42.5844 80.8552 42.8982 81.1675 43.2816 81.1675C43.6651 81.1675 43.9788 80.8552 43.9788 80.4734C43.9788 80.0916 43.6651 79.7792 43.2816 79.7792C42.8982 79.7792 42.5844 80.0916 42.5844 80.4734ZM38.6377 81.5563C38.0283 83.1362 38.9793 83.6665 40.2147 82.4358C41.1942 81.4605 41.19 81.3161 40.1722 80.9273C39.4952 80.6684 38.8831 80.9197 38.6377 81.5563ZM19.9608 81.8034C20.3247 82.1532 21.7567 82.6135 23.1427 82.8259C24.5281 83.0383 26.5095 83.5332 27.5455 83.9254C30.298 84.9674 30.7323 84.8279 30.7323 82.9029C30.7323 81.1932 30.6486 81.1675 25.0154 81.1675C21.5364 81.1675 19.5578 81.4167 19.9608 81.8034ZM35.9828 82.7592C35.6844 83.4437 35.6363 84.1989 35.8747 84.437C36.5831 85.1416 37.1541 84.1517 36.8278 82.7835C36.5391 81.5708 36.5015 81.5702 35.9828 82.7592ZM32.8238 83.4076C32.8238 84.673 34.06 85.7219 34.746 85.0382C34.9851 84.8001 34.6505 84.0775 34.0021 83.4319C32.9159 82.3497 32.8238 82.3476 32.8238 83.4076ZM43.8045 91.3453C44.2842 91.5383 45.0685 91.5383 45.5475 91.3453C46.0271 91.1531 45.6346 90.9955 44.676 90.9955C43.7173 90.9955 43.3255 91.1531 43.8045 91.3453ZM70.5819 98.5216C70.5819 99.4761 70.7402 99.8669 70.9333 99.3893C71.1271 98.9124 71.1271 98.1315 70.9333 97.6539C70.7402 97.177 70.5819 97.5671 70.5819 98.5216ZM32.1267 98.5216C31.2329 99.0964 31.258 99.1963 32.301 99.2054C32.9723 99.2109 33.521 98.9034 33.521 98.5216C33.521 97.6747 33.4422 97.6747 32.1267 98.5216ZM-0.58591 101.703C-0.552445 102.512 -0.387209 102.676 -0.164808 102.123C0.0366783 101.622 0.0115833 101.023 -0.219882 100.792C-0.451347 100.562 -0.615889 100.971 -0.58591 101.703ZM90.6901 103.381C90.6901 103.763 91.1607 104.075 91.7359 104.075C92.3111 104.075 92.7817 103.763 92.7817 103.381C92.7817 102.999 92.3111 102.687 91.7359 102.687C91.1607 102.687 90.6901 102.999 90.6901 103.381ZM20.1442 104.549C20.6468 104.75 21.2485 104.725 21.48 104.494C21.7114 104.264 21.3001 104.1 20.5653 104.13C19.753 104.163 19.5878 104.328 20.1442 104.549ZM75.3521 104.81C75.3521 105.214 75.6658 105.352 76.0493 105.116C76.4327 104.88 76.7464 104.55 76.7464 104.381C76.7464 104.212 76.4327 104.075 76.0493 104.075C75.6658 104.075 75.3521 104.406 75.3521 104.81ZM20.1442 108.02C20.6468 108.22 21.2485 108.195 21.48 107.965C21.7114 107.735 21.3001 107.571 20.5653 107.601C19.753 107.634 19.5878 107.798 20.1442 108.02Z" fill="#8F8D8D"/>
</g>
<defs>
<clipPath id="clip0_922_6892">
<rect width="113" height="113" fill="white"/>
</clipPath>
</defs>
</svg>
