<svg width="113" height="113" viewBox="0 0 113 113" fill="none" xmlns="http://www.w3.org/2000/svg">
<g clip-path="url(#clip0_922_6901)">
<path fill-rule="evenodd" clip-rule="evenodd" d="M0.201626 5.71932C0.360994 10.2518 0.618069 11.4386 1.44194 11.4386C2.01358 11.4386 2.67807 12.2186 2.91921 13.1718C3.31693 14.7475 3.36405 14.7004 3.43889 12.6574C3.48878 11.2896 4.02162 10.0972 4.80114 9.61055C5.87931 8.93671 6.03105 8.15679 5.76567 4.66904C5.52939 1.5702 5.6666 0.600352 6.311 0.81526C6.85216 0.995506 7.209 2.63437 7.27136 5.23059L7.37115 9.3589L12.0282 9.56409C15.7796 9.72908 16.6859 9.56826 16.6859 8.73844C16.6859 8.17136 17.0185 7.50168 17.4252 7.25073C17.832 6.99908 18.0939 7.21466 18.0073 7.72975C17.816 8.86391 19.2413 12.4785 19.8795 12.4785C20.878 12.4785 23.6136 8.57343 23.6143 7.14672C23.615 5.25831 24.2427 4.8597 26.1053 5.56474C27.5403 6.10824 27.5528 6.32454 27.2347 25.068C27.058 35.4924 26.6187 44.5851 26.2584 45.2735C25.8981 45.9619 25.8129 48.1983 26.0679 50.2427C26.3235 52.2878 26.3069 55.5981 26.0318 57.5995C25.1137 64.281 24.2504 59.5059 24.2684 47.8448C24.285 37.2283 24.2254 36.7423 22.911 36.7423C21.6942 36.7423 21.5362 37.2158 21.5362 40.8672C21.5362 44.0749 21.2667 45.1432 20.3237 45.6714C19.3092 46.2399 19.1111 47.3692 19.1104 52.5817C19.1097 58.8522 18.7854 60.143 17.4252 59.3014C16.9561 59.0116 16.6859 55.1426 16.6859 48.7175C16.6859 43.148 16.548 38.7285 16.3803 38.897C16.2119 39.0647 15.8572 43.5625 15.5918 48.8909C15.1421 57.9094 14.7402 59.5759 13.0066 59.6092C12.6975 59.6148 12.5084 56.7336 12.586 53.2071C12.7592 45.3144 11.6194 44.9906 11.1426 52.7973C10.9188 56.457 10.4885 58.5714 9.93005 58.7558C8.8796 59.1025 8.88375 59.1205 8.71953 52.8535C8.54215 46.0541 7.6781 45.5508 7.6781 52.2469C7.6781 56.4175 7.44459 57.673 6.60895 57.994C6.02067 58.22 5.32775 58.1929 5.06929 57.9343C4.81084 57.6751 4.40827 53.815 4.17406 49.356C3.76525 41.5618 3.57262 42.1296 3.16173 52.3405C2.94485 57.7402 2.94693 57.7326 1.44194 57.3388C0.304875 57.0414 0.0658287 57.3069 0.110868 58.8182C0.140663 59.8311 0.322882 60.2699 0.514817 59.793C0.707445 59.3167 1.30613 58.9264 1.84591 58.9264C2.5499 58.9264 2.82775 59.8248 2.82775 62.1036C2.82775 65.7168 1.3969 66.0981 0.657572 62.6824C0.316662 61.1053 0.202332 61.4484 0.137892 64.2387L0.0561211 67.818L1.96162 67.2073C3.00929 66.8711 6.36158 66.1015 9.41037 65.4977C12.4592 64.8939 17.0296 63.9469 19.5677 63.3937C22.1051 62.8405 24.5996 62.5188 25.111 62.6789C28.4958 63.7396 29.8511 63.7611 29.8511 62.7524C29.8511 62.1736 30.1816 61.6994 30.5849 61.6994C30.9882 61.6994 31.0901 61.3299 30.8108 60.8779C30.5316 60.4259 30.2426 58.1638 30.1678 55.8518C30.093 53.5391 29.831 49.9314 29.5858 47.8344C29.2157 44.6808 29.2788 44.2911 29.9475 45.5813C30.3923 46.4395 31.1836 47.1411 31.7067 47.1411C33.3184 47.1411 34.1326 50.694 33.8922 56.6733C33.7654 59.8193 33.8956 62.3926 34.1818 62.3926C34.468 62.3926 34.7015 62.8606 34.7015 63.4325C34.7015 64.0045 34.089 64.4724 33.3399 64.4724C31.7795 64.4724 30.3611 66.6547 30.9404 68.1646C31.1552 68.7262 30.9986 69.391 30.5912 69.6427C29.6349 70.234 29.619 67.5878 30.5683 65.8131C31.4358 64.1923 31.0214 64.1271 28.8582 65.5455C27.8576 66.2014 27.0345 67.6156 26.7407 69.1837C26.476 70.5945 25.9653 71.9304 25.6057 72.1522C25.2461 72.3748 24.8851 74.0108 24.8033 75.789C24.6855 78.3457 24.4014 79.0223 23.4417 79.0258C22.7752 79.0286 22.2292 78.5371 22.2292 77.9333C22.2292 77.3294 21.8591 76.9586 21.4067 77.1097C20.2176 77.5062 19.8656 79.0307 20.9632 79.0307C21.4732 79.0307 22.3088 79.9763 22.8202 81.1312C23.5678 82.8207 23.5796 83.4377 22.8805 84.2807C22.2215 85.0744 22.2056 85.5237 22.8126 86.131C23.254 86.5726 23.615 87.9632 23.615 89.2215C23.615 90.7931 23.9406 91.5092 24.6543 91.5092C25.2419 91.5092 25.6937 90.8887 25.6937 90.0818C25.6937 89.297 26.0055 88.8471 26.3866 89.0828C27.5659 89.8121 27.1502 92.0867 25.756 92.529C25.0285 92.7605 24.055 93.4053 23.5928 93.9626C22.9123 94.7827 22.974 94.9755 23.9178 94.9755C24.6654 94.9755 24.8962 94.6649 24.5622 94.1089C24.2414 93.5744 24.5144 93.6264 25.2752 94.2441C26.4406 95.1911 26.4192 95.2826 24.8885 95.9093C23.9975 96.2732 22.7502 96.5096 22.1176 96.4333C21.4843 96.3578 20.7643 96.6226 20.5177 97.0219C20.2703 97.4212 19.7569 97.7485 19.3758 97.7485C18.9947 97.7485 18.8755 97.4365 19.1111 97.0552C19.7402 96.0361 17.0019 96.2115 14.2385 97.3665C12.9172 97.919 11.8244 98.1526 11.8106 97.8864C11.7967 97.6202 11.0706 98.276 10.1975 99.3436C8.7715 101.086 8.16659 101.288 4.30502 101.306L0.00207229 101.327L0.202323 106.99L0.402575 112.653L16.8591 112.839C31.194 113.001 33.3157 112.889 33.3157 111.973C33.3157 111.394 33.6178 110.92 33.9871 110.92C34.3557 110.92 34.4784 111.388 34.2594 111.96C33.931 112.815 34.6176 113 38.1161 113C42.3484 113 46.219 111.485 45.3944 110.151C45.1852 109.812 45.3251 109.534 45.7062 109.534C46.0873 109.534 46.5918 109.846 46.8274 110.227C47.4482 111.232 49.4154 111.078 51.9175 109.83C54.2228 108.679 54.8131 107.454 53.0635 107.454C52.4919 107.454 52.0242 107.17 52.0242 106.822C52.0242 106.145 51.0305 106.231 49.0793 107.077C48.4127 107.366 47.3214 107.37 46.6541 107.086C45.6085 106.641 45.6799 106.497 47.1738 106.041C48.7571 105.558 48.7772 105.507 47.4046 105.444C46.5793 105.405 45.7464 104.985 45.5538 104.508C45.3619 104.031 45.1796 104.533 45.1498 105.622C45.1083 107.132 44.8346 107.503 43.9989 107.182C43.3961 106.95 42.5986 106.761 42.2258 106.761C41.8537 106.761 41.7248 106.475 41.9403 106.126C42.1558 105.778 41.9403 105.322 41.4615 105.114C40.9827 104.906 41.449 104.913 42.4967 105.13C43.949 105.431 44.4022 105.259 44.4022 104.409C44.4022 103.216 46.1379 102.872 46.7941 103.934C47.0117 104.287 48.1896 104.794 49.4112 105.062C50.6328 105.331 52.1468 105.872 52.776 106.265C53.4044 106.658 54.4715 106.768 55.1457 106.508C56.1705 106.115 56.3146 105.441 56.0209 102.413C55.6398 98.4799 55.9419 96.825 56.9279 97.4351C57.2736 97.6486 58.1044 97.5044 58.7745 97.1141C59.7889 96.5228 59.6212 96.4008 57.7684 96.3827L55.5434 96.362L55.5254 83.7101C55.5102 73.7419 55.303 70.9085 54.5457 70.3526C53.4474 69.5456 50.6383 64.5313 50.6383 63.3771C50.6383 62.9535 50.0147 62.0426 49.2525 61.3528C48.4903 60.663 47.8667 59.8623 47.8667 59.5746C47.8667 59.2862 46.5973 56.8092 45.0459 54.0694C43.4938 51.3304 42.3415 48.972 42.4842 48.8292C42.8217 48.4916 58.4197 50.4625 62.2542 51.3276C66.1803 52.2129 71.6321 52.1963 71.0791 51.3006C70.8435 50.9193 69.8901 50.6074 68.9595 50.6074C68.0289 50.6074 67.2681 50.328 67.2681 49.9869C67.2681 49.0053 72.3326 50.4008 73.2313 51.6306C73.8403 52.4639 74.703 52.6226 76.8004 52.2871C79.7813 51.8102 81.5676 53.0365 79.543 54.17C78.9464 54.5041 78.092 55.8879 77.6444 57.2453C76.9439 59.3701 76.9945 59.8324 78.0137 60.5777C79.0988 61.3715 79.0261 61.6141 77.1365 63.5046C73.3886 67.2544 73.6214 69.2745 77.9209 70.304C79.8201 70.7595 79.8964 70.9259 79.5624 73.8909L79.2125 77.0001L82.2148 77.8036C84.6615 78.4587 85.256 78.9357 85.4237 80.3791C85.5941 81.8425 85.9642 82.1274 87.5516 82.0179C88.6083 81.9444 89.2936 82.1753 89.0746 82.5295C88.8557 82.8845 89.1785 82.9815 89.7918 82.7458C90.6447 82.4186 90.8727 82.707 90.7598 83.9673C90.4729 87.1639 90.7826 88.2079 91.8927 87.7823C92.5835 87.5167 93.178 87.9181 93.5813 88.9213L94.2035 90.4693L94.2479 88.888C94.2714 88.018 93.8674 87.1431 93.3485 86.9441C92.5274 86.6287 92.422 85.8211 92.817 82.8782C92.8662 82.5163 93.2799 82.594 93.7372 83.0515C95.0281 84.3431 96.6883 84.0429 98.7296 82.151C100.503 80.5066 100.702 80.472 102.642 81.4751C104.644 82.5115 104.685 82.4969 104.685 80.7818C104.685 79.6872 105.075 79.0307 105.724 79.0307C106.296 79.0307 106.764 78.7187 106.764 78.3374C106.764 77.9561 107.076 77.6442 107.457 77.6442C107.838 77.6442 108.15 78.0372 108.15 78.517C108.15 78.9974 108.773 79.7801 109.535 80.2564C111.213 81.3045 111.307 82.2009 109.798 82.7798C108.935 83.1111 108.76 82.8879 109.041 81.8141C109.312 80.7742 109.068 80.4172 108.085 80.4172C107.28 80.4172 106.764 80.8997 106.764 81.6519C106.764 83.0384 102.43 85.0862 102.031 83.8883C101.67 82.8054 100.528 83.0654 100.528 84.2301C100.528 84.802 100.049 85.2699 99.4641 85.2699C98.6007 85.2699 98.546 85.5424 99.1723 86.714C99.8999 88.0735 100.02 88.0901 101.232 86.9927C101.949 86.3438 102.892 86.0582 103.361 86.3479C103.852 86.6516 104.592 86.3361 105.137 85.5902C105.65 84.8866 106.071 84.5122 106.071 84.7569C106.071 85.0017 107.383 84.6148 108.985 83.8966C110.588 83.1791 112.147 82.7444 112.45 82.9316C112.753 83.1188 113 64.5355 113 41.636V0L77.4885 0.022193C47.8113 0.0402176 42.1759 0.195496 43.1896 0.965005C44.7168 2.12481 44.7535 3.87596 43.2637 4.44859C42.6373 4.68845 42.2992 5.05936 42.5112 5.27219C42.724 5.48432 43.5153 5.32763 44.2698 4.92346C45.2752 4.3855 45.8303 4.4167 46.343 5.04063C47.09 5.9481 47.293 14.889 46.7276 21.9386L46.386 26.1987L43.8354 25.8964C42.4323 25.7293 40.9453 25.8403 40.5316 26.1418C39.5906 26.8275 34.7895 34.0504 33.0648 37.3753C32.3553 38.743 31.4982 39.966 31.1593 40.0928C30.8212 40.2204 30.544 40.9219 30.544 41.6526C30.544 42.3833 30.2322 42.9816 29.8511 42.9816C29.47 42.9816 29.1582 41.7961 29.1582 40.3472C29.1582 38.8983 28.7945 37.3489 28.3496 36.9039C27.7336 36.2876 27.8181 35.4709 28.7044 33.4723C29.7015 31.2247 29.838 28.6944 29.6578 15.7812C29.5192 5.80252 29.6918 0.610052 30.1692 0.411089C30.5662 0.245402 23.9399 0.0845836 15.4456 0.0547738L0 0L0.201626 5.71932ZM34.362 0.704337C34.6017 1.09187 35.0874 1.22983 35.4422 1.01007C36.4033 0.415951 36.2245 0 35.0071 0C34.4132 0 34.1229 0.31681 34.362 0.704337ZM77.4241 8.49233C76.9293 17.0831 76.8032 39.2228 77.2515 38.7645C77.4067 38.6051 77.7102 31.9242 77.9257 23.9172C78.1405 15.9101 78.4905 7.40947 78.7025 5.02607C78.9145 2.64337 78.8147 0.693251 78.4808 0.693251C78.1468 0.693251 77.6714 4.20318 77.4241 8.49233ZM34.2171 5.71932C34.2054 6.19628 33.9573 10.4071 33.6663 15.0782C33.2831 21.235 33.3524 23.5706 33.9199 23.5706C34.4389 23.5706 34.7243 21.4166 34.7701 17.158C34.8082 13.6314 34.9592 9.41921 35.1055 7.79908C35.2523 6.17895 35.1172 4.85276 34.8061 4.85276C34.4943 4.85276 34.2296 5.24306 34.2171 5.71932ZM2.8825 27.441C2.91576 28.2486 3.07998 28.4129 3.30102 27.8604C3.50127 27.3599 3.47631 26.7616 3.24627 26.5314C3.01622 26.3013 2.8527 26.7103 2.8825 27.441ZM40.3279 34.2674C40.1623 40.4755 40.2343 40.8478 41.758 41.672C42.6408 42.1497 44.064 42.6183 44.9219 42.714C46.2737 42.8637 46.4934 42.5476 46.5751 40.3348C46.6347 38.7216 46.7802 38.3562 46.9701 39.342C47.135 40.2003 47.5958 40.9018 47.9935 40.9018C48.4557 40.9018 48.5693 39.5888 48.3081 37.2623C48.0843 35.2609 47.893 33.2144 47.8833 32.7152C47.8743 32.2161 47.5549 32.0005 47.1738 32.2362C46.7705 32.4858 46.4809 31.7946 46.4809 30.5849C46.4809 29.441 46.1691 28.3124 45.788 28.0767C45.4069 27.841 45.0951 28.0171 45.0951 28.467C45.0951 29.068 44.8512 29.0833 44.1777 28.5245C43.5083 27.9685 43.0406 27.9831 42.4454 28.5786C41.8211 29.2032 41.6306 29.1998 41.6306 28.562C41.6306 28.1044 41.377 27.7301 41.0665 27.7301C40.7561 27.7301 40.4235 30.6715 40.3279 34.2674ZM21.9984 29.579C21.2729 30.3048 21.4586 35.2262 22.2292 35.7025C22.656 35.9666 22.9221 34.7853 22.9221 32.6237C22.9221 29.0687 22.8257 28.7512 21.9984 29.579ZM36.9035 34.0996C35.6431 36.0914 35.5905 36.5032 36.4705 37.4765C37.022 38.0858 37.4731 38.9115 37.4731 39.3115C37.4731 39.7115 37.9138 40.4048 38.4522 40.8512C39.283 41.5417 39.3862 40.9594 39.1375 37.0009C38.976 34.4359 38.7307 32.223 38.5915 32.0844C38.4529 31.945 37.6928 32.8525 36.9035 34.0996ZM46.5357 34.3735C46.5689 35.1811 46.7331 35.3454 46.9542 34.7929C47.1544 34.2924 47.1295 33.6941 46.8994 33.4639C46.6694 33.2338 46.5059 33.6428 46.5357 34.3735ZM31.6049 41.7982C31.3083 42.4818 31.2605 43.236 31.4975 43.4738C32.2015 44.1774 32.769 43.1889 32.4447 41.8225C32.1578 40.6114 32.1204 40.6107 31.6049 41.7982ZM7.78757 45.0613C7.78757 46.0146 7.94486 46.4049 8.1368 45.9279C8.32942 45.4516 8.32942 44.6717 8.1368 44.1948C7.94486 43.7185 7.78757 44.1081 7.78757 45.0613ZM20.3916 53.0975C20.5863 57.6716 20.9882 60.0619 21.6797 60.7538C22.5583 61.6328 22.7059 60.794 22.8486 54.1034C23.0066 46.7411 22.9567 46.4478 21.5605 46.4478C20.1678 46.4478 20.1199 46.7189 20.3916 53.0975ZM54.6662 46.9214C55.1658 47.1217 55.7638 47.0967 55.9938 46.8666C56.2239 46.6364 55.8151 46.4728 55.0847 46.5026C54.2775 46.5359 54.1133 46.7002 54.6662 46.9214ZM58.2603 48.1026C58.2603 48.2496 59.1791 48.5054 60.3023 48.6704C61.4255 48.8347 62.187 48.7148 61.9937 48.4021C61.6507 47.8461 58.2603 47.5744 58.2603 48.1026ZM35.0161 52.0077C35.1463 53.9211 35.7526 56.2504 36.3631 57.1822C36.9735 58.1146 37.4731 59.3562 37.4731 59.942C37.4731 61.6425 39.9745 63.7202 41.5322 63.3126C42.6699 63.0152 42.8535 63.2135 42.5424 64.4038C42.3235 65.2405 42.4911 65.8589 42.9353 65.8589C43.6975 65.8589 43.9823 64.9625 43.7613 63.2592C43.6989 62.7829 44.2525 62.3926 44.9905 62.3926C47.004 62.3926 47.2355 60.7725 45.5954 58.1506C43.4771 54.762 41.8315 51.8725 41.0028 50.0874C40.4304 48.8534 39.7043 48.5276 37.5292 48.5276H34.7798L35.0161 52.0077ZM63.4571 49.2209C63.6927 49.6021 64.3343 49.9141 64.8838 49.9141C65.4333 49.9141 65.8823 49.6021 65.8823 49.2209C65.8823 48.8396 65.24 48.5276 64.4556 48.5276C63.6712 48.5276 63.2215 48.8396 63.4571 49.2209ZM63.674 58.7066C64.1736 58.907 64.7716 58.882 65.0016 58.6519C65.2317 58.4217 64.8228 58.2581 64.0925 58.2879C63.2853 58.3212 63.1211 58.4855 63.674 58.7066ZM59.4729 59.3853C59.9496 59.578 60.7292 59.578 61.2052 59.3853C61.6819 59.1933 61.2918 59.0359 60.339 59.0359C59.3863 59.0359 58.9969 59.1933 59.4729 59.3853ZM4.90647 62.046C4.90647 63.9823 5.91743 64.3705 6.5646 62.6824C7.22979 60.9479 7.06418 60.3129 5.94583 60.3129C5.29935 60.3129 4.90647 60.9673 4.90647 62.046ZM9.06391 61.6994C9.06391 63.0505 9.79909 63.506 10.6327 62.6713C11.1884 62.116 10.4615 60.3129 9.68268 60.3129C9.34247 60.3129 9.06391 60.9368 9.06391 61.6994ZM53.5832 60.7905C54.2498 60.9652 55.3418 60.9652 56.0084 60.7905C56.675 60.6165 56.1296 60.4737 54.7958 60.4737C53.4619 60.4737 52.9166 60.6165 53.5832 60.7905ZM80.1943 60.8321C79.3552 62.1902 80.8747 63.1469 82.7428 62.437C83.7593 62.0502 84.5908 61.5794 84.5908 61.3916C84.5908 61.2037 84.1189 61.2308 83.5424 61.4519C82.9659 61.6737 82.0582 61.4928 81.5254 61.0498C80.9925 60.6075 80.3939 60.5097 80.1943 60.8321ZM36.212 63.2592C36.334 64.1175 35.921 65.287 35.2946 65.8589C34.6675 66.4308 33.976 67.6919 33.7584 68.661C33.4044 70.234 33.676 70.5328 36.2834 71.434C39.1804 72.4365 39.2054 72.4739 39.2054 75.8299V79.2151L42.4967 80.1843C45.9474 81.1992 46.2772 81.812 45.0778 84.9697C43.9525 87.9299 44.7604 89.2021 48.0455 89.643C49.6475 89.8579 51.0465 89.9459 51.1539 89.8378C51.5059 89.4856 48.0247 82.5545 45.6626 78.9059C45.0902 78.0213 44.4237 76.5176 44.1811 75.5644C43.9393 74.6112 42.3311 71.6968 40.6071 69.0874C38.8832 66.478 37.4731 63.7486 37.4731 63.0214C37.4731 62.2942 37.1398 61.6994 36.7317 61.6994C36.3243 61.6994 36.0908 62.401 36.212 63.2592ZM45.0708 64.2991C44.8193 66.93 44.7687 67.1116 44.1181 67.7078C43.7515 68.0433 43.6961 67.922 43.9857 67.4187C44.2941 66.8828 44.0717 66.5522 43.4037 66.5522C42.8099 66.5522 42.3276 67.0984 42.3332 67.7653C42.3491 69.8347 43.1466 72.0995 43.7315 71.7377C44.0384 71.5477 44.4895 72.3054 44.7348 73.4209C44.9794 74.5363 45.6286 75.6206 46.1767 75.8313C46.7248 76.0421 47.1738 76.7207 47.1738 77.3398C47.1738 77.9589 47.7974 79.2588 48.5596 80.2279C49.3218 81.1978 49.9454 82.524 49.9454 83.1763C49.9454 84.411 52.0006 86.6564 53.1307 86.6564C54.0717 86.6564 53.9303 72.53 52.9769 71.339C52.548 70.8031 51.6777 69.3411 51.0416 68.0891C50.4062 66.8378 49.5879 65.9982 49.2227 66.2236C48.8583 66.4496 48.5596 65.8353 48.5596 64.8599C48.5596 62.2893 47.3055 62.679 47.0172 65.339L46.7726 67.592L45.9966 65.1657C45.3702 63.2079 45.1914 63.0408 45.0708 64.2991ZM19.0896 68.6666C18.4535 69.6967 18.9593 70.0614 20.0714 69.3744C20.6666 69.0056 20.738 68.6486 20.2724 68.3609C19.8767 68.1161 19.3446 68.2541 19.0896 68.6666ZM13.9143 70.0184C13.1278 70.5266 13.4653 70.7096 15.3001 70.7699C17.4668 70.8413 17.5409 70.9023 15.993 71.3398L14.2607 71.8299L15.8821 72.2617C17.1813 72.6084 17.4155 73.0133 17.0614 74.3027C16.6436 75.823 16.6658 75.8355 17.4599 74.5245C17.922 73.762 18.6385 72.8746 19.0522 72.5529C19.504 72.2008 19.3092 72.1273 18.5637 72.3685C17.8029 72.614 17.3656 72.4386 17.4329 71.9138C17.7675 69.3099 16.2632 68.4995 13.9143 70.0184ZM7.6781 71.2725C5.58206 71.816 3.00929 72.302 1.96162 72.3526C0.91394 72.4032 0.168378 72.7568 0.304881 73.138C0.441384 73.5193 1.68862 73.7626 3.07651 73.6788C4.4644 73.5949 5.59938 73.8285 5.59938 74.1987C5.59938 74.5682 4.81986 74.8712 3.86711 74.8712C2.91436 74.8712 2.13484 75.1894 2.13484 75.5776C2.13484 76.0012 2.89773 76.094 4.04034 75.8091C5.68253 75.4001 5.82665 75.4791 5.08594 76.3797C4.61268 76.9544 4.43044 77.6303 4.68127 77.8813C5.45317 78.6535 6.29229 78.3873 6.29229 77.3703C6.29229 76.8386 7.06626 75.6684 8.01278 74.7706C8.95859 73.8729 9.73811 72.7484 9.74504 72.2715C9.75128 71.7952 10.2245 71.4049 10.7962 71.4049C12.3421 71.4049 12.0573 72.4309 10.1033 73.8985C8.35091 75.215 7.77234 76.9509 9.0854 76.9509C9.47897 76.9509 9.98894 76.4601 10.219 75.8597C10.5072 75.1082 11.1482 74.8961 12.2762 75.1797C13.1957 75.4105 13.9143 75.2809 13.9143 74.8843C13.9143 74.4961 13.4466 74.1779 12.8749 74.1779C11.5438 74.1779 11.5487 73.5006 12.8867 72.521C13.8131 71.843 13.7923 71.6649 12.7135 71.0188C11.8286 70.4891 10.4317 70.5591 7.6781 71.2725ZM28.4168 72.5287C27.9803 73.6261 27.322 75.1034 26.9534 75.8112C26.4448 76.7866 26.6159 77.4084 27.6608 78.3818C29.0238 79.6525 29.0404 79.622 29.2989 75.362C29.6072 70.2812 29.477 69.8617 28.4168 72.5287ZM31.9846 71.8091C32.0179 72.6167 32.1821 72.781 32.4031 72.2285C32.6034 71.728 32.5784 71.1297 32.3484 70.8995C32.1183 70.6694 31.9548 71.0784 31.9846 71.8091ZM22.0635 74.0552C22.3795 76.2126 23.1535 76.8726 23.9171 75.6365C24.1277 75.2948 23.7244 74.3041 23.0205 73.4341L21.74 71.852L22.0635 74.0552ZM18.7646 76.2577C18.7646 77.0203 19.0764 77.6442 19.4575 77.6442C19.8386 77.6442 20.1504 77.0203 20.1504 76.2577C20.1504 75.4951 19.8386 74.8712 19.4575 74.8712C19.0764 74.8712 18.7646 75.4951 18.7646 76.2577ZM14.6072 76.9724C14.6072 77.7239 15.0749 78.3374 15.6465 78.3374C16.2182 78.3374 16.6859 77.9028 16.6859 77.3717C16.6859 76.8407 16.2182 76.2265 15.6465 76.0067C14.9398 75.7357 14.6072 76.0442 14.6072 76.9724ZM11.1426 77.9908C11.1426 79.0244 11.4413 79.6213 11.8355 79.3773C12.2166 79.1416 12.5285 78.5177 12.5285 77.9908C12.5285 77.4639 12.2166 76.84 11.8355 76.6043C11.4413 76.3603 11.1426 76.9572 11.1426 77.9908ZM0.226578 80.1122C0.0242489 82.9475 1.04074 85.2699 2.48407 85.2699C3.11392 85.2699 3.3197 85.6796 3.04739 86.3895C2.70579 87.2804 2.92337 87.4128 4.10893 87.0363C5.20165 86.689 5.59938 86.8533 5.59938 87.6499C5.59938 88.2474 5.92574 88.7362 6.32555 88.7362C6.72466 88.7362 7.82431 89.5702 8.76874 90.59C10.0832 92.009 10.6763 92.2531 11.2992 91.6298C11.9159 91.0128 11.9173 90.816 11.3041 90.816C10.3312 90.816 5.59938 86.1961 5.59938 85.2471C5.59938 84.8782 5.13167 84.5767 4.56002 84.5767C3.98837 84.5767 3.52066 84.1448 3.52066 83.6179C3.52066 83.0904 2.87001 82.4886 2.07456 82.2806C1.16685 82.0429 0.715765 81.4536 0.861968 80.6973C1.20634 78.9218 2.82775 78.6431 2.82775 80.3596C2.82775 81.1811 3.27606 81.8037 3.86711 81.8037C4.4443 81.8037 4.90647 81.1874 4.90647 80.4172C4.90647 79.647 4.4443 79.0307 3.86711 79.0307C3.29546 79.0307 2.82775 78.7187 2.82775 78.3374C2.82775 77.9561 2.28174 77.6449 1.61516 77.6456C0.720619 77.6463 0.356151 78.2944 0.226578 80.1122ZM7.40718 78.7367C6.82167 80.264 7.46469 80.908 8.52138 79.8508C9.10203 79.2698 9.12559 78.8151 8.60175 78.291C8.07722 77.7662 7.72938 77.8965 7.40718 78.7367ZM17.1481 78.7998C16.3505 79.5971 16.6429 80.4172 17.7253 80.4172C18.2969 80.4172 18.7646 80.8851 18.7646 81.4571C18.7646 82.621 19.8469 82.8554 20.4809 81.8287C20.7082 81.4619 20.2592 80.526 19.4825 79.7489C17.9179 78.1835 17.8084 78.1392 17.1481 78.7998ZM13.2214 80.4172C13.2214 81.1798 13.5332 81.8037 13.9143 81.8037C14.2954 81.8037 14.6072 81.1798 14.6072 80.4172C14.6072 79.6546 14.2954 79.0307 13.9143 79.0307C13.5332 79.0307 13.2214 79.6546 13.2214 80.4172ZM9.42631 81.0855C8.97246 81.8196 11.4226 84.5767 12.5285 84.5767C12.9095 84.5767 13.2214 85.1909 13.2214 85.9417C13.2214 86.8124 13.565 87.1743 14.1713 86.9414C14.6938 86.741 15.3153 87.0821 15.5523 87.7005C15.7893 88.3182 16.2972 88.6301 16.6811 88.3923C17.0649 88.1552 17.3788 88.4291 17.3788 89.001C17.3788 91.0128 18.581 90.7515 19.8081 88.472C21.0207 86.219 21.0159 86.1358 19.585 84.7042C17.7246 82.8428 16.9506 83.9715 18.4833 86.3119C20.2149 88.956 19.1007 89.2422 16.7746 86.7514C15.6576 85.5555 14.4014 84.5767 13.9829 84.5767C13.5637 84.5767 13.2214 84.0755 13.2214 83.4626C13.2214 82.7569 12.8403 82.4949 12.182 82.7479C11.4752 83.019 11.1426 82.7105 11.1426 81.7822C11.1426 80.352 10.1324 79.9416 9.42631 81.0855ZM26.3866 81.8037C26.3866 82.5663 26.7171 83.1902 27.1204 83.1902C27.5236 83.1902 27.6615 82.8782 27.426 82.4969C27.1904 82.1156 27.3283 81.8037 27.7315 81.8037C28.1348 81.8037 28.4653 81.4917 28.4653 81.1104C28.4653 80.7291 27.9976 80.4172 27.426 80.4172C26.8488 80.4172 26.3866 81.0335 26.3866 81.8037ZM5.334 82.1891C4.73463 83.7517 4.77898 83.8834 5.90496 83.8834C7.36491 83.8834 7.80836 82.7749 6.71218 81.8647C5.97978 81.2567 5.66313 81.3316 5.334 82.1891ZM15.668 82.0068C15.3715 82.6903 15.3236 83.4446 15.5606 83.6824C16.2646 84.386 16.8321 83.3975 16.5078 82.0311C16.221 80.82 16.1835 80.8192 15.668 82.0068ZM21.2113 82.7C20.9147 83.3836 20.8669 84.1378 21.1039 84.3756C21.8079 85.0793 22.3754 84.0907 22.0511 82.7243C21.7642 81.5132 21.7268 81.5125 21.2113 82.7ZM7.6781 85.3545C7.6781 86.5844 7.84925 86.6842 8.71746 85.9632C9.28911 85.4883 9.75682 84.8263 9.75682 84.4921C9.75682 84.1573 9.28911 83.8834 8.71746 83.8834C8.12018 83.8834 7.6781 84.5088 7.6781 85.3545ZM9.75682 86.4914C9.75682 88.1233 12.1571 90.434 13.1888 89.7962C14.2552 89.1369 13.2837 87.871 12.0691 88.3369C11.3429 88.6156 11.1184 88.305 11.2729 87.2353C11.3921 86.4159 11.0997 85.6124 10.623 85.4502C10.1275 85.281 9.75682 85.7261 9.75682 86.4914ZM26.1836 86.6488C26.3817 87.4072 26.8204 87.8565 27.1585 87.6478C28.1369 87.0426 27.8687 85.2699 26.7982 85.2699C26.1662 85.2699 25.9501 85.7552 26.1836 86.6488ZM0.0665248 87.523C0.0755326 88.784 0.205789 88.8839 0.749028 88.0429C1.61724 86.6987 1.61724 85.9632 0.749028 85.9632C0.367929 85.9632 0.0609816 86.6648 0.0665248 87.523ZM112.307 87.7372C112.307 88.3861 111.983 88.6176 111.496 88.3168C110.964 87.9875 110.827 88.183 111.097 88.8887C111.411 89.706 110.878 90.0631 108.865 90.3854C107.412 90.6177 106.042 91.2776 105.822 91.8516C105.602 92.4257 104.779 92.8957 103.992 92.8957C103.206 92.8957 102.383 93.3637 102.164 93.9356C101.945 94.5075 101.041 94.9755 100.156 94.9755C99.2721 94.9755 98.0672 95.4566 97.4796 96.0445C96.892 96.6323 95.4604 97.4448 94.2977 97.8504C93.135 98.2559 91.867 99.1786 91.4811 99.901C91.0944 100.623 90.1154 101.215 89.3047 101.215C87.9355 101.215 82.8253 103.798 80.4334 105.699C79.8617 106.154 77.9133 107.073 76.1027 107.74C74.2921 108.409 72.8114 109.191 72.8114 109.48C72.8114 109.768 72.0319 110.36 71.0791 110.794C69.0108 111.737 68.8001 113 70.7112 113C72.1878 113 77.4268 110.475 78.0525 109.462C78.2639 109.12 79.1279 108.84 79.974 108.84C80.8193 108.84 82.1261 108.41 82.8772 107.884C85.4112 106.113 89.4772 103.988 90.335 103.988C90.8034 103.988 91.5275 103.441 91.9446 102.775C92.3618 102.108 93.918 101.134 95.4029 100.612C96.8878 100.089 99.1911 98.841 100.522 97.8386C101.853 96.8355 104.136 95.4746 105.594 94.8146C107.053 94.154 109.071 92.9643 110.079 92.1712C111.817 90.8034 111.938 90.7938 112.408 91.9855C112.719 92.7758 112.921 92.0208 112.951 89.9494C112.978 88.1379 112.844 86.6564 112.654 86.6564C112.463 86.6564 112.307 87.1431 112.307 87.7372ZM20.95 88.3466C21.0824 88.9823 21.5016 89.4863 21.8827 89.4662C22.911 89.4114 22.7225 87.8606 21.6429 87.5008C21.0602 87.3067 20.8011 87.6235 20.95 88.3466ZM1.57496 88.7882C1.71147 89.1979 2.1196 89.5334 2.4813 89.5334C2.84299 89.5334 3.25113 89.1979 3.38763 88.7882C3.52413 88.3785 3.11669 88.0429 2.4813 88.0429C1.8459 88.0429 1.43846 88.3785 1.57496 88.7882ZM14.3764 89.8918C14.1221 90.1456 13.9143 90.6759 13.9143 91.0704C13.9143 91.5044 14.2372 91.4634 14.734 90.9664C15.1851 90.5151 15.3929 89.9847 15.1961 89.7878C14.9994 89.591 14.63 89.6374 14.3764 89.8918ZM3.93431 90.7078C3.69457 91.096 3.83592 91.6222 4.2482 91.8773C5.31389 92.5359 6.00126 91.634 5.11157 90.7439C4.61406 90.2461 4.22672 90.2343 3.93431 90.7078ZM0.110868 92.6066C0.144127 93.4143 0.308349 93.5786 0.529386 93.026C0.729637 92.5255 0.704685 91.9272 0.47464 91.6971C0.244595 91.4669 0.0810727 91.8759 0.110868 92.6066ZM52.0463 94.8867C52.0269 97.5038 52.1662 97.8005 53.0635 97.0552C54.3724 95.9682 54.3787 94.9117 53.0857 93.2014C52.1406 91.9515 52.0664 92.0714 52.0463 94.8867ZM1.7579 93.6382C1.49806 94.059 1.59091 94.7086 1.96439 95.0822C2.40785 95.5259 2.78549 95.3928 3.05226 94.6975C3.5366 93.4337 2.43902 92.5352 1.7579 93.6382ZM5.59938 93.589C5.59938 93.9703 5.91119 94.2822 6.29229 94.2822C6.67338 94.2822 6.98519 93.9703 6.98519 93.589C6.98519 93.2077 6.67338 92.8957 6.29229 92.8957C5.91119 92.8957 5.59938 93.2077 5.59938 93.589ZM0.0561211 96.362C0.0561211 96.7433 0.386631 97.0552 0.789903 97.0552C1.19318 97.0552 1.33107 96.7433 1.09548 96.362C0.859893 95.9807 0.530076 95.6687 0.3617 95.6687C0.193323 95.6687 0.0561211 95.9807 0.0561211 96.362ZM28.4653 96.2878C28.4653 96.6282 28.933 97.0864 29.5047 97.3062C30.138 97.5488 30.544 97.3069 30.544 96.6871C30.544 96.127 30.0763 95.6687 29.5047 95.6687C28.933 95.6687 28.4653 95.9474 28.4653 96.2878ZM14.9834 98.3939C14.7638 98.7488 14.9017 99.2348 15.289 99.4747C16.1156 99.9856 17.3788 99.3367 17.3788 98.4008C17.3788 97.5571 15.5031 97.5516 14.9834 98.3939ZM34.0086 98.1443C34.0086 98.3627 34.4908 99.0234 35.0812 99.6133C36.4157 100.949 37.2992 100.249 36.1011 98.805C35.2364 97.7623 34.0086 97.3748 34.0086 98.1443ZM67.0117 98.5436C66.0271 99.1162 65.9287 99.4289 66.6022 99.8449C67.7767 100.571 69.3468 99.9246 69.3468 98.7142C69.3468 97.5675 68.7648 97.5252 67.0117 98.5436ZM37.954 99.6112C37.76 99.9253 38.2173 100.944 38.9712 101.875C40.0355 103.189 40.4692 103.36 40.9162 102.637C41.2321 102.125 41.9902 101.898 42.5999 102.132C44.4784 102.853 43.8139 101.617 41.7982 100.641C38.6143 99.0996 38.3185 99.0199 37.954 99.6112ZM112.362 100.926C112.395 101.733 112.559 101.898 112.78 101.345C112.981 100.845 112.956 100.246 112.726 100.016C112.496 99.7859 112.332 100.195 112.362 100.926ZM4.21356 103.294C4.21356 103.676 4.91479 103.983 5.77261 103.977C7.033 103.968 7.13278 103.838 6.29229 103.294C4.94874 102.426 4.21356 102.426 4.21356 103.294ZM28.5201 104.392C28.5533 105.2 28.7175 105.364 28.9386 104.811C29.1388 104.311 29.1139 103.713 28.8838 103.482C28.6538 103.252 28.4903 103.661 28.5201 104.392ZM33.7577 104.334C33.5388 104.906 33.6614 105.374 34.0301 105.374C34.3994 105.374 34.7015 104.906 34.7015 104.334C34.7015 103.762 34.5788 103.294 34.4292 103.294C34.2795 103.294 33.9774 103.762 33.7577 104.334ZM9.4173 106.079C9.65705 106.466 10.1428 106.604 10.4975 106.384C11.4586 105.79 11.2798 105.374 10.0624 105.374C9.46858 105.374 9.17825 105.691 9.4173 106.079ZM30.8905 106.761C30.6549 107.142 30.9487 107.454 31.5425 107.454C32.1363 107.454 32.6228 107.142 32.6228 106.761C32.6228 106.379 32.3297 106.067 31.9707 106.067C31.6118 106.067 31.1261 106.379 30.8905 106.761ZM9.06391 108.84C9.06391 109.222 9.37572 109.534 9.75682 109.534C10.1379 109.534 10.4497 109.222 10.4497 108.84C10.4497 108.459 10.1379 108.147 9.75682 108.147C9.37572 108.147 9.06391 108.459 9.06391 108.84ZM49.2525 109.534C49.2525 109.915 49.5643 110.227 49.9454 110.227C50.3265 110.227 50.6383 109.915 50.6383 109.534C50.6383 109.152 50.3265 108.84 49.9454 108.84C49.5643 108.84 49.2525 109.152 49.2525 109.534ZM101.047 112.766C101.524 112.958 102.304 112.958 102.78 112.766C103.256 112.574 102.866 112.416 101.913 112.416C100.961 112.416 100.571 112.574 101.047 112.766ZM107.284 112.796C108.141 112.961 109.544 112.961 110.402 112.796C111.259 112.63 110.557 112.495 108.843 112.495C107.128 112.495 106.426 112.63 107.284 112.796Z" fill="#8F8D8D"/>
</g>
<defs>
<clipPath id="clip0_922_6901">
<rect width="113" height="113" fill="white"/>
</clipPath>
</defs>
</svg>
