<svg width="113" height="113" viewBox="0 0 113 113" fill="none" xmlns="http://www.w3.org/2000/svg">
<g clip-path="url(#clip0_922_6894)">
<path fill-rule="evenodd" clip-rule="evenodd" d="M0 56.8712V113.742L25.477 113.902C49.9675 114.056 85.6242 114.025 104.161 113.834L113 113.742V81.9511C113 60.1551 112.774 50.3007 112.28 50.6077C111.629 51.0124 108.302 50.4403 102.072 48.8507C99.3748 48.1626 98.4202 49.3517 98.9353 52.7591C99.1731 54.3319 98.9526 55.0479 98.1332 55.3647C97.5086 55.6054 96.8667 55.4156 96.6989 54.9404C95.9446 52.8023 95.9848 46.476 96.7966 39.4261C97.9239 29.6435 98.7516 0 97.8982 0C97.5502 0 97.0552 3.84631 96.7973 8.54813C95.5515 31.2603 94.4021 35.0592 94.7924 15.1773L95.0899 0H47.5453H0V56.8712ZM102.601 0.697807C102.601 1.0816 103.244 1.39561 104.029 1.39561C104.813 1.39561 105.263 1.0816 105.028 0.697807C104.792 0.314013 104.15 0 103.6 0C103.05 0 102.601 0.314013 102.601 0.697807ZM106.067 0.620355C106.067 0.999962 107.487 1.52401 109.222 1.78638C111.547 2.13738 112.321 2.5463 112.168 3.3418C112 4.21685 111.006 4.3906 106.934 4.25732L101.908 4.09333L101.792 6.93131C101.729 8.4923 101.651 10.2592 101.619 10.8572C101.573 11.7218 102.49 11.9792 106.076 12.109C111.24 12.2967 112.307 12.7566 112.307 14.7921C112.307 16.1479 112.025 16.2177 108.003 15.8507C105.019 15.5778 103.425 15.0796 102.804 14.2248C101.969 13.0762 101.901 13.0964 101.804 14.5207C101.746 15.3615 101.669 16.4424 101.631 16.9218C101.593 17.4019 101.249 18.0592 100.868 18.383C100.485 18.7082 100.796 18.727 101.561 18.4249C102.94 17.8806 104.741 17.8464 109.705 18.27C111.914 18.4584 112.303 18.7396 112.305 20.1485C112.307 21.7534 112.184 21.7904 108.321 21.3403C101.12 20.5016 100.92 20.5141 100.663 21.8065C100.505 22.6013 100.861 23.0451 101.684 23.0765C102.829 23.1211 102.818 23.1867 101.561 23.7722C100.57 24.2341 100.998 24.3053 103.064 24.0206C104.652 23.8015 107.382 23.8385 109.13 24.1022C111.887 24.5181 112.307 24.8028 112.307 26.2529C112.307 27.8704 112.178 27.9109 108.321 27.5117C106.128 27.2849 103.476 26.8272 102.428 26.495C100.671 25.9389 100.521 26.0387 100.523 27.7741C100.524 29.5961 100.655 29.6589 104.585 29.7307C110.316 29.8354 112.307 30.4495 112.307 32.1124C112.307 33.7606 112.574 33.7438 106.076 32.4969C103.221 31.9484 100.846 31.5562 100.797 31.6253C100.749 31.6937 100.54 33.7131 100.334 36.1115L99.9599 40.4728L102.147 40.5419C105.777 40.6577 110.52 41.1434 111.44 41.4944C111.917 41.6758 112.307 42.4874 112.307 43.2975C112.307 44.7001 112.082 44.7468 107.627 44.2737C105.054 44.0009 102.277 43.5243 101.457 43.2159C99.7367 42.5669 98.9866 44.0951 99.8871 46.4153C100.182 47.1766 100.446 47.4557 100.473 47.0356C100.504 46.5423 102.133 46.3455 105.073 46.4802C110.66 46.7356 112.128 47.1731 112.529 48.7048C112.699 49.3586 112.875 38.7234 112.92 25.0715L113 0.249113L109.534 0.0900155C107.606 0.00139408 106.067 0.23726 106.067 0.620355ZM102.79 7.49025C102.26 8.87889 103.481 9.51459 107.626 10.0086C111.608 10.4831 112.307 10.2333 112.307 8.3325C112.307 7.21811 111.784 6.96201 109.36 6.88874C107.74 6.8399 105.686 6.72477 104.797 6.63265C103.891 6.53845 103.009 6.91526 102.79 7.49025ZM76.2577 30.6184C76.2577 31.4327 76.5509 32.0991 76.91 32.0991C78.1107 32.0991 78.3333 30.871 77.2899 29.9994C76.431 29.2814 76.2577 29.3853 76.2577 30.6184ZM94.443 35.5881C94.443 36.9314 94.5859 37.4813 94.7599 36.8093C94.9346 36.1373 94.9346 35.039 94.7599 34.367C94.5859 33.695 94.443 34.2449 94.443 35.5881ZM102.948 35.399C100.528 37.2775 103.622 38.9425 109.707 39.0367C111.823 39.0695 112.307 38.8273 112.307 37.7367C112.307 36.8323 111.687 36.2734 110.4 36.0166C105.667 35.0718 103.591 34.8994 102.948 35.399ZM78.8574 91.5236C77.7003 92.7489 77.7045 92.8083 78.9565 92.8083C79.6782 92.8083 80.4449 92.347 80.6591 91.7839C81.2525 90.2278 80.2217 90.0784 78.8574 91.5236ZM83.245 91.8195C83.2782 92.6324 83.4425 92.7978 83.6637 92.2416C83.864 91.7378 83.8391 91.1356 83.6089 90.9039C83.3788 90.6723 83.2151 91.084 83.245 91.8195Z" fill="#8F8D8D"/>
</g>
<defs>
<clipPath id="clip0_922_6894">
<rect width="113" height="113" fill="white"/>
</clipPath>
</defs>
</svg>
