<svg width="113" height="113" viewBox="0 0 113 113" fill="none" xmlns="http://www.w3.org/2000/svg">
<g clip-path="url(#clip0_922_6908)">
<path fill-rule="evenodd" clip-rule="evenodd" d="M69.1796 1.63383C68.8323 2.53309 68.423 6.30943 68.2699 10.026C68.0786 14.6523 67.6947 16.9644 67.0525 17.3556C66.0898 17.9415 63.5061 17.3216 59.4093 15.523C58.1333 14.9622 56.3866 14.6384 55.5277 14.8017C54.1797 15.0588 54.2234 15.1123 55.8481 15.1943C56.8827 15.2465 57.8354 15.523 57.9653 15.8101C58.2772 16.5015 63.2817 18.7636 64.5005 18.7636C66.7088 18.7636 66.1406 20.9061 63.18 23.7429C60.4926 26.3183 60.1905 26.9014 60.7692 28.4011C61.7029 30.8188 60.9294 31.0718 53.0463 30.9259C49.2825 30.8564 45.6367 31.0788 44.9443 31.4207C43.0918 32.3345 39.2511 30.7278 38.2391 28.6159C37.4889 27.0515 37.6074 26.4866 39.1707 24.1613C40.1552 22.6956 40.8701 20.9603 40.7586 20.3043C40.604 19.3904 41.2046 19.0298 43.3247 18.7636C46.1985 18.4029 46.9409 17.66 45.9564 16.1304C45.5358 15.4772 44.895 15.4167 43.5886 15.906C42.415 16.3452 40.7981 16.3264 38.8997 15.8524C36.3752 15.2214 35.9454 14.826 35.5544 12.7759C35.0315 10.0288 32.5748 9.42209 31.9227 11.878C31.5797 13.1692 31.1901 13.2812 28.4455 12.876C26.1427 12.5362 24.3261 12.7988 21.3196 13.9066C16.3349 15.7426 15.5029 16.4028 15.5029 18.5231C15.5029 20.4836 13.8091 21.3648 12.3433 20.1667C11.5246 19.4974 10.9 19.6218 9.24364 20.7838C6.62745 22.6178 6.4856 22.6088 4.4707 20.4676L2.80445 18.6969L2.97806 20.2939C3.08463 21.2675 2.80797 21.8227 2.2702 21.7171C1.59692 21.5844 1.38802 23.9208 1.38802 31.5763V41.6093L3.76849 41.2292C6.34657 40.8171 7.91896 42.0214 5.70575 42.7136C4.96402 42.945 4.08608 43.0868 3.75508 43.0284C1.72678 42.6705 1.35838 43.3404 3.15238 44.1236L5.2696 45.0472L3.40573 45.5135C1.62444 45.959 1.53834 46.1939 1.46635 50.8187L1.39155 55.6584L4.03668 55.2143C5.49121 54.9704 7.5414 54.1746 8.59366 53.4463C9.64522 52.7173 11.6142 52.1211 12.9693 52.1211C14.3243 52.1211 15.6864 51.6979 15.9969 51.1801C16.8819 49.7047 19.4205 48.6463 22.0748 48.6463C23.4114 48.6463 24.8998 48.1772 25.3833 47.6039C25.8667 47.0306 27.0961 46.5566 28.1159 46.5511C30.2974 46.5386 32.049 45.5796 32.1831 44.3259C32.2353 43.8352 32.3144 43.1187 32.3595 42.7323C32.404 42.3466 33.4732 42.0339 34.7344 42.0374C36.4881 42.0429 37.0047 41.758 36.9299 40.8282C36.8481 39.8087 37.4465 39.612 40.6351 39.612C43.2054 39.612 44.4397 39.3306 44.4419 38.7433C44.4447 38.1227 46.2563 37.8385 50.7935 37.7488C55.8897 37.6474 57.1417 37.819 57.1417 38.6175C57.1417 39.5321 58.5948 39.9936 60.3175 39.6259C60.7057 39.5432 61.7947 39.334 62.7382 39.1603C63.6811 38.9865 64.6776 38.7079 64.9515 38.5411C65.226 38.3743 65.6156 38.8594 65.8174 39.6197C66.0192 40.3799 66.6904 41.0019 67.3086 41.0019C68.8951 41.0019 68.706 42.1993 66.9762 43.1111C65.7779 43.7428 65.6748 44.0631 66.3982 44.9207C66.881 45.494 67.8485 45.8158 68.5472 45.6358C69.603 45.3641 69.9643 46.0041 70.6786 49.4101C71.1521 51.6652 71.807 53.511 72.1345 53.511C72.462 53.511 72.6363 52.9668 72.5227 52.3018C72.3349 51.2072 72.98 51.1155 79.3373 51.333C83.1999 51.4658 87.0109 51.8195 87.8062 52.1204C89.1775 52.6381 89.1612 52.6861 87.4886 53.0433C86.5182 53.2511 84.5189 53.5805 83.046 53.7751C81.4327 53.9877 79.8532 54.7549 79.0727 55.7042C78.338 56.5972 76.8997 57.329 75.7514 57.3936C73.7055 57.5083 73.5869 57.7411 74.4557 59.9392C74.8784 61.0088 74.4366 61.1644 70.8028 61.2284L66.6692 61.302L72.3152 62.2645C75.5362 62.8142 86.2211 63.4209 97.1926 63.6774L116.424 64.127V58.5222C116.424 53.7695 116.236 52.8696 115.189 52.5999C114.013 52.2976 114.013 52.2782 115.189 52.2017C117.275 52.0655 116.747 49.0404 114.483 48.1592L112.543 47.4045L114.483 47.3301C116.063 47.2704 116.424 46.9333 116.424 45.5191C116.424 43.8727 116.211 43.7789 112.366 43.7331C109.446 43.6976 108.704 43.5162 109.72 43.0868C110.496 42.758 112.322 42.4676 113.778 42.4405L116.424 42.3918V33.01C116.424 25.0487 116.26 23.6282 115.344 23.6282C114.749 23.6282 114.082 23.1654 113.862 22.599C113.376 21.353 110.072 21.4732 110.072 22.7373C110.072 23.2272 109.755 23.6282 109.367 23.6282C108.43 23.6282 108.473 22.5156 109.47 20.9437C110.568 19.2125 109.636 15.9233 107.923 15.4821C106.532 15.1235 105.94 12.5091 107.249 12.5091C108.688 12.5091 107.887 11.4291 105.761 10.502C103.9 9.69105 103.475 9.69036 102.967 10.5C102.493 11.2554 102.186 11.2762 101.501 10.6014C100.816 9.92664 100.942 9.41863 102.107 8.17467C102.917 7.30946 103.709 5.97655 103.869 5.21211C104.028 4.44767 104.536 3.90074 104.997 3.99595C105.46 4.09185 105.838 3.81873 105.838 3.38995C105.838 2.85067 106.165 2.87708 106.897 3.47474C107.479 3.95078 107.955 4.61168 107.955 4.94387C107.955 5.8063 112.248 9.73134 113.176 9.71883C113.604 9.71258 113.478 9.39431 112.895 9.01069C111.959 8.39358 111.964 8.21429 112.939 7.4575C113.545 6.98702 114.267 6.01271 114.541 5.29274C114.986 4.12801 114.771 4.02655 112.598 4.37333C110.748 4.66937 110.243 4.54078 110.515 3.84236C110.713 3.33505 110.549 2.72209 110.151 2.48025C109.753 2.23841 109.607 1.58102 109.826 1.0202C110.17 0.137612 107.492 0 90.0166 0H69.8098L69.1796 1.63383ZM114.307 0.610158C114.307 0.945122 114.783 1.6088 115.365 2.08484C116.25 2.80759 116.424 2.70752 116.424 1.47469C116.424 0.626849 115.974 0 115.365 0C114.783 0 114.307 0.274498 114.307 0.610158ZM94.5461 5.21211C94.5461 5.78544 94.2052 6.25453 93.7888 6.25453C93.3717 6.25453 93.1381 6.80215 93.2687 7.47069C93.3999 8.13923 93.9787 8.68685 94.556 8.68685C95.1325 8.68685 95.5412 8.34216 95.4628 7.92102C95.3789 7.46514 96.0204 7.28723 97.0508 7.48112C98.945 7.83763 99.4298 6.47692 97.9336 5.00363C96.7416 3.82987 94.5461 3.96537 94.5461 5.21211ZM110.425 10.4242C110.185 10.8064 110.326 11.1192 110.737 11.1192C111.147 11.1192 111.484 10.8064 111.484 10.4242C111.484 10.042 111.344 9.72927 111.173 9.72927C111.001 9.72927 110.665 10.042 110.425 10.4242ZM100.545 15.9838C100.785 16.366 101.28 16.6787 101.645 16.6787C102.011 16.6787 102.309 16.366 102.309 15.9838C102.309 15.6016 101.814 15.2888 101.209 15.2888C100.604 15.2888 100.305 15.6016 100.545 15.9838ZM105.188 20.5586C105.222 21.3683 105.389 21.5329 105.614 20.9791C105.818 20.4773 105.793 19.8776 105.558 19.6469C105.324 19.4161 105.158 19.8262 105.188 20.5586ZM13.8564 23.3968C13.5974 23.6511 13.3856 24.1828 13.3856 24.5782C13.3856 25.0133 13.7145 24.9722 14.2205 24.474C14.68 24.0215 14.8917 23.4899 14.6913 23.2926C14.4908 23.0945 14.1147 23.1418 13.8564 23.3968ZM71.9623 27.103C71.9623 27.4852 72.2989 27.7979 72.7097 27.7979C73.1204 27.7979 73.2609 27.4852 73.0209 27.103C72.781 26.7207 72.445 26.408 72.2735 26.408C72.1021 26.408 71.9623 26.7207 71.9623 27.103ZM85.4229 35.1887C84.521 36.3166 83.9599 38.0408 83.9599 39.6801V42.3411L80.7333 42.2772C77.3746 42.2111 75.6802 43.0909 76.5369 44.4565C76.8538 44.9617 77.851 45.075 79.2632 44.7672C80.4877 44.4996 83.0876 44.2244 85.0404 44.1549C88.6397 44.027 91.7231 42.3404 91.7231 40.5002C91.7231 39.4584 91.0625 39.3855 89.644 40.2694C87.9812 41.3049 86.0772 39.8282 86.0772 37.5029C86.0772 36.2047 86.4413 35.4423 87.0603 35.4423C87.6009 35.4423 88.2261 34.9732 88.4499 34.3999C89.1288 32.6577 87.0017 33.2123 85.4229 35.1887ZM93.491 34.7418C93.2532 35.1213 93.4169 35.9809 93.8551 36.6529C94.5863 37.7732 94.6216 37.7753 94.2758 36.6766C94.0549 35.974 94.3971 35.1929 95.105 34.787C96.2293 34.1414 96.23 34.0935 95.117 34.0733C94.4607 34.0622 93.7288 34.3624 93.491 34.7418ZM58.947 36.6759C58.0606 37.5487 58.6569 38.2221 60.3175 38.2221C61.2879 38.2221 62.0819 37.9455 62.0819 37.6085C62.0819 36.8802 59.5144 36.1171 58.947 36.6759ZM99.542 37.3777C99.4947 38.728 99.2816 38.858 98.1214 38.2464C96.091 37.1769 95.0351 37.3583 95.5532 38.6877C95.8023 39.3278 95.599 40.1027 95.0994 40.4147C94.5023 40.7879 94.8404 40.9845 96.0924 40.9915C97.1369 40.997 98.1884 40.6885 98.4291 40.3049C98.7177 39.8455 99.3578 39.8671 100.311 40.3695C101.355 40.9199 101.968 40.9206 102.526 40.3716C103.084 39.8219 102.981 39.612 102.156 39.612C101.529 39.612 100.697 38.7524 100.306 37.7009C99.6528 35.9378 99.5936 35.9128 99.542 37.3777ZM105.132 38.0831C105.132 39.1735 106.853 40.307 108.508 40.307C109.547 40.307 110.072 39.9755 109.882 39.4383C109.712 38.9609 109.074 38.6558 108.465 38.7621C107.855 38.8677 107.154 38.6328 106.908 38.2409C106.379 37.3965 105.132 37.286 105.132 38.0831ZM23.6867 39.1874C24.1496 40.3751 22.2025 40.7073 16.9447 40.3376C14.7788 40.1847 14.6101 40.2903 15.4429 41.2785C16.6102 42.6628 20.8637 42.7018 23.266 41.3494C24.2364 40.8032 26.2217 40.3452 27.6769 40.3313C29.1329 40.3181 30.3235 40.0491 30.3235 39.7336C30.3235 39.4181 29.291 39.1665 28.0298 39.1749C26.7687 39.1825 25.1765 38.9365 24.4933 38.628C23.5258 38.1915 23.3465 38.3152 23.6867 39.1874ZM111.131 38.9171C110.891 39.2993 111.286 39.612 112.007 39.612C112.728 39.612 113.7 39.9873 114.166 40.446C114.796 41.0666 115.013 41.0728 115.013 40.4703C115.013 40.0255 114.399 39.3375 113.648 38.9414C111.955 38.0491 111.677 38.047 111.131 38.9171ZM72.668 41.7379C72.668 42.1423 72.9856 42.2806 73.3738 42.0443C73.7619 41.8081 74.0795 41.4772 74.0795 41.3084C74.0795 41.1395 73.7619 41.0019 73.3738 41.0019C72.9856 41.0019 72.668 41.3334 72.668 41.7379ZM23.4425 42.4134C21.4537 43.2007 21.4043 44.2425 23.3275 44.8436C24.3381 45.1591 25.2245 44.8561 26.1504 43.8769C26.8929 43.0923 27.5005 42.2806 27.5005 42.0735C27.5005 41.5106 25.2464 41.6996 23.4425 42.4134ZM7.03396 44.5177C7.03396 44.9221 7.35155 45.0604 7.7397 44.8241C8.12786 44.5878 8.44545 44.257 8.44545 44.0882C8.44545 43.9193 8.12786 43.7817 7.7397 43.7817C7.35155 43.7817 7.03396 44.1132 7.03396 44.5177ZM16.2086 44.4329C16.2086 44.8387 16.8438 45.1716 17.6201 45.1716C18.3964 45.1716 19.0316 45.4843 19.0316 45.8666C19.0316 46.2488 19.5313 46.5615 20.1417 46.5615C20.8178 46.5615 21.1608 46.0862 21.0183 45.3453C20.76 44.0006 16.2086 43.1368 16.2086 44.4329ZM3.22789 47.6609C2.64988 49.1439 2.68235 49.3413 3.50525 49.3413C3.89341 49.3413 4.21099 48.8937 4.21099 48.3475C4.21099 47.8006 4.9252 47.2175 5.79891 47.0521C7.21393 46.7832 7.18428 46.7408 5.52155 46.656C4.40436 46.5997 3.48478 47.0021 3.22789 47.6609ZM106.544 49.3413C106.544 49.7235 107.001 50.0362 107.561 50.0362C108.12 50.0362 108.774 49.7235 109.014 49.3413C109.254 48.9591 108.796 48.6463 107.997 48.6463C107.198 48.6463 106.544 48.9591 106.544 49.3413ZM63.655 66.1507C64.0912 67.4391 65.6106 67.6525 65.6106 66.4252C65.6106 65.8199 65.1081 65.3251 64.4934 65.3251C63.8787 65.3251 63.5012 65.6962 63.655 66.1507ZM1.44377 67.1201C1.47764 67.9298 1.64491 68.0944 1.87004 67.5406C2.074 67.0388 2.0486 66.4391 1.81429 66.2084C1.57998 65.9776 1.41342 66.3877 1.44377 67.1201ZM67.9255 67.2105C67.694 67.804 67.8499 68.8332 68.272 69.4976C68.8274 70.3739 68.8189 70.9222 68.2416 71.4907C67.2557 72.4615 65.6106 72.5171 65.6106 71.5796C65.6106 71.1974 65.1455 70.8847 64.5767 70.8847C64.0086 70.8847 63.2033 70.2592 62.7876 69.4948C62.0494 68.1361 59.9647 67.5364 59.9647 68.6831C59.9647 69.469 54.9659 70.9312 54.0929 70.4003C53.709 70.1661 53.6045 70.3093 53.8614 70.7179C54.1246 71.1383 53.4824 71.7513 52.3822 72.1293L50.4371 72.7979L52.3779 73.3065C54.7118 73.9181 54.9744 75.7451 52.7308 75.7597C51.5487 75.7681 51.392 75.9258 52.1182 76.3789C53.7026 77.3671 51.078 77.8147 45.4969 77.5089C38.1805 77.1072 31.735 77.8098 31.735 79.0086C31.735 80.9322 28.5881 85.5307 27.461 85.2541C26.6416 85.0526 26.3459 85.5703 26.2965 87.2966C26.2598 88.5683 25.722 90.109 25.101 90.7206C23.6831 92.1167 23.6535 93.123 25.0304 93.123C25.7277 93.123 26.089 93.8096 26.089 95.1328C26.089 96.7451 25.7051 97.2371 24.1482 97.6228L22.2074 98.1037L24.2061 99.7994L26.2055 101.494L24.559 102.845L22.9132 104.196L24.5011 104.219C25.5258 104.234 26.0968 104.674 26.1102 105.458C26.1307 106.617 26.1659 106.617 26.8512 105.458C27.2471 104.79 28.0312 104.242 28.5944 104.242C29.9438 104.242 29.9156 106.258 28.5591 106.77C26.7037 107.472 27.3071 109.684 29.4413 110.009C30.5084 110.171 30.0624 110.269 28.4497 110.226C26.8371 110.184 25.65 110.36 25.8124 110.618C25.974 110.875 25.5463 111.23 24.8624 111.406C24.0699 111.609 24.3868 111.803 25.7361 111.939C26.9006 112.056 24.8363 112.346 21.1488 112.582C17.4613 112.817 29.8471 113.005 48.6728 113C67.4985 112.994 78.6139 112.819 73.3738 112.611C66.5683 112.342 63.7962 111.986 63.6698 111.365C63.5724 110.888 63.9698 110.497 64.552 110.497C65.1342 110.497 65.6106 110.184 65.6106 109.802C65.6106 109.42 64.9754 109.107 64.1991 109.107C62.5879 109.107 62.3917 108.385 63.6614 107.135C64.1427 106.661 64.5393 105.738 64.5435 105.084C64.5499 104.157 65.0651 103.945 66.8809 104.125C68.1626 104.251 69.6475 103.998 70.181 103.561C70.7153 103.125 71.5727 102.824 72.0865 102.893C72.6003 102.961 73.4973 102.97 74.0795 102.913C74.9314 102.83 74.8975 102.672 73.9031 102.102C72.5241 101.311 72.4147 100.847 73.2898 99.4873C73.7909 98.709 74.1402 98.7083 75.3964 99.4804C76.225 99.9898 76.9025 100.92 76.9025 101.549C76.9025 102.176 77.5377 102.854 78.314 103.054C80.2795 103.56 80.0847 104.937 78.0472 104.937C77.1248 104.937 76.0062 105.368 75.5623 105.895C74.9243 106.652 75.0909 106.941 76.3584 107.275C77.2399 107.508 78.7946 107.702 79.813 107.707C80.8321 107.713 83.0326 108.192 84.7038 108.773C86.4265 109.371 87.9163 109.555 88.1443 109.197C88.6432 108.416 93.8396 106.959 93.8418 107.599C93.8432 107.855 97.098 108.075 101.076 108.09C105.054 108.104 110.134 108.341 112.366 108.617L116.424 109.119L116.42 100.6L116.415 92.0806L114.126 90.724C112.867 89.9776 110.987 88.9867 109.949 88.521C108.911 88.0554 107.525 86.8678 106.868 85.8817C106.213 84.8955 105.307 84.0887 104.855 84.0887C104.404 84.0887 103.527 83.5411 102.907 82.8725C102.287 82.204 100.787 80.7696 99.5745 79.6862C98.3613 78.6027 97.369 77.4304 97.369 77.0801C97.369 76.7306 96.8129 76.422 96.134 76.3956C95.0782 76.3539 95.1036 76.2601 96.3104 75.7493C98.9196 74.645 101.619 75.0008 103.225 76.6604C104.08 77.5436 105.77 78.659 106.981 79.1393C108.192 79.6202 109.535 80.7738 109.966 81.7036C110.396 82.6328 111.192 83.3937 111.735 83.3937C112.279 83.3937 113.118 83.8628 113.601 84.4361C114.085 85.0095 114.917 85.4786 115.452 85.4786C116.219 85.4786 116.424 83.8482 116.424 77.7299V69.9819L107.073 70.4837C87.6898 71.5247 81.0805 71.6185 78.3401 70.8916C73.9221 69.7199 74.45 69.0555 79.9132 68.911C84.6981 68.7845 87.0172 68.0639 85.538 67.1639C85.1731 66.9422 81.156 66.6191 76.6103 66.4467C69.5966 66.1799 68.2819 66.2959 67.9255 67.2105ZM108.142 66.519C109.214 66.6782 110.802 66.674 111.67 66.5093C112.538 66.3446 111.66 66.2139 109.72 66.2188C107.779 66.2244 107.069 66.3592 108.142 66.519ZM114.13 66.4801C114.616 66.6733 115.41 66.6733 115.895 66.4801C116.38 66.2876 115.983 66.1299 115.013 66.1299C114.042 66.1299 113.646 66.2876 114.13 66.4801ZM54.8925 67.1896C55.4013 67.3905 56.0104 67.3655 56.2447 67.1347C56.479 66.904 56.0626 66.74 55.3188 66.7699C54.4966 66.8032 54.3293 66.9679 54.8925 67.1896ZM97.9428 67.8846C98.4516 68.0854 99.0607 68.0604 99.295 67.8297C99.5293 67.599 99.1129 67.4349 98.3691 67.4648C97.5469 67.4982 97.3796 67.6629 97.9428 67.8846ZM37.7338 74.3594C37.4571 74.8007 39.3732 75.0544 42.9852 75.0544C46.3064 75.0544 48.6728 74.7653 48.6728 74.3594C48.6728 73.9584 46.4518 73.6645 43.4214 73.6645C40.5328 73.6645 37.9737 73.9772 37.7338 74.3594ZM-3.49643 75.4595C-3.46256 76.2691 -3.29529 76.4338 -3.07016 75.8799C-2.8662 75.3782 -2.8916 74.7785 -3.12591 74.5477C-3.36022 74.317 -3.52678 74.727 -3.49643 75.4595ZM71.2566 75.0544C71.2566 75.4366 72.5269 75.7493 74.0795 75.7493C75.6322 75.7493 76.9025 75.4366 76.9025 75.0544C76.9025 74.6721 75.6322 74.3594 74.0795 74.3594C72.5269 74.3594 71.2566 74.6721 71.2566 75.0544ZM79.4855 75.5693C79.2364 75.9661 80.1814 76.4512 81.6804 76.6951C85.8711 77.3776 93.8403 77.2129 93.8403 76.4443C93.8403 76.062 92.8085 75.7472 91.5467 75.7444C90.2848 75.7416 87.1541 75.5443 84.5881 75.3052C81.7383 75.0405 79.753 75.1433 79.4855 75.5693ZM111.66 75.5332C112.339 75.7083 113.452 75.7083 114.13 75.5332C114.809 75.3588 114.254 75.2156 112.895 75.2156C111.537 75.2156 110.981 75.3588 111.66 75.5332ZM62.5223 78.9885C61.3444 81.4222 61.3458 81.5876 62.5682 82.7759C64.1159 84.2812 69.9622 84.5682 77.2039 83.4938C79.8927 83.0949 82.4031 82.958 82.782 83.1887C83.1907 83.4375 83.2429 83.2429 82.9098 82.7127C82.4701 82.0115 83.0227 81.9059 85.4476 82.2276C92.4458 83.1568 99.3338 83.5042 99.6839 82.9462C99.8892 82.6189 98.6584 82.4611 96.9491 82.5952C94.8622 82.7586 93.8403 82.564 93.8403 82.0038C93.8403 81.4437 92.8184 81.2491 90.7315 81.4124C89.0222 81.5465 87.7822 81.4027 87.977 81.0928C88.1711 80.7835 90.342 80.623 92.8001 80.7363C95.2582 80.8502 97.4834 80.7328 97.7445 80.4757C98.5596 79.6737 93.1995 79.0288 89.0159 79.427C86.8175 79.6354 85.809 79.584 86.7758 79.3116C87.742 79.0399 88.2148 78.6236 87.826 78.3873C86.7765 77.748 76.9025 77.8654 76.9025 78.5166C76.9025 78.8244 75.6322 78.7584 74.0795 78.3706C72.5269 77.9828 71.2566 77.3901 71.2566 77.0544C71.2566 76.0488 68.6728 76.365 67.7278 77.4867C67.2444 78.06 66.5704 78.5291 66.2303 78.5291C65.8894 78.5291 65.6106 78.06 65.6106 77.4867C65.6106 75.5353 63.7587 76.4359 62.5223 78.9885ZM36.3223 78.3032C33.0159 79.0232 32.9227 79.1316 34.0992 80.9002C35.1543 82.4854 35.1254 82.582 33.4704 82.9914C31.0327 83.5939 31.1527 86.2027 33.68 87.5634C36.1084 88.8706 40.4883 88.601 39.9343 87.1784C39.3125 85.5842 41.8151 84.7162 44.3339 85.6523C46.0404 86.2868 46.7285 86.2812 47.3926 85.6273C48.0644 84.9657 47.6855 84.7836 45.6381 84.7836C43.523 84.7836 43.0268 84.5272 43.0268 83.4333C43.0268 82.3888 42.4284 82.0177 40.3803 81.7912C38.6407 81.5987 38.882 81.55 41.0853 81.6487C44.7714 81.8148 47.0912 80.4006 44.4757 79.5834C43.6789 79.3339 43.0268 78.839 43.0268 78.4825C43.0268 77.8334 38.9752 77.725 36.3223 78.3032ZM111.131 79.224C110.717 79.8829 111.195 80.1831 112.366 80.001C112.658 79.9558 112.9 80.3102 112.906 80.7877C112.918 81.7175 114.276 80.0198 114.296 79.0503C114.312 78.2734 111.636 78.42 111.131 79.224ZM37.3809 79.919C37.3809 80.3012 38.6512 80.6139 40.2039 80.6139C41.7565 80.6139 43.0268 80.3012 43.0268 79.919C43.0268 79.5368 41.7565 79.224 40.2039 79.224C38.6512 79.224 37.3809 79.5368 37.3809 79.919ZM86.7829 84.7551L85.0185 85.2833L87.1358 86.1423C89.3885 87.0554 97.2102 86.7934 98.8836 85.7482C100.788 84.5578 90.313 83.6988 86.7829 84.7551ZM76.9025 85.8948C76.9025 86.6906 76.4988 86.8316 75.3146 86.4473C73.5961 85.8907 73.131 85.8629 68.61 86.0498C65.7758 86.1666 65.6106 86.2882 65.6106 88.2584C65.6106 90.6928 65.4363 90.6344 68.7004 89.2917C70.9827 88.3522 71.2566 88.3522 71.2566 89.2917C71.2566 90.7386 72.3985 90.6087 74.0619 88.9707C74.8283 88.216 76.2575 87.4008 77.2377 87.1583C79.2378 86.6641 79.5512 85.8281 77.9611 85.227C77.3034 84.9789 76.9025 85.2312 76.9025 85.8948ZM35.9694 86.1735C35.9694 86.5557 36.2679 86.8685 36.6335 86.8685C36.9991 86.8685 37.4938 86.5557 37.7338 86.1735C37.9737 85.7913 37.6745 85.4786 37.0697 85.4786C36.4649 85.4786 35.9694 85.7913 35.9694 86.1735ZM28.6403 88.3063C27.3227 90.9075 27.2182 91.7331 28.2062 91.7331C28.5944 91.7331 28.912 91.1076 28.912 90.3432C28.912 89.5788 29.2296 88.9533 29.6177 88.9533C30.0059 88.9533 30.3235 89.4036 30.3235 89.9547C30.3235 90.5058 30.6905 91.1792 31.1393 91.4523C31.7272 91.8109 31.8225 91.2946 31.4788 89.6045C30.7773 86.1499 29.9297 85.7621 28.6403 88.3063ZM101.251 86.8685C101.011 87.2507 101.487 87.5634 102.309 87.5634C103.131 87.5634 103.608 87.2507 103.368 86.8685C103.128 86.4862 102.652 86.1735 102.309 86.1735C101.967 86.1735 101.491 86.4862 101.251 86.8685ZM82.5484 87.4098C82.5484 88.0666 87.5056 89.0402 88.1358 88.5071C88.6743 88.0512 87.8655 87.692 85.195 87.2007C83.5689 86.9011 82.5484 86.9824 82.5484 87.4098ZM20.5546 88.9533C20.5546 89.9089 20.7148 90.3001 20.9103 89.822C21.1065 89.3446 21.1065 88.5627 20.9103 88.0846C20.7148 87.6072 20.5546 87.9978 20.5546 88.9533ZM76.9025 89.6483C76.9025 90.0305 78.1728 90.3432 79.7255 90.3432C81.2781 90.3432 82.5484 90.0305 82.5484 89.6483C82.5484 89.266 81.2781 88.9533 79.7255 88.9533C78.1728 88.9533 76.9025 89.266 76.9025 89.6483ZM64.2097 92.9493C64.2161 94.0007 64.4539 95.1731 64.739 95.5553C65.3163 96.3288 72.668 96.5859 72.668 95.8333C72.668 95.0842 70.6567 94.5129 68.0229 94.5129C65.9204 94.5129 65.6106 94.2898 65.6106 92.7755C65.6106 91.82 65.293 91.0382 64.9049 91.0382C64.5167 91.0382 64.2041 91.8978 64.2097 92.9493ZM19.3845 92.428C19.1445 92.8103 19.2849 93.123 19.6957 93.123C20.1064 93.123 20.4431 92.8103 20.4431 92.428C20.4431 92.0458 20.3033 91.7331 20.1318 91.7331C19.9604 91.7331 19.6244 92.0458 19.3845 92.428ZM1.66256 101.81C1.66326 106.779 1.77618 108.72 1.91168 106.124C2.04789 103.528 2.04718 99.463 1.90956 97.0898C1.77265 94.7172 1.66115 96.841 1.66256 101.81ZM16.0322 99.1732C16.9059 99.3386 18.3343 99.3386 19.208 99.1732C20.0817 99.0071 19.3668 98.8716 17.6201 98.8716C15.8734 98.8716 15.1585 99.0071 16.0322 99.1732ZM33.6772 105.522C32.6101 106.156 31.7371 107.066 31.7364 107.543C31.7343 108.745 37.2955 108.672 40.2914 107.432L42.6577 106.452L40.019 105.965C38.568 105.697 37.3809 105.199 37.3809 104.86C37.3809 103.947 35.8734 104.216 33.6772 105.522ZM33.8522 111.887C30.2388 112.322 30.3856 112.359 35.9694 112.42C39.8863 112.461 41.4784 112.276 40.5567 111.887C39.7804 111.558 38.8277 111.318 38.4395 111.354C38.0514 111.389 35.9871 111.629 33.8522 111.887Z" fill="#8F8D8D"/>
</g>
<defs>
<clipPath id="clip0_922_6908">
<rect width="113" height="113" fill="white"/>
</clipPath>
</defs>
</svg>
