<svg width="113" height="113" viewBox="0 0 113 113" fill="none" xmlns="http://www.w3.org/2000/svg">
<path fill-rule="evenodd" clip-rule="evenodd" d="M96.8385 0.458236C96.5871 0.71058 96.5815 3.98619 96.8275 7.73738L97.2743 14.5583H95.4786C94.4914 14.5583 93.491 14.8702 93.2554 15.2515C93.0199 15.6328 92.2155 15.9448 91.468 15.9448C89.4901 15.9448 88.3006 18.9084 89.3515 21.2163C89.8157 22.2354 89.982 24.0433 89.7333 25.3702C89.4908 26.6625 89.5504 28.268 89.8649 28.9377C90.1794 29.6081 90.4475 31.7072 90.4607 33.6026C90.4822 36.7396 90.6713 37.1389 92.5626 38.0429C93.7057 38.5892 94.8987 39.3781 95.2132 39.7954C95.6192 40.3341 95.888 40.3029 96.1367 39.6887C96.33 39.2124 96.9681 38.8221 97.5549 38.8221C98.4236 38.8221 98.4617 39.0141 97.7586 39.862C97.284 40.4339 97.2016 40.9018 97.5743 40.9018C97.9477 40.9018 98.4694 43.6319 98.734 46.9678C98.9987 50.3044 99.6132 55.6854 100.1 58.9264L100.984 64.819L101.47 60.6595C102.959 47.894 103.132 42.4804 102.449 29.911C101.892 19.637 101.914 16.3739 102.544 15.9843C103.151 15.6093 103.085 15.2418 102.294 14.5853C101.612 14.0182 101.22 12.5305 101.216 10.4875C101.214 8.7225 101.014 5.64099 100.774 3.63957C100.395 0.488049 100.133 0 98.8165 0C97.9809 0 97.0907 0.206586 96.8385 0.458236ZM83.5224 4.58031C83.2944 5.30198 82.8019 6.46319 82.4271 7.1599C81.9788 7.99319 81.9795 8.71071 82.4298 9.25353C82.8074 9.70899 83.3277 17.4686 83.5875 26.5307C84.0551 42.818 84.0461 42.9816 82.637 42.9816C81.8541 42.9816 81.0207 42.6696 80.7851 42.2883C80.0563 41.1077 79.1391 41.5154 78.1124 43.4766C77.3323 44.9657 76.5993 45.3761 74.5909 45.4454C73.1956 45.4939 72.4148 45.3109 72.8561 45.0378C73.436 44.6787 73.4464 44.4097 72.8922 44.0672C71.7345 43.3518 70.9641 44.1109 70.502 46.4236C70.1113 48.3786 69.9658 48.4624 68.1625 47.7761C67.1046 47.374 65.6927 46.5498 65.0255 45.9452C64.3577 45.3407 63.8117 45.0891 63.8117 45.3851C63.8117 45.6818 63.3441 45.5362 62.7725 45.0614C61.9564 44.3834 61.7334 44.3813 61.7334 45.0509C61.7334 45.5237 61.2706 45.7255 60.6942 45.5037C60.1226 45.2846 59.655 45.4073 59.655 45.7761C59.655 46.1456 60.1226 46.4479 60.6942 46.4479C62.0687 46.4479 62.0077 47.1085 60.521 48.3342C59.3661 49.2867 59.3661 49.3158 60.521 48.9526C61.1881 48.7425 62.2606 48.7737 62.9056 49.0212C63.8069 49.3671 63.527 49.6597 61.6932 50.2885C60.0963 50.8355 59.3758 51.4816 59.5123 52.2428C59.6238 52.8688 59.3903 53.3804 58.9927 53.3804C58.3047 53.3804 57.9729 51.9717 58.2174 50.0874C58.3969 48.7079 57.0598 49.0822 55.9021 50.7356C54.9946 52.032 49.4016 54.7648 47.6523 54.7662C46.9131 54.7669 47.2637 50.5249 48.0964 49.3983C48.5294 48.8112 48.2087 48.0978 47.0933 47.1681C45.3121 45.6839 43.7207 45.3435 43.7207 46.4479C43.7207 46.8291 43.2531 47.1411 42.6816 47.1411C42.11 47.1411 41.6424 47.424 41.6424 47.7692C41.6424 48.1151 42.2659 48.2344 43.028 48.0354C44.0838 47.7588 44.4135 48.0139 44.4135 49.1058C44.4135 50.8063 42.667 51.9509 40.811 51.4649C39.9651 51.2438 38.7451 51.8268 37.4454 53.0719C35.843 54.6081 35.4072 54.7759 35.4072 53.8566C35.4072 53.1662 34.8634 52.6871 34.0792 52.6871C33.349 52.6871 32.5696 52.2975 32.3472 51.8206C32.0243 51.1273 31.8622 51.1273 31.5394 51.8206C31.0572 52.8535 28.0498 52.9804 27.4401 51.9939C27.2046 51.6126 27.4685 51.3006 28.0269 51.3006C28.701 51.3006 28.9206 50.8348 28.6802 49.9141C28.4239 48.9352 28.6587 48.5276 29.4783 48.5276C30.1171 48.5276 30.4468 48.2156 30.2113 47.8344C29.9757 47.4531 28.8278 47.1411 27.6611 47.1411C25.8606 47.1411 25.668 47.2978 26.394 48.1727C27.0868 49.008 27.0376 49.286 26.1328 49.6334C25.5183 49.8698 25.0154 50.4971 25.0154 51.0282C25.0154 52.2635 20.4117 52.3537 19.9677 51.1273C19.7945 50.6483 19.2444 51.1911 18.738 52.3405C17.5256 55.0885 15.3883 56.812 13.1679 56.8314C10.4612 56.8542 6.80876 55.4781 5.44535 53.9211C4.77196 53.1516 3.77295 52.7148 3.19377 52.9374C2.62153 53.1571 2.1532 53.0677 2.1532 52.7398C2.1532 52.4112 1.68556 51.9627 1.11401 51.7429C0.33254 51.4427 0.0748214 51.8601 0.0748214 53.4268C0.0748214 55.2646 0.230699 55.4255 1.4036 54.7974C2.49682 54.2116 3.05036 54.4632 4.52116 56.2123C6.07856 58.0647 6.29956 58.9375 6.2282 62.966C6.14784 67.5581 6.14299 67.5685 5.60538 64.3837C4.84816 59.9011 3.81105 58.2331 1.78255 58.2331H0.0748214V75.7377V93.2423L7.17594 93.3623C11.0819 93.4281 15.8359 93.8053 17.741 94.1997C21.2777 94.9325 24.362 95.2646 37.9013 96.3724C42.1301 96.7183 46.9623 97.3263 48.6396 97.7235C53.6949 98.9207 70.2305 99.9593 70.7542 99.1121C71.0618 98.6136 71.8564 98.7052 73.2254 99.3977C75.6134 100.606 87.4207 102.204 89.3751 101.584C90.5556 101.208 90.6415 100.879 90.0215 99.0989C89.585 97.8448 88.6643 96.8854 87.6563 96.6323L86.0053 96.2178L87.5295 94.9831C88.7045 94.0305 88.8756 93.5314 88.2749 92.8021C87.4013 91.7407 86.8672 87.3511 87.4838 86.3001C87.7041 85.9244 87.6161 83.4446 87.2884 80.7894C86.9087 77.719 86.9406 75.7135 87.3757 75.2781C87.8253 74.8282 88.0595 74.8788 88.0595 75.4258C88.0595 75.8833 88.3712 76.2577 88.7523 76.2577C89.1333 76.2577 89.4451 75.6823 89.4451 74.9786C89.4451 74.275 90.0686 73.1346 90.8306 72.4448C92.1691 71.233 92.2162 71.2337 92.2162 72.476C92.2162 73.4763 92.4012 73.5769 93.0476 72.9301C94.2918 71.685 94.9507 71.911 95.6816 73.8341C96.1243 74.9994 96.082 76.1377 95.5541 77.2975C94.9084 78.7166 94.9846 79.2657 95.9843 80.3707C96.6535 81.1111 96.9965 82.0477 96.7464 82.4533C96.4963 82.8588 96.6217 83.1902 97.0249 83.1902C97.4281 83.1902 97.7586 82.585 97.7586 81.8446C97.7586 81.1042 98.0779 80.3014 98.468 80.0601C99.3929 79.4882 98.689 55.6286 97.6165 51.1897C96.9286 48.3439 96.5815 47.9175 94.6992 47.6125C89.1984 46.7189 87.7429 45.652 86.7806 41.8072C86.2007 39.4904 85.5938 29.1256 84.9086 9.81713C84.6994 3.91271 84.2574 2.24405 83.5224 4.58031ZM104.686 8.88055C104.686 9.96965 105.41 10.2629 109.402 10.7932C112.46 11.1988 113 11.101 113 10.1416C113 9.43515 112.417 9.0095 111.441 9.00464C110.584 9.00048 108.714 8.8036 107.284 8.5672C105.631 8.29406 104.686 8.40775 104.686 8.88055ZM107.127 13.1454C106.86 13.5787 106.506 17.1157 106.342 21.0048C106.177 24.8947 105.583 34.4719 105.022 42.2883C104.46 50.1048 103.684 61.3354 103.297 67.2454C102.911 73.1554 102.249 80.8623 101.826 84.3715C101.403 87.8807 101.256 91.5466 101.499 92.5172C102.046 94.6982 101.388 94.85 100.602 92.7238C100.032 91.1806 100.012 91.1862 98.7188 93.2437C97.656 94.9346 96.9598 95.3117 94.9874 95.2659C93.6538 95.2347 91.9855 94.9554 91.2803 94.6448C90.2528 94.1928 90.0478 94.3418 90.2501 95.3942C90.3893 96.1172 90.8625 96.7086 91.3017 96.7086C91.741 96.7086 92.3132 96.9207 92.5723 97.1807C92.8321 97.4407 93.4501 97.4975 93.9461 97.3069C95.446 96.7308 95.8707 98.3946 94.6846 100.205C93.633 101.812 93.6461 101.908 94.9146 101.908C96.9473 101.908 98.4514 101.171 98.4514 100.175C98.4514 99.1676 100.343 98.2441 101.253 98.8071C101.582 99.0102 101.781 100.913 101.695 103.036C101.578 105.919 101.202 107.141 100.209 107.868C98.9536 108.786 98.9938 108.845 100.917 108.922C102.037 108.968 103.266 108.923 103.647 108.823C104.028 108.723 105.041 108.683 105.899 108.734C107.009 108.799 107.458 108.44 107.458 107.487C107.458 106.751 107.774 105.953 108.162 105.714C108.549 105.474 108.687 104.988 108.467 104.633C107.965 103.821 109.566 103.808 110.838 104.614C111.565 105.075 111.677 106.148 111.308 109.11C110.898 112.391 110.992 113 111.911 113C112.826 113 113 111.928 113 106.282C113 100.443 112.877 99.7326 112.056 100.854C111.247 101.963 110.69 102.055 108.129 101.507C106.488 101.156 105.004 100.445 104.833 99.9287C104.606 99.2424 104.931 99.119 106.039 99.4712C107.413 99.9072 107.534 99.7395 107.333 97.6771C107.145 95.7457 106.745 95.2964 104.686 94.7037L102.262 94.0049L104.227 93.7449C106.078 93.5002 106.127 93.4122 105.056 92.2281C104.056 91.1224 104.002 90.1026 104.61 83.7871C105.294 76.6729 106.864 52.2039 108.095 29.4632C108.446 22.9813 108.947 17.1323 109.208 16.4647C109.477 15.7798 110.406 15.2515 111.342 15.2515C112.354 15.2515 113 14.846 113 14.2117C113 13.6397 112.455 13.1676 111.788 13.1621C111.12 13.1572 109.909 12.9742 109.095 12.7551C108.28 12.5368 107.395 12.7122 107.127 13.1454ZM74.8964 39.4058C74.8964 40.4845 76.8051 41.7372 77.2789 40.9705C77.5138 40.5899 77.0739 39.9396 76.3014 39.5257C75.5289 39.1119 74.8964 39.0578 74.8964 39.4058ZM19.0525 48.2378C19.2839 48.841 19.473 49.4358 19.473 49.5592C19.473 49.6833 20.0965 49.6209 20.8586 49.4219C22.9051 48.886 22.583 47.1411 20.4381 47.1411C19.076 47.1411 18.7352 47.4108 19.0525 48.2378ZM82.5171 48.8742C82.5171 49.4462 82.8289 49.9141 83.2099 49.9141C83.591 49.9141 83.9027 49.4462 83.9027 48.8742C83.9027 48.3023 83.591 47.8344 83.2099 47.8344C82.8289 47.8344 82.5171 48.3023 82.5171 48.8742ZM15.3163 49.2209C15.3163 49.6021 15.628 49.9141 16.009 49.9141C16.3901 49.9141 16.7018 49.6021 16.7018 49.2209C16.7018 48.8396 16.3901 48.5276 16.009 48.5276C15.628 48.5276 15.3163 48.8396 15.3163 49.2209ZM51.3415 49.9141C51.3415 50.2954 51.6532 50.6074 52.0343 50.6074C52.4153 50.6074 52.7271 50.2954 52.7271 49.9141C52.7271 49.5328 52.4153 49.2209 52.0343 49.2209C51.6532 49.2209 51.3415 49.5328 51.3415 49.9141ZM40.5782 71.4451C40.4078 71.7217 41.3563 72.0753 42.6871 72.2306C44.018 72.3859 45.1063 72.2992 45.1063 72.0378C45.1063 71.373 40.9579 70.8309 40.5782 71.4451ZM5.65319 73.8313C5.62478 74.9752 5.40863 77.0813 5.17239 78.5107C4.78858 80.8359 4.89874 81.1104 6.2192 81.1104C7.14685 81.1104 7.69554 81.5486 7.69554 82.289C7.69554 83.2054 7.88051 83.2824 8.52689 82.6356C9.69494 81.4668 13.3328 81.6006 15.1576 82.8796C17.1016 84.2425 23.4919 86.1642 24.6281 85.7282C25.8973 85.2408 26.7148 86.0235 27.7685 88.7362C29.2552 92.563 29.6287 92.7931 34.2953 92.7661C36.7443 92.7522 39.2841 93.1418 40.1113 93.659C41.9451 94.8049 43.136 93.8094 41.4269 92.5588C40.6461 91.9882 40.448 91.4725 40.9011 91.1924C41.3597 90.9088 41.1186 90.1955 40.2499 89.2624C37.5646 86.3784 38.9342 85.5022 43.6923 87.0592C45.6135 87.688 47.1847 88.4291 47.1847 88.7057C47.1847 88.9823 48.8994 89.5931 50.9951 90.0624C53.5709 90.6392 54.8054 91.2569 54.8054 91.9702C54.8054 92.5505 55.4532 93.1952 56.2444 93.4018C57.0355 93.6091 57.9715 94.5387 58.3248 95.467C59.0231 97.3062 61.387 97.4545 61.387 95.659C61.387 94.8826 62.4109 94.5831 65.5437 94.4437C67.8299 94.3418 70.421 93.8891 71.3022 93.4371C72.5395 92.8021 73.206 92.8049 74.2369 93.4489C74.9705 93.9072 76.5875 94.2621 77.8311 94.2385C79.8811 94.1983 79.9462 94.1359 78.5336 93.5675C77.6759 93.2222 76.9748 92.6184 76.9748 92.2246C76.9748 91.2929 79.7958 91.3206 81.1315 92.2655C81.9137 92.8195 81.9567 93.0884 81.3047 93.3526C80.2766 93.7706 80.1346 95.6687 81.1315 95.6687C81.5126 95.6687 81.8243 96.2926 81.8243 97.0552C81.8243 97.8871 82.2864 98.4417 82.9792 98.4417C83.6138 98.4417 83.9284 98.2365 83.6776 97.9856C83.4268 97.7346 83.6048 97.0677 84.0724 96.5041C85.1296 95.2292 85.6763 89.7234 85.1186 85.9632C84.9772 85.01 85.1581 83.8328 85.5204 83.3469C85.882 82.8609 86.0019 82.2862 85.785 82.0699C85.3673 81.6512 80.623 83.0973 79.3109 84.0429C78.8807 84.3528 77.669 84.2793 76.6173 83.8793C74.575 83.1021 65.1973 83.2145 65.1973 84.0159C65.1973 84.8984 66.267 85.1715 70.5935 85.3947C76.8085 85.7157 75.8843 86.6564 69.3541 86.6564C64.8897 86.6564 63.8117 86.454 63.8117 85.6166C63.8117 84.2682 62.6146 84.289 61.2435 85.6609C60.4773 86.4277 59.9439 86.5296 59.4222 86.0076C59.0169 85.602 57.2669 85.2387 55.5329 85.2006C52.9571 85.1445 52.6973 85.0335 54.1126 84.594C55.0652 84.298 56.5118 84.1989 57.3279 84.3729C58.1433 84.5469 59.019 84.3521 59.2739 83.9396C59.5919 83.4252 57.8911 83.1902 53.8459 83.1902C48.616 83.1902 47.7369 83.0023 46.0111 81.516C44.9421 80.5953 44.2992 79.6095 44.5826 79.3253C44.8659 79.0404 45.7264 79.3773 46.4947 80.0726C47.6655 81.1333 48.1449 81.2012 49.4661 80.4941C50.7457 79.8085 51.4274 79.8515 53.0963 80.7229C55.4698 81.9611 60.0485 82.1565 60.733 81.048C61.0135 80.5933 62.1317 80.4678 63.545 80.7333C64.995 81.005 65.8901 80.8969 65.8901 80.4484C65.8901 79.9985 63.5298 79.7239 59.655 79.7239C53.2965 79.7239 51.8521 79.0224 55.1303 77.5277C56.0705 77.0993 56.676 76.4816 56.4751 76.1565C55.9181 75.2545 54.0053 75.4493 52.7818 76.5322C51.7655 77.4313 47.7473 78.2196 43.7554 78.3021C42.4349 78.3298 42.243 78.5225 42.8894 79.1693C45.0959 81.3773 42.0366 82.8054 38.8061 81.0758C37.0589 80.1399 37.7426 79.0307 40.067 79.0307C43.9147 79.0307 40.9905 78.4088 35.5673 78.074C30.2612 77.7468 29.8649 77.8161 29.8649 79.0695C29.8649 80.0428 29.3862 80.4172 28.1412 80.4172C26.7667 80.4172 26.4508 80.1011 26.5824 78.8574C26.7362 77.4029 26.4806 77.2975 22.7984 77.2975C20.5635 77.2975 18.474 76.9218 17.9835 76.431C17.5076 75.9547 15.6142 75.5644 13.7776 75.5644C10.8976 75.5644 10.3295 75.8008 9.65753 77.276C9.22938 78.2168 8.6121 78.8227 8.28718 78.6217C7.96157 78.4199 7.69554 78.7603 7.69554 79.3773C7.69554 80.0102 7.36646 80.2959 6.94039 80.0317C6.49493 79.7565 6.35845 78.6431 6.60716 77.3149C6.83925 76.0767 6.73117 74.3186 6.36746 73.4077C5.72247 71.7945 5.70376 71.8056 5.65319 73.8313ZM59.655 77.6442C59.655 78.4581 60.1877 78.4581 62.0798 77.6442C63.3074 77.1159 63.2485 77.0431 61.5602 76.9995C60.512 76.9731 59.655 77.2629 59.655 77.6442ZM90.311 79.8258C89.2144 82.8942 89.2254 83.1902 90.4378 83.1902C90.9837 83.1902 91.628 83.8141 91.8698 84.5767C92.1165 85.3545 92.918 85.9632 93.6953 85.9632C94.8031 85.9632 94.9909 85.6505 94.6327 84.4034C94.3861 83.5451 94.0327 82.2973 93.8464 81.6304C93.6607 80.9635 93.0836 80.4172 92.564 80.4172C92.0444 80.4172 91.52 79.7392 91.3987 78.91C91.2145 77.6573 91.0309 77.8126 90.311 79.8258ZM47.1847 84.5767C47.1847 84.958 47.6711 85.2699 48.2648 85.2699C48.8585 85.2699 49.1522 84.958 48.9167 84.5767C48.6811 84.1954 48.1955 83.8834 47.8366 83.8834C47.4778 83.8834 47.1847 84.1954 47.1847 84.5767ZM72.6885 89.2097C73.188 89.41 73.7859 89.3851 74.0159 89.1549C74.2459 88.9248 73.8371 88.7612 73.1069 88.791C72.2998 88.8242 72.1356 88.9885 72.6885 89.2097ZM74.8964 89.4703C74.8964 89.8738 75.2082 90.0118 75.5892 89.7761C75.9702 89.5404 76.282 89.2104 76.282 89.0419C76.282 88.8735 75.9702 88.7362 75.5892 88.7362C75.2082 88.7362 74.8964 89.0669 74.8964 89.4703ZM51.3415 96.0153C51.3415 96.7973 51.8278 97.0823 52.9002 96.9304C53.7572 96.8084 54.459 96.3966 54.459 96.0153C54.459 95.634 53.7572 95.2223 52.9002 95.1002C51.8278 94.9484 51.3415 95.2333 51.3415 96.0153ZM67.9685 97.7485C67.9685 98.1298 68.2802 98.4417 68.6613 98.4417C69.0423 98.4417 69.3541 98.1298 69.3541 97.7485C69.3541 97.3672 69.0423 97.0552 68.6613 97.0552C68.2802 97.0552 67.9685 97.3672 67.9685 97.7485ZM78.014 97.7485C77.7784 98.1298 77.9163 98.4417 78.3195 98.4417C78.7227 98.4417 79.0532 98.1298 79.0532 97.7485C79.0532 97.3672 78.916 97.0552 78.7477 97.0552C78.5793 97.0552 78.2495 97.3672 78.014 97.7485ZM95.6802 100.521C95.6802 100.903 95.9732 101.215 96.3321 101.215C96.691 101.215 97.1766 100.903 97.4122 100.521C97.6477 100.14 97.354 99.8282 96.7603 99.8282C96.1665 99.8282 95.6802 100.14 95.6802 100.521ZM0.210608 108.976C0.395584 112.208 0.589566 112.627 1.8068 112.438C2.56887 112.321 4.12766 112.242 5.27076 112.264C44.6144 113.01 70.457 113.015 71.8363 112.276C72.7058 111.81 73.8801 111.607 74.4461 111.824C75.0176 112.044 75.6536 111.751 75.8781 111.166C76.4912 109.568 76.4455 109.53 74.0304 109.602C72.7924 109.64 65.9767 108.965 58.8853 108.104C51.7939 107.243 45.4458 106.748 44.7786 107.004C42.7786 107.772 44.7967 109.421 48.1047 109.722C50.348 109.926 50.0349 110.012 46.7081 110.106C42.5569 110.223 42.4245 110.173 42.5513 108.531C42.6227 107.599 42.3698 106.819 41.9888 106.798C41.6077 106.777 41.296 107.151 41.296 107.627C41.296 109.314 38.9287 109.411 28.7384 108.142C23.0707 107.435 15.3163 106.665 11.5059 106.43C7.69554 106.194 3.54779 105.844 2.28899 105.649L0 105.297L0.210608 108.976ZM0.822345 111.324C0.855599 112.132 1.01979 112.296 1.24079 111.744C1.44101 111.243 1.41607 110.645 1.18606 110.415C0.956054 110.185 0.792555 110.594 0.822345 111.324ZM54.6599 110.906C55.5329 111.281 59.2739 111.732 62.9735 111.907C68.504 112.167 68.8996 112.128 65.1973 111.683C62.7206 111.385 58.9795 110.934 56.8838 110.682C54.1009 110.346 53.5016 110.407 54.6599 110.906Z" fill="#8F8D8D"/>
</svg>
