<svg width="113" height="113" viewBox="0 0 113 113" fill="none" xmlns="http://www.w3.org/2000/svg">
<g clip-path="url(#clip0_922_6898)">
<path fill-rule="evenodd" clip-rule="evenodd" d="M96.8385 0.958236C96.5871 1.21058 96.5815 4.48619 96.8275 8.23738L97.2743 15.0583H95.4786C94.4914 15.0583 93.491 15.3702 93.2554 15.7515C93.0199 16.1328 92.2155 16.4448 91.468 16.4448C89.4901 16.4448 88.3006 19.4084 89.3515 21.7163C89.8157 22.7354 89.982 24.5433 89.7333 25.8702C89.4908 27.1625 89.5504 28.768 89.8649 29.4377C90.1794 30.1081 90.4475 32.2072 90.4607 34.1026C90.4822 37.2396 90.6713 37.6389 92.5626 38.5429C93.7057 39.0892 94.8987 39.8781 95.2132 40.2954C95.6192 40.8341 95.888 40.8029 96.1367 40.1887C96.33 39.7124 96.9681 39.3221 97.5549 39.3221C98.4236 39.3221 98.4617 39.5141 97.7586 40.362C97.284 40.9339 97.2016 41.4018 97.5743 41.4018C97.9477 41.4018 98.4694 44.1319 98.734 47.4678C98.9987 50.8044 99.6132 56.1854 100.1 59.4264L100.984 65.319L101.47 61.1595C102.959 48.394 103.132 42.9804 102.449 30.411C101.892 20.137 101.914 16.8739 102.544 16.4843C103.151 16.1093 103.085 15.7418 102.294 15.0853C101.612 14.5182 101.22 13.0305 101.216 10.9875C101.214 9.2225 101.014 6.14099 100.774 4.13957C100.395 0.988049 100.133 0.5 98.8165 0.5C97.9809 0.5 97.0907 0.706586 96.8385 0.958236ZM83.5224 5.08031C83.2944 5.80198 82.8019 6.96319 82.4271 7.6599C81.9788 8.49319 81.9795 9.21071 82.4298 9.75353C82.8074 10.209 83.3277 17.9686 83.5875 27.0307C84.0551 43.318 84.0461 43.4816 82.637 43.4816C81.8541 43.4816 81.0207 43.1696 80.7851 42.7883C80.0563 41.6077 79.1391 42.0154 78.1124 43.9766C77.3323 45.4657 76.5993 45.8761 74.5909 45.9454C73.1956 45.9939 72.4148 45.8109 72.8561 45.5378C73.436 45.1787 73.4464 44.9097 72.8922 44.5672C71.7345 43.8518 70.9641 44.6109 70.502 46.9236C70.1113 48.8786 69.9658 48.9624 68.1625 48.2761C67.1046 47.874 65.6927 47.0498 65.0255 46.4452C64.3577 45.8407 63.8117 45.5891 63.8117 45.8851C63.8117 46.1818 63.3441 46.0362 62.7725 45.5614C61.9564 44.8834 61.7334 44.8813 61.7334 45.5509C61.7334 46.0237 61.2706 46.2255 60.6942 46.0037C60.1226 45.7846 59.655 45.9073 59.655 46.2761C59.655 46.6456 60.1226 46.9479 60.6942 46.9479C62.0687 46.9479 62.0077 47.6085 60.521 48.8342C59.3661 49.7867 59.3661 49.8158 60.521 49.4526C61.1881 49.2425 62.2606 49.2737 62.9056 49.5212C63.8069 49.8671 63.527 50.1597 61.6932 50.7885C60.0963 51.3355 59.3758 51.9816 59.5123 52.7428C59.6238 53.3688 59.3903 53.8804 58.9927 53.8804C58.3047 53.8804 57.9729 52.4717 58.2174 50.5874C58.3969 49.2079 57.0598 49.5822 55.9021 51.2356C54.9946 52.532 49.4016 55.2648 47.6523 55.2662C46.9131 55.2669 47.2637 51.0249 48.0964 49.8983C48.5294 49.3112 48.2087 48.5978 47.0933 47.6681C45.3121 46.1839 43.7207 45.8435 43.7207 46.9479C43.7207 47.3291 43.2531 47.6411 42.6816 47.6411C42.11 47.6411 41.6424 47.924 41.6424 48.2692C41.6424 48.6151 42.2659 48.7344 43.028 48.5354C44.0838 48.2588 44.4135 48.5139 44.4135 49.6058C44.4135 51.3063 42.667 52.4509 40.811 51.9649C39.9651 51.7438 38.7451 52.3268 37.4454 53.5719C35.843 55.1081 35.4072 55.2759 35.4072 54.3566C35.4072 53.6662 34.8634 53.1871 34.0792 53.1871C33.349 53.1871 32.5696 52.7975 32.3472 52.3206C32.0243 51.6273 31.8622 51.6273 31.5394 52.3206C31.0572 53.3535 28.0498 53.4804 27.4401 52.4939C27.2046 52.1126 27.4685 51.8006 28.0269 51.8006C28.701 51.8006 28.9206 51.3348 28.6802 50.4141C28.4239 49.4352 28.6587 49.0276 29.4783 49.0276C30.1171 49.0276 30.4468 48.7156 30.2113 48.3344C29.9757 47.9531 28.8278 47.6411 27.6611 47.6411C25.8606 47.6411 25.668 47.7978 26.394 48.6727C27.0868 49.508 27.0376 49.786 26.1328 50.1334C25.5183 50.3698 25.0154 50.9971 25.0154 51.5282C25.0154 52.7635 20.4117 52.8537 19.9677 51.6273C19.7945 51.1483 19.2444 51.6911 18.738 52.8405C17.5256 55.5885 15.3883 57.312 13.1679 57.3314C10.4612 57.3542 6.80876 55.9781 5.44535 54.4211C4.77196 53.6516 3.77295 53.2148 3.19377 53.4374C2.62153 53.6571 2.1532 53.5677 2.1532 53.2398C2.1532 52.9112 1.68556 52.4627 1.11401 52.2429C0.33254 51.9427 0.0748214 52.3601 0.0748214 53.9268C0.0748214 55.7646 0.230699 55.9255 1.4036 55.2974C2.49682 54.7116 3.05036 54.9632 4.52116 56.7123C6.07856 58.5647 6.29956 59.4375 6.2282 63.466C6.14784 68.0581 6.14299 68.0685 5.60538 64.8837C4.84816 60.4011 3.81105 58.7331 1.78255 58.7331H0.0748214V76.2377V93.7423L7.17594 93.8623C11.0819 93.9281 15.8359 94.3053 17.741 94.6997C21.2777 95.4325 24.362 95.7646 37.9013 96.8724C42.1301 97.2183 46.9623 97.8263 48.6396 98.2235C53.6949 99.4207 70.2305 100.459 70.7542 99.6121C71.0618 99.1136 71.8564 99.2052 73.2254 99.8977C75.6134 101.106 87.4207 102.704 89.3751 102.084C90.5556 101.708 90.6415 101.379 90.0215 99.5989C89.585 98.3448 88.6643 97.3854 87.6563 97.1323L86.0053 96.7178L87.5295 95.4831C88.7045 94.5305 88.8756 94.0314 88.2749 93.3021C87.4013 92.2407 86.8672 87.8511 87.4838 86.8001C87.7041 86.4244 87.6161 83.9446 87.2884 81.2894C86.9087 78.219 86.9406 76.2135 87.3757 75.7781C87.8253 75.3282 88.0595 75.3788 88.0595 75.9258C88.0595 76.3833 88.3712 76.7577 88.7523 76.7577C89.1333 76.7577 89.4451 76.1823 89.4451 75.4786C89.4451 74.775 90.0686 73.6346 90.8306 72.9448C92.1691 71.733 92.2162 71.7337 92.2162 72.976C92.2162 73.9763 92.4012 74.0769 93.0476 73.4301C94.2918 72.185 94.9507 72.411 95.6816 74.3341C96.1243 75.4994 96.082 76.6377 95.5541 77.7975C94.9084 79.2166 94.9846 79.7657 95.9843 80.8707C96.6535 81.6111 96.9965 82.5477 96.7464 82.9533C96.4963 83.3588 96.6217 83.6902 97.0249 83.6902C97.4281 83.6902 97.7586 83.085 97.7586 82.3446C97.7586 81.6042 98.0779 80.8014 98.468 80.5601C99.3929 79.9882 98.689 56.1286 97.6165 51.6897C96.9286 48.8439 96.5815 48.4175 94.6992 48.1125C89.1984 47.2189 87.7429 46.152 86.7806 42.3072C86.2007 39.9904 85.5938 29.6256 84.9086 10.3171C84.6994 4.41271 84.2574 2.74405 83.5224 5.08031ZM104.686 9.38055C104.686 10.4696 105.41 10.7629 109.402 11.2932C112.46 11.6988 113 11.601 113 10.6416C113 9.93515 112.417 9.5095 111.441 9.50464C110.584 9.50048 108.714 9.3036 107.284 9.0672C105.631 8.79406 104.686 8.90775 104.686 9.38055ZM107.127 13.6454C106.86 14.0787 106.506 17.6157 106.342 21.5048C106.177 25.3947 105.583 34.9719 105.022 42.7883C104.46 50.6048 103.684 61.8354 103.297 67.7454C102.911 73.6554 102.249 81.3623 101.826 84.8715C101.403 88.3807 101.256 92.0466 101.499 93.0172C102.046 95.1982 101.388 95.35 100.602 93.2238C100.032 91.6806 100.012 91.6862 98.7188 93.7437C97.656 95.4346 96.9598 95.8117 94.9874 95.7659C93.6538 95.7347 91.9855 95.4554 91.2803 95.1448C90.2528 94.6928 90.0478 94.8418 90.2501 95.8942C90.3893 96.6172 90.8625 97.2086 91.3017 97.2086C91.741 97.2086 92.3132 97.4207 92.5723 97.6807C92.8321 97.9407 93.4501 97.9975 93.9461 97.8069C95.446 97.2308 95.8707 98.8946 94.6846 100.705C93.633 102.312 93.6461 102.408 94.9146 102.408C96.9473 102.408 98.4514 101.671 98.4514 100.675C98.4514 99.6676 100.343 98.7441 101.253 99.3071C101.582 99.5102 101.781 101.413 101.695 103.536C101.578 106.419 101.202 107.641 100.209 108.368C98.9536 109.286 98.9938 109.345 100.917 109.422C102.037 109.468 103.266 109.423 103.647 109.323C104.028 109.223 105.041 109.183 105.899 109.234C107.009 109.299 107.458 108.94 107.458 107.987C107.458 107.251 107.774 106.453 108.162 106.214C108.549 105.974 108.687 105.488 108.467 105.133C107.965 104.321 109.566 104.308 110.838 105.114C111.565 105.575 111.677 106.648 111.308 109.61C110.898 112.891 110.992 113.5 111.911 113.5C112.826 113.5 113 112.428 113 106.782C113 100.943 112.877 100.233 112.056 101.354C111.247 102.463 110.69 102.555 108.129 102.007C106.488 101.656 105.004 100.945 104.833 100.429C104.606 99.7424 104.931 99.619 106.039 99.9712C107.413 100.407 107.534 100.239 107.333 98.1771C107.145 96.2457 106.745 95.7964 104.686 95.2037L102.262 94.5049L104.227 94.2449C106.078 94.0002 106.127 93.9122 105.056 92.7281C104.056 91.6224 104.002 90.6026 104.61 84.2871C105.294 77.1729 106.864 52.7039 108.095 29.9632C108.446 23.4813 108.947 17.6323 109.208 16.9647C109.477 16.2798 110.406 15.7515 111.342 15.7515C112.354 15.7515 113 15.346 113 14.7117C113 14.1397 112.455 13.6676 111.788 13.6621C111.12 13.6572 109.909 13.4742 109.095 13.2551C108.28 13.0368 107.395 13.2122 107.127 13.6454ZM74.8964 39.9058C74.8964 40.9845 76.8051 42.2372 77.2789 41.4705C77.5138 41.0899 77.0739 40.4396 76.3014 40.0257C75.5289 39.6119 74.8964 39.5578 74.8964 39.9058ZM19.0525 48.7378C19.2839 49.341 19.473 49.9358 19.473 50.0592C19.473 50.1833 20.0965 50.1209 20.8586 49.9219C22.9051 49.386 22.583 47.6411 20.4381 47.6411C19.076 47.6411 18.7352 47.9108 19.0525 48.7378ZM82.5171 49.3742C82.5171 49.9462 82.8289 50.4141 83.2099 50.4141C83.591 50.4141 83.9027 49.9462 83.9027 49.3742C83.9027 48.8023 83.591 48.3344 83.2099 48.3344C82.8289 48.3344 82.5171 48.8023 82.5171 49.3742ZM15.3163 49.7209C15.3163 50.1021 15.628 50.4141 16.009 50.4141C16.3901 50.4141 16.7018 50.1021 16.7018 49.7209C16.7018 49.3396 16.3901 49.0276 16.009 49.0276C15.628 49.0276 15.3163 49.3396 15.3163 49.7209ZM51.3415 50.4141C51.3415 50.7954 51.6532 51.1074 52.0343 51.1074C52.4153 51.1074 52.7271 50.7954 52.7271 50.4141C52.7271 50.0328 52.4153 49.7209 52.0343 49.7209C51.6532 49.7209 51.3415 50.0328 51.3415 50.4141ZM40.5782 71.9451C40.4078 72.2217 41.3563 72.5753 42.6871 72.7306C44.018 72.8859 45.1063 72.7992 45.1063 72.5378C45.1063 71.873 40.9579 71.3309 40.5782 71.9451ZM5.65319 74.3313C5.62478 75.4752 5.40863 77.5813 5.17239 79.0107C4.78858 81.3359 4.89874 81.6104 6.2192 81.6104C7.14685 81.6104 7.69554 82.0486 7.69554 82.789C7.69554 83.7054 7.88051 83.7824 8.52689 83.1356C9.69494 81.9668 13.3328 82.1006 15.1576 83.3796C17.1016 84.7425 23.4919 86.6642 24.6281 86.2282C25.8973 85.7408 26.7148 86.5235 27.7685 89.2362C29.2552 93.063 29.6287 93.2931 34.2953 93.2661C36.7443 93.2522 39.2841 93.6418 40.1113 94.159C41.9451 95.3049 43.136 94.3094 41.4269 93.0588C40.6461 92.4882 40.448 91.9725 40.9011 91.6924C41.3597 91.4088 41.1186 90.6955 40.2499 89.7624C37.5646 86.8784 38.9342 86.0022 43.6923 87.5592C45.6135 88.188 47.1847 88.9291 47.1847 89.2057C47.1847 89.4823 48.8994 90.0931 50.9951 90.5624C53.5709 91.1392 54.8054 91.7569 54.8054 92.4702C54.8054 93.0505 55.4532 93.6952 56.2444 93.9018C57.0355 94.1091 57.9715 95.0387 58.3248 95.967C59.0231 97.8062 61.387 97.9545 61.387 96.159C61.387 95.3826 62.4109 95.0831 65.5437 94.9437C67.8299 94.8418 70.421 94.3891 71.3022 93.9371C72.5395 93.3021 73.206 93.3049 74.2369 93.9489C74.9705 94.4072 76.5875 94.7621 77.8311 94.7385C79.8811 94.6983 79.9462 94.6359 78.5336 94.0675C77.6759 93.7222 76.9748 93.1184 76.9748 92.7246C76.9748 91.7929 79.7958 91.8206 81.1315 92.7655C81.9137 93.3195 81.9567 93.5884 81.3047 93.8526C80.2766 94.2706 80.1346 96.1687 81.1315 96.1687C81.5126 96.1687 81.8243 96.7926 81.8243 97.5552C81.8243 98.3871 82.2864 98.9417 82.9792 98.9417C83.6138 98.9417 83.9284 98.7365 83.6776 98.4856C83.4268 98.2346 83.6048 97.5677 84.0724 97.0041C85.1296 95.7292 85.6763 90.2234 85.1186 86.4632C84.9772 85.51 85.1581 84.3328 85.5204 83.8469C85.882 83.3609 86.0019 82.7862 85.785 82.5699C85.3673 82.1512 80.623 83.5973 79.3109 84.5429C78.8807 84.8528 77.669 84.7793 76.6173 84.3793C74.575 83.6021 65.1973 83.7145 65.1973 84.5159C65.1973 85.3984 66.267 85.6715 70.5935 85.8947C76.8085 86.2157 75.8843 87.1564 69.3541 87.1564C64.8897 87.1564 63.8117 86.954 63.8117 86.1166C63.8117 84.7682 62.6146 84.789 61.2435 86.1609C60.4773 86.9277 59.9439 87.0296 59.4222 86.5076C59.0169 86.102 57.2669 85.7387 55.5329 85.7006C52.9571 85.6445 52.6973 85.5335 54.1126 85.094C55.0652 84.798 56.5118 84.6989 57.3279 84.8729C58.1433 85.0469 59.019 84.8521 59.2739 84.4396C59.5919 83.9252 57.8911 83.6902 53.8459 83.6902C48.616 83.6902 47.7369 83.5023 46.0111 82.016C44.9421 81.0953 44.2992 80.1095 44.5826 79.8253C44.8659 79.5404 45.7264 79.8773 46.4947 80.5726C47.6655 81.6333 48.1449 81.7012 49.4661 80.9941C50.7457 80.3085 51.4274 80.3515 53.0963 81.2229C55.4698 82.4611 60.0485 82.6565 60.733 81.548C61.0135 81.0933 62.1317 80.9678 63.545 81.2333C64.995 81.505 65.8901 81.3969 65.8901 80.9484C65.8901 80.4985 63.5298 80.2239 59.655 80.2239C53.2965 80.2239 51.8521 79.5224 55.1303 78.0277C56.0705 77.5993 56.676 76.9816 56.4751 76.6565C55.9181 75.7545 54.0053 75.9493 52.7818 77.0322C51.7655 77.9313 47.7473 78.7196 43.7554 78.8021C42.4349 78.8298 42.243 79.0225 42.8894 79.6693C45.0959 81.8773 42.0366 83.3054 38.8061 81.5758C37.0589 80.6399 37.7426 79.5307 40.067 79.5307C43.9147 79.5307 40.9905 78.9088 35.5673 78.574C30.2612 78.2468 29.8649 78.3161 29.8649 79.5695C29.8649 80.5428 29.3862 80.9172 28.1412 80.9172C26.7667 80.9172 26.4508 80.6011 26.5824 79.3574C26.7362 77.9029 26.4806 77.7975 22.7984 77.7975C20.5635 77.7975 18.474 77.4218 17.9835 76.931C17.5076 76.4547 15.6142 76.0644 13.7776 76.0644C10.8976 76.0644 10.3295 76.3008 9.65753 77.776C9.22938 78.7168 8.6121 79.3227 8.28718 79.1217C7.96157 78.9199 7.69554 79.2603 7.69554 79.8773C7.69554 80.5102 7.36646 80.7959 6.94039 80.5317C6.49493 80.2565 6.35845 79.1431 6.60716 77.8149C6.83925 76.5767 6.73117 74.8186 6.36746 73.9077C5.72247 72.2945 5.70376 72.3056 5.65319 74.3313ZM59.655 78.1442C59.655 78.9581 60.1877 78.9581 62.0798 78.1442C63.3074 77.6159 63.2485 77.5431 61.5602 77.4995C60.512 77.4731 59.655 77.7629 59.655 78.1442ZM90.311 80.3258C89.2144 83.3942 89.2254 83.6902 90.4378 83.6902C90.9837 83.6902 91.628 84.3141 91.8698 85.0767C92.1165 85.8545 92.918 86.4632 93.6953 86.4632C94.8031 86.4632 94.9909 86.1505 94.6327 84.9034C94.3861 84.0451 94.0327 82.7973 93.8464 82.1304C93.6607 81.4635 93.0836 80.9172 92.564 80.9172C92.0444 80.9172 91.52 80.2392 91.3987 79.41C91.2145 78.1573 91.0309 78.3126 90.311 80.3258ZM47.1847 85.0767C47.1847 85.458 47.6711 85.7699 48.2648 85.7699C48.8585 85.7699 49.1522 85.458 48.9167 85.0767C48.6811 84.6954 48.1955 84.3834 47.8366 84.3834C47.4778 84.3834 47.1847 84.6954 47.1847 85.0767ZM72.6885 89.7097C73.188 89.91 73.7859 89.8851 74.0159 89.6549C74.2459 89.4248 73.8371 89.2612 73.1069 89.291C72.2998 89.3242 72.1356 89.4885 72.6885 89.7097ZM74.8964 89.9703C74.8964 90.3738 75.2082 90.5118 75.5892 90.2761C75.9702 90.0404 76.282 89.7104 76.282 89.5419C76.282 89.3735 75.9702 89.2362 75.5892 89.2362C75.2082 89.2362 74.8964 89.5669 74.8964 89.9703ZM51.3415 96.5153C51.3415 97.2973 51.8278 97.5823 52.9002 97.4304C53.7572 97.3084 54.459 96.8966 54.459 96.5153C54.459 96.134 53.7572 95.7223 52.9002 95.6002C51.8278 95.4484 51.3415 95.7333 51.3415 96.5153ZM67.9685 98.2485C67.9685 98.6298 68.2802 98.9417 68.6613 98.9417C69.0423 98.9417 69.3541 98.6298 69.3541 98.2485C69.3541 97.8672 69.0423 97.5552 68.6613 97.5552C68.2802 97.5552 67.9685 97.8672 67.9685 98.2485ZM78.014 98.2485C77.7784 98.6298 77.9163 98.9417 78.3195 98.9417C78.7227 98.9417 79.0532 98.6298 79.0532 98.2485C79.0532 97.8672 78.916 97.5552 78.7477 97.5552C78.5793 97.5552 78.2495 97.8672 78.014 98.2485ZM95.6802 101.021C95.6802 101.403 95.9732 101.715 96.3321 101.715C96.691 101.715 97.1766 101.403 97.4122 101.021C97.6477 100.64 97.354 100.328 96.7603 100.328C96.1665 100.328 95.6802 100.64 95.6802 101.021ZM0.210608 109.476C0.395584 112.708 0.589566 113.127 1.8068 112.938C2.56887 112.821 4.12766 112.742 5.27076 112.764C44.6144 113.51 70.457 113.515 71.8363 112.776C72.7058 112.31 73.8801 112.107 74.4461 112.324C75.0176 112.544 75.6536 112.251 75.8781 111.666C76.4912 110.068 76.4455 110.03 74.0304 110.102C72.7924 110.14 65.9767 109.465 58.8853 108.604C51.7939 107.743 45.4458 107.248 44.7786 107.504C42.7786 108.272 44.7967 109.921 48.1047 110.222C50.348 110.426 50.0349 110.512 46.7081 110.606C42.5569 110.723 42.4245 110.673 42.5513 109.031C42.6227 108.099 42.3698 107.319 41.9888 107.298C41.6077 107.277 41.296 107.651 41.296 108.127C41.296 109.814 38.9287 109.911 28.7384 108.642C23.0707 107.935 15.3163 107.165 11.5059 106.93C7.69554 106.694 3.54779 106.344 2.28899 106.149L0 105.797L0.210608 109.476ZM0.822345 111.824C0.855599 112.632 1.01979 112.796 1.24079 112.244C1.44101 111.743 1.41607 111.145 1.18606 110.915C0.956054 110.685 0.792555 111.094 0.822345 111.824ZM54.6599 111.406C55.5329 111.781 59.2739 112.232 62.9735 112.407C68.504 112.667 68.8996 112.628 65.1973 112.183C62.7206 111.885 58.9795 111.434 56.8838 111.182C54.1009 110.846 53.5016 110.907 54.6599 111.406Z" fill="#8F8D8D"/>
</g>
<defs>
<clipPath id="clip0_922_6898">
<rect width="113" height="113" fill="white"/>
</clipPath>
</defs>
</svg>
