<svg width="353" height="15" viewBox="0 0 353 15" fill="none" xmlns="http://www.w3.org/2000/svg">
<rect width="9.2087" height="15" fill="#8F8D8D"/>
<rect x="143.246" width="9.2087" height="15" fill="#8F8D8D"/>
<rect x="71.6233" width="9.2087" height="15" fill="#8F8D8D"/>
<rect x="214.87" width="9.2087" height="15" fill="#8F8D8D"/>
<rect x="14.3247" width="9.2087" height="15" fill="#8F8D8D"/>
<rect x="157.571" width="9.2087" height="15" fill="#8F8D8D"/>
<rect x="85.9478" width="9.2087" height="15" fill="#8F8D8D"/>
<rect x="229.194" width="9.2087" height="15" fill="#8F8D8D"/>
<rect x="286.493" width="9.2087" height="15" fill="#8F8D8D"/>
<rect x="28.6492" width="9.2087" height="15" fill="#8F8D8D"/>
<rect x="171.896" width="9.2087" height="15" fill="#8F8D8D"/>
<rect x="100.272" width="9.2087" height="15" fill="#8F8D8D"/>
<rect x="243.519" width="9.2087" height="15" fill="#8F8D8D"/>
<rect x="300.817" width="9.2087" height="15" fill="#8F8D8D"/>
<rect x="343.791" width="9.2087" height="15" fill="#8F8D8D"/>
<rect x="42.9739" width="9.2087" height="15" fill="#8F8D8D"/>
<rect x="186.22" width="9.2087" height="15" fill="#8F8D8D"/>
<rect x="114.597" width="9.2087" height="15" fill="#8F8D8D"/>
<rect x="257.844" width="9.2087" height="15" fill="#8F8D8D"/>
<rect x="315.142" width="9.2087" height="15" fill="#8F8D8D"/>
<rect x="57.2986" width="9.2087" height="15" fill="#8F8D8D"/>
<rect x="200.545" width="9.2087" height="15" fill="#8F8D8D"/>
<rect x="128.922" width="9.2087" height="15" fill="#8F8D8D"/>
<rect x="272.168" width="9.2087" height="15" fill="#8F8D8D"/>
<rect x="329.467" width="9.2087" height="15" fill="#8F8D8D"/>
</svg>
