<svg fill="#000000" height="800px" width="800px" version="1.1" id="Capa_1" xmlns="http://www.w3.org/2000/svg" viewBox="0 0 297 297">
    <g>
        <path d="M253.27,152.18c-2.4,0-4.7,0.17-6.9,0.43c-1.13,0.1-2.27,0.14-3.38,0.14c-10.43,0-19.69-4.26-24.16-11.12
        c-3.94-6.06-4.03-13.78-0.25-22.33l0.24-0.54c5.27-11.92,12.49-28.23,12.49-43.17c0-34.28-27.83-62.17-62.02-62.17
        c-34.49,0-61.5,26.54-61.5,60.41c0,0.06,0.00,0.12,0.00,0.19c0.05,2.8,0.17,10.53,0.12,12.71c-0.15,7.69-7.69,14.2-16.46,14.2
        c-5.12,0-9.17-1.7-12.76-5.37c-7.83-8-19.22-12.77-30.48-12.77c-24.66,0-44.73,20.11-44.73,44.82c0,22.16,15.41,39.54,36.5,43.74
        c2.98,0.59,5.99,2.66,5.99,5.48c0,2.2-1.96,4.52-5.83,6.9c-13.85,8.52-22.12,26.24-22.12,47.4c0,34.28,27.82,62.17,62.02,62.17
        c20.66,0,39.32-9.47,49.92-25.32c0.82-1.23,2.28-2.06,3.62-2.06c2.24,0,4.72,2.51,6.64,6.73c2.33,5.11,9.41,20.65,26.3,20.65
        c8.11,0,16.17-3.78,21.01-10.3c4.87-5.72,6.92-12.7,5.79-19.66c-0.87-5.36-2.2-9.2-3.26-12.28c-1.09-3.15-1.81-5.24-1.91-8.36
        c-0.18-5.44,1.8-10.58,5.56-14.46c3.58-3.69,8.24-5.73,13.15-5.73c4.36,0,8.16,1.28,12.33,4.16c0.97,0.67,1.94,1.35,2.91,2.03
        c7.81,5.51,17.52,12.37,30.36,12.37c24.66,0,44.73-20.11,44.73-44.82C297.04,172.28,277.41,152.18,253.27,152.18z"/>
    </g>
</svg>